*
*
G04 PADS 9.5 Build Number: 522968 generated Gerber (RS-274-X) file*
G04 PC Version=2.1*
*
%IN "kimchicon_final.pcb"*%
*
%MOIN*%
*
%FSLAX35Y35*%
*
*
*
*
G04 PC Standard Apertures*
*
*
G04 Thermal Relief Aperture macro.*
%AMTER*
1,1,$1,0,0*
1,0,$1-$2,0,0*
21,0,$3,$4,0,0,45*
21,0,$3,$4,0,0,135*
%
*
*
G04 Annular Aperture macro.*
%AMANN*
1,1,$1,0,0*
1,0,$2,0,0*
%
*
*
G04 Odd Aperture macro.*
%AMODD*
1,1,$1,0,0*
1,0,$1-0.005,0,0*
%
*
*
G04 PC Custom Aperture Macros*
*
*
*
*
*
*
G04 PC Aperture Table*
*
%ADD010C,0.001*%
%ADD011C,0.00787*%
%ADD051C,0.06299*%
%ADD053O,0.04331X0.07087*%
%ADD059C,0.03937*%
%ADD060C,0.05118*%
%ADD061C,0.06693*%
%ADD062C,0.09055*%
%ADD065C,0.06*%
%ADD066O,0.07874X0.1378*%
%ADD067C,0.012*%
%ADD068C,0.01969*%
%ADD069C,0.02362*%
%ADD070C,0.01181*%
%ADD071C,0.015*%
%ADD091C,0.04724*%
%ADD094O,0.59055X0.07874*%
*
*
*
*
G04 PC Circuitry*
G04 Layer Name kimchicon_final.pcb - circuitry*
%LPD*%
*
*
G04 PC Custom Flashes*
G04 Layer Name kimchicon_final.pcb - flashes*
%LPD*%
*
*
G04 PC Circuitry*
G04 Layer Name kimchicon_final.pcb - circuitry*
%LPD*%
*
G54D10*
G54D11*
G01X389764Y393701D02*
X413386Y374016D01*
X433071Y393701*
X551181*
X570866Y374016*
X649606*
X669291Y393701*
Y590551*
X649606Y610236*
Y846457*
X629921Y866142*
X570866*
X551181Y846457*
X413386*
X389764Y826772*
Y393701*
G54D51*
X417961Y803811D03*
X407961D03*
X407646Y782827D03*
X417646D03*
X407646Y772827D03*
X417646D03*
X407646Y762827D03*
X417646D03*
X407646Y752827D03*
X417646D03*
X407646Y731646D03*
X417646D03*
X407646Y721646D03*
X417646D03*
X407646Y711646D03*
X417646D03*
X407646Y701646D03*
X417646D03*
X407646Y680465D03*
X417646D03*
X407646Y670465D03*
X417646D03*
X407646Y660465D03*
X417646D03*
X407646Y650465D03*
X417646D03*
X537961Y583811D03*
X527961D03*
X517961D03*
X507961D03*
X487961Y793811D03*
X497961D03*
X507961D03*
X517961D03*
X527961D03*
X537961D03*
X547961D03*
X557961D03*
X513780Y534252D03*
X533465D03*
X633512Y781213D03*
X623512D03*
X613512D03*
X643701Y528701D03*
Y518701D03*
X633701Y528701D03*
Y518701D03*
X623701Y528701D03*
Y518701D03*
X613701Y528701D03*
Y518701D03*
X643701Y558701D03*
Y548701D03*
X633701Y558701D03*
Y548701D03*
X623701Y558701D03*
Y548701D03*
X613701Y558701D03*
Y548701D03*
G54D53*
X624457Y859953D03*
X596110D03*
G54D59*
X446726Y477841D03*
X583137Y383340D03*
X603137D03*
X623137D03*
X643137D03*
X403137Y403340D03*
Y423340D03*
Y443340D03*
X439764Y454528D03*
X403137Y463340D03*
X456693Y477480D03*
X523137Y463340D03*
X543137D03*
X643137D03*
X423137Y483340D03*
X487598Y483465D03*
X523137Y483340D03*
X643137D03*
X423137Y503340D03*
X443137D03*
X563189Y516535D03*
X643137Y503340D03*
X443137Y523340D03*
X523137D03*
X563189Y536024D03*
X411417Y548425D03*
X562598Y557874D03*
X443137Y563340D03*
X423137Y583340D03*
X416142Y599803D03*
X443137Y583340D03*
X484646Y593898D03*
X443137Y603340D03*
X465157Y622244D03*
X473425Y621063D03*
X534843Y606890D03*
X422638Y634646D03*
X443137Y623340D03*
X441535Y634646D03*
X474606Y632874D03*
X497638Y636850D03*
X463137Y643340D03*
X439764Y681299D03*
X444488Y670079D03*
X543701Y665354D03*
X551378Y671260D03*
X627559Y671850D03*
X403150Y688976D03*
X412598Y695472D03*
X478740Y687795D03*
X401969Y742717D03*
X488189Y758661D03*
X567323Y751575D03*
X593898Y742717D03*
X541929Y775197D03*
X410236Y792323D03*
X603137Y783340D03*
X443137Y803340D03*
X456583Y810189D03*
X609024Y813339D03*
X403137Y823340D03*
X423137D03*
X603137D03*
X563137Y843340D03*
X583137D03*
X623137D03*
G54D60*
X457305Y467262D03*
G54D61*
X506150Y482394D03*
Y462709D03*
X555362Y482394D03*
Y462709D03*
X580953Y482394D03*
Y462709D03*
X630165Y482394D03*
Y462709D03*
G54D62*
X530756Y490268D03*
Y454835D03*
X605559Y490268D03*
Y454835D03*
G54D65*
X623110Y680748D03*
X613110D03*
X623110Y690748D03*
X613110D03*
X623110Y700748D03*
X613110D03*
X429055Y823307D03*
X438898D03*
X446772D03*
X456614D03*
G54D66*
X415276Y833976D03*
X470394D03*
G54D67*
X473425Y442126D02*
X459843D01*
X454528Y447441*
Y454331*
X451378Y457480*
Y480512*
X447244Y484646*
Y593386*
X432087Y459843D02*
Y512402D01*
X478110Y443465D02*
X474134Y447441D01*
X470472*
X464567Y453346*
Y472244*
X461614Y475197*
Y492323*
X449803Y504134*
Y608661*
X453346Y612205*
Y626378*
X466929Y639961*
X496268Y446614D02*
X481102D01*
X473425Y454291*
Y489961*
X469291Y494094*
Y497638*
X455709Y511220*
Y595079*
X506150Y462709D02*
X480512D01*
X476969Y466252*
Y495866*
X459252Y513583*
Y622835*
X466929Y630512*
X469921Y482523D02*
Y487008D01*
X465157Y491772*
Y494685*
X452165Y507677*
Y606890*
X456890Y611614*
Y625787*
X471063Y639961*
X489961*
X598622Y511811D02*
X628150D01*
X633701Y517362*
Y518701*
X613701D02*
X613504Y518898D01*
X587402*
X513780Y534252D02*
X522441D01*
X525394Y537205*
Y557874*
X512992Y570276*
Y592717*
X618110Y542315D02*
X601465D01*
X601307Y542362*
X595079*
Y542520*
X590945*
X618110Y542315D02*
X623701Y547906D01*
Y548701*
X633701Y528701D02*
Y529528D01*
X627205Y536024*
X583858*
X643701Y528701D02*
Y535236D01*
X639370Y539567*
X602756*
X613701Y548701D02*
X613386Y549016D01*
X595079*
X422567Y593276D02*
X404409D01*
X398000Y599685*
Y712000*
X407646Y721646*
X422567Y593276D02*
X422677Y593386D01*
Y617323*
X432126Y587087D02*
Y636850D01*
X432016Y636961*
X563780Y585039D02*
X598622D01*
X591386Y597276D02*
X633890D01*
X634055Y597441*
X551378Y613976D02*
X615748D01*
X405669Y638110D02*
X412598D01*
X403150Y634961D02*
X401260Y636850D01*
Y672756*
X404409Y675906*
X413087*
X417646Y680465*
X440835Y642000D02*
X409969D01*
X514173Y632874D02*
Y642913D01*
X521850Y633465D02*
X528937Y640551D01*
X522441Y639370D02*
X528937Y645866D01*
X551378Y629921D02*
X627559D01*
X551378Y637598D02*
X631102D01*
X417646Y650465D02*
X407646Y660465D01*
X417646D02*
Y661220D01*
X463945*
X467402Y664677*
X520165*
X449654Y645150D02*
X411858D01*
Y646252*
X407646Y650465*
X449654Y645150D02*
X449780Y645276D01*
X455709*
X447244Y658268D02*
X468661D01*
X471811Y661417*
X510866*
X487598Y651181D02*
X487331Y651449D01*
X474850*
X470441Y655858*
X424457*
X476740Y655228D02*
X520205D01*
X522724Y657748*
X484646Y648819D02*
X452165D01*
X519488Y647047D02*
X489961D01*
X522835Y650709D02*
X528394Y656268D01*
Y656488*
X517126Y651181D02*
X487598D01*
X551378Y653543D02*
X559646D01*
X551378Y645866D02*
X572047D01*
X559646Y653543D02*
X612205D01*
X559646Y656496D02*
X612205D01*
X567323Y660039D02*
X624016D01*
X612205Y656496D02*
X620472D01*
X424457Y670346D02*
Y710661D01*
X427606Y713811*
Y727039*
X435795Y676016D02*
Y706882D01*
X440835Y675386D02*
X459732Y694283D01*
X432016Y670346D02*
Y725150D01*
X466661Y667197D02*
X522094D01*
X523984Y669087*
X530283*
X466661Y667197D02*
X464142Y669717D01*
X449654*
X459732Y665937D02*
X412173D01*
X407646Y670465*
X497638Y676575D02*
X461622D01*
X507606Y669717D02*
X468551D01*
X466031Y672236*
X459102*
X454693Y676646*
X507606Y669717D02*
X468551D01*
X468189Y670079*
X492913*
X527756Y672441D02*
X509449D01*
X508858Y673031*
X480512*
X520165Y681055D02*
X533071D01*
X533315Y681299*
X538976*
X542520Y672441D02*
X533071D01*
X542520Y680709D02*
X572047D01*
X575000Y683661*
Y701378*
X592717Y675394D02*
X506339D01*
X498787Y682945*
Y703102*
X596850Y677756D02*
X596701Y677906D01*
X510126*
X501307Y686724*
Y705622*
X613110Y680748D02*
X587953D01*
X583858Y684843*
X427606Y682945D02*
Y708772D01*
X417646Y701646D02*
X413189D01*
X412598Y702236*
Y716598*
X417646Y721646*
X443354Y694283D02*
Y766094D01*
X439575Y687984D02*
Y704992D01*
X452173Y696173D02*
Y753496D01*
X455953Y701213D02*
Y767984D01*
X452173Y771764*
Y776803*
X450913Y778063*
X469181Y701213D02*
X462252Y707512D01*
Y749717*
X486189Y699323D02*
Y704992D01*
X525354Y686614D02*
Y692913D01*
X529134Y696693*
Y699843*
X538976Y693701D02*
X566732D01*
X570276Y697244*
Y718504*
Y684843D02*
X536024D01*
X589764Y686024D02*
X619291D01*
X623110Y689843*
Y690748*
X589764Y686024D02*
X588583Y687205D01*
X572047Y688386D02*
X546063D01*
X583858Y684843D02*
Y732087D01*
X606299Y701378D02*
X606504Y701583D01*
Y762591*
X602165Y766929*
X578386*
X564299Y781016*
X500677*
X497961Y783732*
Y793811*
X623110Y690748D02*
X617520Y696929D01*
Y764567*
X611614Y770472*
X578543*
X564961Y784055*
X517717*
X507961Y793811*
X417646Y711646D02*
X419772D01*
X424457Y716331*
Y730819*
X467921Y710031D02*
X495638D01*
X498787Y713181*
X459102Y702472D02*
Y771134D01*
X457213Y773024*
Y778063*
X454063Y781213*
X469811Y706882D02*
X471071Y708142D01*
X498157*
X500047Y710031*
X465402Y712551D02*
X494378D01*
X496898Y715071*
X535323*
X507606Y702472D02*
X535953D01*
X513906Y717591D02*
X506346D01*
X532173Y711921D02*
X505087D01*
X503827Y713181*
X498787*
X535323Y708772D02*
X509496D01*
X508236Y710031*
X500047*
X535953Y702472D02*
X507606D01*
X556693Y706102D02*
X505236D01*
X503827Y707512*
X620472Y720866D02*
X632961D01*
X431496Y737118D02*
Y817638D01*
X433386Y819528*
Y827717*
X435906Y830236*
X461102*
X475480Y733969D02*
Y738866D01*
X476378Y739764*
Y779331*
X479260Y741535D02*
Y785165D01*
X479331Y785236*
X487008Y727953D02*
Y739173D01*
X506346Y732079D02*
X560520D01*
X525354Y735748D02*
X533543D01*
X542362Y744567*
X542992*
X526504Y724520D02*
X506346D01*
X486378Y744488*
X485827*
X514535Y734598D02*
Y771764D01*
X520205Y734598D02*
Y771764D01*
X532913Y727559D02*
X517055D01*
X560520Y732079D02*
X506346D01*
X621654Y724409D02*
X630441D01*
X425087Y744677D02*
X415795D01*
X407646Y752827*
X417646D02*
X421937D01*
X424457Y755346*
Y770504*
X428236Y774283*
X463976Y757480D02*
Y788780D01*
X511386Y752866D02*
X501307D01*
X511386Y760425D02*
X499417D01*
X487961Y771882*
Y793811*
X532803Y753496D02*
Y759165D01*
X527764Y764205*
Y771134*
X524614Y774283*
X500677*
X487961Y793811D02*
Y803260D01*
X491110Y806409*
X527961Y793811D02*
X527764Y794008D01*
Y814173*
X527756*
X557961Y793811D02*
Y798260D01*
X549811Y806409*
X533433*
X588866Y805150D02*
X558630D01*
X552331Y811449*
X480827Y823937D02*
X467402D01*
X461102Y830236*
X480827Y823937D02*
X481102Y824213D01*
G54D68*
X515354Y546063D02*
Y551378D01*
X500591Y566142*
Y599213*
X502953Y601575*
Y625787*
X528346*
X530709Y628150*
Y634055*
X536024Y639370*
Y647047*
X538386Y649409*
Y655906*
X543701Y661220*
Y665354*
X465157Y622244D02*
X468701Y625787D01*
X502953*
Y626378D02*
X528937D01*
X530709Y628150*
Y634055*
X536024Y639370*
Y647047*
X538386Y649409*
Y655906*
X543701Y661220*
Y665354*
X497638Y626378D02*
X502953D01*
X528937*
X530709Y628150*
X502953Y625787D02*
X528346D01*
X530709Y628150*
Y634055*
X536024Y639370*
Y647047*
X538386Y649409*
Y655906*
X543701Y661220*
Y665354*
X502953Y625787D02*
X528346D01*
X530709Y628150*
X502953Y625787D02*
Y626378D01*
X497638*
X530709Y628150D02*
Y634055D01*
X536024Y639370*
Y647047*
X538386Y649409*
Y655906*
X543701Y661220*
Y665354*
X551378Y671260D02*
X617520D01*
X623110Y676850*
Y680748*
X456583Y810189D02*
X464661Y818268D01*
X567323*
X570866Y821528*
X581307*
X609024Y813339D02*
X589496D01*
X581307Y821528*
G54D69*
X473425Y442126D03*
X432087Y459843D03*
X478110Y443465D03*
X496268Y446614D03*
X469921Y482523D03*
X432087Y512402D03*
X587402Y518898D03*
X598622Y511811D03*
X432016Y541843D03*
X583858Y536024D03*
X602756Y539567D03*
X515354Y546063D03*
X590945Y542520D03*
X595079Y549016D03*
X422677Y593386D03*
X447244D03*
X432126Y587087D03*
X455709Y595079D03*
X512992Y592717D03*
X563780Y585039D03*
X591386Y597276D03*
X598622Y585039D03*
X634055Y597441D03*
X422677Y617323D03*
X551378Y613976D03*
X615748D03*
X405669Y638110D03*
X403150Y634961D03*
X409969Y642000D03*
X412598Y638110D03*
X440835Y642000D03*
X432016Y636961D03*
X466929Y639961D03*
Y630512D03*
X489961Y639961D03*
X497638Y626378D03*
X514173Y632874D03*
X521850Y633465D03*
X528937Y640551D03*
X522441Y639370D03*
X551378Y629921D03*
Y637598D03*
X627559Y629921D03*
X631102Y637598D03*
X424457Y655858D03*
X426457Y650079D03*
X447244Y658268D03*
X455709Y645276D03*
X452165Y648819D03*
X489961Y647047D03*
X487598Y651181D03*
X476740Y655228D03*
X484646Y648819D03*
X510866Y661417D03*
X519488Y647047D03*
X514173Y642913D03*
X522835Y650709D03*
X528394Y656488D03*
X528937Y645866D03*
X517126Y651181D03*
X522724Y657748D03*
X551378Y653543D03*
Y645866D03*
X559646Y656496D03*
X567323Y660039D03*
X572047Y645866D03*
X620472Y656496D03*
X624016Y660039D03*
X612205Y653543D03*
X424457Y670346D03*
X435795Y676016D03*
X449654Y669717D03*
X440835Y675386D03*
X432016Y670346D03*
X461622Y676575D03*
X466661Y667197D03*
X454693Y676646D03*
X459732Y665937D03*
X480512Y673031D03*
X492913Y670079D03*
X497638Y676575D03*
X507606Y669717D03*
X527756Y672441D03*
X530283Y669087D03*
X520165Y681055D03*
Y664677D03*
X533071Y672441D03*
X542520D03*
Y680709D03*
X538976Y681299D03*
X592717Y675394D03*
X596850Y677756D03*
X427606Y682945D03*
X443354Y694283D03*
X439575Y687984D03*
X452173Y696173D03*
X455953Y701213D03*
X469181D03*
X459732Y694283D03*
X486189Y699323D03*
X492323Y683071D03*
X525354Y686614D03*
X529134Y699843D03*
X546063Y688386D03*
X536024Y684843D03*
X538976Y693701D03*
X570276Y684843D03*
X575000Y701378D03*
X572047Y688386D03*
X588583Y687205D03*
X583858Y684843D03*
X606299Y701378D03*
X427606Y708772D03*
X435795Y706882D03*
X439575Y704992D03*
X447244Y720000D03*
X467921Y710031D03*
X459102Y702472D03*
X469811Y706882D03*
X465402Y712551D03*
X486189Y704992D03*
X506346Y717591D03*
X498787Y703102D03*
X501307Y705622D03*
X503827Y707512D03*
X507606Y702472D03*
X513906Y717591D03*
X532173Y711921D03*
X535323Y708772D03*
Y715071D03*
X551181Y712441D03*
X535953Y702472D03*
X570276Y718504D03*
X556693Y706102D03*
X620472Y720866D03*
X632961D03*
X427606Y727039D03*
X424457Y730819D03*
X431496Y737118D03*
X432016Y725150D03*
X475480Y733969D03*
X479260Y741535D03*
X487008Y739173D03*
Y727953D03*
X506346Y732079D03*
X525354Y735748D03*
X526504Y724520D03*
X514535Y734598D03*
X520205D03*
X517055Y727559D03*
X532913D03*
X560520Y732079D03*
X557480Y735748D03*
X583858Y732087D03*
X630441Y724409D03*
X621654D03*
X425087Y744677D03*
X452173Y753496D03*
X462252Y749717D03*
X463976Y757480D03*
X485827Y744488D03*
X501307Y752866D03*
X511386D03*
Y760425D03*
X542992Y744567D03*
X532803Y753496D03*
X428236Y774283D03*
X443354Y766094D03*
X450913Y778063D03*
X454063Y781213D03*
X467402Y778583D03*
X476378Y779331D03*
X500677Y774283D03*
X514535Y771764D03*
X520205D03*
X524094Y767244D03*
X629921Y771654D03*
X463976Y788780D03*
X479331Y785236D03*
X468031Y814488D03*
X491110Y806409D03*
X527756Y814173D03*
X533433Y806409D03*
X552331Y811449D03*
X588866Y805150D03*
X481102Y824213D03*
G54D70*
X636071Y462709D02*
G75*
G03X636071I-5906J0D01*
G01Y482394D02*
G03X636071I-5906J0D01*
G01X612646Y454835D02*
G03X612646I-7087J0D01*
G01Y490268D02*
G03X612646I-7087J0D01*
G01X561268Y462709D02*
G03X561268I-5906J0D01*
G01Y482394D02*
G03X561268I-5906J0D01*
G01X537843Y454835D02*
G03X537843I-7087J0D01*
G01Y490268D02*
G03X537843I-7087J0D01*
G01X435756Y541843D02*
G03X435756I-3740J0D01*
G01X512055Y482394D02*
G03X512055I-5905J0D01*
G01X586858Y462709D02*
G03X586858I-5905J0D01*
G01Y482394D02*
G03X586858I-5905J0D01*
G01X664764Y394190D02*
Y590062D01*
G03X664591Y590480I-591J-0*
G01X645079Y609992*
Y845967*
G03X644906Y846385I-591J0*
G01X630189Y861102*
G03X629181Y860684I-417J-418*
G01Y858575*
X623914Y853882D02*
G03X629181Y858575I543J4693D01*
G01X623914Y853882D02*
G03X623416Y852890I-67J-587D01*
G01X620461Y854400D02*
G03X623416Y852890I-630J-4880D01*
G01X620461Y854400D02*
G03X620972Y855385I75J586D01*
G01X619732Y858575D02*
G03X620972Y855385I4725J-0D01*
G01X619732Y858575D02*
Y861024D01*
G03X619142Y861614I-590J-0*
G01X601425*
G03X600835Y861024I0J-590*
G01Y858575*
X599595Y855385D02*
G03X600835Y858575I-3485J3190D01*
G01X599595Y855385D02*
G03X600106Y854401I436J-399D01*
G01X597151Y852890D02*
G03X600106Y854400I3585J-3370D01*
G01X597151Y852890D02*
G03X596653Y853882I-431J405D01*
G01X591386Y858575D02*
G03X596653Y853882I4724J-0D01*
G01X591386Y858575D02*
Y861024D01*
G03X590795Y861614I-591J-0*
G01X571355*
G03X570938Y861441I0J-590*
G01X551426Y841929*
X475941*
G03X475479Y840971I0J-590*
G01X476890Y836929D02*
G03X475479Y840971I-6496J0D01*
G01X476890Y836929D02*
Y831024D01*
X476125Y827965D02*
G03X476890Y831024I-5731J3059D01*
G01X476125Y827965D02*
G03X476645Y827096I520J-278D01*
G01X478517*
G03X478869Y827213I-0J591*
G01X484500Y822649D02*
G03X478869Y827213I-3398J1564D01*
G01X484500Y822649D02*
G03X485036Y821811I536J-247D01*
G01X490810*
G03X491241Y822805I0J591*
G01X495984Y833740D02*
G03X491241Y822805I0J-6496D01*
G01X495984Y833740D02*
X547165D01*
X551908Y822805D02*
G03X547165Y833740I-4743J4439D01*
G01X551908Y822805D02*
G03X552339Y821811I431J-403D01*
G01X565711*
G03X566110Y821967I-0J591*
G01X568467Y824135*
X570866Y825071D02*
G03X568467Y824135I0J-3543D01*
G01X570866Y825071D02*
X581307D01*
X583813Y824033D02*
G03X581307Y825071I-2506J-2505D01*
G01X583813Y824033D02*
X590791Y817055D01*
G03X591208Y816882I417J417*
G01X606006*
G03X606354Y816995I-0J590*
G01Y809682D02*
G03Y816995I2670J3657D01*
G01Y809682D02*
G03X606006Y809795I-348J-477D01*
G01X590386*
G03X590179Y808652I0J-590*
G01X586995Y801911D02*
G03X590179Y808652I1871J3239D01*
G01X586995Y801911D02*
G03X586699Y801991I-296J-511D01*
G01X560123*
G03X559706Y800982I0J-591*
G01X560194Y800494*
X561071Y798812D02*
G03X560194Y800494I-3110J-552D01*
G01X561071Y798812D02*
G03X561306Y798437I582J103D01*
G01X559681Y788368D02*
G03X561306Y798437I-1720J5443D01*
G01X559681Y788368D02*
G03X559859Y787214I178J-563D01*
G01X564961*
X567194Y786289D02*
G03X564961Y787214I-2233J-2234D01*
G01X567194Y786289D02*
X579679Y773804D01*
G03X580096Y773632I417J418*
G01X611614*
X613848Y772706D02*
G03X611614Y773632I-2234J-2234D01*
G01X613848Y772706D02*
X619753Y766801D01*
X620679Y764567D02*
G03X619753Y766801I-3159J-0D01*
G01X620679Y764567D02*
Y728723D01*
G03X621322Y728135I590J0*
G01X623525Y727648D02*
G03X621322Y728135I-1871J-3239D01*
G01X623525Y727648D02*
G03X623820Y727569I295J511D01*
G01X628274*
G03X628570Y727648I0J590*
G01X634165Y724754D02*
G03X628570Y727648I-3724J-345D01*
G01X634165Y724754D02*
G03X634509Y724271I588J54D01*
G01X631089Y717628D02*
G03X634509Y724271I1872J3238D01*
G01X631089Y717628D02*
G03X630794Y717707I-295J-511D01*
G01X622639*
G03X622344Y717628I0J-590*
G01X621161Y717190D02*
G03X622344Y717628I-689J3676D01*
G01X621161Y717190D02*
G03X620679Y716609I108J-581D01*
G01Y706616*
G03X621446Y706052I590J-0*
G01X626347Y696228D02*
G03X621446Y706052I-3237J4520D01*
G01X626347Y696228D02*
G03Y695268I343J-480D01*
G01Y686228D02*
G03Y695268I-3237J4520D01*
G01Y686228D02*
G03Y685268I343J-480D01*
G01X626792Y676583D02*
G03X626347Y685268I-3682J4165D01*
G01X626792Y676583D02*
G03X626601Y676242I391J-443D01*
G01X625616Y674345D02*
G03X626601Y676242I-2506J2505D01*
G01X625616Y674345D02*
X620025Y668754D01*
X617520Y667717D02*
G03X620025Y668754I-0J3543D01*
G01X617520Y667717D02*
X554396D01*
G03X554047Y667603I-0J-591*
G01X548875Y667487D02*
G03X554047Y667603I2503J3773D01*
G01X548875Y667487D02*
G03X547990Y666805I-326J-492D01*
G01X547358Y662685D02*
G03X547990Y666805I-3657J2669D01*
G01X547358Y662685D02*
G03X547244Y662337I477J-348D01*
G01Y661220*
X546206Y658715D02*
G03X547244Y661220I-2505J2505D01*
G01X546206Y658715D02*
X542102Y654611D01*
G03X541929Y654193I418J-418*
G01Y649409*
X540891Y646904D02*
G03X541929Y649409I-2505J2505D01*
G01X540891Y646904D02*
X539740Y645753D01*
G03X539567Y645335I418J-418*
G01Y639370*
X538529Y636865D02*
G03X539567Y639370I-2505J2505D01*
G01X538529Y636865D02*
X534425Y632760D01*
G03X534252Y632343I418J-417*
G01Y628150*
X533214Y625644D02*
G03X534252Y628150I-2505J2506D01*
G01X533214Y625644D02*
X531443Y623872D01*
X530852Y623282*
X528346Y622244D02*
G03X530852Y623282I0J3543D01*
G01X528346Y622244D02*
X507087D01*
G03X506496Y621654I-0J-590*
G01Y601575*
X505458Y599069D02*
G03X506496Y601575I-2505J2506D01*
G01X505458Y599069D02*
X504307Y597918D01*
G03X504134Y597500I417J-418*
G01Y589215*
G03X505028Y588709I590J0*
G01X509122Y589400D02*
G03X505028Y588709I-1161J-5589D01*
G01X509122Y589400D02*
G03X509833Y589978I120J578D01*
G01Y590550*
G03X509754Y590845I-591J-0*
G01X516230D02*
G03X509754I-3238J1872D01*
G01X516230D02*
G03X516151Y590550I512J-295D01*
G01Y589991*
G03X516856Y589412I591J0*
G01X522492Y587283D02*
G03X516856Y589412I-4531J-3472D01*
G01X522492Y587283D02*
G03X523430I469J360D01*
G01X532492D02*
G03X523430I-4531J-3472D01*
G01X532492D02*
G03X533430I469J360D01*
G01Y580339D02*
G03Y587283I4531J3472D01*
G01Y580339D02*
G03X532492I-469J-359D01*
G01X523430D02*
G03X532492I4531J3472D01*
G01X523430D02*
G03X522492I-469J-359D01*
G01X516856Y578210D02*
G03X522492Y580339I1105J5601D01*
G01X516856Y578210D02*
G03X516151Y577631I-114J-579D01*
G01Y571829*
G03X516324Y571411I591J-0*
G01X527628Y560108*
X528553Y557874D02*
G03X527628Y560108I-3159J0D01*
G01X528553Y557874D02*
Y538835D01*
G03X529548Y538406I590J0*
G01X527778Y533750D02*
G03X529548Y538406I5687J502D01*
G01X527778Y533750D02*
G03X526772Y534116I-588J-52D01*
G01X524675Y532018*
X522441Y531093D02*
G03X524675Y532018I-0J3159D01*
G01X522441Y531093D02*
X518841D01*
G03X518367Y530854I0J-591*
G01Y537650D02*
G03Y530854I-4587J-3398D01*
G01Y537650D02*
G03X518841Y537411I474J352D01*
G01X520888*
G03X521305Y537584I-0J591*
G01X522062Y538340*
G03X522235Y538758I-418J418*
G01Y556321*
G03X522062Y556738I-591J-0*
G01X510758Y568042*
X509833Y570276D02*
G03X510758Y568042I3159J-0D01*
G01X509833Y570276D02*
Y577644D01*
G03X509122Y578222I-591J-0*
G01X505028Y578913D02*
G03X509122Y578222I2933J4898D01*
G01X505028Y578913D02*
G03X504134Y578407I-304J-506D01*
G01Y567854*
G03X504307Y567436I590J0*
G01X517860Y553883*
X518898Y551378D02*
G03X517860Y553883I-3544J-0D01*
G01X518898Y551378D02*
Y547354D01*
G03X518925Y547178I590J-0*
G01X511784D02*
G03X518924I3570J-1115D01*
G01X511784D02*
G03X511811Y547354I-564J176D01*
G01Y549666*
G03X511638Y550083I-591J-0*
G01X498085Y563636*
X497047Y566142D02*
G03X498085Y563636I3544J-0D01*
G01X497047Y566142D02*
Y599213D01*
X498085Y601718D02*
G03X497047Y599213I2506J-2505D01*
G01X498085Y601718D02*
X499236Y602870D01*
G03X499409Y603287I-417J417*
G01Y621654*
G03X498819Y622244I-590J-0*
G01X470413*
G03X469996Y622071I0J-590*
G01X469797Y621872*
G03X469631Y621546I417J-417*
G01X463250Y618138D02*
G03X469631Y621546I1907J4106D01*
G01X463250Y618138D02*
G03X462411Y617602I-248J-536D01*
G01Y515136*
G03X462584Y514718I591J-0*
G01X479202Y498100*
X480128Y495866D02*
G03X479202Y498100I-3159J0D01*
G01X480128Y495866D02*
Y467805D01*
G03X480301Y467388I590J0*
G01X481647Y466041*
G03X482065Y465868I418J417*
G01X500845*
G03X501327Y466117I-0J590*
G01Y459300D02*
G03Y466117I4823J3409D01*
G01Y459300D02*
G03X500845Y459550I-482J-341D01*
G01X480512*
X478278Y460475D02*
G03X480512Y459550I2234J2234D01*
G01X478278Y460475D02*
X477592Y461160D01*
G03X476584Y460743I-417J-417*
G01Y455844*
G03X476757Y455427I591J0*
G01X482238Y449946*
G03X482656Y449773I418J418*
G01X494101*
G03X494396Y449852I-0J591*
G01Y443376D02*
G03Y449852I1872J3238D01*
G01Y443376D02*
G03X494101Y443455I-295J-511D01*
G01X482399*
G03X481814Y442946I0J-590*
G01X476937Y439913D02*
G03X481814Y442946I1173J3552D01*
G01X476937Y439913D02*
G03X476298Y439731I-186J-560D01*
G01X471554Y438888D02*
G03X476298Y439731I1871J3238D01*
G01X471554Y438888D02*
G03X471258Y438967I-296J-512D01*
G01X459843*
X457609Y439892D02*
G03X459843Y438967I2234J2234D01*
G01X457609Y439892D02*
X452294Y445207D01*
X451368Y447441D02*
G03X452294Y445207I3160J-0D01*
G01X451368Y447441D02*
Y452778D01*
G03X451196Y453195I-590J-0*
G01X449144Y455247*
X448219Y457480D02*
G03X449144Y455247I3159J0D01*
G01X448219Y457480D02*
Y472803D01*
G03X447524Y473384I-591J-0*
G01X444569Y481821D02*
G03X447524Y473384I2157J-3980D01*
G01X444569Y481821D02*
G03X444753Y482703I-282J519D01*
G01X444085Y484646D02*
G03X444753Y482703I3159J-0D01*
G01X444085Y484646D02*
Y591219D01*
G03X444006Y591514I-591J-0*
G01X446216Y596982D02*
G03X444006Y591514I1028J-3596D01*
G01X446216Y596982D02*
G03X446644Y597550I-162J568D01*
G01Y608661*
X447569Y610895D02*
G03X446644Y608661I2234J-2234D01*
G01X447569Y610895D02*
X450014Y613340D01*
G03X450187Y613758I-417J418*
G01Y626378*
X451113Y628612D02*
G03X450187Y626378I2233J-2234D01*
G01X451113Y628612D02*
X463163Y640662D01*
G03X463316Y640927I-417J418*
G01X469205Y642929D02*
G03X463316Y640927I-2276J-2968D01*
G01X469205Y642929D02*
G03X469800Y642856I359J469D01*
G01X471063Y643120D02*
G03X469800Y642856I-0J-3159D01*
G01X471063Y643120D02*
X487200D01*
G03X487577Y644165I0J590*
G01X486764Y645106D02*
G03X487577Y644165I3197J1941D01*
G01X486764Y645106D02*
G03X486039Y645348I-505J-306D01*
G01X482774Y645581D02*
G03X486039Y645348I1872J3238D01*
G01X482774Y645581D02*
G03X482479Y645660I-295J-512D01*
G01X460034*
G03X459445Y645097I0J-591*
G01X453837Y642037D02*
G03X459445Y645097I1872J3239D01*
G01X453837Y642037D02*
G03X453542Y642117I-295J-511D01*
G01X450617*
G03X450466Y642097I0J-591*
G01X449654Y641991D02*
G03X450466Y642097I-0J3159D01*
G01X449654Y641991D02*
X445124D01*
G03X444539Y641482I-0J-591*
G01X438963Y638762D02*
G03X444539Y641482I1872J3238D01*
G01X438963Y638762D02*
G03X438668Y638841I-295J-512D01*
G01X436150*
G03X435586Y638075I-0J-591*
G01X435349Y635265D02*
G03X435586Y638074I-3333J1696D01*
G01X435349Y635265D02*
G03X435285Y634997I527J-268D01*
G01Y589254*
G03X435364Y588958I591J-0*
G01X428888D02*
G03X435364I3238J-1871D01*
G01X428888D02*
G03X428967Y589254I-512J296D01*
G01Y634613*
G03X428873Y634933I-591J0*
G01X428445Y638074D02*
G03X428873Y634933I3571J-1113D01*
G01X428445Y638075D02*
G03X427882Y638841I-563J175D01*
G01X416927*
G03X416337Y638231I-0J-591*
G01X410727Y634872D02*
G03X416337Y638231I1871J3238D01*
G01X410727Y634872D02*
G03X410432Y634951I-295J-511D01*
G01X407836*
G03X407541Y634872I0J-590*
G01X407166Y634683D02*
G03X407541Y634872I-1497J3427D01*
G01X407166Y634683D02*
G03X406822Y634253I236J-542D01*
G01X401941Y631421D02*
G03X406822Y634253I1209J3540D01*
G01X401941Y631421D02*
G03X401159Y630862I-191J-559D01*
G01Y601238*
G03X401332Y600821I591J0*
G01X405545Y596608*
G03X405963Y596435I418J417*
G01X418928*
G03X419518Y597025I-0J590*
G01Y615156*
G03X419439Y615451I-590J-0*
G01X425915D02*
G03X419439I-3238J1872D01*
G01X425915D02*
G03X425836Y615156I512J-295D01*
G01Y595553*
G03X425915Y595257I591J-0*
G01X420981Y590052D02*
G03X425915Y595257I1696J3334D01*
G01X420981Y590052D02*
G03X420713Y590117I-268J-526D01*
G01X404409*
X402176Y591042D02*
G03X404409Y590117I2233J2234D01*
G01X402176Y591042D02*
X395766Y597451D01*
X395373Y597930D02*
G03X395766Y597451I2627J1755D01*
G01X395373Y597930D02*
G03X394291Y597602I-491J-328D01*
G01Y398127*
G03X394464Y397709I591J0*
G01X412968Y379206*
G03X413803I418J417*
G01X432826Y398228*
X551426*
X570938Y378716*
G03X571355Y378543I417J418*
G01X649117*
G03X649535Y378716I0J591*
G01X664591Y393772*
G03X664764Y394190I-418J418*
G01X630228Y523232D02*
G03Y524170I-359J469D01*
G01X629170Y525228D02*
G03X630228Y524170I4531J3473D01*
G01X629170Y525228D02*
G03X628232I-469J-359D01*
G01X627173Y524170D02*
G03X628232Y525228I-3472J4531D01*
G01X627173Y524170D02*
G03Y523232I359J-469D01*
G01X628232Y522173D02*
G03X627173Y523232I-4531J-3472D01*
G01X628232Y522173D02*
G03X629170I469J359D01*
G01X630228Y523232D02*
G03X629170Y522173I3473J-4531D01*
G01X620228Y523232D02*
G03Y524170I-359J469D01*
G01X619170Y525228D02*
G03X620228Y524170I4531J3473D01*
G01X619170Y525228D02*
G03X618232I-469J-359D01*
G01X617173Y524170D02*
G03X618232Y525228I-3472J4531D01*
G01X617173Y524170D02*
G03Y523232I359J-469D01*
G01X618232Y522173D02*
G03X617173Y523232I-4531J-3472D01*
G01X618232Y522173D02*
G03X619170I469J359D01*
G01X620228Y523232D02*
G03X619170Y522173I3473J-4531D01*
G01X620228Y553232D02*
G03Y554170I-359J469D01*
G01X619170Y555228D02*
G03X620228Y554170I4531J3473D01*
G01X619170Y555228D02*
G03X618232I-469J-359D01*
G01X617173Y554170D02*
G03X618232Y555228I-3472J4531D01*
G01X617173Y554170D02*
G03Y553232I359J-469D01*
G01X618232Y552173D02*
G03X617173Y553232I-4531J-3472D01*
G01X618232Y552173D02*
G03X619170I469J359D01*
G01X620228Y553232D02*
G03X619170Y552173I3473J-4531D01*
G01X414173Y654996D02*
G03Y655933I-359J469D01*
G01X413114Y656992D02*
G03X414173Y655933I4532J3473D01*
G01X413114Y656992D02*
G03X412177I-468J-359D01*
G01X411118Y655933D02*
G03X412177Y656992I-3472J4532D01*
G01X411118Y655933D02*
G03Y654996I359J-468D01*
G01X412177Y653937D02*
G03X411118Y654996I-4531J-3472D01*
G01X412177Y653937D02*
G03X413114I469J359D01*
G01X414173Y654996D02*
G03X413114Y653937I3473J-4531D01*
G01X421298Y685970D02*
Y696140D01*
G03X420420Y696656I-591J0*
G01X413114Y698173D02*
G03X420420Y696657I4532J3473D01*
G01X413114Y698173D02*
G03X412177I-468J-359D01*
G01X402302Y699636D02*
G03X412177Y698173I5344J2010D01*
G01X402302Y699636D02*
G03X401159Y699428I-552J-208D01*
G01Y682682*
G03X402302Y682474I591J0*
G01X412177Y683937D02*
G03X402302Y682474I-4531J-3472D01*
G01X412177Y683937D02*
G03X413114I469J359D01*
G01X420420Y685454D02*
G03X413114Y683937I-2774J-4989D01*
G01X420420Y685454D02*
G03X421298Y685970I287J516D01*
G01X414173Y706177D02*
G03Y707114I-359J469D01*
G01X413114Y708173D02*
G03X414173Y707114I4532J3473D01*
G01X413114Y708173D02*
G03X412177I-468J-359D01*
G01X411118Y707114D02*
G03X412177Y708173I-3472J4532D01*
G01X411118Y707114D02*
G03Y706177I359J-468D01*
G01X412177Y705118D02*
G03X411118Y706177I-4531J-3472D01*
G01X412177Y705118D02*
G03X413114I469J359D01*
G01X414173Y706177D02*
G03X413114Y705118I3473J-4531D01*
G01X414173Y716177D02*
G03Y717114I-359J469D01*
G01X413114Y718173D02*
G03X414173Y717114I4532J3473D01*
G01X413114Y718173D02*
G03X412177I-468J-359D01*
G01X411118Y717114D02*
G03X412177Y718173I-3472J4532D01*
G01X411118Y717114D02*
G03Y716177I359J-468D01*
G01X412177Y715118D02*
G03X411118Y716177I-4531J-3472D01*
G01X412177Y715118D02*
G03X413114I469J359D01*
G01X414173Y716177D02*
G03X413114Y715118I3473J-4531D01*
G01X510543Y629921D02*
G03X511038Y630834I0J591D01*
G01X510935Y634745D02*
G03X511038Y630834I3238J-1871D01*
G01X510935Y634745D02*
G03X511014Y635041I-511J296D01*
G01Y640746*
G03X510935Y641042I-590J0*
G01X510448Y643245D02*
G03X510935Y641042I3725J-332D01*
G01X510448Y643245D02*
G03X509860Y643888I-588J53D01*
G01X492721*
G03X492345Y642843I0J-590*
G01X488089Y636722D02*
G03X492345Y642843I1872J3239D01*
G01X488089Y636722D02*
G03X487794Y636802I-295J-511D01*
G01X472616*
G03X472199Y636629I0J-591*
G01X469568Y633998*
G03X469569Y633162I417J-418*
G01X470634Y630002D02*
G03X469569Y633162I-3705J510D01*
G01X470634Y630002D02*
G03X471219Y629331I585J-81D01*
G01X495148*
G03X495487Y629438I-0J590*
G01X498753Y629948D02*
G03X495487Y629438I-1115J-3570D01*
G01X498753Y629948D02*
G03X498929Y629921I176J564D01*
G01X502953*
X510543*
X458593Y472215D02*
G03X459194Y473166I149J572D01*
G01X458455Y475197D02*
G03X459194Y473166I3159J-0D01*
G01X458455Y475197D02*
Y490770D01*
G03X458282Y491187I-590J-0*
G01X451411Y498058*
G03X450403Y497641I-417J-417*
G01Y486199*
G03X450576Y485781I591J-0*
G01X453612Y482746*
X454537Y480512D02*
G03X453612Y482746I-3159J-0D01*
G01X454537Y480512D02*
Y472539D01*
G03X455353Y471993I591J-0*
G01X458593Y472215D02*
G03X455353Y471993I-1288J-4953D01*
G01X449733Y651660D02*
G03X449349Y652699I-384J449D01*
G01X426624*
G03X426328Y652620I-0J-590*
G01X423930Y652155D02*
G03X426328Y652620I527J3703D01*
G01X423930Y652155D02*
G03X423266Y651467I-83J-584D01*
G01X423175Y649046D02*
G03X423266Y651467I-5529J1419D01*
G01X423175Y649046D02*
G03X423747Y648309I572J-147D01*
G01X447835*
G03X448426Y648888I0J590*
G01X449733Y651660D02*
G03X448426Y648888I2432J-2841D01*
G01X496143Y680003D02*
G03X496360Y680923I-236J542D01*
G01X495628Y682945D02*
G03X496360Y680923I3159J-0D01*
G01X495628Y682945D02*
Y700935D01*
G03X495549Y701231I-590J0*
G01X495217Y704216D02*
G03X495549Y701231I3570J-1114D01*
G01X495217Y704216D02*
G03X494653Y704983I-564J176D01*
G01X490478*
G03X489893Y704474I-0J-591*
G01X489427Y703121D02*
G03X489893Y704474I-3238J1871D01*
G01X489427Y703121D02*
G03X489348Y702825I512J-296D01*
G01Y701490*
G03X489427Y701194I591J-0*
G01X482951D02*
G03X489427I3238J-1871D01*
G01X482951D02*
G03X483030Y701490I-512J296D01*
G01Y702825*
G03X482951Y703121I-591J0*
G01X482485Y704474D02*
G03X482951Y703121I3704J518D01*
G01X482485Y704474D02*
G03X481900Y704983I-585J-82D01*
G01X473354*
G03X472871Y704732I0J-591*
G01X472336Y704123D02*
G03X472871Y704732I-2525J2759D01*
G01X472336Y704123D02*
G03X472250Y703350I399J-436D01*
G01X465618Y700075D02*
G03X472250Y703350I3563J1138D01*
G01X465618Y700075D02*
G03X465453Y700333I-563J-179D01*
G01X463714Y701913*
G03X462742Y701612I-397J-437*
G01X460559Y699027D02*
G03X462742Y701612I-1457J3445D01*
G01X460559Y699027D02*
G03X460644Y697911I229J-544D01*
G01X460699Y690670D02*
G03X460644Y697911I-967J3613D01*
G01X460699Y690670D02*
G03X460434Y690517I152J-570D01*
G01X444601Y674684*
G03X444448Y674419I417J-417*
G01X438283Y672651D02*
G03X444448Y674419I2552J2735D01*
G01X438283Y672651D02*
G03X437596Y672737I-403J-431D01*
G01X436085Y672287D02*
G03X437596Y672737I-290J3729D01*
G01X436085Y672287D02*
G03X435569Y671514I45J-589D01*
G01X435712Y669777D02*
G03X435569Y671514I-3696J569D01*
G01X435712Y669777D02*
G03X436296Y669096I584J-90D01*
G01X445323*
G03X445913Y669691I-0J591*
G01X451386Y673031D02*
G03X445913Y669691I-1732J-3314D01*
G01X451386Y673031D02*
G03X452073Y673976I274J524D01*
G01X457708Y678859D02*
G03X452073Y673976I-3015J-2213D01*
G01X457708Y678859D02*
G03X458653Y678849I476J349D01*
G01X463493Y679813D02*
G03X458653Y678849I-1871J-3238D01*
G01X463493Y679813D02*
G03X463789Y679734I296J511D01*
G01X495471*
G03X495766Y679813I-0J590*
G01X496143Y680003D02*
G03X495766Y679813I1495J-3428D01*
G01X524605Y798721D02*
Y811993D01*
G03X524524Y812290I-591J-0*
G01X524016Y814139D02*
G03X524524Y812290I3740J34D01*
G01X524016Y814139D02*
G03X523425Y814724I-591J-5D01*
G01X466374*
G03X465956Y814551I-0J-590*
G01X461222Y809817*
G03X461056Y809491I418J-417*
G01X455884Y814662D02*
G03X461056Y809491I699J-4473D01*
G01X455884Y814662D02*
G03X456211Y814828I-91J584D01*
G01X458243Y816860*
G03X457709Y817857I-418J418*
G01X452166Y819974D02*
G03X457709Y817857I4448J3333D01*
G01X452166Y819974D02*
G03X451220I-473J-355D01*
G01X443213Y819037D02*
G03X451220Y819974I3559J4270D01*
G01X443213Y819037D02*
G03X442457I-378J-454D01*
G01X436823Y818149D02*
G03X442457Y819037I2075J5158D01*
G01X436823Y818149D02*
G03X436096Y817905I-220J-547D01*
G01X435620Y817294D02*
G03X436096Y817905I-2234J2234D01*
G01X435620Y817294D02*
X434828Y816502D01*
G03X434655Y816085I418J-417*
G01Y739285*
G03X434734Y738990I591J0*
G01X428258D02*
G03X434734I3238J-1872D01*
G01X428258D02*
G03X428337Y739285I-512J295D01*
G01Y741259*
G03X427384Y741726I-591J0*
G01X423215Y741439D02*
G03X427384Y741726I1872J3238D01*
G01X423215Y741439D02*
G03X422920Y741518I-295J-511D01*
G01X415795*
X413561Y742443D02*
G03X415795Y741518I2234J2234D01*
G01X413561Y742443D02*
X408991Y747014D01*
G03X408486Y747180I-418J-418*
G01X404173Y757358D02*
G03X408486Y747180I3473J-4531D01*
G01X404173Y757358D02*
G03Y758296I-359J469D01*
G01Y767358D02*
G03Y758296I3473J-4531D01*
G01Y767358D02*
G03Y768296I-359J469D01*
G01Y777358D02*
G03Y768296I3473J-4531D01*
G01Y777358D02*
G03Y778296I-359J469D01*
G01X412177Y786299D02*
G03X404173Y778296I-4531J-3472D01*
G01X412177Y786299D02*
G03X413114I469J359D01*
G01X421118Y778296D02*
G03X413114Y786299I-3472J4531D01*
G01X421118Y778296D02*
G03Y777358I359J-469D01*
G01X423026Y774735D02*
G03X421118Y777358I-5380J-1908D01*
G01X423026Y774735D02*
G03X424000Y774515I557J198D01*
G01X424470Y774985*
G03X424623Y775250I-417J418*
G01X427813Y778000D02*
G03X424623Y775250I423J-3717D01*
G01X427813Y778000D02*
G03X428337Y778586I-67J586D01*
G01Y817298*
G03X427872Y817875I-591J0*
G01X429932Y828797D02*
G03X427872Y817875I-877J-5490D01*
G01X429932Y828797D02*
G03X430555Y829118I93J583D01*
G01X431152Y829950D02*
G03X430555Y829118I2234J-2233D01*
G01X431152Y829950D02*
X433672Y832470D01*
X435906Y833395D02*
G03X433672Y832470I-0J-3159D01*
G01X435906Y833395D02*
X461102D01*
X462960Y832792D02*
G03X461102Y833395I-1858J-2556D01*
G01X462960Y832792D02*
G03X463898Y833269I347J477D01*
G01Y836929*
X465308Y840971D02*
G03X463898Y836929I5086J-4042D01*
G01X465308Y840971D02*
G03X464846Y841929I-462J368D01*
G01X420823*
G03X420361Y840971I0J-590*
G01X421772Y836929D02*
G03X420361Y840971I-6496J0D01*
G01X421772Y836929D02*
Y831024D01*
X408780D02*
G03X421772I6496J-0D01*
G01X408780D02*
Y835652D01*
G03X407771Y836070I-591J0*
G01X394464Y822763*
G03X394291Y822345I418J-418*
G01Y714083*
G03X395373Y713755I591J-0*
G01X395766Y714234D02*
G03X395373Y713755I2234J-2234D01*
G01X395766Y714234D02*
X401833Y720300D01*
G03X401999Y720805I-418J418*
G01X404173Y726177D02*
G03X401999Y720805I3473J-4531D01*
G01X404173Y726177D02*
G03Y727114I-359J469D01*
G01X412177Y735118D02*
G03X404173Y727114I-4531J-3472D01*
G01X412177Y735118D02*
G03X413114I469J359D01*
G01X422529Y734603D02*
G03X413114Y735118I-4883J-2957D01*
G01X422529Y734603D02*
G03X423228Y734351I505J306D01*
G01X428182Y731157D02*
G03X423228Y734351I-3725J-338D01*
G01X428182Y731157D02*
G03X428611Y730642I588J54D01*
G01X430737Y729086D02*
G03X428611Y730642I-3131J-2047D01*
G01X430737Y729086D02*
G03X431338Y728828I494J323D01*
G01X435254Y723278D02*
G03X431338Y728828I-3238J1872D01*
G01X435254Y723278D02*
G03X435175Y722983I511J-295D01*
G01Y711213*
G03X435769Y710622I590J-0*
G01X438887Y708986D02*
G03X435769Y710622I-3092J-2104D01*
G01X438887Y708986D02*
G03X439403Y708728I489J332D01*
G01X439601Y708732D02*
G03X439403Y708728I-26J-3740D01*
G01X439601Y708732D02*
G03X440195Y709323I4J591D01*
G01Y763928*
G03X440116Y764223I-590J-0*
G01X446593D02*
G03X440116I-3239J1871D01*
G01X446593D02*
G03X446513Y763928I511J-295D01*
G01Y696450*
G03X446593Y696155I591J0*
G01X443421Y690544D02*
G03X446593Y696155I-67J3739D01*
G01X443421Y690544D02*
G03X442906Y689685I11J-591D01*
G01X439549Y684244D02*
G03X442906Y689685I26J3740D01*
G01X439549Y684244D02*
G03X438954Y683654I-4J-590D01*
G01Y679520*
G03X439721Y678956I591J0*
G01X439868Y678999D02*
G03X439721Y678956I967J-3613D01*
G01X439868Y678999D02*
G03X440133Y679152I-152J570D01*
G01X452410Y691429*
G03X452017Y692436I-418J417*
G01X448935Y698045D02*
G03X452017Y692436I3238J-1872D01*
G01X448935Y698045D02*
G03X449014Y698340I-511J295D01*
G01Y751329*
G03X448935Y751625I-590J0*
G01X452199Y757236D02*
G03X448935Y751625I-26J-3740D01*
G01X452199Y757236D02*
G03X452794Y757827I4J591D01*
G01Y766431*
G03X452621Y766849I-591J0*
G01X449939Y769530*
X449014Y771764D02*
G03X449939Y769530I3159J-0D01*
G01X449014Y771764D02*
Y774520D01*
G03X448763Y775003I-590J-0*
G01X450005Y781691D02*
G03X448763Y775003I908J-3628D01*
G01X450005Y781691D02*
G03X450435Y782121I-143J573D01*
G01X457676Y782179D02*
G03X450435Y782121I-3613J-966D01*
G01X457676Y782179D02*
G03X457829Y781914I571J153D01*
G01X459446Y780297*
X459752Y779942D02*
G03X459446Y780297I-2539J-1879D01*
G01X459752Y779942D02*
G03X460817Y780293I475J351D01*
G01Y786613*
G03X460738Y786908I-590J-0*
G01X467215D02*
G03X460738I-3239J1872D01*
G01X467215D02*
G03X467135Y786613I511J-295D01*
G01Y759647*
G03X467215Y759352I591J0*
G01X464678Y753807D02*
G03X467215Y759352I-702J3673D01*
G01X464678Y753807D02*
G03X464443Y752748I111J-581D01*
G01X465490Y747845D02*
G03X464443Y752748I-3238J1872D01*
G01X465490Y747845D02*
G03X465411Y747550I512J-295D01*
G01Y716840*
G03X465920Y716255I591J0*
G01X467273Y715789D02*
G03X465920Y716255I-1871J-3238D01*
G01X467273Y715790D02*
G03X467568Y715710I295J511D01*
G01X492825*
G03X493242Y715883I-0J591*
G01X494664Y717305*
X496898Y718230D02*
G03X494664Y717305I-0J-3159D01*
G01X496898Y718230D02*
X502194D01*
G03X502760Y718653I0J590*
G01X504558Y720875D02*
G03X502760Y718653I1788J-3284D01*
G01X504558Y720875D02*
G03X504602Y721886I-283J519D01*
G01X504113Y722286D02*
G03X504602Y721886I2233J2234D01*
G01X504113Y722286D02*
X491175Y735223D01*
G03X490167Y734806I-417J-417*
G01Y730120*
G03X490246Y729824I591J-0*
G01X483770D02*
G03X490246I3238J-1871D01*
G01X483770D02*
G03X483849Y730120I-512J296D01*
G01Y737006*
G03X483770Y737302I-591J0*
G01X483276Y738926D02*
G03X483770Y737302I3732J247D01*
G01X483276Y738926D02*
G03X482219Y739248I-589J-39D01*
G01X479234Y737795D02*
G03X482219Y739248I26J3740D01*
G01X479234Y737795D02*
G03X478639Y737205I-4J-590D01*
G01Y736135*
G03X478719Y735840I591J0*
G01X472242D02*
G03X478719I3238J-1871D01*
G01X472242D02*
G03X472321Y736135I-511J295D01*
G01Y738866*
X473078Y740917D02*
G03X472321Y738866I2402J-2051D01*
G01X473077Y740917D02*
G03X473219Y741300I-449J383D01*
G01Y777164*
G03X473140Y777459I-591J-0*
G01X475488Y782963D02*
G03X473140Y777459I890J-3632D01*
G01X475488Y782963D02*
G03X475890Y783769I-141J574D01*
G01X482508Y783263D02*
G03X475890Y783769I-3177J1973D01*
G01X482508Y783263D02*
G03X482419Y782951I501J-312D01*
G01Y747777*
G03X483394Y747329I590J0*
G01X489132Y746239D02*
G03X483394Y747329I-3305J-1751D01*
G01X489132Y746239D02*
G03X489236Y746097I522J276D01*
G01X501954Y733380*
G03X502913Y733563I417J418*
G01X508218Y735317D02*
G03X502913Y733563I-1872J-3238D01*
G01X508218Y735317D02*
G03X508513Y735238I295J511D01*
G01X510383*
G03X510949Y735661I0J590*
G01X511297Y736470D02*
G03X510949Y735661I3238J-1872D01*
G01X511297Y736470D02*
G03X511376Y736765I-511J295D01*
G01Y748577*
G03X510868Y749162I-590J0*
G01X509514Y749628D02*
G03X510868Y749162I1872J3238D01*
G01X509514Y749628D02*
G03X509219Y749707I-295J-511D01*
G01X503474*
G03X503179Y749628I0J-590*
G01X499534Y756159D02*
G03X503179Y749628I1773J-3293D01*
G01X499534Y756159D02*
G03X499279Y757269I-280J520D01*
G01X497184Y758191D02*
G03X499279Y757269I2233J2234D01*
G01X497184Y758191D02*
X485727Y769648D01*
X484802Y771882D02*
G03X485727Y769648I3159J-0D01*
G01X484802Y771882D02*
X484802D01*
Y788749*
X484802*
G03X484563Y789224I-591J0*
G01Y798398D02*
G03Y789224I3398J-4587D01*
G01Y798398D02*
G03X484802Y798873I-352J475D01*
G01X484802*
Y803260*
X484802*
X484802*
X485727Y805494D02*
G03X484802Y803260I2234J-2234D01*
G01X485727Y805494D02*
X487344Y807111D01*
G03X487497Y807376I-417J418*
G01X492077Y802796D02*
G03X487497Y807376I-967J3613D01*
G01X492077Y802796D02*
G03X491812Y802643I152J-570D01*
G01X491293Y802124*
G03X491120Y801707I417J-417*
G01X491120*
Y798873*
G03X491359Y798398I590J-0*
G01X492492Y797283D02*
G03X491359Y798398I-4531J-3472D01*
G01X492492Y797283D02*
G03X493430I469J360D01*
G01X502492D02*
G03X493430I-4531J-3472D01*
G01X502492D02*
G03X503430I469J360D01*
G01X512492D02*
G03X503430I-4531J-3472D01*
G01X512492D02*
G03X513430I469J360D01*
G01X522492D02*
G03X513430I-4531J-3472D01*
G01X522492D02*
G03X523430I469J360D01*
G01X524384Y798260D02*
G03X523430Y797283I3577J-4449D01*
G01X524384Y798260D02*
G03X524605Y798721I-370J461D01*
G01X556062Y787214D02*
G03X556240Y788368I0J591D01*
G01X553430Y790339D02*
G03X556240Y788368I4531J3472D01*
G01X553430Y790339D02*
G03X552492I-469J-359D01*
G01X549681Y788368D02*
G03X552492Y790339I-1720J5443D01*
G01X549681Y788368D02*
G03X549859Y787214I178J-563D01*
G01X556062*
X588263Y808841D02*
G03X588358Y809983I-95J583D01*
G01X586991Y810833D02*
G03X588358Y809983I2505J2506D01*
G01X586991Y810833D02*
X580012Y817811D01*
G03X579595Y817984I-417J-417*
G01X572478*
G03X572079Y817828I0J-590*
G01X569722Y815660*
X567323Y814724D02*
G03X569722Y815660I-0J3544D01*
G01X567323Y814724D02*
X555729D01*
G03X555265Y813768I-0J-590*
G01X555944Y812415D02*
G03X555265Y813768I-3613J-966D01*
G01X555944Y812415D02*
G03X556097Y812150I570J153D01*
G01X559765Y808482*
G03X560183Y808309I418J417*
G01X586699*
G03X586995Y808388I0J590*
G01X588263Y808841D02*
G03X586995Y808388I603J-3691D01*
G01X546062Y787214D02*
G03X546240Y788368I0J591D01*
G01X543430Y790339D02*
G03X546240Y788368I4531J3472D01*
G01X543430Y790339D02*
G03X542492I-469J-359D01*
G01X539681Y788368D02*
G03X542492Y790339I-1720J5443D01*
G01X539681Y788368D02*
G03X539859Y787214I178J-563D01*
G01X546062*
X553556Y797442D02*
G03X553518Y798235I-456J376D01*
G01X548675Y803077*
G03X548258Y803250I-417J-417*
G01X535600*
G03X535304Y803171I-0J-590*
G01X531775Y803057D02*
G03X535304Y803171I1658J3352D01*
G01X531775Y803057D02*
G03X530923Y802527I-262J-530D01*
G01Y799013*
G03X531180Y798525I590J-0*
G01X532492Y797283D02*
G03X531180Y798525I-4531J-3472D01*
G01X532492Y797283D02*
G03X533430I469J360D01*
G01X542492D02*
G03X533430I-4531J-3472D01*
G01X542492D02*
G03X543430I469J360D01*
G01X552492D02*
G03X543430I-4531J-3472D01*
G01X552492D02*
G03X553430I469J360D01*
G01X553556Y797442D02*
G03X553430Y797283I4405J-3631D01*
G01X609874Y695268D02*
G03Y696228I-344J480D01*
G01X608459Y697704D02*
G03X609874Y696228I4651J3044D01*
G01X608459Y697704D02*
G03X607738Y697925I-494J-324D01*
G01X603238Y703526D02*
G03X607738Y697925I3061J-2148D01*
G01X603238Y703526D02*
G03X603345Y703866I-484J340D01*
G01Y761037*
G03X603172Y761455I-591J0*
G01X601030Y763597*
G03X600612Y763770I-418J-417*
G01X578386*
X576152Y764695D02*
G03X578386Y763770I2234J2234D01*
G01X576152Y764695D02*
X563164Y777684D01*
G03X562746Y777857I-418J-418*
G01X526886*
X526886D02*
G03X526529Y776796I0J-591D01*
G01X526848Y776517D02*
G03X526529Y776796I-2234J-2234D01*
G01X526848Y776517D02*
X529998Y773368D01*
X530923Y771134D02*
G03X529998Y773368I-3159J-0D01*
G01X530923Y771134D02*
Y765758D01*
G03X531096Y765340I590J-0*
G01X535037Y761399*
X535962Y759165D02*
G03X535037Y761399I-3159J0D01*
G01X535962Y759165D02*
Y755663D01*
G03X536041Y755367I591J-0*
G01X529565D02*
G03X536041I3238J-1871D01*
G01X529565D02*
G03X529644Y755663I-511J296D01*
G01Y757612*
G03X529471Y758030I-590J0*
G01X525530Y761971*
X524605Y764205D02*
G03X525530Y761971I3159J-0D01*
G01X524605Y764205D02*
Y769581D01*
G03X524432Y769998I-591J-0*
G01X524388Y770042*
G03X523457Y769916I-418J-417*
G01X523443Y769892D02*
G03X523457Y769916I-3238J1872D01*
G01X523443Y769892D02*
G03X523364Y769597I511J-295D01*
G01Y736765*
G03X523443Y736470I590J0*
G01X523791Y735661D02*
G03X523443Y736470I-3586J-1063D01*
G01X523791Y735661D02*
G03X524357Y735238I566J167D01*
G01X558353*
G03X558648Y735317I-0J590*
G01Y728840D02*
G03Y735317I1872J3239D01*
G01Y728840D02*
G03X558353Y728920I-295J-511D01*
G01X537175*
G03X536594Y728224I0J-591*
G01X531065Y724307D02*
G03X536594Y728224I1848J3252D01*
G01X531065Y724307D02*
G03X530191Y723893I-292J-513D01*
G01X524633Y721281D02*
G03X530191Y723893I1871J3239D01*
G01X524633Y721281D02*
G03X524337Y721361I-296J-511D01*
G01X516846*
G03X516445Y720336I-0J-591*
G01X517492Y718653D02*
G03X516445Y720336I-3586J-1062D01*
G01X517492Y718653D02*
G03X518058Y718230I566J167D01*
G01X533156*
G03X533451Y718309I-0J590*
G01X537890Y712351D02*
G03X533451Y718309I-2567J2720D01*
G01X537890Y712351D02*
G03Y711492I405J-430D01*
G01X538945Y709705D02*
G03X537890Y711492I-3622J-933D01*
G01X538945Y709705D02*
G03X539517Y709261I572J147D01*
G01X554526*
G03X554821Y709341I0J591*
G01Y702864D02*
G03Y709341I1872J3238D01*
G01Y702864D02*
G03X554526Y702943I-295J-511D01*
G01X540282*
G03X539692Y702369I-0J-590*
G01X534081Y699234D02*
G03X539692Y702369I1872J3238D01*
G01X534081Y699234D02*
G03X533786Y699313I-295J-511D01*
G01X533317*
G03X532747Y698875I0J-590*
G01X532372Y697971D02*
G03X532747Y698876I-3238J1872D01*
G01X532372Y697971D02*
G03X532293Y697676I511J-295D01*
G01Y696693*
X531368Y694459D02*
G03X532293Y696693I-2234J2234D01*
G01X531368Y694459D02*
X528686Y691778D01*
G03X528513Y691360I418J-418*
G01Y688781*
G03X528593Y688486I591J0*
G01X528752Y685051D02*
G03X528593Y688486I-3398J1563D01*
G01X528752Y685051D02*
G03X529289Y684214I537J-246D01*
G01X531693*
G03X532284Y684810I0J591*
G01X537895Y688081D02*
G03X532284Y684810I-1871J-3238D01*
G01X537895Y688081D02*
G03X538191Y688002I296J511D01*
G01X541737*
G03X542327Y688564I0J590*
G01X542576Y689738D02*
G03X542327Y688564I3487J-1352D01*
G01X542576Y689738D02*
G03X542025Y690542I-551J213D01*
G01X541143*
G03X540848Y690462I0J-591*
G01Y696939D02*
G03Y690462I-1872J-3238D01*
G01Y696939D02*
G03X541143Y696860I295J511D01*
G01X565179*
G03X565597Y697033I0J590*
G01X566944Y698380*
G03X567117Y698797I-418J417*
G01Y716337*
G03X567037Y716633I-591J0*
G01X573514D02*
G03X567037I-3238J1871D01*
G01X573514D02*
G03X573435Y716337I511J-296D01*
G01Y705598*
G03X574158Y705022I590J-0*
G01X578238Y699507D02*
G03X574158Y705022I-3238J1871D01*
G01X578238Y699507D02*
G03X578159Y699211I512J-296D01*
G01Y683661*
X577669Y681971D02*
G03X578159Y683661I-2669J1690D01*
G01X577669Y681971D02*
G03X578168Y681065I499J-316D01*
G01X580926*
G03X581326Y682090I0J590*
G01X580620Y686714D02*
G03X581326Y682090I3238J-1871D01*
G01X580620Y686714D02*
G03X580699Y687009I-511J295D01*
G01Y729920*
G03X580620Y730215I-590J-0*
G01X587097D02*
G03X580620I-3239J1872D01*
G01X587097D02*
G03X587017Y729920I511J-295D01*
G01Y691424*
G03X587741Y690849I591J0*
G01X591594Y689423D02*
G03X587741Y690849I-3011J-2218D01*
G01X591594Y689423D02*
G03X592069Y689183I475J350D01*
G01X607038*
G03X607621Y689867I0J590*
G01X609874Y695268D02*
G03X607621Y689867I3236J-4520D01*
G01X636071Y462709D02*
G03X636071I-5906J0D01*
G01Y482394D02*
G03X636071I-5906J0D01*
G01X612646Y454835D02*
G03X612646I-7087J0D01*
G01Y490268D02*
G03X612646I-7087J0D01*
G01X647173Y554170D02*
G03X639170Y562173I-3472J4531D01*
G01X647173Y554170D02*
G03Y553232I359J-469D01*
G01X639170Y545228D02*
G03X647173Y553232I4531J3473D01*
G01X639170Y545228D02*
G03X638232I-469J-359D01*
G01X636664Y543821D02*
G03X638232Y545228I-2963J4880D01*
G01X636664Y543821D02*
G03X636970Y542726I306J-504D01*
G01X639370*
X641604Y541801D02*
G03X639370Y542726I-2234J-2234D01*
G01X641604Y541801D02*
X645935Y537470D01*
X646860Y535236D02*
G03X645935Y537470I-3159J0D01*
G01X646860Y535236D02*
Y533762D01*
G03X647099Y533288I590J0*
G01X647173Y524170D02*
G03X647099Y533288I-3472J4531D01*
G01X647173Y524170D02*
G03Y523232I359J-469D01*
G01X639170Y515228D02*
G03X647173Y523232I4531J3473D01*
G01X639170Y515228D02*
G03X638232I-469J-359D01*
G01X634020Y513001D02*
G03X638232Y515228I-319J5700D01*
G01X634020Y513001D02*
G03X633635Y512829I33J-590D01*
G01X630383Y509577*
X628150Y508652D02*
G03X630383Y509577I-0J3159D01*
G01X628150Y508652D02*
X600789D01*
G03X600493Y508573I-0J-591*
G01X596238Y514693D02*
G03X600493Y508573I2384J-2882D01*
G01X596238Y514693D02*
G03X595862Y515739I-376J455D01*
G01X589568*
G03X589273Y515659I0J-591*
G01Y522136D02*
G03Y515659I-1871J-3238D01*
G01Y522136D02*
G03X589568Y522057I295J511D01*
G01X608791*
G03X609251Y522277I0J590*
G01X610228Y523232D02*
G03X609251Y522277I3473J-4531D01*
G01X610228Y523232D02*
G03Y524170I-359J469D01*
G01X608999Y531939D02*
G03X610228Y524170I4702J-3238D01*
G01X608999Y531939D02*
G03X608513Y532865I-486J335D01*
G01X586025*
G03X585730Y532785I0J-591*
G01Y539262D02*
G03Y532785I-1872J-3238D01*
G01Y539262D02*
G03X586025Y539183I295J511D01*
G01X587596*
G03X588053Y540148I0J590*
G01X591285Y546244D02*
G03X588053Y540148I-340J-3724D01*
G01X591285Y546244D02*
G03X591849Y547130I54J588D01*
G01X596950Y552254D02*
G03X591849Y547130I-1871J-3238D01*
G01X596950Y552254D02*
G03X597246Y552175I296J511D01*
G01X608888*
G03X609340Y552384I0J590*
G01X610228Y553232D02*
G03X609340Y552384I3473J-4531D01*
G01X610228Y553232D02*
G03Y554170I-359J469D01*
G01X618232Y562173D02*
G03X610228Y554170I-4531J-3472D01*
G01X618232Y562173D02*
G03X619170I469J359D01*
G01X628232D02*
G03X619170I-4531J-3472D01*
G01X628232D02*
G03X629170I469J359D01*
G01X638232D02*
G03X629170I-4531J-3472D01*
G01X638232D02*
G03X639170I469J359D01*
G01X561268Y462709D02*
G03X561268I-5906J0D01*
G01Y482394D02*
G03X561268I-5906J0D01*
G01X596751Y581801D02*
G03Y588278I1871J3238D01*
G01Y581801D02*
G03X596455Y581880I-296J-511D01*
G01X565946*
G03X565651Y581801I0J-590*
G01Y588278D02*
G03Y581801I-1871J-3239D01*
G01Y588278D02*
G03X565946Y588198I295J511D01*
G01X596455*
G03X596751Y588278I0J591*
G01X632456Y594060D02*
G03X631956Y600536I1599J3381D01*
G01X632456Y594060D02*
G03X632204Y594117I-252J-534D01*
G01X593553*
G03X593257Y594037I-0J-591*
G01Y600514D02*
G03Y594037I-1871J-3238D01*
G01Y600514D02*
G03X593553Y600435I296J511D01*
G01X631624*
G03X631956Y600536I0J590*
G01X613877Y610738D02*
G03Y617215I1871J3238D01*
G01Y610738D02*
G03X613581Y610817I-296J-511D01*
G01X553545*
G03X553249Y610738I-0J-590*
G01Y617215D02*
G03Y610738I-1871J-3239D01*
G01Y617215D02*
G03X553545Y617135I296J511D01*
G01X613581*
G03X613877Y617215I0J591*
G01X630309Y633943D02*
G03X629231Y640837I793J3655D01*
G01X630309Y633943D02*
G03X629825Y632897I-126J-577D01*
G01X625688Y626683D02*
G03X629825Y632897I1871J3238D01*
G01X625688Y626683D02*
G03X625392Y626762I-296J-511D01*
G01X553545*
G03X553249Y626683I-0J-590*
G01X549646Y633236D02*
G03X553249Y626683I1732J-3315D01*
G01X549646Y633236D02*
G03Y634283I-273J524D01*
G01X550263Y641169D02*
G03X549646Y634283I1115J-3571D01*
G01X550263Y641169D02*
G03Y642296I-176J563D01*
G01X549646Y649181D02*
G03X550263Y642296I1732J-3315D01*
G01X549646Y649181D02*
G03Y650228I-273J524D01*
G01X553249Y656782D02*
G03X549646Y650228I-1871J-3239D01*
G01X553249Y656782D02*
G03X553545Y656702I296J511D01*
G01X555389*
G03X555969Y657184I-0J591*
G01X561517Y659734D02*
G03X555969Y657184I-1871J-3238D01*
G01X561517Y659734D02*
G03X561813Y659655I296J512D01*
G01X562997*
G03X563587Y660218I0J591*
G01X569194Y663278D02*
G03X563587Y660218I-1871J-3239D01*
G01X569194Y663278D02*
G03X569490Y663198I296J511D01*
G01X621849*
G03X622144Y663278I-0J591*
G01X624643Y656352D02*
G03X622144Y663278I-627J3687D01*
G01X624643Y656352D02*
G03X624160Y655869I99J-582D01*
G01X618601Y653258D02*
G03X624160Y655869I1871J3238D01*
G01X618601Y653258D02*
G03X618306Y653337I-295J-512D01*
G01X616462*
G03X615881Y652855I-0J-591*
G01X610333Y650305D02*
G03X615881Y652855I1872J3238D01*
G01X610333Y650305D02*
G03X610038Y650384I-295J-511D01*
G01X573872*
G03X573623Y649258I-0J-590*
G01X570176Y642628D02*
G03X573623Y649258I1871J3238D01*
G01X570176Y642628D02*
G03X569880Y642707I-296J-511D01*
G01X553545*
G03X553249Y642628I-0J-590*
G01X552493Y642296D02*
G03X553249Y642628I-1115J3570D01*
G01X552493Y642296D02*
G03Y641169I176J-564D01*
G01X553249Y640837D02*
G03X552493Y641169I-1871J-3239D01*
G01X553249Y640837D02*
G03X553545Y640758I296J511D01*
G01X553545D02*
X628935D01*
X628935D02*
G03X629231Y640837I0J590D01*
G01X537843Y454835D02*
G03X537843I-7087J0D01*
G01Y490268D02*
G03X537843I-7087J0D01*
G01X435325Y510530D02*
G03X428848I-3238J1872D01*
G01X435325D02*
G03X435246Y510235I511J-295D01*
G01Y462009*
G03X435325Y461714I590J0*
G01X428848D02*
G03X435325I3239J-1871D01*
G01X428848D02*
G03X428928Y462009I-511J295D01*
G01Y510235*
G03X428848Y510530I-591J-0*
G01X435756Y541843D02*
G03X435756I-3740J0D01*
G01X512055Y482394D02*
G03X512055I-5905J0D01*
G01X586858Y462709D02*
G03X586858I-5905J0D01*
G01Y482394D02*
G03X586858I-5905J0D01*
G01X628981Y777740D02*
G03Y784685I4531J3473D01*
G01Y777740D02*
G03X628043I-469J-359D01*
G01X618981D02*
G03X628043I4531J3473D01*
G01X618981D02*
G03X618043I-469J-359D01*
G01Y784685D02*
G03Y777740I-4531J-3472D01*
G01Y784685D02*
G03X618981I469J359D01*
G01X628043D02*
G03X618981I-4531J-3472D01*
G01X628043D02*
G03X628981I469J359D01*
G01X413429Y800339D02*
G03Y807283I4532J3472D01*
G01Y800339D02*
G03X412492I-468J-359D01*
G01Y807283D02*
G03Y800339I-4531J-3472D01*
G01Y807283D02*
G03X413429I469J360D01*
G01X587017Y695314D02*
X609930D01*
X587017Y696377D02*
X609676D01*
X587017Y694251D02*
X608793D01*
X587017Y697440D02*
X608643D01*
X587017Y693188D02*
X608115D01*
X587017Y692125D02*
X607724D01*
X591069Y689999D02*
X607602D01*
X587142Y691062D02*
X607560D01*
X587017Y698503D02*
X603907D01*
X535803Y760156D02*
X603345D01*
X535962Y759093D02*
X603345D01*
X535962Y758030D02*
X603345D01*
X535962Y756967D02*
X603345D01*
X535962Y755904D02*
X603345D01*
X536293Y754841D02*
X603345D01*
X536533Y753778D02*
X603345D01*
X536461Y752715D02*
X603345D01*
X536057Y751652D02*
X603345D01*
X535157Y750589D02*
X603345D01*
X523364Y749526D02*
X603345D01*
X523364Y748463D02*
X603345D01*
X523364Y747400D02*
X603345D01*
X523364Y746337D02*
X603345D01*
X523364Y745274D02*
X603345D01*
X523364Y744211D02*
X603345D01*
X523364Y743148D02*
X603345D01*
X523364Y742085D02*
X603345D01*
X523364Y741022D02*
X603345D01*
X523364Y739959D02*
X603345D01*
X523364Y738896D02*
X603345D01*
X523364Y737833D02*
X603345D01*
X523364Y736770D02*
X603345D01*
X584796Y735707D02*
X603345D01*
X586587Y734644D02*
X603345D01*
X587287Y733581D02*
X603345D01*
X587573Y732518D02*
X603345D01*
X587545Y731455D02*
X603345D01*
X587193Y730392D02*
X603345D01*
X587017Y729329D02*
X603345D01*
X587017Y728266D02*
X603345D01*
X587017Y727203D02*
X603345D01*
X587017Y726140D02*
X603345D01*
X587017Y725077D02*
X603345D01*
X587017Y724014D02*
X603345D01*
X587017Y722951D02*
X603345D01*
X587017Y721888D02*
X603345D01*
X587017Y720825D02*
X603345D01*
X587017Y719762D02*
X603345D01*
X587017Y718699D02*
X603345D01*
X587017Y717636D02*
X603345D01*
X587017Y716573D02*
X603345D01*
X587017Y715510D02*
X603345D01*
X587017Y714448D02*
X603345D01*
X587017Y713385D02*
X603345D01*
X587017Y712322D02*
X603345D01*
X587017Y711259D02*
X603345D01*
X587017Y710196D02*
X603345D01*
X587017Y709133D02*
X603345D01*
X587017Y708070D02*
X603345D01*
X587017Y707007D02*
X603345D01*
X587017Y705944D02*
X603345D01*
X587017Y704881D02*
X603345D01*
X587017Y703818D02*
X603343D01*
X535203Y761219D02*
X603316D01*
X587017Y699566D02*
X603027D01*
X587017Y702755D02*
X602822D01*
X587017Y700629D02*
X602635D01*
X587017Y701692D02*
X602572D01*
X534154Y762282D02*
X602345D01*
X533091Y763345D02*
X601282D01*
X561426Y735707D02*
X582921D01*
X577599Y681495D02*
X581495D01*
X563241Y734644D02*
X581129D01*
X577960Y682558D02*
X580897D01*
X563055Y729329D02*
X580699D01*
X536588Y728266D02*
X580699D01*
X536637Y727203D02*
X580699D01*
X536374Y726140D02*
X580699D01*
X535712Y725077D02*
X580699D01*
X534107Y724014D02*
X580699D01*
X529899Y722951D02*
X580699D01*
X571867Y721888D02*
X580699D01*
X573208Y720825D02*
X580699D01*
X573798Y719762D02*
X580699D01*
X574011Y718699D02*
X580699D01*
X573914Y717636D02*
X580699D01*
X573484Y716573D02*
X580699D01*
X573435Y715510D02*
X580699D01*
X573435Y714448D02*
X580699D01*
X573435Y713385D02*
X580699D01*
X573435Y712322D02*
X580699D01*
X573435Y711259D02*
X580699D01*
X573435Y710196D02*
X580699D01*
X573435Y709133D02*
X580699D01*
X573435Y708070D02*
X580699D01*
X573435Y707007D02*
X580699D01*
X573435Y705944D02*
X580699D01*
X576312Y704881D02*
X580699D01*
X577835Y703818D02*
X580699D01*
X578478Y702755D02*
X580699D01*
X578727Y701692D02*
X580699D01*
X578664Y700629D02*
X580699D01*
X578272Y699566D02*
X580699D01*
X578159Y698503D02*
X580699D01*
X578159Y697440D02*
X580699D01*
X578159Y696377D02*
X580699D01*
X578159Y695314D02*
X580699D01*
X578159Y694251D02*
X580699D01*
X578159Y693188D02*
X580699D01*
X578159Y692125D02*
X580699D01*
X578159Y691062D02*
X580699D01*
X578159Y689999D02*
X580699D01*
X578159Y688936D02*
X580699D01*
X578159Y687873D02*
X580699D01*
X578159Y686810D02*
X580664D01*
X563858Y730392D02*
X580524D01*
X563945Y733581D02*
X580430D01*
X578159Y683621D02*
X580323D01*
X578159Y685747D02*
X580229D01*
X564208Y731455D02*
X580172D01*
X564234Y732518D02*
X580143D01*
X578159Y684684D02*
X580121D01*
X532028Y764408D02*
X576482D01*
X530997Y765471D02*
X575376D01*
X530923Y766534D02*
X574313D01*
X530923Y767597D02*
X573250D01*
X530923Y768660D02*
X572187D01*
X530923Y769723D02*
X571124D01*
X530923Y770786D02*
X570061D01*
X530841Y771849D02*
X568998D01*
X529162Y721888D02*
X568684D01*
X530375Y772912D02*
X567935D01*
X527088Y720825D02*
X567343D01*
X539037Y715510D02*
X567117D01*
X539011Y714448D02*
X567117D01*
X538661Y713385D02*
X567117D01*
X537861Y712322D02*
X567117D01*
X538116Y711259D02*
X567117D01*
X538781Y710196D02*
X567117D01*
X558885Y709133D02*
X567117D01*
X559874Y708070D02*
X567117D01*
X560322Y707007D02*
X567117D01*
X560430Y705944D02*
X567117D01*
X560228Y704881D02*
X567117D01*
X559654Y703818D02*
X567117D01*
X558361Y702755D02*
X567117D01*
X539611Y701692D02*
X567117D01*
X539207Y700629D02*
X567117D01*
X538306Y699566D02*
X567117D01*
X538748Y716573D02*
X567067D01*
X532626Y698503D02*
X567038D01*
X529390Y773975D02*
X566872D01*
X516950Y719762D02*
X566754D01*
X538044Y717636D02*
X566637D01*
X536230Y718699D02*
X566541D01*
X539076Y697440D02*
X566004D01*
X528327Y775038D02*
X565809D01*
X527264Y776101D02*
X564746D01*
X526305Y777164D02*
X563683D01*
X523777Y735707D02*
X559613D01*
X539849Y702755D02*
X555025D01*
X539509Y689999D02*
X542614D01*
X528513Y688936D02*
X542363D01*
X532293Y697440D02*
X538877D01*
X528513Y689999D02*
X538444D01*
X532277Y696377D02*
X536363D01*
X528513Y691062D02*
X536326D01*
X531976Y695314D02*
X535602D01*
X529033Y692125D02*
X535585D01*
X531159Y694251D02*
X535277D01*
X530096Y693188D02*
X535272D01*
X517478Y718699D02*
X534416D01*
X528876Y687873D02*
X533831D01*
X529089Y686810D02*
X532843D01*
X528993Y685747D02*
X532394D01*
X528711Y684684D02*
X532271D01*
X530226Y724014D02*
X531720D01*
X523364Y750589D02*
X530450D01*
X523364Y756967D02*
X529644D01*
X523364Y755904D02*
X529644D01*
X523364Y751652D02*
X529549D01*
X523364Y758030D02*
X529471D01*
X523364Y754841D02*
X529313D01*
X523364Y752715D02*
X529145D01*
X523364Y753778D02*
X529074D01*
X523364Y759093D02*
X528408D01*
X523364Y760156D02*
X527345D01*
X523364Y761219D02*
X526282D01*
X516258Y720825D02*
X525919D01*
X523364Y762282D02*
X525257D01*
X523364Y763345D02*
X524724D01*
X523364Y768660D02*
X524605D01*
X523364Y767597D02*
X524605D01*
X523364Y766534D02*
X524605D01*
X523364Y765471D02*
X524605D01*
X523364Y764408D02*
X524605D01*
X523377Y769723D02*
X524587D01*
X552432Y797361D02*
X553490D01*
X551324Y798424D02*
X553329D01*
X548572Y799487D02*
X552266D01*
X530923Y800550D02*
X551203D01*
X530923Y801613D02*
X550140D01*
X533655Y802676D02*
X549077D01*
X538572Y799487D02*
X547349D01*
X541324Y798424D02*
X544598D01*
X542432Y797361D02*
X543490D01*
X530923Y799487D02*
X537349D01*
X531324Y798424D02*
X534598D01*
X532432Y797361D02*
X533490D01*
X530942Y802676D02*
X533211D01*
X539269Y787794D02*
X546653D01*
X540797Y788857D02*
X545124D01*
X542138Y789920D02*
X543784D01*
X559193Y809054D02*
X588629D01*
X558130Y810117D02*
X588021D01*
X557067Y811180D02*
X586644D01*
X556021Y812243D02*
X585581D01*
X555577Y813306D02*
X584518D01*
X555187Y814369D02*
X583455D01*
X569447Y815432D02*
X582392D01*
X570629Y816495D02*
X581329D01*
X571785Y817558D02*
X580266D01*
X549269Y787794D02*
X556653D01*
X550797Y788857D02*
X555124D01*
X552138Y789920D02*
X553784D01*
X462585Y811180D02*
X524605D01*
X491605Y810117D02*
X524605D01*
X493755Y809054D02*
X524605D01*
X494500Y807991D02*
X524605D01*
X494814Y806928D02*
X524605D01*
X494811Y805865D02*
X524605D01*
X494487Y804802D02*
X524605D01*
X493729Y803739D02*
X524605D01*
X491847Y802676D02*
X524605D01*
X491120Y801613D02*
X524605D01*
X491120Y800550D02*
X524605D01*
X518572Y799487D02*
X524605D01*
X463648Y812243D02*
X524549D01*
X521324Y798424D02*
X524525D01*
X464710Y813306D02*
X524118D01*
X465773Y814369D02*
X523967D01*
X522432Y797361D02*
X523490D01*
X508572Y799487D02*
X517349D01*
X511324Y798424D02*
X514598D01*
X512432Y797361D02*
X513490D01*
X482419Y748463D02*
X511376D01*
X488174Y747400D02*
X511376D01*
X489078Y746337D02*
X511376D01*
X490059Y745274D02*
X511376D01*
X491122Y744211D02*
X511376D01*
X492185Y743148D02*
X511376D01*
X493248Y742085D02*
X511376D01*
X494311Y741022D02*
X511376D01*
X495374Y739959D02*
X511376D01*
X496437Y738896D02*
X511376D01*
X497500Y737833D02*
X511376D01*
X498563Y736770D02*
X511376D01*
X507253Y735707D02*
X510963D01*
X502991Y749526D02*
X509702D01*
X498572Y799487D02*
X507349D01*
X499626Y735707D02*
X505440D01*
X465411Y721888D02*
X504598D01*
X501324Y798424D02*
X504598D01*
X465411Y720825D02*
X504469D01*
X500689Y734644D02*
X503625D01*
X502432Y797361D02*
X503490D01*
X465411Y722951D02*
X503447D01*
X465411Y719762D02*
X503302D01*
X501752Y733581D02*
X502921D01*
X465411Y718699D02*
X502774D01*
X465411Y724014D02*
X502384D01*
X489400Y725077D02*
X501321D01*
X490280Y726140D02*
X500258D01*
X482419Y756967D02*
X499769D01*
X482419Y749526D02*
X499624D01*
X490672Y727203D02*
X499195D01*
X482419Y755904D02*
X499126D01*
X482419Y750589D02*
X498340D01*
X490735Y728266D02*
X498132D01*
X482419Y754841D02*
X498131D01*
X482419Y751652D02*
X497769D01*
X482419Y753778D02*
X497680D01*
X482419Y752715D02*
X497570D01*
X482419Y758030D02*
X497357D01*
X491120Y799487D02*
X497349D01*
X490485Y729329D02*
X497069D01*
X482419Y759093D02*
X496282D01*
X490167Y730392D02*
X496006D01*
X482419Y760156D02*
X495219D01*
X465411Y717636D02*
X495054D01*
X490167Y731455D02*
X494943D01*
X491327Y798424D02*
X494598D01*
X482419Y761219D02*
X494156D01*
X465475Y716573D02*
X493933D01*
X490167Y732518D02*
X493880D01*
X492432Y797361D02*
X493490D01*
X482419Y762282D02*
X493093D01*
X490167Y733581D02*
X492817D01*
X482419Y763345D02*
X492030D01*
X490167Y734644D02*
X491754D01*
X482419Y764408D02*
X490967D01*
X461522Y810117D02*
X490616D01*
X482419Y765471D02*
X489904D01*
X482419Y766534D02*
X488841D01*
X460966Y809054D02*
X488465D01*
X482419Y767597D02*
X487778D01*
X460541Y807991D02*
X487721D01*
X459723Y806928D02*
X487161D01*
X482419Y768660D02*
X486715D01*
X457925Y805865D02*
X486098D01*
X482419Y769723D02*
X485654D01*
X434655Y804802D02*
X485203D01*
X482419Y770786D02*
X484998D01*
X434655Y803739D02*
X484838D01*
X482419Y771849D02*
X484802D01*
X482060Y787794D02*
X484802D01*
X482759Y786731D02*
X484802D01*
X483046Y785668D02*
X484802D01*
X483017Y784605D02*
X484802D01*
X482665Y783542D02*
X484802D01*
X482419Y782479D02*
X484802D01*
X482419Y781416D02*
X484802D01*
X434655Y799487D02*
X484802D01*
X482419Y780353D02*
X484802D01*
X482419Y779290D02*
X484802D01*
X434655Y800550D02*
X484802D01*
X482419Y778227D02*
X484802D01*
X482419Y777164D02*
X484802D01*
X482419Y776101D02*
X484802D01*
X434655Y801613D02*
X484802D01*
X482419Y775038D02*
X484802D01*
X482419Y773975D02*
X484802D01*
X434655Y802676D02*
X484802D01*
X482419Y772912D02*
X484802D01*
X480268Y788857D02*
X484792D01*
X465411Y725077D02*
X484616D01*
X434655Y798424D02*
X484595D01*
X478639Y736770D02*
X483849D01*
X478792Y735707D02*
X483849D01*
X479159Y734644D02*
X483849D01*
X479200Y733581D02*
X483849D01*
X478928Y732518D02*
X483849D01*
X478250Y731455D02*
X483849D01*
X476576Y730392D02*
X483849D01*
X467538Y789920D02*
X483784D01*
X465411Y726140D02*
X483736D01*
X465411Y729329D02*
X483530D01*
X479792Y737833D02*
X483516D01*
X434655Y797361D02*
X483490D01*
X482555Y747400D02*
X483480D01*
X465411Y727203D02*
X483344D01*
X465411Y728266D02*
X483281D01*
X481910Y738896D02*
X483278D01*
X466999Y790983D02*
X483002D01*
X434655Y796298D02*
X482822D01*
X465798Y792046D02*
X482532D01*
X434655Y795235D02*
X482433D01*
X434655Y793109D02*
X482295D01*
X434655Y794172D02*
X482264D01*
X467716Y788857D02*
X478393D01*
X467584Y787794D02*
X476602D01*
X467135Y783542D02*
X475938D01*
X467147Y786731D02*
X475902D01*
X467135Y784605D02*
X475644D01*
X467135Y785668D02*
X475616D01*
X465411Y730392D02*
X474385D01*
X467135Y782479D02*
X474359D01*
X467135Y781416D02*
X473273D01*
X467135Y776101D02*
X473219D01*
X467135Y775038D02*
X473219D01*
X467135Y773975D02*
X473219D01*
X467135Y772912D02*
X473219D01*
X467135Y771849D02*
X473219D01*
X467135Y770786D02*
X473219D01*
X467135Y769723D02*
X473219D01*
X467135Y768660D02*
X473219D01*
X467135Y767597D02*
X473219D01*
X467135Y766534D02*
X473219D01*
X467135Y765471D02*
X473219D01*
X467135Y764408D02*
X473219D01*
X467135Y763345D02*
X473219D01*
X467135Y762282D02*
X473219D01*
X467135Y761219D02*
X473219D01*
X467135Y760156D02*
X473219D01*
X467351Y759093D02*
X473219D01*
X467676Y758030D02*
X473219D01*
X467681Y756967D02*
X473219D01*
X467368Y755904D02*
X473219D01*
X466627Y754841D02*
X473219D01*
X464578Y753778D02*
X473219D01*
X464487Y752715D02*
X473219D01*
X465452Y751652D02*
X473219D01*
X465889Y750589D02*
X473219D01*
X465987Y749526D02*
X473219D01*
X465776Y748463D02*
X473219D01*
X465411Y747400D02*
X473219D01*
X465411Y746337D02*
X473219D01*
X465411Y745274D02*
X473219D01*
X465411Y744211D02*
X473219D01*
X465411Y743148D02*
X473219D01*
X465411Y742085D02*
X473219D01*
X467135Y777164D02*
X473219D01*
X465411Y741022D02*
X473149D01*
X467135Y778227D02*
X472804D01*
X467135Y780353D02*
X472780D01*
X465411Y731455D02*
X472710D01*
X467135Y779290D02*
X472638D01*
X465411Y739959D02*
X472516D01*
X465411Y738896D02*
X472321D01*
X465411Y737833D02*
X472321D01*
X465411Y736770D02*
X472321D01*
X465411Y735707D02*
X472169D01*
X465411Y732518D02*
X472033D01*
X465411Y734644D02*
X471802D01*
X465411Y733581D02*
X471760D01*
X420383Y840944D02*
X465287D01*
X421062Y839881D02*
X464607D01*
X421491Y838818D02*
X464178D01*
X421719Y837755D02*
X463950D01*
X421772Y836692D02*
X463898D01*
X421772Y835629D02*
X463898D01*
X421772Y834566D02*
X463898D01*
X421772Y833503D02*
X463898D01*
X434655Y792046D02*
X462154D01*
X434655Y790983D02*
X460954D01*
X434655Y785668D02*
X460817D01*
X455638Y784605D02*
X460817D01*
X456989Y783542D02*
X460817D01*
X457582Y782479D02*
X460817D01*
X458327Y781416D02*
X460817D01*
X459390Y780353D02*
X460817D01*
X434655Y786731D02*
X460805D01*
X434655Y789920D02*
X460414D01*
X434655Y787794D02*
X460368D01*
X434655Y788857D02*
X460237D01*
X435856Y817558D02*
X458345D01*
X434821Y816495D02*
X457877D01*
X434655Y815432D02*
X456814D01*
X434655Y805865D02*
X455241D01*
X434655Y814369D02*
X454842D01*
X449762Y818621D02*
X453624D01*
X434655Y806928D02*
X453442D01*
X434655Y813306D02*
X453299D01*
X447042Y765471D02*
X452794D01*
X446693Y764408D02*
X452794D01*
X446513Y763345D02*
X452794D01*
X446513Y762282D02*
X452794D01*
X446513Y761219D02*
X452794D01*
X446513Y760156D02*
X452794D01*
X446513Y759093D02*
X452794D01*
X446513Y758030D02*
X452794D01*
X447069Y766534D02*
X452785D01*
X434655Y807991D02*
X452625D01*
X434655Y812243D02*
X452548D01*
X446409Y692125D02*
X452513D01*
X434655Y784605D02*
X452488D01*
X450988Y819684D02*
X452398D01*
X434655Y809054D02*
X452200D01*
X434655Y811180D02*
X452165D01*
X434655Y810117D02*
X452056D01*
X445254Y691062D02*
X452043D01*
X446779Y767597D02*
X451872D01*
X434655Y783542D02*
X451137D01*
X442843Y689999D02*
X450980D01*
X446076Y768660D02*
X450809D01*
X446513Y756967D02*
X450780D01*
X434655Y782479D02*
X450544D01*
X446930Y693188D02*
X449920D01*
X443192Y688936D02*
X449917D01*
X444261Y769723D02*
X449762D01*
X446513Y755904D02*
X449311D01*
X434655Y781416D02*
X449256D01*
X434655Y770786D02*
X449169D01*
X434655Y773975D02*
X449014D01*
X434655Y772912D02*
X449014D01*
X434655Y771849D02*
X449014D01*
X446513Y750589D02*
X449014D01*
X446513Y749526D02*
X449014D01*
X446513Y748463D02*
X449014D01*
X446513Y747400D02*
X449014D01*
X446513Y746337D02*
X449014D01*
X446513Y745274D02*
X449014D01*
X446513Y744211D02*
X449014D01*
X446513Y743148D02*
X449014D01*
X446513Y742085D02*
X449014D01*
X446513Y741022D02*
X449014D01*
X446513Y739959D02*
X449014D01*
X446513Y738896D02*
X449014D01*
X446513Y737833D02*
X449014D01*
X446513Y736770D02*
X449014D01*
X446513Y735707D02*
X449014D01*
X446513Y734644D02*
X449014D01*
X446513Y733581D02*
X449014D01*
X446513Y732518D02*
X449014D01*
X446513Y731455D02*
X449014D01*
X446513Y730392D02*
X449014D01*
X446513Y729329D02*
X449014D01*
X446513Y728266D02*
X449014D01*
X446513Y727203D02*
X449014D01*
X446513Y726140D02*
X449014D01*
X446513Y725077D02*
X449014D01*
X446513Y724014D02*
X449014D01*
X446513Y722951D02*
X449014D01*
X446513Y721888D02*
X449014D01*
X446513Y720825D02*
X449014D01*
X446513Y719762D02*
X449014D01*
X446513Y718699D02*
X449014D01*
X446513Y717636D02*
X449014D01*
X446513Y716573D02*
X449014D01*
X446513Y715510D02*
X449014D01*
X446513Y714448D02*
X449014D01*
X446513Y713385D02*
X449014D01*
X446513Y712322D02*
X449014D01*
X446513Y711259D02*
X449014D01*
X446513Y710196D02*
X449014D01*
X446513Y709133D02*
X449014D01*
X446513Y708070D02*
X449014D01*
X446513Y707007D02*
X449014D01*
X446513Y705944D02*
X449014D01*
X446513Y704881D02*
X449014D01*
X446513Y703818D02*
X449014D01*
X446513Y702755D02*
X449014D01*
X446513Y701692D02*
X449014D01*
X446513Y700629D02*
X449014D01*
X446513Y699566D02*
X449014D01*
X446513Y698503D02*
X449014D01*
X447094Y694251D02*
X448965D01*
X446513Y751652D02*
X448919D01*
X443313Y687873D02*
X448854D01*
X434655Y775038D02*
X448714D01*
X446513Y754841D02*
X448683D01*
X446513Y697440D02*
X448654D01*
X446950Y695314D02*
X448533D01*
X446513Y752715D02*
X448515D01*
X446513Y753778D02*
X448444D01*
X446518Y696377D02*
X448439D01*
X434655Y780353D02*
X447956D01*
X443126Y686810D02*
X447791D01*
X434655Y776101D02*
X447729D01*
X434655Y779290D02*
X447380D01*
X434655Y777164D02*
X447283D01*
X434655Y778227D02*
X447177D01*
X442572Y685747D02*
X446728D01*
X441334Y684684D02*
X445665D01*
X438954Y683621D02*
X444602D01*
X441888Y818621D02*
X443781D01*
X438954Y682558D02*
X443539D01*
X438954Y681495D02*
X442476D01*
X434655Y769723D02*
X442448D01*
X438954Y680432D02*
X441413D01*
X434655Y768660D02*
X440633D01*
X438974Y679369D02*
X440350D01*
X434655Y763345D02*
X440195D01*
X434655Y762282D02*
X440195D01*
X434655Y761219D02*
X440195D01*
X434655Y760156D02*
X440195D01*
X434655Y759093D02*
X440195D01*
X434655Y758030D02*
X440195D01*
X434655Y756967D02*
X440195D01*
X434655Y755904D02*
X440195D01*
X434655Y754841D02*
X440195D01*
X434655Y753778D02*
X440195D01*
X434655Y752715D02*
X440195D01*
X434655Y751652D02*
X440195D01*
X434655Y750589D02*
X440195D01*
X434655Y749526D02*
X440195D01*
X434655Y748463D02*
X440195D01*
X434655Y747400D02*
X440195D01*
X434655Y746337D02*
X440195D01*
X434655Y745274D02*
X440195D01*
X434655Y744211D02*
X440195D01*
X434655Y743148D02*
X440195D01*
X434655Y742085D02*
X440195D01*
X434655Y741022D02*
X440195D01*
X434655Y739959D02*
X440195D01*
X434786Y738896D02*
X440195D01*
X435167Y737833D02*
X440195D01*
X435220Y736770D02*
X440195D01*
X434960Y735707D02*
X440195D01*
X434301Y734644D02*
X440195D01*
X432713Y733581D02*
X440195D01*
X427788Y732518D02*
X440195D01*
X428142Y731455D02*
X440195D01*
X429263Y730392D02*
X440195D01*
X430563Y729329D02*
X440195D01*
X434083Y728266D02*
X440195D01*
X435142Y727203D02*
X440195D01*
X435622Y726140D02*
X440195D01*
X435755Y725077D02*
X440195D01*
X435579Y724014D02*
X440195D01*
X435175Y722951D02*
X440195D01*
X435175Y721888D02*
X440195D01*
X435175Y720825D02*
X440195D01*
X435175Y719762D02*
X440195D01*
X435175Y718699D02*
X440195D01*
X435175Y717636D02*
X440195D01*
X435175Y716573D02*
X440195D01*
X435175Y715510D02*
X440195D01*
X435175Y714448D02*
X440195D01*
X435175Y713385D02*
X440195D01*
X435175Y712322D02*
X440195D01*
X435175Y711259D02*
X440195D01*
X437530Y710196D02*
X440195D01*
X438782Y709133D02*
X440164D01*
X434655Y764408D02*
X440016D01*
X434655Y767597D02*
X439929D01*
X434655Y765471D02*
X439666D01*
X434655Y766534D02*
X439640D01*
X421772Y832440D02*
X433641D01*
X421772Y831377D02*
X432578D01*
X421733Y830314D02*
X431515D01*
X421525Y829251D02*
X430624D01*
X426978Y733581D02*
X430279D01*
X422503Y734644D02*
X428691D01*
X394291Y816495D02*
X428337D01*
X394291Y815432D02*
X428337D01*
X394291Y814369D02*
X428337D01*
X394291Y813306D02*
X428337D01*
X394291Y812243D02*
X428337D01*
X394291Y811180D02*
X428337D01*
X394291Y810117D02*
X428337D01*
X420219Y809054D02*
X428337D01*
X421849Y807991D02*
X428337D01*
X422743Y806928D02*
X428337D01*
X423287Y805865D02*
X428337D01*
X423583Y804802D02*
X428337D01*
X423669Y803739D02*
X428337D01*
X423555Y802676D02*
X428337D01*
X423229Y801613D02*
X428337D01*
X422646Y800550D02*
X428337D01*
X421688Y799487D02*
X428337D01*
X419849Y798424D02*
X428337D01*
X394291Y797361D02*
X428337D01*
X394291Y796298D02*
X428337D01*
X394291Y795235D02*
X428337D01*
X394291Y794172D02*
X428337D01*
X394291Y793109D02*
X428337D01*
X394291Y792046D02*
X428337D01*
X394291Y790983D02*
X428337D01*
X394291Y789920D02*
X428337D01*
X394291Y788857D02*
X428337D01*
X420459Y787794D02*
X428337D01*
X421811Y786731D02*
X428337D01*
X422597Y785668D02*
X428337D01*
X423070Y784605D02*
X428337D01*
X423309Y783542D02*
X428337D01*
X423344Y782479D02*
X428337D01*
X423177Y781416D02*
X428337D01*
X422791Y780353D02*
X428337D01*
X422127Y779290D02*
X428337D01*
X425881Y741022D02*
X428337D01*
X394291Y739959D02*
X428337D01*
X394291Y817558D02*
X428277D01*
X421043Y778227D02*
X428215D01*
X394291Y738896D02*
X428206D01*
X421657Y735707D02*
X428032D01*
X394291Y737833D02*
X427825D01*
X420161Y736770D02*
X427772D01*
X421120Y828188D02*
X426394D01*
X394291Y818621D02*
X426065D01*
X421357Y777164D02*
X425851D01*
X420471Y827125D02*
X425014D01*
X422322Y776101D02*
X424967D01*
X394291Y819684D02*
X424839D01*
X422909Y775038D02*
X424517D01*
X394291Y741022D02*
X424292D01*
X419468Y826062D02*
X424227D01*
X394291Y820747D02*
X424121D01*
X417704Y824999D02*
X423760D01*
X394291Y821810D02*
X423702D01*
X395637Y823936D02*
X423532D01*
X394574Y822873D02*
X423513D01*
X409849Y798424D02*
X416072D01*
X410219Y809054D02*
X415702D01*
X410161Y736770D02*
X415130D01*
X410459Y787794D02*
X414832D01*
X411688Y799487D02*
X414234D01*
X411849Y807991D02*
X414072D01*
X394291Y742085D02*
X413989D01*
X411657Y735707D02*
X413634D01*
X411811Y786731D02*
X413481D01*
X412807Y800550D02*
X413114D01*
X394291Y743148D02*
X412857D01*
X396700Y824999D02*
X412847D01*
X394291Y744211D02*
X411794D01*
X397763Y826062D02*
X411083D01*
X394291Y745274D02*
X410731D01*
X398826Y827125D02*
X410080D01*
X394291Y746337D02*
X409668D01*
X399889Y828188D02*
X409431D01*
X400952Y829251D02*
X409026D01*
X402015Y830314D02*
X408818D01*
X407330Y835629D02*
X408780D01*
X406267Y834566D02*
X408780D01*
X405204Y833503D02*
X408780D01*
X404141Y832440D02*
X408780D01*
X403078Y831377D02*
X408780D01*
X394291Y798424D02*
X406072D01*
X394291Y747400D02*
X405873D01*
X394291Y809054D02*
X405702D01*
X394291Y736770D02*
X405130D01*
X394291Y787794D02*
X404832D01*
X394291Y758030D02*
X404369D01*
X394291Y767597D02*
X404358D01*
X394291Y778227D02*
X404248D01*
X394291Y799487D02*
X404234D01*
X394291Y726140D02*
X404126D01*
X394291Y807991D02*
X404072D01*
X394291Y727203D02*
X404060D01*
X394291Y748463D02*
X403965D01*
X394291Y777164D02*
X403934D01*
X394291Y768660D02*
X403743D01*
X394291Y756967D02*
X403716D01*
X394291Y735707D02*
X403634D01*
X394291Y786731D02*
X403481D01*
X394291Y759093D02*
X403327D01*
X394291Y766534D02*
X403305D01*
X394291Y800550D02*
X403275D01*
X394291Y806928D02*
X403178D01*
X394291Y779290D02*
X403165D01*
X394291Y725077D02*
X403084D01*
X394291Y728266D02*
X403045D01*
X394291Y749526D02*
X402988D01*
X394291Y776101D02*
X402969D01*
X394291Y769723D02*
X402854D01*
X394291Y755904D02*
X402837D01*
X394291Y734644D02*
X402788D01*
X394291Y785668D02*
X402694D01*
X394291Y801613D02*
X402692D01*
X394291Y805865D02*
X402634D01*
X394291Y760156D02*
X402600D01*
X394291Y765471D02*
X402586D01*
X394291Y780353D02*
X402501D01*
X394291Y724014D02*
X402452D01*
X394291Y729329D02*
X402428D01*
X394291Y750589D02*
X402394D01*
X394291Y775038D02*
X402383D01*
X394291Y802676D02*
X402366D01*
X394291Y804802D02*
X402339D01*
X394291Y770786D02*
X402314D01*
X394291Y754841D02*
X402304D01*
X394291Y733581D02*
X402275D01*
X394291Y803739D02*
X402252D01*
X394291Y784605D02*
X402221D01*
X394291Y761219D02*
X402168D01*
X394291Y764408D02*
X402160D01*
X394291Y781416D02*
X402114D01*
X394291Y722951D02*
X402088D01*
X394291Y730392D02*
X402076D01*
X394291Y751652D02*
X402059D01*
X394291Y773975D02*
X402054D01*
X394291Y771849D02*
X402021D01*
X394291Y753778D02*
X402017D01*
X394291Y732518D02*
X402004D01*
X394291Y720825D02*
X401996D01*
X394291Y783542D02*
X401982D01*
X394291Y762282D02*
X401963D01*
X394291Y763345D02*
X401961D01*
X394291Y782479D02*
X401948D01*
X394291Y721888D02*
X401942D01*
X394291Y731455D02*
X401940D01*
X394291Y752715D02*
X401938D01*
X394291Y772912D02*
X401938D01*
X394291Y719762D02*
X401295D01*
X394291Y718699D02*
X400232D01*
X394291Y717636D02*
X399169D01*
X394291Y716573D02*
X398106D01*
X394291Y715510D02*
X397043D01*
X394291Y714448D02*
X395980D01*
X450348Y680432D02*
X496486D01*
X451411Y681495D02*
X495981D01*
X452474Y682558D02*
X495652D01*
X489694Y700629D02*
X495628D01*
X489921Y699566D02*
X495628D01*
X489838Y698503D02*
X495628D01*
X489420Y697440D02*
X495628D01*
X488493Y696377D02*
X495628D01*
X463328Y695314D02*
X495628D01*
X463472Y694251D02*
X495628D01*
X463308Y693188D02*
X495628D01*
X462787Y692125D02*
X495628D01*
X461632Y691062D02*
X495628D01*
X459915Y689999D02*
X495628D01*
X458852Y688936D02*
X495628D01*
X457789Y687873D02*
X495628D01*
X456726Y686810D02*
X495628D01*
X455663Y685747D02*
X495628D01*
X454600Y684684D02*
X495628D01*
X453537Y683621D02*
X495628D01*
X489348Y701692D02*
X495323D01*
X489740Y703818D02*
X495116D01*
X489348Y702755D02*
X495063D01*
X490146Y704881D02*
X494985D01*
X462832Y696377D02*
X483885D01*
X472589Y702755D02*
X483030D01*
X472890Y701692D02*
X483030D01*
X461739Y697440D02*
X482957D01*
X472875Y700629D02*
X482684D01*
X472159Y703818D02*
X482638D01*
X471759Y698503D02*
X482540D01*
X472539Y699566D02*
X482457D01*
X473023Y704881D02*
X482232D01*
X460198Y698503D02*
X466603D01*
X461456Y699566D02*
X465823D01*
X462356Y700629D02*
X465127D01*
X462767Y701692D02*
X463958D01*
X457257Y679369D02*
X459136D01*
X449285D02*
X452129D01*
X444330Y674054D02*
X451996D01*
X451484Y672991D02*
X451836D01*
X448222Y678306D02*
X451341D01*
X445033Y675117D02*
X451279D01*
X447159Y677243D02*
X451001D01*
X446096Y676180D02*
X450982D01*
X443707Y672991D02*
X447846D01*
X442260Y671928D02*
X446637D01*
X435720Y670865D02*
X446094D01*
X435716Y669802D02*
X445914D01*
X435586Y671928D02*
X439409D01*
X423279Y651731D02*
X449803D01*
X423351Y650668D02*
X448914D01*
X423289Y649605D02*
X448509D01*
X423277Y648542D02*
X448306D01*
X454537Y473148D02*
X459209D01*
X454537Y474211D02*
X458613D01*
X450403Y490156D02*
X458455D01*
X450403Y489093D02*
X458455D01*
X450403Y488030D02*
X458455D01*
X450403Y486967D02*
X458455D01*
X450482Y485904D02*
X458455D01*
X451516Y484841D02*
X458455D01*
X452579Y483778D02*
X458455D01*
X453642Y482715D02*
X458455D01*
X454324Y481652D02*
X458455D01*
X454536Y480589D02*
X458455D01*
X454537Y479526D02*
X458455D01*
X454537Y478463D02*
X458455D01*
X454537Y477400D02*
X458455D01*
X454537Y476337D02*
X458455D01*
X454537Y475274D02*
X458455D01*
X450403Y491219D02*
X458250D01*
X450403Y492282D02*
X457187D01*
X450403Y493345D02*
X456124D01*
X454749Y472085D02*
X455594D01*
X450403Y494408D02*
X455061D01*
X450403Y495471D02*
X453998D01*
X450403Y496534D02*
X452935D01*
X450403Y497597D02*
X451872D01*
X470669Y630471D02*
X511133D01*
X493700Y640038D02*
X511014D01*
X493569Y638975D02*
X511014D01*
X493090Y637912D02*
X511014D01*
X492036Y636849D02*
X511014D01*
X471356Y635786D02*
X511014D01*
X470293Y634723D02*
X510922D01*
X493523Y641101D02*
X510901D01*
X470527Y631534D02*
X510681D01*
X469400Y633660D02*
X510517D01*
X492983Y642164D02*
X510509D01*
X492135Y643227D02*
X510446D01*
X470034Y632597D02*
X510443D01*
X470927Y629408D02*
X495440D01*
X410891Y716573D02*
X414400D01*
X411710Y717636D02*
X413582D01*
X411847Y715510D02*
X413444D01*
X411010Y707007D02*
X414282D01*
X411403Y705944D02*
X413888D01*
X412095Y708070D02*
X413196D01*
X401159Y695314D02*
X421298D01*
X401159Y694251D02*
X421298D01*
X401159Y693188D02*
X421298D01*
X401159Y692125D02*
X421298D01*
X401159Y691062D02*
X421298D01*
X401159Y689999D02*
X421298D01*
X401159Y688936D02*
X421298D01*
X401159Y687873D02*
X421298D01*
X401159Y686810D02*
X421298D01*
X419811Y685747D02*
X421254D01*
X419843Y696377D02*
X421248D01*
X409811Y685747D02*
X415481D01*
X409843Y696377D02*
X415449D01*
X411491Y684684D02*
X413800D01*
X411506Y697440D02*
X413786D01*
X401159Y685747D02*
X405481D01*
X401159Y696377D02*
X405449D01*
X401159Y684684D02*
X403800D01*
X401159Y697440D02*
X403786D01*
X401159Y683621D02*
X402889D01*
X401159Y698503D02*
X402880D01*
X401172Y682558D02*
X402335D01*
X401175Y699566D02*
X402329D01*
X411182Y655983D02*
X414110D01*
X411215Y654920D02*
X414077D01*
X412223Y657046D02*
X413068D01*
X412251Y653857D02*
X413041D01*
X616990Y553936D02*
X620411D01*
X617597Y552873D02*
X619804D01*
X618046Y554999D02*
X619355D01*
X617176Y524172D02*
X620225D01*
X617328Y523109D02*
X620073D01*
X618237Y525235D02*
X619165D01*
X618366Y522046D02*
X619036D01*
X627176Y524172D02*
X630225D01*
X627328Y523109D02*
X630073D01*
X628237Y525235D02*
X629165D01*
X628366Y522046D02*
X629036D01*
X540309Y589014D02*
X664764D01*
X600969Y587951D02*
X664764D01*
X601873Y586888D02*
X664764D01*
X602279Y585825D02*
X664764D01*
X602352Y584762D02*
X664764D01*
X602114Y583699D02*
X664764D01*
X601488Y582636D02*
X664764D01*
X600028Y581573D02*
X664764D01*
X542619Y580510D02*
X664764D01*
X541642Y579448D02*
X664764D01*
X539733Y578385D02*
X664764D01*
X516151Y577322D02*
X664764D01*
X516151Y576259D02*
X664764D01*
X516151Y575196D02*
X664764D01*
X516151Y574133D02*
X664764D01*
X516151Y573070D02*
X664764D01*
X516151Y572007D02*
X664764D01*
X516792Y570944D02*
X664764D01*
X517855Y569881D02*
X664764D01*
X518918Y568818D02*
X664764D01*
X519981Y567755D02*
X664764D01*
X521044Y566692D02*
X664764D01*
X522107Y565629D02*
X664764D01*
X523170Y564566D02*
X664764D01*
X646788Y563503D02*
X664764D01*
X648015Y562440D02*
X664764D01*
X648743Y561377D02*
X664764D01*
X649177Y560314D02*
X664764D01*
X649383Y559251D02*
X664764D01*
X649386Y558188D02*
X664764D01*
X649188Y557125D02*
X664764D01*
X648763Y556062D02*
X664764D01*
X648046Y554999D02*
X664764D01*
X646990Y553936D02*
X664764D01*
X647597Y552873D02*
X664764D01*
X648489Y551810D02*
X664764D01*
X649030Y550747D02*
X664764D01*
X649324Y549684D02*
X664764D01*
X649409Y548621D02*
X664764D01*
X649294Y547558D02*
X664764D01*
X648966Y546495D02*
X664764D01*
X648381Y545432D02*
X664764D01*
X647419Y544369D02*
X664764D01*
X645567Y543306D02*
X664764D01*
X641049Y542243D02*
X664764D01*
X642225Y541180D02*
X664764D01*
X643288Y540117D02*
X664764D01*
X644351Y539054D02*
X664764D01*
X645414Y537991D02*
X664764D01*
X646369Y536928D02*
X664764D01*
X646797Y535865D02*
X664764D01*
X646860Y534802D02*
X664764D01*
X646860Y533739D02*
X664764D01*
X647798Y532676D02*
X664764D01*
X648611Y531613D02*
X664764D01*
X649102Y530550D02*
X664764D01*
X649355Y529487D02*
X664764D01*
X649403Y528424D02*
X664764D01*
X649250Y527361D02*
X664764D01*
X648879Y526298D02*
X664764D01*
X648237Y525235D02*
X664764D01*
X647176Y524172D02*
X664764D01*
X647328Y523109D02*
X664764D01*
X648327Y522046D02*
X664764D01*
X648933Y520983D02*
X664764D01*
X649278Y519920D02*
X664764D01*
X649407Y518857D02*
X664764D01*
X649337Y517794D02*
X664764D01*
X649059Y516731D02*
X664764D01*
X648537Y515668D02*
X664764D01*
X647677Y514605D02*
X664764D01*
X646145Y513542D02*
X664764D01*
X633285Y512479D02*
X664764D01*
X632222Y511416D02*
X664764D01*
X631159Y510353D02*
X664764D01*
X630053Y509290D02*
X664764D01*
X599692Y508227D02*
X664764D01*
X470138Y507164D02*
X664764D01*
X471201Y506101D02*
X664764D01*
X472264Y505038D02*
X664764D01*
X473327Y503975D02*
X664764D01*
X474390Y502912D02*
X664764D01*
X475453Y501849D02*
X664764D01*
X476516Y500786D02*
X664764D01*
X477579Y499723D02*
X664764D01*
X478642Y498660D02*
X664764D01*
X479611Y497597D02*
X664764D01*
X608869Y496534D02*
X664764D01*
X610370Y495471D02*
X664764D01*
X611310Y494408D02*
X664764D01*
X611943Y493345D02*
X664764D01*
X612353Y492282D02*
X664764D01*
X612582Y491219D02*
X664764D01*
X612645Y490156D02*
X664764D01*
X612548Y489093D02*
X664764D01*
X631928Y488030D02*
X664764D01*
X633901Y486967D02*
X664764D01*
X634914Y485904D02*
X664764D01*
X635540Y484841D02*
X664764D01*
X635906Y483778D02*
X664764D01*
X636062Y482715D02*
X664764D01*
X636024Y481652D02*
X664764D01*
X635788Y480589D02*
X664764D01*
X635328Y479526D02*
X664764D01*
X634573Y478463D02*
X664764D01*
X633318Y477400D02*
X664764D01*
X480128Y476337D02*
X664764D01*
X480128Y475274D02*
X664764D01*
X480128Y474211D02*
X664764D01*
X480128Y473148D02*
X664764D01*
X480128Y472085D02*
X664764D01*
X480128Y471022D02*
X664764D01*
X480128Y469959D02*
X664764D01*
X480128Y468896D02*
X664764D01*
X633100Y467833D02*
X664764D01*
X634452Y466770D02*
X664764D01*
X635253Y465707D02*
X664764D01*
X635745Y464644D02*
X664764D01*
X636006Y463581D02*
X664764D01*
X636068Y462518D02*
X664764D01*
X635936Y461455D02*
X664764D01*
X635598Y460392D02*
X664764D01*
X635008Y459329D02*
X664764D01*
X634057Y458266D02*
X664764D01*
X632303Y457203D02*
X664764D01*
X612524Y456140D02*
X664764D01*
X612642Y455077D02*
X664764D01*
X612598Y454014D02*
X664764D01*
X612391Y452951D02*
X664764D01*
X612004Y451888D02*
X664764D01*
X611403Y450825D02*
X664764D01*
X610508Y449762D02*
X664764D01*
X609106Y448699D02*
X664764D01*
X499865Y447636D02*
X664764D01*
X500008Y446573D02*
X664764D01*
X499841Y445510D02*
X664764D01*
X499316Y444448D02*
X664764D01*
X498154Y443385D02*
X664764D01*
X481671Y442322D02*
X664764D01*
X481131Y441259D02*
X664764D01*
X479927Y440196D02*
X664764D01*
X475668Y439133D02*
X664764D01*
X394291Y438070D02*
X664764D01*
X394291Y437007D02*
X664764D01*
X394291Y435944D02*
X664764D01*
X394291Y434881D02*
X664764D01*
X394291Y433818D02*
X664764D01*
X394291Y432755D02*
X664764D01*
X394291Y431692D02*
X664764D01*
X394291Y430629D02*
X664764D01*
X394291Y429566D02*
X664764D01*
X394291Y428503D02*
X664764D01*
X394291Y427440D02*
X664764D01*
X394291Y426377D02*
X664764D01*
X394291Y425314D02*
X664764D01*
X394291Y424251D02*
X664764D01*
X394291Y423188D02*
X664764D01*
X394291Y422125D02*
X664764D01*
X394291Y421062D02*
X664764D01*
X394291Y419999D02*
X664764D01*
X394291Y418936D02*
X664764D01*
X394291Y417873D02*
X664764D01*
X394291Y416810D02*
X664764D01*
X394291Y415747D02*
X664764D01*
X394291Y414684D02*
X664764D01*
X394291Y413621D02*
X664764D01*
X394291Y412558D02*
X664764D01*
X394291Y411495D02*
X664764D01*
X394291Y410432D02*
X664764D01*
X394291Y409369D02*
X664764D01*
X394291Y408306D02*
X664764D01*
X394291Y407243D02*
X664764D01*
X394291Y406180D02*
X664764D01*
X394291Y405117D02*
X664764D01*
X394291Y404054D02*
X664764D01*
X394291Y402991D02*
X664764D01*
X394291Y401928D02*
X664764D01*
X394291Y400865D02*
X664764D01*
X394291Y399802D02*
X664764D01*
X394291Y398739D02*
X664764D01*
X551978Y397676D02*
X664764D01*
X553041Y396613D02*
X664764D01*
X554104Y395550D02*
X664764D01*
X555167Y394487D02*
X664764D01*
X516151Y590077D02*
X664764D01*
X556230Y393424D02*
X664242D01*
X516384Y591140D02*
X663930D01*
X557293Y392361D02*
X663179D01*
X516697Y592203D02*
X662867D01*
X558356Y391298D02*
X662116D01*
X516692Y593266D02*
X661804D01*
X559419Y390235D02*
X661053D01*
X636130Y594329D02*
X660741D01*
X560482Y389172D02*
X659990D01*
X637184Y595392D02*
X659678D01*
X561545Y388109D02*
X658927D01*
X637663Y596455D02*
X658615D01*
X562608Y387046D02*
X657864D01*
X637794Y597518D02*
X657552D01*
X563671Y385983D02*
X656801D01*
X637617Y598581D02*
X656489D01*
X564734Y384920D02*
X655738D01*
X637077Y599644D02*
X655426D01*
X565797Y383857D02*
X654675D01*
X635877Y600707D02*
X654363D01*
X566860Y382794D02*
X653612D01*
X506496Y601770D02*
X653300D01*
X567923Y381731D02*
X652549D01*
X506496Y602833D02*
X652237D01*
X568986Y380668D02*
X651486D01*
X506496Y603896D02*
X651174D01*
X570049Y379605D02*
X650423D01*
X506496Y604959D02*
X650111D01*
X506496Y606022D02*
X649048D01*
X506496Y607085D02*
X647985D01*
X506496Y608148D02*
X646922D01*
X506496Y609211D02*
X645859D01*
X622180Y845196D02*
X645079D01*
X553629Y844133D02*
X645079D01*
X552566Y843070D02*
X645079D01*
X551503Y842007D02*
X645079D01*
X475501Y840944D02*
X645079D01*
X476181Y839881D02*
X645079D01*
X476609Y838818D02*
X645079D01*
X476837Y837755D02*
X645079D01*
X476890Y836692D02*
X645079D01*
X476890Y835629D02*
X645079D01*
X476890Y834566D02*
X645079D01*
X548906Y833503D02*
X645079D01*
X551065Y832440D02*
X645079D01*
X552177Y831377D02*
X645079D01*
X552890Y830314D02*
X645079D01*
X553344Y829251D02*
X645079D01*
X553593Y828188D02*
X645079D01*
X553660Y827125D02*
X645079D01*
X553553Y826062D02*
X645079D01*
X582019Y824999D02*
X645079D01*
X583910Y823936D02*
X645079D01*
X584973Y822873D02*
X645079D01*
X586036Y821810D02*
X645079D01*
X587099Y820747D02*
X645079D01*
X588162Y819684D02*
X645079D01*
X589225Y818621D02*
X645079D01*
X610666Y817558D02*
X645079D01*
X612270Y816495D02*
X645079D01*
X613038Y815432D02*
X645079D01*
X613432Y814369D02*
X645079D01*
X613551Y813306D02*
X645079D01*
X613417Y812243D02*
X645079D01*
X613003Y811180D02*
X645079D01*
X612205Y810117D02*
X645079D01*
X610486Y809054D02*
X645079D01*
X591299Y807991D02*
X645079D01*
X592157Y806928D02*
X645079D01*
X592537Y805865D02*
X645079D01*
X592590Y804802D02*
X645079D01*
X592330Y803739D02*
X645079D01*
X591671Y802676D02*
X645079D01*
X590083Y801613D02*
X645079D01*
X560138Y800550D02*
X645079D01*
X560872Y799487D02*
X645079D01*
X561324Y798424D02*
X645079D01*
X562432Y797361D02*
X645079D01*
X563099Y796298D02*
X645079D01*
X563489Y795235D02*
X645079D01*
X563658Y794172D02*
X645079D01*
X563626Y793109D02*
X645079D01*
X563390Y792046D02*
X645079D01*
X562920Y790983D02*
X645079D01*
X562138Y789920D02*
X645079D01*
X560797Y788857D02*
X645079D01*
X559269Y787794D02*
X645079D01*
X634974Y786731D02*
X645079D01*
X637081Y785668D02*
X645079D01*
X638103Y784605D02*
X645079D01*
X638724Y783542D02*
X645079D01*
X639078Y782479D02*
X645079D01*
X639217Y781416D02*
X645079D01*
X639155Y780353D02*
X645079D01*
X638887Y779290D02*
X645079D01*
X638378Y778227D02*
X645079D01*
X637537Y777164D02*
X645079D01*
X636054Y776101D02*
X645079D01*
X578445Y775038D02*
X645079D01*
X579508Y773975D02*
X645079D01*
X613621Y772912D02*
X645079D01*
X614705Y771849D02*
X645079D01*
X615768Y770786D02*
X645079D01*
X616831Y769723D02*
X645079D01*
X617894Y768660D02*
X645079D01*
X618957Y767597D02*
X645079D01*
X619992Y766534D02*
X645079D01*
X620547Y765471D02*
X645079D01*
X620679Y764408D02*
X645079D01*
X620679Y763345D02*
X645079D01*
X620679Y762282D02*
X645079D01*
X620679Y761219D02*
X645079D01*
X620679Y760156D02*
X645079D01*
X620679Y759093D02*
X645079D01*
X620679Y758030D02*
X645079D01*
X620679Y756967D02*
X645079D01*
X620679Y755904D02*
X645079D01*
X620679Y754841D02*
X645079D01*
X620679Y753778D02*
X645079D01*
X620679Y752715D02*
X645079D01*
X620679Y751652D02*
X645079D01*
X620679Y750589D02*
X645079D01*
X620679Y749526D02*
X645079D01*
X620679Y748463D02*
X645079D01*
X620679Y747400D02*
X645079D01*
X620679Y746337D02*
X645079D01*
X620679Y745274D02*
X645079D01*
X620679Y744211D02*
X645079D01*
X620679Y743148D02*
X645079D01*
X620679Y742085D02*
X645079D01*
X620679Y741022D02*
X645079D01*
X620679Y739959D02*
X645079D01*
X620679Y738896D02*
X645079D01*
X620679Y737833D02*
X645079D01*
X620679Y736770D02*
X645079D01*
X620679Y735707D02*
X645079D01*
X620679Y734644D02*
X645079D01*
X620679Y733581D02*
X645079D01*
X620679Y732518D02*
X645079D01*
X620679Y731455D02*
X645079D01*
X620679Y730392D02*
X645079D01*
X620679Y729329D02*
X645079D01*
X620895Y728266D02*
X645079D01*
X632927Y727203D02*
X645079D01*
X633756Y726140D02*
X645079D01*
X634121Y725077D02*
X645079D01*
X634980Y724014D02*
X645079D01*
X636066Y722951D02*
X645079D01*
X636558Y721888D02*
X645079D01*
X636701Y720825D02*
X645079D01*
X636534Y719762D02*
X645079D01*
X636009Y718699D02*
X645079D01*
X634847Y717636D02*
X645079D01*
X620679Y716573D02*
X645079D01*
X620679Y715510D02*
X645079D01*
X620679Y714448D02*
X645079D01*
X620679Y713385D02*
X645079D01*
X620679Y712322D02*
X645079D01*
X620679Y711259D02*
X645079D01*
X620679Y710196D02*
X645079D01*
X620679Y709133D02*
X645079D01*
X620679Y708070D02*
X645079D01*
X620679Y707007D02*
X645079D01*
X625088Y705944D02*
X645079D01*
X626828Y704881D02*
X645079D01*
X627745Y703818D02*
X645079D01*
X628295Y702755D02*
X645079D01*
X628589Y701692D02*
X645079D01*
X628668Y700629D02*
X645079D01*
X628542Y699566D02*
X645079D01*
X628196Y698503D02*
X645079D01*
X627578Y697440D02*
X645079D01*
X626545Y696377D02*
X645079D01*
X626290Y695314D02*
X645079D01*
X627427Y694251D02*
X645079D01*
X628105Y693188D02*
X645079D01*
X628496Y692125D02*
X645079D01*
X628660Y691062D02*
X645079D01*
X628619Y689999D02*
X645079D01*
X628366Y688936D02*
X645079D01*
X627868Y687873D02*
X645079D01*
X627034Y686810D02*
X645079D01*
X626100Y685747D02*
X645079D01*
X627036Y684684D02*
X645079D01*
X627870Y683621D02*
X645079D01*
X628366Y682558D02*
X645079D01*
X628619Y681495D02*
X645079D01*
X628660Y680432D02*
X645079D01*
X628495Y679369D02*
X645079D01*
X628104Y678306D02*
X645079D01*
X627425Y677243D02*
X645079D01*
X626590Y676180D02*
X645079D01*
X626201Y675117D02*
X645079D01*
X625325Y674054D02*
X645079D01*
X624262Y672991D02*
X645079D01*
X623199Y671928D02*
X645079D01*
X622136Y670865D02*
X645079D01*
X621073Y669802D02*
X645079D01*
X620010Y668739D02*
X645079D01*
X554180Y667676D02*
X645079D01*
X548050Y666613D02*
X645079D01*
X548224Y665550D02*
X645079D01*
X548144Y664487D02*
X645079D01*
X625608Y663424D02*
X645079D01*
X626948Y662361D02*
X645079D01*
X627538Y661298D02*
X645079D01*
X627751Y660235D02*
X645079D01*
X627654Y659172D02*
X645079D01*
X627219Y658109D02*
X645079D01*
X626258Y657046D02*
X645079D01*
X624191Y655983D02*
X645079D01*
X623864Y654920D02*
X645079D01*
X623123Y653857D02*
X645079D01*
X621005Y652794D02*
X645079D01*
X615476Y651731D02*
X645079D01*
X614597Y650668D02*
X645079D01*
X573312Y649605D02*
X645079D01*
X574660Y648542D02*
X645079D01*
X575422Y647479D02*
X645079D01*
X575747Y646416D02*
X645079D01*
X575752Y645353D02*
X645079D01*
X575439Y644290D02*
X645079D01*
X574698Y643227D02*
X645079D01*
X572580Y642164D02*
X645079D01*
X632414Y641101D02*
X645079D01*
X633937Y640038D02*
X645079D01*
X634580Y638975D02*
X645079D01*
X634829Y637912D02*
X645079D01*
X634767Y636849D02*
X645079D01*
X634374Y635786D02*
X645079D01*
X633494Y634723D02*
X645079D01*
X629671Y633660D02*
X645079D01*
X630172Y632597D02*
X645079D01*
X630934Y631534D02*
X645079D01*
X631259Y630471D02*
X645079D01*
X631264Y629408D02*
X645079D01*
X630951Y628345D02*
X645079D01*
X630209Y627282D02*
X645079D01*
X628091Y626219D02*
X645079D01*
X532726Y625156D02*
X645079D01*
X531663Y624093D02*
X645079D01*
X530572Y623030D02*
X645079D01*
X506586Y621967D02*
X645079D01*
X506496Y620904D02*
X645079D01*
X506496Y619841D02*
X645079D01*
X506496Y618778D02*
X645079D01*
X615848Y617715D02*
X645079D01*
X618361Y616652D02*
X645079D01*
X619123Y615589D02*
X645079D01*
X619448Y614526D02*
X645079D01*
X619453Y613463D02*
X645079D01*
X619140Y612400D02*
X645079D01*
X618398Y611337D02*
X645079D01*
X616280Y610274D02*
X645079D01*
X623516Y846259D02*
X645002D01*
X624234Y847322D02*
X643969D01*
X624619Y848385D02*
X642906D01*
X624751Y849448D02*
X641843D01*
X636380Y543306D02*
X641835D01*
X636145Y513542D02*
X641256D01*
X624651Y850510D02*
X640780D01*
X636788Y563503D02*
X640613D01*
X637419Y544369D02*
X639983D01*
X637677Y514605D02*
X639724D01*
X624303Y851573D02*
X639717D01*
X638015Y562440D02*
X639387D01*
X638521Y545432D02*
X638881D01*
X623639Y852636D02*
X638654D01*
X623416Y853699D02*
X637591D01*
X627247Y854762D02*
X636528D01*
X628299Y855825D02*
X635465D01*
X628870Y856888D02*
X634402D01*
X629140Y857951D02*
X633339D01*
X629181Y859014D02*
X632276D01*
X592873Y600707D02*
X632233D01*
X624974Y786731D02*
X632050D01*
X629181Y860077D02*
X631213D01*
X622359Y717636D02*
X631074D01*
X626054Y776101D02*
X630970D01*
X626788Y563503D02*
X630613D01*
X629397Y861140D02*
X630146D01*
X627081Y785668D02*
X629943D01*
X552690Y641101D02*
X629791D01*
X627537Y777164D02*
X629487D01*
X628015Y562440D02*
X629387D01*
X628117Y784605D02*
X628907D01*
X612283Y488030D02*
X628403D01*
X612238Y457203D02*
X628028D01*
X583888Y467833D02*
X627231D01*
X551910Y626219D02*
X627027D01*
X584106Y477400D02*
X627012D01*
X611830Y486967D02*
X626429D01*
X611759Y458266D02*
X626274D01*
X585240Y466770D02*
X625878D01*
X585360Y478463D02*
X625758D01*
X611143Y485904D02*
X625416D01*
X611038Y459329D02*
X625322D01*
X586040Y465707D02*
X625078D01*
X586115Y479526D02*
X625003D01*
X610117Y484841D02*
X624791D01*
X609956Y460392D02*
X624733D01*
X586532Y464644D02*
X624586D01*
X586576Y480589D02*
X624542D01*
X608406Y483778D02*
X624424D01*
X608086Y461455D02*
X624394D01*
X586793Y463581D02*
X624325D01*
X586812Y481652D02*
X624307D01*
X586850Y482715D02*
X624269D01*
X586855Y462518D02*
X624263D01*
X568915Y663424D02*
X622424D01*
X614974Y786731D02*
X622050D01*
X599484Y854762D02*
X621083D01*
X616054Y776101D02*
X620970D01*
X599952Y855825D02*
X620615D01*
X616788Y563503D02*
X620613D01*
X600523Y856888D02*
X620043D01*
X617081Y785668D02*
X619943D01*
X615869Y652794D02*
X619940D01*
X600793Y857951D02*
X619774D01*
X600835Y860077D02*
X619732D01*
X600835Y859014D02*
X619732D01*
X600846Y861140D02*
X619721D01*
X617537Y777164D02*
X619487D01*
X618015Y562440D02*
X619387D01*
X618117Y784605D02*
X618907D01*
X603086Y845196D02*
X617481D01*
X603334Y853699D02*
X617233D01*
X604422Y846259D02*
X616145D01*
X604545Y852636D02*
X616022D01*
X551478Y617715D02*
X615648D01*
X605139Y847322D02*
X615428D01*
X605208Y851573D02*
X615358D01*
X551910Y610274D02*
X615216D01*
X605525Y848385D02*
X615042D01*
X605557Y850510D02*
X615010D01*
X605657Y849448D02*
X614910D01*
X566640Y786731D02*
X612050D01*
X577382Y776101D02*
X610970D01*
X524233Y563503D02*
X610613D01*
X528553Y553936D02*
X610411D01*
X462411Y524172D02*
X610225D01*
X462411Y523109D02*
X610073D01*
X567815Y785668D02*
X609943D01*
X528553Y552873D02*
X609804D01*
X576319Y777164D02*
X609487D01*
X525296Y562440D02*
X609387D01*
X528553Y554999D02*
X609355D01*
X462411Y525235D02*
X609165D01*
X585526Y532676D02*
X608946D01*
X568878Y784605D02*
X608920D01*
X538527Y531613D02*
X608791D01*
X526359Y561377D02*
X608658D01*
X575256Y778227D02*
X608646D01*
X528553Y556062D02*
X608639D01*
X462411Y526298D02*
X608522D01*
X569941Y783542D02*
X608300D01*
X537810Y530550D02*
X608300D01*
X527422Y560314D02*
X608225D01*
X528553Y557125D02*
X608214D01*
X462411Y527361D02*
X608152D01*
X574193Y779290D02*
X608137D01*
X536608Y529487D02*
X608046D01*
X528237Y559251D02*
X608019D01*
X528537Y558188D02*
X608015D01*
X462411Y528424D02*
X607999D01*
X571004Y782479D02*
X607945D01*
X573130Y780353D02*
X607868D01*
X572067Y781416D02*
X607807D01*
X589816Y809054D02*
X607561D01*
X590288Y817558D02*
X607381D01*
X586724Y461455D02*
X603032D01*
X586694Y483778D02*
X602712D01*
X534065Y496534D02*
X602250D01*
X534303Y448699D02*
X602012D01*
X586385Y460392D02*
X601162D01*
X586327Y484841D02*
X601001D01*
X535567Y495471D02*
X600748D01*
X535705Y449762D02*
X600610D01*
X585796Y459329D02*
X600080D01*
X585702Y485904D02*
X599975D01*
X536507Y494408D02*
X599808D01*
X536599Y450825D02*
X599716D01*
X584844Y458266D02*
X599359D01*
X584689Y486967D02*
X599288D01*
X537139Y493345D02*
X599175D01*
X537201Y451888D02*
X599114D01*
X583090Y457203D02*
X598880D01*
X582715Y488030D02*
X598835D01*
X537550Y492282D02*
X598765D01*
X537588Y452951D02*
X598727D01*
X537721Y456140D02*
X598594D01*
X537745Y489093D02*
X598570D01*
X537778Y491219D02*
X598537D01*
X537795Y454014D02*
X598520D01*
X537838Y455077D02*
X598477D01*
X537842Y490156D02*
X598473D01*
X554692Y845196D02*
X598387D01*
X469075Y508227D02*
X597552D01*
X565185Y581573D02*
X597216D01*
X563196Y853699D02*
X597151D01*
X555755Y846259D02*
X597051D01*
X562133Y852636D02*
X596928D01*
X556818Y847322D02*
X596333D01*
X561070Y851573D02*
X596264D01*
X589289Y515668D02*
X596142D01*
X462697Y514605D02*
X596136D01*
X557881Y848385D02*
X595948D01*
X560007Y850510D02*
X595916D01*
X468012Y509290D02*
X595859D01*
X558944Y849448D02*
X595815D01*
X463760Y513542D02*
X595307D01*
X466949Y510353D02*
X595178D01*
X464823Y512479D02*
X594942D01*
X465886Y511416D02*
X594903D01*
X564259Y854762D02*
X593320D01*
X528553Y551810D02*
X592592D01*
X565322Y855825D02*
X592268D01*
X528553Y546495D02*
X591823D01*
X528553Y550747D02*
X591763D01*
X566385Y856888D02*
X591697D01*
X528553Y547558D02*
X591634D01*
X567448Y857951D02*
X591427D01*
X528553Y549684D02*
X591399D01*
X569574Y860077D02*
X591386D01*
X568511Y859014D02*
X591386D01*
X570637Y861140D02*
X591374D01*
X528553Y548621D02*
X591359D01*
X506388Y600707D02*
X589899D01*
X516367Y594329D02*
X589082D01*
X528553Y545432D02*
X588598D01*
X505924Y599644D02*
X588491D01*
X515605Y595392D02*
X588154D01*
X528553Y540117D02*
X588077D01*
X504970Y598581D02*
X587881D01*
X513092Y596455D02*
X587737D01*
X528553Y544369D02*
X587694D01*
X504134Y597518D02*
X587654D01*
X559572Y801613D02*
X587649D01*
X528553Y541180D02*
X587453D01*
X528553Y543306D02*
X587288D01*
X528553Y542243D02*
X587215D01*
X462411Y515668D02*
X585515D01*
X462411Y522046D02*
X585382D01*
X462411Y516731D02*
X584353D01*
X462411Y520983D02*
X584297D01*
X462411Y517794D02*
X583828D01*
X462411Y519920D02*
X583804D01*
X462411Y518857D02*
X583662D01*
X538951Y532676D02*
X582191D01*
X536552Y539054D02*
X581666D01*
X539150Y533739D02*
X580897D01*
X537779Y537991D02*
X580677D01*
X539147Y534802D02*
X580323D01*
X538507Y536928D02*
X580229D01*
X538941Y535865D02*
X580121D01*
X557124Y488030D02*
X579191D01*
X557499Y457203D02*
X578816D01*
X558297Y467833D02*
X578018D01*
X558515Y477400D02*
X577800D01*
X559098Y486967D02*
X577217D01*
X559253Y458266D02*
X577062D01*
X559649Y466770D02*
X576666D01*
X559770Y478463D02*
X576545D01*
X560111Y485904D02*
X576204D01*
X560205Y459329D02*
X576110D01*
X560450Y465707D02*
X575865D01*
X560525Y479526D02*
X575790D01*
X560737Y484841D02*
X575578D01*
X560795Y460392D02*
X575520D01*
X560941Y464644D02*
X575373D01*
X560985Y480589D02*
X575330D01*
X561103Y483778D02*
X575212D01*
X561133Y461455D02*
X575182D01*
X561203Y463581D02*
X575112D01*
X561221Y481652D02*
X575094D01*
X561259Y482715D02*
X575056D01*
X561265Y462518D02*
X575050D01*
X552266Y642164D02*
X571515D01*
X553261Y824999D02*
X570154D01*
X552756Y823936D02*
X568250D01*
X551971Y822873D02*
X567095D01*
X547796Y663424D02*
X565731D01*
X547245Y662361D02*
X564390D01*
X547244Y661298D02*
X563801D01*
X559746Y660235D02*
X563588D01*
X543213Y581573D02*
X562374D01*
X541891Y587951D02*
X561432D01*
X543547Y582636D02*
X560913D01*
X542769Y586888D02*
X560528D01*
X543668Y583699D02*
X560288D01*
X543302Y585825D02*
X560123D01*
X543590Y584762D02*
X560050D01*
X547104Y660235D02*
X559546D01*
X546592Y659172D02*
X557032D01*
X545600Y658109D02*
X556271D01*
X552690Y657046D02*
X555925D01*
X537480Y488030D02*
X553600D01*
X537435Y457203D02*
X553225D01*
X509084Y467833D02*
X552427D01*
X509303Y477400D02*
X552209D01*
X537027Y486967D02*
X551626D01*
X536956Y458266D02*
X551471D01*
X506496Y617715D02*
X551278D01*
X510437Y466770D02*
X551075D01*
X510557Y478463D02*
X550955D01*
X533680Y626219D02*
X550846D01*
X506496Y610274D02*
X550846D01*
X536340Y485904D02*
X550613D01*
X536235Y459329D02*
X550519D01*
X539567Y642164D02*
X550490D01*
X511237Y465707D02*
X550275D01*
X511312Y479526D02*
X550200D01*
X544537Y657046D02*
X550066D01*
X539567Y641101D02*
X550066D01*
X535314Y484841D02*
X549988D01*
X541929Y649605D02*
X549955D01*
X535325Y633660D02*
X549955D01*
X535153Y460392D02*
X549930D01*
X511729Y464644D02*
X549783D01*
X511773Y480589D02*
X549739D01*
X533603Y483778D02*
X549621D01*
X533283Y461455D02*
X549591D01*
X511990Y463581D02*
X549522D01*
X512008Y481652D02*
X549503D01*
X512046Y482715D02*
X549465D01*
X512052Y462518D02*
X549460D01*
X541929Y650668D02*
X548986D01*
X536388Y634723D02*
X548986D01*
X541821Y648542D02*
X548765D01*
X534310Y632597D02*
X548765D01*
X506496Y616652D02*
X548765D01*
X539567Y643227D02*
X548728D01*
X534144Y627282D02*
X548728D01*
X506496Y611337D02*
X548728D01*
X543474Y655983D02*
X548543D01*
X539567Y640038D02*
X548543D01*
X541929Y651731D02*
X548106D01*
X537451Y635786D02*
X548106D01*
X541357Y647479D02*
X548003D01*
X534252Y631534D02*
X548003D01*
X506496Y615589D02*
X548003D01*
X539567Y644290D02*
X547986D01*
X534252Y628345D02*
X547986D01*
X506496Y612400D02*
X547986D01*
X542411Y654920D02*
X547900D01*
X539545Y638975D02*
X547900D01*
X541929Y652794D02*
X547714D01*
X538514Y636849D02*
X547714D01*
X540403Y646416D02*
X547678D01*
X534252Y630471D02*
X547678D01*
X506496Y614526D02*
X547678D01*
X539567Y645353D02*
X547673D01*
X534252Y629408D02*
X547673D01*
X506496Y613463D02*
X547673D01*
X541929Y653857D02*
X547651D01*
X539253Y637912D02*
X547651D01*
X529733Y578385D02*
X536188D01*
X530309Y589014D02*
X535613D01*
X531642Y579448D02*
X534280D01*
X531891Y587951D02*
X534031D01*
X532702Y580510D02*
X533219D01*
X528553Y539054D02*
X530377D01*
X516923Y529487D02*
X530321D01*
X518125Y530550D02*
X529119D01*
X524177Y531613D02*
X528403D01*
X511921Y461455D02*
X528229D01*
X525332Y532676D02*
X527978D01*
X511891Y483778D02*
X527909D01*
X526395Y533739D02*
X527779D01*
X480056Y496534D02*
X527446D01*
X499373Y448699D02*
X527209D01*
X511582Y460392D02*
X526359D01*
X511524Y484841D02*
X526198D01*
X519733Y578385D02*
X526188D01*
X480128Y495471D02*
X525945D01*
X498287Y449762D02*
X525807D01*
X520309Y589014D02*
X525613D01*
X510993Y459329D02*
X525277D01*
X510898Y485904D02*
X525172D01*
X480128Y494408D02*
X525005D01*
X481359Y450825D02*
X524912D01*
X510041Y458266D02*
X524556D01*
X509886Y486967D02*
X524485D01*
X480128Y493345D02*
X524372D01*
X480296Y451888D02*
X524311D01*
X521642Y579448D02*
X524280D01*
X508287Y457203D02*
X524077D01*
X507912Y488030D02*
X524032D01*
X521891Y587951D02*
X524031D01*
X480128Y492282D02*
X523962D01*
X479233Y452951D02*
X523924D01*
X476584Y456140D02*
X523791D01*
X480128Y489093D02*
X523767D01*
X480128Y491219D02*
X523733D01*
X478170Y454014D02*
X523717D01*
X477107Y455077D02*
X523673D01*
X480128Y490156D02*
X523670D01*
X522702Y580510D02*
X523219D01*
X515682Y556062D02*
X522235D01*
X516745Y554999D02*
X522235D01*
X517808Y553936D02*
X522235D01*
X518567Y552873D02*
X522235D01*
X518871Y551810D02*
X522235D01*
X518898Y550747D02*
X522235D01*
X518898Y549684D02*
X522235D01*
X518898Y548621D02*
X522235D01*
X518898Y547558D02*
X522235D01*
X519070Y546495D02*
X522235D01*
X519041Y545432D02*
X522235D01*
X518689Y544369D02*
X522235D01*
X517882Y543306D02*
X522235D01*
X462411Y542243D02*
X522235D01*
X462411Y541180D02*
X522235D01*
X462411Y540117D02*
X522235D01*
X516867Y539054D02*
X522235D01*
X518093Y537991D02*
X521712D01*
X514619Y557125D02*
X521675D01*
X513556Y558188D02*
X520612D01*
X512493Y559251D02*
X519549D01*
X511430Y560314D02*
X518486D01*
X510367Y561377D02*
X517423D01*
X509304Y562440D02*
X516360D01*
X508241Y563503D02*
X515297D01*
X507178Y564566D02*
X514234D01*
X506115Y565629D02*
X513172D01*
X504134Y596455D02*
X512892D01*
X462411Y543306D02*
X512827D01*
X505052Y566692D02*
X512109D01*
X462411Y544369D02*
X512020D01*
X462411Y548621D02*
X511811D01*
X462411Y547558D02*
X511811D01*
X462411Y549684D02*
X511811D01*
X462411Y545432D02*
X511668D01*
X462411Y546495D02*
X511639D01*
X504142Y567755D02*
X511046D01*
X462411Y550747D02*
X510975D01*
X462411Y539054D02*
X510692D01*
X462411Y529487D02*
X510636D01*
X504134Y595392D02*
X510379D01*
X504134Y568818D02*
X510190D01*
X462411Y551810D02*
X509912D01*
X504134Y569881D02*
X509858D01*
X504134Y590077D02*
X509833D01*
X504134Y577322D02*
X509833D01*
X504134Y576259D02*
X509833D01*
X504134Y575196D02*
X509833D01*
X504134Y574133D02*
X509833D01*
X504134Y573070D02*
X509833D01*
X504134Y572007D02*
X509833D01*
X504134Y570944D02*
X509833D01*
X504134Y594329D02*
X509618D01*
X504134Y591140D02*
X509600D01*
X462411Y537991D02*
X509466D01*
X462411Y530550D02*
X509434D01*
X504134Y593266D02*
X509293D01*
X504134Y592203D02*
X509287D01*
X462411Y552873D02*
X508849D01*
X462411Y536928D02*
X508737D01*
X462411Y531613D02*
X508717D01*
X462411Y535865D02*
X508303D01*
X462411Y532676D02*
X508293D01*
X462411Y534802D02*
X508097D01*
X462411Y533739D02*
X508094D01*
X462411Y553936D02*
X507786D01*
X462411Y554999D02*
X506723D01*
X504134Y578385D02*
X506188D01*
X462411Y556062D02*
X505660D01*
X504169Y589014D02*
X505613D01*
X462411Y557125D02*
X504597D01*
X480128Y488030D02*
X504387D01*
X476584Y457203D02*
X504012D01*
X462411Y558188D02*
X503534D01*
X480128Y467833D02*
X503215D01*
X480128Y477400D02*
X502997D01*
X462411Y559251D02*
X502471D01*
X480128Y486967D02*
X502413D01*
X476584Y458266D02*
X502258D01*
X480918Y466770D02*
X501863D01*
X480128Y478463D02*
X501742D01*
X462411Y560314D02*
X501408D01*
X480128Y485904D02*
X501401D01*
X476584Y459329D02*
X501305D01*
X480128Y479526D02*
X500987D01*
X480128Y484841D02*
X500775D01*
X480128Y480589D02*
X500527D01*
X480128Y483778D02*
X500409D01*
X462411Y561377D02*
X500345D01*
X480128Y481652D02*
X500291D01*
X480128Y482715D02*
X500253D01*
X469482Y620904D02*
X499409D01*
X468995Y619841D02*
X499409D01*
X468071Y618778D02*
X499409D01*
X462422Y617715D02*
X499409D01*
X462411Y616652D02*
X499409D01*
X462411Y615589D02*
X499409D01*
X462411Y614526D02*
X499409D01*
X462411Y613463D02*
X499409D01*
X462411Y612400D02*
X499409D01*
X462411Y611337D02*
X499409D01*
X462411Y610274D02*
X499409D01*
X462411Y609211D02*
X499409D01*
X462411Y608148D02*
X499409D01*
X462411Y607085D02*
X499409D01*
X462411Y606022D02*
X499409D01*
X462411Y604959D02*
X499409D01*
X462411Y603896D02*
X499409D01*
X469892Y621967D02*
X499319D01*
X462411Y562440D02*
X499282D01*
X462411Y602833D02*
X499200D01*
X462411Y563503D02*
X498219D01*
X462411Y601770D02*
X498137D01*
X462411Y564566D02*
X497417D01*
X462411Y600707D02*
X497378D01*
X462411Y565629D02*
X497085D01*
X462411Y599644D02*
X497074D01*
X462411Y598581D02*
X497047D01*
X462411Y597518D02*
X497047D01*
X462411Y596455D02*
X497047D01*
X462411Y595392D02*
X497047D01*
X462411Y594329D02*
X497047D01*
X462411Y593266D02*
X497047D01*
X462411Y592203D02*
X497047D01*
X462411Y591140D02*
X497047D01*
X462411Y590077D02*
X497047D01*
X462411Y589014D02*
X497047D01*
X462411Y587951D02*
X497047D01*
X462411Y586888D02*
X497047D01*
X462411Y585825D02*
X497047D01*
X462411Y584762D02*
X497047D01*
X462411Y583699D02*
X497047D01*
X462411Y582636D02*
X497047D01*
X462411Y581573D02*
X497047D01*
X462411Y580510D02*
X497047D01*
X462411Y579448D02*
X497047D01*
X462411Y578385D02*
X497047D01*
X462411Y577322D02*
X497047D01*
X462411Y576259D02*
X497047D01*
X462411Y575196D02*
X497047D01*
X462411Y574133D02*
X497047D01*
X462411Y573070D02*
X497047D01*
X462411Y572007D02*
X497047D01*
X462411Y570944D02*
X497047D01*
X462411Y569881D02*
X497047D01*
X462411Y568818D02*
X497047D01*
X462411Y567755D02*
X497047D01*
X462411Y566692D02*
X497047D01*
X482119Y443385D02*
X494381D01*
X476890Y833503D02*
X494244D01*
X476890Y832440D02*
X492085D01*
X484594Y822873D02*
X491179D01*
X476890Y831377D02*
X490972D01*
X484832Y823936D02*
X490394D01*
X476851Y830314D02*
X490259D01*
X484759Y824999D02*
X489889D01*
X476643Y829251D02*
X489806D01*
X484353Y826062D02*
X489597D01*
X476238Y828188D02*
X489557D01*
X483449Y827125D02*
X489489D01*
X468751Y643227D02*
X487540D01*
X459317Y644290D02*
X487433D01*
X486052Y645353D02*
X486465D01*
X459517D02*
X483240D01*
X476464Y827125D02*
X478698D01*
X476584Y460392D02*
X478364D01*
X458838Y643227D02*
X465107D01*
X457784Y642164D02*
X463907D01*
X444465Y641101D02*
X463367D01*
X444019Y640038D02*
X462539D01*
X443034Y638975D02*
X461476D01*
X435633Y637912D02*
X460413D01*
X435754Y636849D02*
X459350D01*
X394291Y439133D02*
X458833D01*
X435567Y635786D02*
X458287D01*
X394291Y440196D02*
X457305D01*
X435285Y634723D02*
X457224D01*
X394291Y441259D02*
X456242D01*
X435285Y633660D02*
X456161D01*
X394291Y442322D02*
X455179D01*
X435285Y632597D02*
X455098D01*
X394291Y443385D02*
X454116D01*
X435285Y631534D02*
X454035D01*
X394291Y444448D02*
X453053D01*
X435285Y630471D02*
X452972D01*
X394291Y445510D02*
X452027D01*
X435285Y629408D02*
X451909D01*
X394291Y446573D02*
X451490D01*
X394291Y451888D02*
X451368D01*
X394291Y450825D02*
X451368D01*
X394291Y449762D02*
X451368D01*
X394291Y448699D02*
X451368D01*
X394291Y447636D02*
X451368D01*
X394291Y452951D02*
X451342D01*
X435285Y628345D02*
X450875D01*
X394291Y454014D02*
X450376D01*
X435285Y627282D02*
X450320D01*
X435285Y626219D02*
X450187D01*
X435285Y625156D02*
X450187D01*
X435285Y624093D02*
X450187D01*
X435285Y623030D02*
X450187D01*
X435285Y621967D02*
X450187D01*
X435285Y620904D02*
X450187D01*
X435285Y619841D02*
X450187D01*
X435285Y618778D02*
X450187D01*
X435285Y617715D02*
X450187D01*
X435285Y616652D02*
X450187D01*
X435285Y615589D02*
X450187D01*
X435285Y614526D02*
X450187D01*
X435285Y613463D02*
X450109D01*
X394291Y455077D02*
X449313D01*
X435285Y612400D02*
X449074D01*
X432619Y456140D02*
X448517D01*
X434737Y457203D02*
X448231D01*
X435246Y472085D02*
X448219D01*
X435246Y471022D02*
X448219D01*
X435246Y469959D02*
X448219D01*
X435246Y468896D02*
X448219D01*
X435246Y467833D02*
X448219D01*
X435246Y466770D02*
X448219D01*
X435246Y465707D02*
X448219D01*
X435246Y464644D02*
X448219D01*
X435246Y463581D02*
X448219D01*
X435246Y462518D02*
X448219D01*
X435461Y461455D02*
X448219D01*
X435786Y460392D02*
X448219D01*
X435791Y459329D02*
X448219D01*
X435478Y458266D02*
X448219D01*
X435246Y473148D02*
X448107D01*
X435285Y611337D02*
X448011D01*
X435285Y610274D02*
X447087D01*
X435285Y609211D02*
X446692D01*
X435285Y608148D02*
X446644D01*
X435285Y607085D02*
X446644D01*
X435285Y606022D02*
X446644D01*
X435285Y604959D02*
X446644D01*
X435285Y603896D02*
X446644D01*
X435285Y602833D02*
X446644D01*
X435285Y601770D02*
X446644D01*
X435285Y600707D02*
X446644D01*
X435285Y599644D02*
X446644D01*
X435285Y598581D02*
X446644D01*
X435285Y597518D02*
X446643D01*
X435285Y596455D02*
X445107D01*
X435246Y482715D02*
X444743D01*
X435246Y481652D02*
X444283D01*
X435246Y483778D02*
X444206D01*
X435285Y595392D02*
X444088D01*
X435285Y591140D02*
X444085D01*
X435285Y590077D02*
X444085D01*
X435336Y589014D02*
X444085D01*
X435765Y587951D02*
X444085D01*
X435861Y586888D02*
X444085D01*
X435647Y585825D02*
X444085D01*
X435056Y584762D02*
X444085D01*
X433712Y583699D02*
X444085D01*
X394291Y582636D02*
X444085D01*
X394291Y581573D02*
X444085D01*
X394291Y580510D02*
X444085D01*
X394291Y579448D02*
X444085D01*
X394291Y578385D02*
X444085D01*
X394291Y577322D02*
X444085D01*
X394291Y576259D02*
X444085D01*
X394291Y575196D02*
X444085D01*
X394291Y574133D02*
X444085D01*
X394291Y573070D02*
X444085D01*
X394291Y572007D02*
X444085D01*
X394291Y570944D02*
X444085D01*
X394291Y569881D02*
X444085D01*
X394291Y568818D02*
X444085D01*
X394291Y567755D02*
X444085D01*
X394291Y566692D02*
X444085D01*
X394291Y565629D02*
X444085D01*
X394291Y564566D02*
X444085D01*
X394291Y563503D02*
X444085D01*
X394291Y562440D02*
X444085D01*
X394291Y561377D02*
X444085D01*
X394291Y560314D02*
X444085D01*
X394291Y559251D02*
X444085D01*
X394291Y558188D02*
X444085D01*
X394291Y557125D02*
X444085D01*
X394291Y556062D02*
X444085D01*
X394291Y554999D02*
X444085D01*
X394291Y553936D02*
X444085D01*
X394291Y552873D02*
X444085D01*
X394291Y551810D02*
X444085D01*
X394291Y550747D02*
X444085D01*
X394291Y549684D02*
X444085D01*
X394291Y548621D02*
X444085D01*
X394291Y547558D02*
X444085D01*
X394291Y546495D02*
X444085D01*
X433068Y545432D02*
X444085D01*
X434774Y544369D02*
X444085D01*
X435458Y543306D02*
X444085D01*
X435734Y542243D02*
X444085D01*
X435697Y541180D02*
X444085D01*
X435334Y540117D02*
X444085D01*
X434508Y539054D02*
X444085D01*
X394291Y537991D02*
X444085D01*
X394291Y536928D02*
X444085D01*
X394291Y535865D02*
X444085D01*
X394291Y534802D02*
X444085D01*
X394291Y533739D02*
X444085D01*
X394291Y532676D02*
X444085D01*
X394291Y531613D02*
X444085D01*
X394291Y530550D02*
X444085D01*
X394291Y529487D02*
X444085D01*
X394291Y528424D02*
X444085D01*
X394291Y527361D02*
X444085D01*
X394291Y526298D02*
X444085D01*
X394291Y525235D02*
X444085D01*
X394291Y524172D02*
X444085D01*
X394291Y523109D02*
X444085D01*
X394291Y522046D02*
X444085D01*
X394291Y520983D02*
X444085D01*
X394291Y519920D02*
X444085D01*
X394291Y518857D02*
X444085D01*
X394291Y517794D02*
X444085D01*
X394291Y516731D02*
X444085D01*
X433909Y515668D02*
X444085D01*
X435109Y514605D02*
X444085D01*
X435649Y513542D02*
X444085D01*
X435826Y512479D02*
X444085D01*
X435695Y511416D02*
X444085D01*
X435258Y510353D02*
X444085D01*
X435246Y509290D02*
X444085D01*
X435246Y508227D02*
X444085D01*
X435246Y507164D02*
X444085D01*
X435246Y506101D02*
X444085D01*
X435246Y505038D02*
X444085D01*
X435246Y503975D02*
X444085D01*
X435246Y502912D02*
X444085D01*
X435246Y501849D02*
X444085D01*
X435246Y500786D02*
X444085D01*
X435246Y499723D02*
X444085D01*
X435246Y498660D02*
X444085D01*
X435246Y497597D02*
X444085D01*
X435246Y496534D02*
X444085D01*
X435246Y495471D02*
X444085D01*
X435246Y494408D02*
X444085D01*
X435246Y493345D02*
X444085D01*
X435246Y492282D02*
X444085D01*
X435246Y491219D02*
X444085D01*
X435246Y490156D02*
X444085D01*
X435246Y489093D02*
X444085D01*
X435246Y488030D02*
X444085D01*
X435246Y486967D02*
X444085D01*
X435246Y485904D02*
X444085D01*
X435246Y484841D02*
X444085D01*
X435246Y474211D02*
X444019D01*
X435285Y592203D02*
X443696D01*
X435285Y594329D02*
X443625D01*
X435285Y593266D02*
X443506D01*
X435246Y480589D02*
X443129D01*
X435246Y475274D02*
X442996D01*
X435246Y479526D02*
X442524D01*
X435246Y476337D02*
X442456D01*
X435246Y478463D02*
X442242D01*
X435246Y477400D02*
X442220D01*
X394498Y397676D02*
X432274D01*
X394291Y456140D02*
X431554D01*
X395561Y396613D02*
X431211D01*
X394291Y545432D02*
X430964D01*
X394291Y583699D02*
X430540D01*
X394291Y515668D02*
X430265D01*
X396624Y395550D02*
X430148D01*
X394291Y539054D02*
X429523D01*
X394291Y457203D02*
X429436D01*
X394291Y544369D02*
X429258D01*
X394291Y584762D02*
X429196D01*
X397687Y394487D02*
X429085D01*
X394291Y514605D02*
X429064D01*
X406656Y633660D02*
X428967D01*
X406048Y632597D02*
X428967D01*
X404649Y631534D02*
X428967D01*
X401159Y630471D02*
X428967D01*
X401159Y629408D02*
X428967D01*
X401159Y628345D02*
X428967D01*
X401159Y627282D02*
X428967D01*
X401159Y626219D02*
X428967D01*
X401159Y625156D02*
X428967D01*
X401159Y624093D02*
X428967D01*
X401159Y623030D02*
X428967D01*
X401159Y621967D02*
X428967D01*
X423755Y620904D02*
X428967D01*
X425442Y619841D02*
X428967D01*
X426123Y618778D02*
X428967D01*
X426397Y617715D02*
X428967D01*
X426357Y616652D02*
X428967D01*
X425991Y615589D02*
X428967D01*
X425836Y614526D02*
X428967D01*
X425836Y613463D02*
X428967D01*
X425836Y612400D02*
X428967D01*
X425836Y611337D02*
X428967D01*
X425836Y610274D02*
X428967D01*
X425836Y609211D02*
X428967D01*
X425836Y608148D02*
X428967D01*
X425836Y607085D02*
X428967D01*
X425836Y606022D02*
X428967D01*
X425836Y604959D02*
X428967D01*
X425836Y603896D02*
X428967D01*
X425836Y602833D02*
X428967D01*
X425836Y601770D02*
X428967D01*
X425836Y600707D02*
X428967D01*
X425836Y599644D02*
X428967D01*
X425836Y598581D02*
X428967D01*
X425836Y597518D02*
X428967D01*
X425836Y596455D02*
X428967D01*
X425858Y595392D02*
X428967D01*
X426296Y594329D02*
X428967D01*
X426415Y593266D02*
X428967D01*
X426226Y592203D02*
X428967D01*
X425668Y591140D02*
X428967D01*
X424422Y590077D02*
X428967D01*
X414185Y634723D02*
X428957D01*
X394291Y509290D02*
X428928D01*
X394291Y508227D02*
X428928D01*
X394291Y507164D02*
X428928D01*
X394291Y506101D02*
X428928D01*
X394291Y505038D02*
X428928D01*
X394291Y503975D02*
X428928D01*
X394291Y502912D02*
X428928D01*
X394291Y501849D02*
X428928D01*
X394291Y500786D02*
X428928D01*
X394291Y499723D02*
X428928D01*
X394291Y498660D02*
X428928D01*
X394291Y497597D02*
X428928D01*
X394291Y496534D02*
X428928D01*
X394291Y495471D02*
X428928D01*
X394291Y494408D02*
X428928D01*
X394291Y493345D02*
X428928D01*
X394291Y492282D02*
X428928D01*
X394291Y491219D02*
X428928D01*
X394291Y490156D02*
X428928D01*
X394291Y489093D02*
X428928D01*
X394291Y488030D02*
X428928D01*
X394291Y486967D02*
X428928D01*
X394291Y485904D02*
X428928D01*
X394291Y484841D02*
X428928D01*
X394291Y483778D02*
X428928D01*
X394291Y482715D02*
X428928D01*
X394291Y481652D02*
X428928D01*
X394291Y480589D02*
X428928D01*
X394291Y479526D02*
X428928D01*
X394291Y478463D02*
X428928D01*
X394291Y477400D02*
X428928D01*
X394291Y476337D02*
X428928D01*
X394291Y475274D02*
X428928D01*
X394291Y474211D02*
X428928D01*
X394291Y473148D02*
X428928D01*
X394291Y472085D02*
X428928D01*
X394291Y471022D02*
X428928D01*
X394291Y469959D02*
X428928D01*
X394291Y468896D02*
X428928D01*
X394291Y467833D02*
X428928D01*
X394291Y466770D02*
X428928D01*
X394291Y465707D02*
X428928D01*
X394291Y464644D02*
X428928D01*
X394291Y463581D02*
X428928D01*
X394291Y462518D02*
X428928D01*
X394291Y589014D02*
X428916D01*
X394291Y510353D02*
X428916D01*
X394291Y461455D02*
X428712D01*
X394291Y540117D02*
X428697D01*
X394291Y458266D02*
X428695D01*
X394291Y585825D02*
X428605D01*
X394291Y543306D02*
X428574D01*
X394291Y513542D02*
X428525D01*
X394291Y587951D02*
X428487D01*
X394291Y511416D02*
X428479D01*
X415529Y635786D02*
X428465D01*
X416333Y637912D02*
X428399D01*
X394291Y586888D02*
X428391D01*
X394291Y460392D02*
X428387D01*
X394291Y459329D02*
X428382D01*
X394291Y512479D02*
X428347D01*
X394291Y541180D02*
X428335D01*
X394291Y542243D02*
X428297D01*
X416120Y636849D02*
X428277D01*
X398750Y393424D02*
X428022D01*
X399813Y392361D02*
X426959D01*
X400876Y391298D02*
X425896D01*
X401939Y390235D02*
X424833D01*
X403002Y389172D02*
X423770D01*
X404065Y388109D02*
X422707D01*
X405128Y387046D02*
X421644D01*
X401159Y620904D02*
X421599D01*
X394291Y590077D02*
X420925D01*
X406191Y385983D02*
X420581D01*
X401159Y619841D02*
X419912D01*
X401159Y614526D02*
X419518D01*
X401159Y613463D02*
X419518D01*
X401159Y612400D02*
X419518D01*
X401159Y611337D02*
X419518D01*
X401159Y610274D02*
X419518D01*
X401159Y609211D02*
X419518D01*
X401159Y608148D02*
X419518D01*
X401159Y607085D02*
X419518D01*
X401159Y606022D02*
X419518D01*
X401159Y604959D02*
X419518D01*
X401159Y603896D02*
X419518D01*
X401159Y602833D02*
X419518D01*
X401159Y601770D02*
X419518D01*
X401445Y600707D02*
X419518D01*
X402508Y599644D02*
X419518D01*
X403571Y598581D02*
X419518D01*
X404634Y597518D02*
X419518D01*
X407254Y384920D02*
X419518D01*
X401159Y615589D02*
X419363D01*
X401159Y618778D02*
X419232D01*
X405808Y596455D02*
X419083D01*
X401159Y616652D02*
X418998D01*
X401159Y617715D02*
X418958D01*
X408317Y383857D02*
X418455D01*
X409380Y382794D02*
X417392D01*
X410443Y381731D02*
X416329D01*
X411506Y380668D02*
X415266D01*
X412569Y379605D02*
X414203D01*
X407256Y634723D02*
X411012D01*
X394291Y591140D02*
X402077D01*
X394291Y592203D02*
X401014D01*
X394291Y593266D02*
X399951D01*
X394291Y594329D02*
X398888D01*
X394291Y595392D02*
X397825D01*
X394291Y596455D02*
X396762D01*
X394291Y597518D02*
X395701D01*
G54D71*
X616351Y846040D02*
X618160Y847849D01*
X623311Y846040D02*
X621501Y847849D01*
X623311Y853000D02*
X621501Y851190D01*
X616351Y853000D02*
X618160Y851190D01*
X609179Y694679D02*
X610989Y692869D01*
X609664Y554664D02*
X611474Y556474D01*
X617737Y562737D02*
X615928Y560928D01*
X609664Y562737D02*
X611474Y560928D01*
X617737Y554664D02*
X615928Y556474D01*
X609664Y524664D02*
X611474Y526474D01*
X617737Y524664D02*
X615928Y526474D01*
X627737Y522737D02*
X625928Y520928D01*
X619664Y522737D02*
X621474Y520928D01*
X617548Y777176D02*
X615739Y778985D01*
X617548Y785249D02*
X615739Y783440D01*
X609475Y785249D02*
X611285Y783440D01*
X609475Y777176D02*
X611285Y778985D01*
X537501Y538289D02*
X535692Y536479D01*
X529428Y538289D02*
X531237Y536479D01*
X529428Y530215D02*
X531237Y532025D01*
X537501Y530215D02*
X535692Y532025D01*
X585129Y486570D02*
X583319Y484760D01*
X576777Y486570D02*
X578586Y484760D01*
X576777Y478218D02*
X578586Y480027D01*
X585129Y478218D02*
X583319Y480027D01*
X510325Y486570D02*
X508516Y484760D01*
X501974Y486570D02*
X503783Y484760D01*
X501974Y478218D02*
X503783Y480027D01*
X510325Y478218D02*
X508516Y480027D01*
X551997Y797848D02*
X550188Y796038D01*
X543924Y797848D02*
X545734Y796038D01*
X543924Y789774D02*
X545734Y791584D01*
X551997Y789774D02*
X550188Y791584D01*
X413609Y705682D02*
X415419Y703873D01*
X413609Y697609D02*
X415419Y699419D01*
X403924Y799774D02*
X405734Y801584D01*
X411997Y799774D02*
X410188Y801584D01*
X411997Y807848D02*
X410188Y806038D01*
X403924Y807848D02*
X405734Y806038D01*
G54D91*
X600736Y849520D03*
X619831D03*
G54D94*
X521575Y827244D03*
G74*
X0Y0D02*
M02*
