%
T1C.01181F095S3
X013839Y016614
X017622Y018882
X017972Y014843
X018441Y014976
X020257Y015291
X030906Y024587
X030492Y021811
X030138Y025531
X029724Y024882
X02937Y02252
X029016Y024232
X022165Y025236
X013839Y02187
X013831Y024814
X012898Y029969
X013843Y029339
X015354Y029969
X016201Y030138
X021929Y029902
X027008Y029134
X029769Y030357
X030492Y029134
X034035Y030374
X03374Y03439
X033386Y033622
X032677Y03628
X032205Y032028
X03185Y035984
X027835Y035217
X026594Y03628
X025768Y032028
X025768Y03439
X025768Y035984
X025768Y035217
X025768Y033622
X023524Y034685
X023524Y035217
X023469Y036279
X022913Y035701
X022902Y036405
X022874Y034567
X022815Y033976
X022579Y035335
X022343Y035748
X022047Y034921
X022047Y033917
X020394Y033268
X019626Y035335
X019626Y034626
X01939Y035748
X019094Y035512
X018304Y036153
X017323Y034626
X017323Y033681
X016201Y035157
X015846Y035512
X015354Y036457
X014713Y03483
X013831Y034326
X013276Y035638
X013076Y036216
X012898Y032362
X01189Y034441
X011627Y03483
X011197Y034441
X010945Y034126
X013076Y037665
X013391Y038924
X013831Y037665
X014209Y038231
X014713Y038169
X015595Y037602
X016099Y038294
X016603Y037224
X016792Y038287
X017296Y03735
X018681Y037933
X019862Y038937
X019921Y037638
X020394Y038287
X021391Y037602
X021717Y036772
X022646Y038735
X022646Y037098
X023406Y037874
X023658Y037539
X023937Y037874
X024528Y03876
X024882Y038701
X024882Y037874
X027362Y036634
X029902Y038169
X030315Y038406
X033031Y036634
X03126Y040768
X029488Y03935
X029016Y039114
X02813Y040768
X027835Y039469
X027657Y039114
X026299Y04124
X025236Y039469
X024528Y04
X024232Y039114
X024225Y040877
X023543Y040614
X023165Y039291
X021391Y040877
X021013Y041381
X020761Y041192
X020509Y04094
X019249Y041129
X019249Y040562
X017611Y041318
X017548Y040751
X016603Y040058
X01654Y040877
X016225Y040751
X015847Y040247
X014965Y040058
X014587Y039428
X014587Y041129
X014209Y041318
X013076Y043712
X013391Y041507
X013391Y043334
X013831Y043145
X015354Y04263
X01717Y041885
X017422Y041633
X019331Y043425
X021265Y042389
X021265Y043838
X02202Y042389
X022335Y043386
X02328Y043082
X023847Y041822
X023921Y043386
X024162Y041507
X024162Y042137
X025748Y041874
X026682Y043838
X027657Y04248
X029016Y043839
X032677Y042717
X032795Y043071
X033674Y043071
X033926Y042717
X026378Y044205
X024929Y045087
X02391Y04598
X023165Y044205
X02265Y04409
X022083Y04409
X021769Y045917
X020761Y045917
X019331Y044547
X019213Y045079
X018556Y044783
X018178Y044027
X017028Y046378
X016855Y045602
X015847Y04598
X01378Y044342
X013139Y045098
X013454Y048058
X014965Y047239
X015721Y048436
X016036Y048751
X01737Y048488
X018268Y048563
X020698Y048058
X021769Y046672
X022083Y047806
X02265Y047806
X023039Y047354
X033622Y047795
X029517Y051145
X025863Y051775
X023973Y051271
X023406Y052047
X019741Y051271
X01874Y053051
X018563Y049154
X017433Y052079
X017028Y049508
T2C.01969F095S3
X033076Y056763G85X033076Y056487
X030241Y056763G85X030241Y056487
T3C.02362F197S55
X010944Y010964
X010944Y012964
X028944Y008964
X030944Y008964
X032944Y008964
X034944Y008964
X034944Y016964
X024944Y016964
X022944Y016964
X016299Y018378
X014606Y016083
X010944Y016964
X010944Y014964
X012944Y018964
X012944Y020964
X014944Y020964
X014944Y022964
X01939Y018976
X022944Y018964
X022944Y022964
X026949Y022283
X034944Y018964
X034944Y020964
X026949Y024232
X02689Y026417
X024114Y031319
X019094Y03002
X014944Y028964
X014944Y026964
X014944Y030964
X012944Y028964
X012244Y03061
X011772Y025472
X012894Y034094
X014783Y034094
X014944Y032964
X016944Y034964
X017146Y032854
X017972Y032736
X018091Y033917
X020394Y034315
X033386Y037815
X025768Y037756
X025Y037165
X018504Y039409
X015079Y037638
X014606Y03876
X01189Y040177
X010945Y039528
X010827Y044902
X019449Y046496
X024823Y04815
X027362Y045787
X03002Y044902
X031532Y051964
X030944Y048964
X030944Y052964
X016288Y051649
X014944Y050964
X012944Y052964
X011654Y049862
X010944Y052964
X026944Y054964
X028944Y054964
X032944Y054964
T4C.02756F197S55
X030704Y055582
X032613Y055582
T5C.02953F197S55
X015303Y018414
T6C.035F197S55
X031941Y038705
X032941Y038705
X032941Y039705
X032941Y040705
X031941Y039705
X031941Y040705
X013535Y052961
X01452Y052961
X015307Y052961
X016291Y052961
T7C.03937F197S55
X032Y0235
X032Y0225
X033Y0235
X033Y0225
X034Y0235
X034Y0225
X035Y0235
X035Y0225
X035Y0255
X035Y0265
X034Y0255
X034Y0265
X033Y0255
X033Y0265
X032Y0255
X032Y0265
X023976Y024055
X022008Y024055
X011394Y035676
X012394Y035676
X021426Y029011
X022426Y029011
X023426Y029011
X024426Y029011
X012394Y036676
X012394Y038676
X012394Y037676
X012394Y040794
X011394Y037676
X011394Y038676
X011394Y040794
X011394Y036676
X011394Y041794
X011394Y043794
X011394Y042794
X011394Y045913
X012394Y041794
X012394Y042794
X012394Y043794
X012394Y045913
X033981Y048751
X032981Y048751
X031981Y048751
X026426Y050011
X025426Y050011
X024426Y050011
X023426Y050011
X022426Y050011
X021426Y050011
X020426Y050011
X019426Y050011
X012426Y051011
X012394Y047913
X012394Y048913
X012394Y046913
X011426Y051011
X011394Y046913
X011394Y047913
X011394Y048913
T8C.04134F139S55
X01636Y017356
T9C.04724F139S55
X021245Y018869
X021245Y016901
X026166Y018869
X026166Y016901
X028725Y018869
X028725Y016901
X033646Y018869
X033646Y016901
T10C.05906F107S55
X012157Y053732G85X012157Y054323
X017669Y053732G85X017669Y054323
X020524Y053354G85X025051Y053354
T11C.07087F081S55
X023706Y016113
X023706Y019657
X031186Y019657
X031186Y016113
M30
