*
*
G04 PADS 9.5 Build Number: 522968 generated Gerber (RS-274-X) file*
G04 PC Version=2.1*
*
%IN "kimchicon_final.pcb"*%
*
%MOIN*%
*
%FSLAX35Y35*%
*
*
*
*
G04 PC Standard Apertures*
*
*
G04 Thermal Relief Aperture macro.*
%AMTER*
1,1,$1,0,0*
1,0,$1-$2,0,0*
21,0,$3,$4,0,0,45*
21,0,$3,$4,0,0,135*
%
*
*
G04 Annular Aperture macro.*
%AMANN*
1,1,$1,0,0*
1,0,$2,0,0*
%
*
*
G04 Odd Aperture macro.*
%AMODD*
1,1,$1,0,0*
1,0,$1-0.005,0,0*
%
*
*
G04 PC Custom Aperture Macros*
*
*
*
*
*
*
G04 PC Aperture Table*
*
%ADD010C,0.001*%
%ADD011C,0.00787*%
%ADD013C,0.01*%
%ADD020R,0.04X0.048*%
%ADD022R,0.048X0.04*%
%ADD023R,0.07X0.07*%
%ADD024C,0.07299*%
%ADD025R,0.02575X0.06315*%
%ADD026O,0.05331X0.08087*%
%ADD029R,0.02969X0.04937*%
%ADD030R,0.07299X0.07693*%
%ADD031R,0.05724X0.05724*%
%ADD032C,0.04937*%
%ADD033C,0.06118*%
%ADD034C,0.07693*%
%ADD035C,0.10055*%
%ADD037R,0.045X0.05*%
%ADD038C,0.07*%
%ADD039O,0.08874X0.1478*%
%ADD075R,0.05724X0.03756*%
%ADD076R,0.09661X0.02969*%
%ADD077R,0.04937X0.06315*%
%ADD078C,0.05724*%
%ADD079R,0.03362X0.07299*%
%ADD080R,0.05X0.045*%
%ADD081O,0.60055X0.08874*%
%ADD082R,0.02772X0.07299*%
%ADD083O,0.02772X0.07299*%
%ADD084O,0.07299X0.02772*%
*
*
*
*
G04 PC Circuitry*
G04 Layer Name kimchicon_final.pcb - circuitry*
%LPD*%
*
G54D10*
G01X651112Y430972D02*
X644574D01*
Y414624*
X644480Y414600*
X635904Y430972*
X627394*
Y402570*
X633932*
Y422432*
X634026Y422455*
X644164Y402570*
X651112*
Y430972*
X622999Y416576D02*
X622609Y420083D01*
X622220Y422809*
X621053Y425532*
X619499Y427863*
X617168Y429417*
X614832Y430585*
X612107Y431364*
X608994Y431753*
X606271Y431364*
X603545Y430585*
X601210Y429417*
X598878Y427863*
X597324Y425532*
X596157Y422809*
X595768Y420083*
X595378Y416576*
X596157Y410343*
X597323Y408011*
X598878Y405679*
X601210Y404125*
X603545Y402957*
X606271Y402178*
X608994Y401789*
X612110Y402179*
X614832Y402568*
X619499Y405679*
X621054Y408011*
X622220Y410343*
X622999Y416576*
X615681D02*
Y414233D01*
X615680Y414223*
X615289Y412271*
X615284Y412256*
X613722Y409523*
X613714Y409512*
X611762Y407560*
X611735Y407546*
X609392Y407156*
X609377*
X606644Y407546*
X606615Y407560*
X604663Y409512*
X604655Y409523*
X603093Y412256*
X603088Y412271*
X602697Y414223*
X602696Y414233*
Y416576*
Y416580*
X603087Y421265*
X603093Y421286*
X604655Y424019*
X604663Y424030*
X606615Y425982*
X606644Y425996*
X609377Y426386*
X609392*
X611735Y425996*
X611762Y425982*
X613714Y424030*
X613722Y424019*
X615284Y421286*
X615290Y421265*
X615681Y416580*
Y416576*
X592935Y429427D02*
X589068Y430974D01*
X589068D02*
X586341Y431363D01*
X583224Y431753*
X580110Y431364*
X577385Y430585*
X575054Y429419*
X573109Y427475*
X571552Y425528*
X569997Y422806*
X569608Y420083*
X569218Y416576*
X569997Y410347*
X573109Y405677*
X575054Y404122*
X577385Y402568*
X580107Y402179*
X583227Y401789*
X586340*
X589064Y402567*
X592935Y404115*
Y410669*
X592225*
X591068Y409512*
X591055Y409503*
X587151Y407551*
X587135Y407546*
X584402Y407156*
X584388*
X581655Y407546*
X581634Y407554*
X579292Y409116*
X579277Y409131*
X577325Y412254*
X577321Y412262*
X576540Y414215*
X576536Y414233*
Y416576*
X576537Y416584*
X577318Y421269*
X577324Y421286*
X578885Y424019*
X578900Y424035*
X581633Y425987*
X581655Y425996*
X584388Y426386*
X584402*
X587135Y425996*
X587154Y425989*
X591058Y423647*
X591060Y423645*
X592219Y422873*
X592935*
Y429427*
X565994Y430972D02*
X551257D01*
Y425997*
X555112*
X555162Y425947*
Y407595*
X555112Y407545*
X551257*
Y402570*
X565994*
Y407545*
X562140*
X562090Y407595*
Y425947*
X562140Y425997*
X565994*
Y430972*
X546081D02*
X539153D01*
Y420480*
X539103Y420430*
X529733*
X529683Y420480*
Y430972*
X522754*
Y402570*
X529683*
Y415014*
X529733Y415064*
X539103*
X539153Y415014*
Y402570*
X546081*
Y430972*
X518360Y429427D02*
X514492Y430974D01*
X511765Y431363*
X508648Y431753*
X505535Y431364*
X502810Y430585*
X500479Y429419*
X498534Y427475*
X496976Y425528*
X495421Y422806*
X495032Y420083*
X494643Y416576*
X495421Y410347*
X498534Y405677*
X500479Y404122*
X502810Y402568*
X505532Y402179*
X508652Y401789*
X511765*
X514489Y402567*
X518360Y404115*
Y410669*
X517649*
X516493Y409512*
X516480Y409503*
X512575Y407551*
X512560Y407546*
X509827Y407156*
X509813*
X507080Y407546*
X507059Y407554*
X504716Y409116*
X504702Y409131*
X502749Y412254*
X502745Y412262*
X501964Y414215*
X501961Y414233*
Y416576*
Y416584*
X502742Y421269*
X502748Y421286*
X504310Y424019*
X504324Y424035*
X507058Y425987*
X507080Y425996*
X509813Y426386*
X509827*
X512560Y425996*
X512579Y425989*
X516483Y423647*
X516485Y423645*
X517644Y422873*
X518360*
Y429427*
X490247Y430972D02*
X482131D01*
X476287Y416947*
X476196Y416946*
X469962Y430972*
X461845*
Y402570*
X468382*
Y421261*
X468478Y421280*
X473541Y409207*
X478160*
X483223Y421280*
X483319Y421261*
Y402570*
X490247*
Y430972*
X456669D02*
X441932D01*
Y425997*
X445786*
X445836Y425947*
Y407595*
X445786Y407545*
X441932*
Y402570*
X456669*
Y407545*
X452814*
X452764Y407595*
Y425947*
X452814Y425997*
X456669*
Y430972*
X440615Y402570D02*
X430127Y417719D01*
X430129Y417777*
X440219Y430972*
X431756*
X422791Y418499*
X422700Y418528*
Y430972*
X415772*
Y402570*
X422700*
Y412281*
X422712Y412313*
X424664Y414656*
X424744Y414651*
X432538Y402570*
X440615*
X415800D02*
Y430972D01*
X415900Y402570D02*
Y430972D01*
X416000Y402570D02*
Y430972D01*
X416100Y402570D02*
Y430972D01*
X416200Y402570D02*
Y430972D01*
X416300Y402570D02*
Y430972D01*
X416400Y402570D02*
Y430972D01*
X416500Y402570D02*
Y430972D01*
X416600Y402570D02*
Y430972D01*
X416700Y402570D02*
Y430972D01*
X416800Y402570D02*
Y430972D01*
X416900Y402570D02*
Y430972D01*
X417000Y402570D02*
Y430972D01*
X417100Y402570D02*
Y430972D01*
X417200Y402570D02*
Y430972D01*
X417300Y402570D02*
Y430972D01*
X417400Y402570D02*
Y430972D01*
X417500Y402570D02*
Y430972D01*
X417600Y402570D02*
Y430972D01*
X417700Y402570D02*
Y430972D01*
X417800Y402570D02*
Y430972D01*
X417900Y402570D02*
Y430972D01*
X418000Y402570D02*
Y430972D01*
X418100Y402570D02*
Y430972D01*
X418200Y402570D02*
Y430972D01*
X418300Y402570D02*
Y430972D01*
X418400Y402570D02*
Y430972D01*
X418500Y402570D02*
Y430972D01*
X418600Y402570D02*
Y430972D01*
X418700Y402570D02*
Y430972D01*
X418800Y402570D02*
Y430972D01*
X418900Y402570D02*
Y430972D01*
X419000Y402570D02*
Y430972D01*
X419100Y402570D02*
Y430972D01*
X419200Y402570D02*
Y430972D01*
X419300Y402570D02*
Y430972D01*
X419400Y402570D02*
Y430972D01*
X419500Y402570D02*
Y430972D01*
X419600Y402570D02*
Y430972D01*
X419700Y402570D02*
Y430972D01*
X419800Y402570D02*
Y430972D01*
X419900Y402570D02*
Y430972D01*
X420000Y402570D02*
Y430972D01*
X420100Y402570D02*
Y430972D01*
X420200Y402570D02*
Y430972D01*
X420300Y402570D02*
Y430972D01*
X420400Y402570D02*
Y430972D01*
X420500Y402570D02*
Y430972D01*
X420600Y402570D02*
Y430972D01*
X420700Y402570D02*
Y430972D01*
X420800Y402570D02*
Y430972D01*
X420900Y402570D02*
Y430972D01*
X421000Y402570D02*
Y430972D01*
X421100Y402570D02*
Y430972D01*
X421200Y402570D02*
Y430972D01*
X421300Y402570D02*
Y430972D01*
X421400Y402570D02*
Y430972D01*
X421500Y402570D02*
Y430972D01*
X421600Y402570D02*
Y430972D01*
X421700Y402570D02*
Y430972D01*
X421800Y402570D02*
Y430972D01*
X421900Y402570D02*
Y430972D01*
X422000Y402570D02*
Y430972D01*
X422100Y402570D02*
Y430972D01*
X422200Y402570D02*
Y430972D01*
X422300Y402570D02*
Y430972D01*
X422400Y402570D02*
Y430972D01*
X422500Y402570D02*
Y430972D01*
X422600Y402570D02*
Y430972D01*
X422700Y402570D02*
Y430972D01*
X422800Y412419D02*
Y418512D01*
X422900Y412539D02*
Y418651D01*
X423000Y412659D02*
Y418790D01*
X423100Y412779D02*
Y418929D01*
X423200Y412899D02*
Y419068D01*
X423300Y413019D02*
Y419207D01*
X423400Y413139D02*
Y419347D01*
X423500Y413259D02*
Y419486D01*
X423600Y413379D02*
Y419625D01*
X423700Y413499D02*
Y419764D01*
X423800Y413619D02*
Y419903D01*
X423900Y413739D02*
Y420042D01*
X424000Y413859D02*
Y420181D01*
X424100Y413979D02*
Y420321D01*
X424200Y414099D02*
Y420460D01*
X424300Y414219D02*
Y420599D01*
X424400Y414339D02*
Y420738D01*
X424500Y414459D02*
Y420877D01*
X424600Y414579D02*
Y421016D01*
X424700Y414673D02*
Y421155D01*
X424800Y414564D02*
Y421294D01*
X424900Y414409D02*
Y421434D01*
X425000Y414254D02*
Y421573D01*
X425100Y414099D02*
Y421712D01*
X425200Y413944D02*
Y421851D01*
X425300Y413789D02*
Y421990D01*
X425400Y413634D02*
Y422129D01*
X425500Y413479D02*
Y422268D01*
X425600Y413324D02*
Y422407D01*
X425700Y413169D02*
Y422547D01*
X425800Y413014D02*
Y422686D01*
X425900Y412859D02*
Y422825D01*
X426000Y412704D02*
Y422964D01*
X426100Y412549D02*
Y423103D01*
X426200Y412394D02*
Y423242D01*
X426300Y412239D02*
Y423381D01*
X426400Y412084D02*
Y423521D01*
X426500Y411929D02*
Y423660D01*
X426600Y411774D02*
Y423799D01*
X426700Y411619D02*
Y423938D01*
X426800Y411464D02*
Y424077D01*
X426900Y411309D02*
Y424216D01*
X427000Y411154D02*
Y424355D01*
X427100Y410999D02*
Y424494D01*
X427200Y410844D02*
Y424634D01*
X427300Y410689D02*
Y424773D01*
X427400Y410534D02*
Y424912D01*
X427500Y410379D02*
Y425051D01*
X427600Y410224D02*
Y425190D01*
X427700Y410069D02*
Y425329D01*
X427800Y409914D02*
Y425468D01*
X427900Y409759D02*
Y425607D01*
X428000Y409604D02*
Y425747D01*
X428100Y409449D02*
Y425886D01*
X428200Y409294D02*
Y426025D01*
X428300Y409139D02*
Y426164D01*
X428400Y408984D02*
Y426303D01*
X428500Y408829D02*
Y426442D01*
X428600Y408674D02*
Y426581D01*
X428700Y408519D02*
Y426721D01*
X428800Y408364D02*
Y426860D01*
X428900Y408209D02*
Y426999D01*
X429000Y408054D02*
Y427138D01*
X429100Y407899D02*
Y427277D01*
X429200Y407744D02*
Y427416D01*
X429300Y407589D02*
Y427555D01*
X429400Y407434D02*
Y427694D01*
X429500Y407279D02*
Y427834D01*
X429600Y407124D02*
Y427973D01*
X429700Y406969D02*
Y428112D01*
X429800Y406814D02*
Y428251D01*
X429900Y406659D02*
Y428390D01*
X430000Y406504D02*
Y428529D01*
X430100Y406349D02*
Y428668D01*
X430200Y406194D02*
Y417614D01*
Y417871D02*
Y428807D01*
X430300Y406039D02*
Y417469D01*
Y418001D02*
Y428947D01*
X430400Y405884D02*
Y417325D01*
Y418132D02*
Y429086D01*
X430500Y405729D02*
Y417181D01*
Y418263D02*
Y429225D01*
X430600Y405574D02*
Y417036D01*
Y418394D02*
Y429364D01*
X430700Y405419D02*
Y416892D01*
Y418524D02*
Y429503D01*
X430800Y405264D02*
Y416747D01*
Y418655D02*
Y429642D01*
X430900Y405109D02*
Y416603D01*
Y418786D02*
Y429781D01*
X431000Y404954D02*
Y416458D01*
Y418917D02*
Y429921D01*
X431100Y404799D02*
Y416314D01*
Y419047D02*
Y430060D01*
X431200Y404644D02*
Y416169D01*
Y419178D02*
Y430199D01*
X431300Y404489D02*
Y416025D01*
Y419309D02*
Y430338D01*
X431400Y404334D02*
Y415881D01*
Y419440D02*
Y430477D01*
X431500Y404179D02*
Y415736D01*
Y419571D02*
Y430616D01*
X431600Y404024D02*
Y415592D01*
Y419701D02*
Y430755D01*
X431700Y403869D02*
Y415447D01*
Y419832D02*
Y430894D01*
X431800Y403714D02*
Y415303D01*
Y419963D02*
Y430972D01*
X431900Y403559D02*
Y415158D01*
Y420094D02*
Y430972D01*
X432000Y403404D02*
Y415014D01*
Y420224D02*
Y430972D01*
X432100Y403249D02*
Y414869D01*
Y420355D02*
Y430972D01*
X432200Y403094D02*
Y414725D01*
Y420486D02*
Y430972D01*
X432300Y402939D02*
Y414581D01*
Y420617D02*
Y430972D01*
X432400Y402784D02*
Y414436D01*
Y420747D02*
Y430972D01*
X432500Y402629D02*
Y414292D01*
Y420878D02*
Y430972D01*
X432600Y402570D02*
Y414147D01*
Y421009D02*
Y430972D01*
X432700Y402570D02*
Y414003D01*
Y421140D02*
Y430972D01*
X432800Y402570D02*
Y413858D01*
Y421271D02*
Y430972D01*
X432900Y402570D02*
Y413714D01*
Y421401D02*
Y430972D01*
X433000Y402570D02*
Y413569D01*
Y421532D02*
Y430972D01*
X433100Y402570D02*
Y413425D01*
Y421663D02*
Y430972D01*
X433200Y402570D02*
Y413281D01*
Y421794D02*
Y430972D01*
X433300Y402570D02*
Y413136D01*
Y421924D02*
Y430972D01*
X433400Y402570D02*
Y412992D01*
Y422055D02*
Y430972D01*
X433500Y402570D02*
Y412847D01*
Y422186D02*
Y430972D01*
X433600Y402570D02*
Y412703D01*
Y422317D02*
Y430972D01*
X433700Y402570D02*
Y412558D01*
Y422447D02*
Y430972D01*
X433800Y402570D02*
Y412414D01*
Y422578D02*
Y430972D01*
X433900Y402570D02*
Y412269D01*
Y422709D02*
Y430972D01*
X434000Y402570D02*
Y412125D01*
Y422840D02*
Y430972D01*
X434100Y402570D02*
Y411981D01*
Y422971D02*
Y430972D01*
X434200Y402570D02*
Y411836D01*
Y423101D02*
Y430972D01*
X434300Y402570D02*
Y411692D01*
Y423232D02*
Y430972D01*
X434400Y402570D02*
Y411547D01*
Y423363D02*
Y430972D01*
X434500Y402570D02*
Y411403D01*
Y423494D02*
Y430972D01*
X434600Y402570D02*
Y411258D01*
Y423624D02*
Y430972D01*
X434700Y402570D02*
Y411114D01*
Y423755D02*
Y430972D01*
X434800Y402570D02*
Y410969D01*
Y423886D02*
Y430972D01*
X434900Y402570D02*
Y410825D01*
Y424017D02*
Y430972D01*
X435000Y402570D02*
Y410681D01*
Y424147D02*
Y430972D01*
X435100Y402570D02*
Y410536D01*
Y424278D02*
Y430972D01*
X435200Y402570D02*
Y410392D01*
Y424409D02*
Y430972D01*
X435300Y402570D02*
Y410247D01*
Y424540D02*
Y430972D01*
X435400Y402570D02*
Y410103D01*
Y424671D02*
Y430972D01*
X435500Y402570D02*
Y409958D01*
Y424801D02*
Y430972D01*
X435600Y402570D02*
Y409814D01*
Y424932D02*
Y430972D01*
X435700Y402570D02*
Y409669D01*
Y425063D02*
Y430972D01*
X435800Y402570D02*
Y409525D01*
Y425194D02*
Y430972D01*
X435900Y402570D02*
Y409381D01*
Y425324D02*
Y430972D01*
X436000Y402570D02*
Y409236D01*
Y425455D02*
Y430972D01*
X436100Y402570D02*
Y409092D01*
Y425586D02*
Y430972D01*
X436200Y402570D02*
Y408947D01*
Y425717D02*
Y430972D01*
X436300Y402570D02*
Y408803D01*
Y425847D02*
Y430972D01*
X436400Y402570D02*
Y408658D01*
Y425978D02*
Y430972D01*
X436500Y402570D02*
Y408514D01*
Y426109D02*
Y430972D01*
X436600Y402570D02*
Y408369D01*
Y426240D02*
Y430972D01*
X436700Y402570D02*
Y408225D01*
Y426371D02*
Y430972D01*
X436800Y402570D02*
Y408081D01*
Y426501D02*
Y430972D01*
X436900Y402570D02*
Y407936D01*
Y426632D02*
Y430972D01*
X437000Y402570D02*
Y407792D01*
Y426763D02*
Y430972D01*
X437100Y402570D02*
Y407647D01*
Y426894D02*
Y430972D01*
X437200Y402570D02*
Y407503D01*
Y427024D02*
Y430972D01*
X437300Y402570D02*
Y407358D01*
Y427155D02*
Y430972D01*
X437400Y402570D02*
Y407214D01*
Y427286D02*
Y430972D01*
X437500Y402570D02*
Y407069D01*
Y427417D02*
Y430972D01*
X437600Y402570D02*
Y406925D01*
Y427547D02*
Y430972D01*
X437700Y402570D02*
Y406781D01*
Y427678D02*
Y430972D01*
X437800Y402570D02*
Y406636D01*
Y427809D02*
Y430972D01*
X437900Y402570D02*
Y406492D01*
Y427940D02*
Y430972D01*
X438000Y402570D02*
Y406347D01*
Y428071D02*
Y430972D01*
X438100Y402570D02*
Y406203D01*
Y428201D02*
Y430972D01*
X438200Y402570D02*
Y406058D01*
Y428332D02*
Y430972D01*
X438300Y402570D02*
Y405914D01*
Y428463D02*
Y430972D01*
X438400Y402570D02*
Y405769D01*
Y428594D02*
Y430972D01*
X438500Y402570D02*
Y405625D01*
Y428724D02*
Y430972D01*
X438600Y402570D02*
Y405481D01*
Y428855D02*
Y430972D01*
X438700Y402570D02*
Y405336D01*
Y428986D02*
Y430972D01*
X438800Y402570D02*
Y405192D01*
Y429117D02*
Y430972D01*
X438900Y402570D02*
Y405047D01*
Y429247D02*
Y430972D01*
X439000Y402570D02*
Y404903D01*
Y429378D02*
Y430972D01*
X439100Y402570D02*
Y404758D01*
Y429509D02*
Y430972D01*
X439200Y402570D02*
Y404614D01*
Y429640D02*
Y430972D01*
X439300Y402570D02*
Y404469D01*
Y429771D02*
Y430972D01*
X439400Y402570D02*
Y404325D01*
Y429901D02*
Y430972D01*
X439500Y402570D02*
Y404181D01*
Y430032D02*
Y430972D01*
X439600Y402570D02*
Y404036D01*
Y430163D02*
Y430972D01*
X439700Y402570D02*
Y403892D01*
Y430294D02*
Y430972D01*
X439800Y402570D02*
Y403747D01*
Y430424D02*
Y430972D01*
X439900Y402570D02*
Y403603D01*
Y430555D02*
Y430972D01*
X440000Y402570D02*
Y403458D01*
Y430686D02*
Y430972D01*
X440100Y402570D02*
Y403314D01*
Y430817D02*
Y430972D01*
X440200Y402570D02*
Y403169D01*
Y430947D02*
Y430972D01*
X440300Y402570D02*
Y403025D01*
X440400Y402570D02*
Y402881D01*
X440500Y402570D02*
Y402736D01*
X440600Y402570D02*
Y402592D01*
X442000Y402570D02*
Y407545D01*
Y425997D02*
Y430972D01*
X442100Y402570D02*
Y407545D01*
Y425997D02*
Y430972D01*
X442200Y402570D02*
Y407545D01*
Y425997D02*
Y430972D01*
X442300Y402570D02*
Y407545D01*
Y425997D02*
Y430972D01*
X442400Y402570D02*
Y407545D01*
Y425997D02*
Y430972D01*
X442500Y402570D02*
Y407545D01*
Y425997D02*
Y430972D01*
X442600Y402570D02*
Y407545D01*
Y425997D02*
Y430972D01*
X442700Y402570D02*
Y407545D01*
Y425997D02*
Y430972D01*
X442800Y402570D02*
Y407545D01*
Y425997D02*
Y430972D01*
X442900Y402570D02*
Y407545D01*
Y425997D02*
Y430972D01*
X443000Y402570D02*
Y407545D01*
Y425997D02*
Y430972D01*
X443100Y402570D02*
Y407545D01*
Y425997D02*
Y430972D01*
X443200Y402570D02*
Y407545D01*
Y425997D02*
Y430972D01*
X443300Y402570D02*
Y407545D01*
Y425997D02*
Y430972D01*
X443400Y402570D02*
Y407545D01*
Y425997D02*
Y430972D01*
X443500Y402570D02*
Y407545D01*
Y425997D02*
Y430972D01*
X443600Y402570D02*
Y407545D01*
Y425997D02*
Y430972D01*
X443700Y402570D02*
Y407545D01*
Y425997D02*
Y430972D01*
X443800Y402570D02*
Y407545D01*
Y425997D02*
Y430972D01*
X443900Y402570D02*
Y407545D01*
Y425997D02*
Y430972D01*
X444000Y402570D02*
Y407545D01*
Y425997D02*
Y430972D01*
X444100Y402570D02*
Y407545D01*
Y425997D02*
Y430972D01*
X444200Y402570D02*
Y407545D01*
Y425997D02*
Y430972D01*
X444300Y402570D02*
Y407545D01*
Y425997D02*
Y430972D01*
X444400Y402570D02*
Y407545D01*
Y425997D02*
Y430972D01*
X444500Y402570D02*
Y407545D01*
Y425997D02*
Y430972D01*
X444600Y402570D02*
Y407545D01*
Y425997D02*
Y430972D01*
X444700Y402570D02*
Y407545D01*
Y425997D02*
Y430972D01*
X444800Y402570D02*
Y407545D01*
Y425997D02*
Y430972D01*
X444900Y402570D02*
Y407545D01*
Y425997D02*
Y430972D01*
X445000Y402570D02*
Y407545D01*
Y425997D02*
Y430972D01*
X445100Y402570D02*
Y407545D01*
Y425997D02*
Y430972D01*
X445200Y402570D02*
Y407545D01*
Y425997D02*
Y430972D01*
X445300Y402570D02*
Y407545D01*
Y425997D02*
Y430972D01*
X445400Y402570D02*
Y407545D01*
Y425997D02*
Y430972D01*
X445500Y402570D02*
Y407545D01*
Y425997D02*
Y430972D01*
X445600Y402570D02*
Y407545D01*
Y425997D02*
Y430972D01*
X445700Y402570D02*
Y407545D01*
Y425997D02*
Y430972D01*
X445800Y402570D02*
Y407547D01*
Y425995D02*
Y430972D01*
X445900Y402570D02*
Y430972D01*
X446000Y402570D02*
Y430972D01*
X446100Y402570D02*
Y430972D01*
X446200Y402570D02*
Y430972D01*
X446300Y402570D02*
Y430972D01*
X446400Y402570D02*
Y430972D01*
X446500Y402570D02*
Y430972D01*
X446600Y402570D02*
Y430972D01*
X446700Y402570D02*
Y430972D01*
X446800Y402570D02*
Y430972D01*
X446900Y402570D02*
Y430972D01*
X447000Y402570D02*
Y430972D01*
X447100Y402570D02*
Y430972D01*
X447200Y402570D02*
Y430972D01*
X447300Y402570D02*
Y430972D01*
X447400Y402570D02*
Y430972D01*
X447500Y402570D02*
Y430972D01*
X447600Y402570D02*
Y430972D01*
X447700Y402570D02*
Y430972D01*
X447800Y402570D02*
Y430972D01*
X447900Y402570D02*
Y430972D01*
X448000Y402570D02*
Y430972D01*
X448100Y402570D02*
Y430972D01*
X448200Y402570D02*
Y430972D01*
X448300Y402570D02*
Y430972D01*
X448400Y402570D02*
Y430972D01*
X448500Y402570D02*
Y430972D01*
X448600Y402570D02*
Y430972D01*
X448700Y402570D02*
Y430972D01*
X448800Y402570D02*
Y430972D01*
X448900Y402570D02*
Y430972D01*
X449000Y402570D02*
Y430972D01*
X449100Y402570D02*
Y430972D01*
X449200Y402570D02*
Y430972D01*
X449300Y402570D02*
Y430972D01*
X449400Y402570D02*
Y430972D01*
X449500Y402570D02*
Y430972D01*
X449600Y402570D02*
Y430972D01*
X449700Y402570D02*
Y430972D01*
X449800Y402570D02*
Y430972D01*
X449900Y402570D02*
Y430972D01*
X450000Y402570D02*
Y430972D01*
X450100Y402570D02*
Y430972D01*
X450200Y402570D02*
Y430972D01*
X450300Y402570D02*
Y430972D01*
X450400Y402570D02*
Y430972D01*
X450500Y402570D02*
Y430972D01*
X450600Y402570D02*
Y430972D01*
X450700Y402570D02*
Y430972D01*
X450800Y402570D02*
Y430972D01*
X450900Y402570D02*
Y430972D01*
X451000Y402570D02*
Y430972D01*
X451100Y402570D02*
Y430972D01*
X451200Y402570D02*
Y430972D01*
X451300Y402570D02*
Y430972D01*
X451400Y402570D02*
Y430972D01*
X451500Y402570D02*
Y430972D01*
X451600Y402570D02*
Y430972D01*
X451700Y402570D02*
Y430972D01*
X451800Y402570D02*
Y430972D01*
X451900Y402570D02*
Y430972D01*
X452000Y402570D02*
Y430972D01*
X452100Y402570D02*
Y430972D01*
X452200Y402570D02*
Y430972D01*
X452300Y402570D02*
Y430972D01*
X452400Y402570D02*
Y430972D01*
X452500Y402570D02*
Y430972D01*
X452600Y402570D02*
Y430972D01*
X452700Y402570D02*
Y430972D01*
X452800Y402570D02*
Y407548D01*
Y425994D02*
Y430972D01*
X452900Y402570D02*
Y407545D01*
Y425997D02*
Y430972D01*
X453000Y402570D02*
Y407545D01*
Y425997D02*
Y430972D01*
X453100Y402570D02*
Y407545D01*
Y425997D02*
Y430972D01*
X453200Y402570D02*
Y407545D01*
Y425997D02*
Y430972D01*
X453300Y402570D02*
Y407545D01*
Y425997D02*
Y430972D01*
X453400Y402570D02*
Y407545D01*
Y425997D02*
Y430972D01*
X453500Y402570D02*
Y407545D01*
Y425997D02*
Y430972D01*
X453600Y402570D02*
Y407545D01*
Y425997D02*
Y430972D01*
X453700Y402570D02*
Y407545D01*
Y425997D02*
Y430972D01*
X453800Y402570D02*
Y407545D01*
Y425997D02*
Y430972D01*
X453900Y402570D02*
Y407545D01*
Y425997D02*
Y430972D01*
X454000Y402570D02*
Y407545D01*
Y425997D02*
Y430972D01*
X454100Y402570D02*
Y407545D01*
Y425997D02*
Y430972D01*
X454200Y402570D02*
Y407545D01*
Y425997D02*
Y430972D01*
X454300Y402570D02*
Y407545D01*
Y425997D02*
Y430972D01*
X454400Y402570D02*
Y407545D01*
Y425997D02*
Y430972D01*
X454500Y402570D02*
Y407545D01*
Y425997D02*
Y430972D01*
X454600Y402570D02*
Y407545D01*
Y425997D02*
Y430972D01*
X454700Y402570D02*
Y407545D01*
Y425997D02*
Y430972D01*
X454800Y402570D02*
Y407545D01*
Y425997D02*
Y430972D01*
X454900Y402570D02*
Y407545D01*
Y425997D02*
Y430972D01*
X455000Y402570D02*
Y407545D01*
Y425997D02*
Y430972D01*
X455100Y402570D02*
Y407545D01*
Y425997D02*
Y430972D01*
X455200Y402570D02*
Y407545D01*
Y425997D02*
Y430972D01*
X455300Y402570D02*
Y407545D01*
Y425997D02*
Y430972D01*
X455400Y402570D02*
Y407545D01*
Y425997D02*
Y430972D01*
X455500Y402570D02*
Y407545D01*
Y425997D02*
Y430972D01*
X455600Y402570D02*
Y407545D01*
Y425997D02*
Y430972D01*
X455700Y402570D02*
Y407545D01*
Y425997D02*
Y430972D01*
X455800Y402570D02*
Y407545D01*
Y425997D02*
Y430972D01*
X455900Y402570D02*
Y407545D01*
Y425997D02*
Y430972D01*
X456000Y402570D02*
Y407545D01*
Y425997D02*
Y430972D01*
X456100Y402570D02*
Y407545D01*
Y425997D02*
Y430972D01*
X456200Y402570D02*
Y407545D01*
Y425997D02*
Y430972D01*
X456300Y402570D02*
Y407545D01*
Y425997D02*
Y430972D01*
X456400Y402570D02*
Y407545D01*
Y425997D02*
Y430972D01*
X456500Y402570D02*
Y407545D01*
Y425997D02*
Y430972D01*
X456600Y402570D02*
Y407545D01*
Y425997D02*
Y430972D01*
X461900Y402570D02*
Y430972D01*
X462000Y402570D02*
Y430972D01*
X462100Y402570D02*
Y430972D01*
X462200Y402570D02*
Y430972D01*
X462300Y402570D02*
Y430972D01*
X462400Y402570D02*
Y430972D01*
X462500Y402570D02*
Y430972D01*
X462600Y402570D02*
Y430972D01*
X462700Y402570D02*
Y430972D01*
X462800Y402570D02*
Y430972D01*
X462900Y402570D02*
Y430972D01*
X463000Y402570D02*
Y430972D01*
X463100Y402570D02*
Y430972D01*
X463200Y402570D02*
Y430972D01*
X463300Y402570D02*
Y430972D01*
X463400Y402570D02*
Y430972D01*
X463500Y402570D02*
Y430972D01*
X463600Y402570D02*
Y430972D01*
X463700Y402570D02*
Y430972D01*
X463800Y402570D02*
Y430972D01*
X463900Y402570D02*
Y430972D01*
X464000Y402570D02*
Y430972D01*
X464100Y402570D02*
Y430972D01*
X464200Y402570D02*
Y430972D01*
X464300Y402570D02*
Y430972D01*
X464400Y402570D02*
Y430972D01*
X464500Y402570D02*
Y430972D01*
X464600Y402570D02*
Y430972D01*
X464700Y402570D02*
Y430972D01*
X464800Y402570D02*
Y430972D01*
X464900Y402570D02*
Y430972D01*
X465000Y402570D02*
Y430972D01*
X465100Y402570D02*
Y430972D01*
X465200Y402570D02*
Y430972D01*
X465300Y402570D02*
Y430972D01*
X465400Y402570D02*
Y430972D01*
X465500Y402570D02*
Y430972D01*
X465600Y402570D02*
Y430972D01*
X465700Y402570D02*
Y430972D01*
X465800Y402570D02*
Y430972D01*
X465900Y402570D02*
Y430972D01*
X466000Y402570D02*
Y430972D01*
X466100Y402570D02*
Y430972D01*
X466200Y402570D02*
Y430972D01*
X466300Y402570D02*
Y430972D01*
X466400Y402570D02*
Y430972D01*
X466500Y402570D02*
Y430972D01*
X466600Y402570D02*
Y430972D01*
X466700Y402570D02*
Y430972D01*
X466800Y402570D02*
Y430972D01*
X466900Y402570D02*
Y430972D01*
X467000Y402570D02*
Y430972D01*
X467100Y402570D02*
Y430972D01*
X467200Y402570D02*
Y430972D01*
X467300Y402570D02*
Y430972D01*
X467400Y402570D02*
Y430972D01*
X467500Y402570D02*
Y430972D01*
X467600Y402570D02*
Y430972D01*
X467700Y402570D02*
Y430972D01*
X467800Y402570D02*
Y430972D01*
X467900Y402570D02*
Y430972D01*
X468000Y402570D02*
Y430972D01*
X468100Y402570D02*
Y430972D01*
X468200Y402570D02*
Y430972D01*
X468300Y402570D02*
Y430972D01*
X468400Y421299D02*
Y430972D01*
X468500Y421229D02*
Y430972D01*
X468600Y420991D02*
Y430972D01*
X468700Y420752D02*
Y430972D01*
X468800Y420514D02*
Y430972D01*
X468900Y420275D02*
Y430972D01*
X469000Y420037D02*
Y430972D01*
X469100Y419798D02*
Y430972D01*
X469200Y419560D02*
Y430972D01*
X469300Y419321D02*
Y430972D01*
X469400Y419083D02*
Y430972D01*
X469500Y418845D02*
Y430972D01*
X469600Y418606D02*
Y430972D01*
X469700Y418368D02*
Y430972D01*
X469800Y418129D02*
Y430972D01*
X469900Y417891D02*
Y430972D01*
X470000Y417652D02*
Y430886D01*
X470100Y417414D02*
Y430661D01*
X470200Y417175D02*
Y430436D01*
X470300Y416937D02*
Y430211D01*
X470400Y416698D02*
Y429986D01*
X470500Y416460D02*
Y429761D01*
X470600Y416221D02*
Y429536D01*
X470700Y415983D02*
Y429311D01*
X470800Y415745D02*
Y429086D01*
X470900Y415506D02*
Y428861D01*
X471000Y415268D02*
Y428636D01*
X471100Y415029D02*
Y428411D01*
X471200Y414791D02*
Y428186D01*
X471300Y414552D02*
Y427961D01*
X471400Y414314D02*
Y427736D01*
X471500Y414075D02*
Y427511D01*
X471600Y413837D02*
Y427286D01*
X471700Y413598D02*
Y427061D01*
X471800Y413360D02*
Y426836D01*
X471900Y413121D02*
Y426611D01*
X472000Y412883D02*
Y426386D01*
X472100Y412645D02*
Y426161D01*
X472200Y412406D02*
Y425936D01*
X472300Y412168D02*
Y425711D01*
X472400Y411929D02*
Y425486D01*
X472500Y411691D02*
Y425261D01*
X472600Y411452D02*
Y425036D01*
X472700Y411214D02*
Y424811D01*
X472800Y410975D02*
Y424586D01*
X472900Y410737D02*
Y424361D01*
X473000Y410498D02*
Y424136D01*
X473100Y410260D02*
Y423911D01*
X473200Y410021D02*
Y423686D01*
X473300Y409783D02*
Y423461D01*
X473400Y409545D02*
Y423236D01*
X473500Y409306D02*
Y423011D01*
X473600Y409207D02*
Y422786D01*
X473700Y409207D02*
Y422561D01*
X473800Y409207D02*
Y422336D01*
X473900Y409207D02*
Y422111D01*
X474000Y409207D02*
Y421886D01*
X474100Y409207D02*
Y421661D01*
X474200Y409207D02*
Y421436D01*
X474300Y409207D02*
Y421211D01*
X474400Y409207D02*
Y420986D01*
X474500Y409207D02*
Y420761D01*
X474600Y409207D02*
Y420536D01*
X474700Y409207D02*
Y420311D01*
X474800Y409207D02*
Y420086D01*
X474900Y409207D02*
Y419861D01*
X475000Y409207D02*
Y419636D01*
X475100Y409207D02*
Y419411D01*
X475200Y409207D02*
Y419186D01*
X475300Y409207D02*
Y418961D01*
X475400Y409207D02*
Y418736D01*
X475500Y409207D02*
Y418511D01*
X475600Y409207D02*
Y418286D01*
X475700Y409207D02*
Y418061D01*
X475800Y409207D02*
Y417836D01*
X475900Y409207D02*
Y417611D01*
X476000Y409207D02*
Y417386D01*
X476100Y409207D02*
Y417161D01*
X476200Y409207D02*
Y416938D01*
X476300Y409207D02*
Y416977D01*
X476400Y409207D02*
Y417217D01*
X476500Y409207D02*
Y417457D01*
X476600Y409207D02*
Y417697D01*
X476700Y409207D02*
Y417937D01*
X476800Y409207D02*
Y418177D01*
X476900Y409207D02*
Y418417D01*
X477000Y409207D02*
Y418657D01*
X477100Y409207D02*
Y418897D01*
X477200Y409207D02*
Y419137D01*
X477300Y409207D02*
Y419377D01*
X477400Y409207D02*
Y419617D01*
X477500Y409207D02*
Y419857D01*
X477600Y409207D02*
Y420097D01*
X477700Y409207D02*
Y420337D01*
X477800Y409207D02*
Y420577D01*
X477900Y409207D02*
Y420817D01*
X478000Y409207D02*
Y421057D01*
X478100Y409207D02*
Y421297D01*
X478200Y409302D02*
Y421537D01*
X478300Y409540D02*
Y421777D01*
X478400Y409779D02*
Y422017D01*
X478500Y410017D02*
Y422257D01*
X478600Y410256D02*
Y422497D01*
X478700Y410494D02*
Y422737D01*
X478800Y410733D02*
Y422977D01*
X478900Y410971D02*
Y423217D01*
X479000Y411210D02*
Y423457D01*
X479100Y411448D02*
Y423697D01*
X479200Y411687D02*
Y423937D01*
X479300Y411925D02*
Y424177D01*
X479400Y412164D02*
Y424417D01*
X479500Y412402D02*
Y424657D01*
X479600Y412640D02*
Y424897D01*
X479700Y412879D02*
Y425137D01*
X479800Y413117D02*
Y425377D01*
X479900Y413356D02*
Y425617D01*
X480000Y413594D02*
Y425857D01*
X480100Y413833D02*
Y426097D01*
X480200Y414071D02*
Y426337D01*
X480300Y414310D02*
Y426577D01*
X480400Y414548D02*
Y426817D01*
X480500Y414787D02*
Y427057D01*
X480600Y415025D02*
Y427297D01*
X480700Y415264D02*
Y427537D01*
X480800Y415502D02*
Y427777D01*
X480900Y415740D02*
Y428017D01*
X481000Y415979D02*
Y428257D01*
X481100Y416217D02*
Y428497D01*
X481200Y416456D02*
Y428737D01*
X481300Y416694D02*
Y428977D01*
X481400Y416933D02*
Y429217D01*
X481500Y417171D02*
Y429457D01*
X481600Y417410D02*
Y429697D01*
X481700Y417648D02*
Y429937D01*
X481800Y417887D02*
Y430177D01*
X481900Y418125D02*
Y430417D01*
X482000Y418364D02*
Y430657D01*
X482100Y418602D02*
Y430897D01*
X482200Y418840D02*
Y430972D01*
X482300Y419079D02*
Y430972D01*
X482400Y419317D02*
Y430972D01*
X482500Y419556D02*
Y430972D01*
X482600Y419794D02*
Y430972D01*
X482700Y420033D02*
Y430972D01*
X482800Y420271D02*
Y430972D01*
X482900Y420510D02*
Y430972D01*
X483000Y420748D02*
Y430972D01*
X483100Y420987D02*
Y430972D01*
X483200Y421225D02*
Y430972D01*
X483300Y421301D02*
Y430972D01*
X483400Y402570D02*
Y430972D01*
X483500Y402570D02*
Y430972D01*
X483600Y402570D02*
Y430972D01*
X483700Y402570D02*
Y430972D01*
X483800Y402570D02*
Y430972D01*
X483900Y402570D02*
Y430972D01*
X484000Y402570D02*
Y430972D01*
X484100Y402570D02*
Y430972D01*
X484200Y402570D02*
Y430972D01*
X484300Y402570D02*
Y430972D01*
X484400Y402570D02*
Y430972D01*
X484500Y402570D02*
Y430972D01*
X484600Y402570D02*
Y430972D01*
X484700Y402570D02*
Y430972D01*
X484800Y402570D02*
Y430972D01*
X484900Y402570D02*
Y430972D01*
X485000Y402570D02*
Y430972D01*
X485100Y402570D02*
Y430972D01*
X485200Y402570D02*
Y430972D01*
X485300Y402570D02*
Y430972D01*
X485400Y402570D02*
Y430972D01*
X485500Y402570D02*
Y430972D01*
X485600Y402570D02*
Y430972D01*
X485700Y402570D02*
Y430972D01*
X485800Y402570D02*
Y430972D01*
X485900Y402570D02*
Y430972D01*
X486000Y402570D02*
Y430972D01*
X486100Y402570D02*
Y430972D01*
X486200Y402570D02*
Y430972D01*
X486300Y402570D02*
Y430972D01*
X486400Y402570D02*
Y430972D01*
X486500Y402570D02*
Y430972D01*
X486600Y402570D02*
Y430972D01*
X486700Y402570D02*
Y430972D01*
X486800Y402570D02*
Y430972D01*
X486900Y402570D02*
Y430972D01*
X487000Y402570D02*
Y430972D01*
X487100Y402570D02*
Y430972D01*
X487200Y402570D02*
Y430972D01*
X487300Y402570D02*
Y430972D01*
X487400Y402570D02*
Y430972D01*
X487500Y402570D02*
Y430972D01*
X487600Y402570D02*
Y430972D01*
X487700Y402570D02*
Y430972D01*
X487800Y402570D02*
Y430972D01*
X487900Y402570D02*
Y430972D01*
X488000Y402570D02*
Y430972D01*
X488100Y402570D02*
Y430972D01*
X488200Y402570D02*
Y430972D01*
X488300Y402570D02*
Y430972D01*
X488400Y402570D02*
Y430972D01*
X488500Y402570D02*
Y430972D01*
X488600Y402570D02*
Y430972D01*
X488700Y402570D02*
Y430972D01*
X488800Y402570D02*
Y430972D01*
X488900Y402570D02*
Y430972D01*
X489000Y402570D02*
Y430972D01*
X489100Y402570D02*
Y430972D01*
X489200Y402570D02*
Y430972D01*
X489300Y402570D02*
Y430972D01*
X489400Y402570D02*
Y430972D01*
X489500Y402570D02*
Y430972D01*
X489600Y402570D02*
Y430972D01*
X489700Y402570D02*
Y430972D01*
X489800Y402570D02*
Y430972D01*
X489900Y402570D02*
Y430972D01*
X490000Y402570D02*
Y430972D01*
X490100Y402570D02*
Y430972D01*
X490200Y402570D02*
Y430972D01*
X494700Y416117D02*
Y417092D01*
X494800Y415317D02*
Y417992D01*
X494900Y414517D02*
Y418892D01*
X495000Y413717D02*
Y419792D01*
X495100Y412917D02*
Y420557D01*
X495200Y412117D02*
Y421257D01*
X495300Y411317D02*
Y421957D01*
X495400Y410517D02*
Y422657D01*
X495500Y410229D02*
Y422944D01*
X495600Y410079D02*
Y423119D01*
X495700Y409929D02*
Y423294D01*
X495800Y409779D02*
Y423469D01*
X495900Y409629D02*
Y423644D01*
X496000Y409479D02*
Y423819D01*
X496100Y409329D02*
Y423994D01*
X496200Y409179D02*
Y424169D01*
X496300Y409029D02*
Y424344D01*
X496400Y408879D02*
Y424519D01*
X496500Y408729D02*
Y424694D01*
X496600Y408579D02*
Y424869D01*
X496700Y408429D02*
Y425044D01*
X496800Y408279D02*
Y425219D01*
X496900Y408129D02*
Y425394D01*
X497000Y407979D02*
Y425557D01*
X497100Y407829D02*
Y425682D01*
X497200Y407679D02*
Y425807D01*
X497300Y407529D02*
Y425932D01*
X497400Y407379D02*
Y426057D01*
X497500Y407229D02*
Y426182D01*
X497600Y407079D02*
Y426307D01*
X497700Y406929D02*
Y426432D01*
X497800Y406779D02*
Y426557D01*
X497900Y406629D02*
Y426682D01*
X498000Y406479D02*
Y426807D01*
X498100Y406329D02*
Y426932D01*
X498200Y406179D02*
Y427057D01*
X498300Y406029D02*
Y427182D01*
X498400Y405879D02*
Y427307D01*
X498500Y405729D02*
Y427432D01*
X498600Y405625D02*
Y427541D01*
X498700Y405545D02*
Y427641D01*
X498800Y405465D02*
Y427741D01*
X498900Y405385D02*
Y427841D01*
X499000Y405305D02*
Y427941D01*
X499100Y405225D02*
Y428041D01*
X499200Y405145D02*
Y428141D01*
X499300Y405065D02*
Y428241D01*
X499400Y404985D02*
Y428341D01*
X499500Y404905D02*
Y428441D01*
X499600Y404825D02*
Y428541D01*
X499700Y404745D02*
Y428641D01*
X499800Y404665D02*
Y428741D01*
X499900Y404585D02*
Y428841D01*
X500000Y404505D02*
Y428941D01*
X500100Y404425D02*
Y429041D01*
X500200Y404345D02*
Y429141D01*
X500300Y404265D02*
Y429241D01*
X500400Y404185D02*
Y429341D01*
X500500Y404108D02*
Y429430D01*
X500600Y404041D02*
Y429480D01*
X500700Y403974D02*
Y429530D01*
X500800Y403908D02*
Y429580D01*
X500900Y403841D02*
Y429630D01*
X501000Y403774D02*
Y429680D01*
X501100Y403708D02*
Y429730D01*
X501200Y403641D02*
Y429780D01*
X501300Y403574D02*
Y429830D01*
X501400Y403508D02*
Y429880D01*
X501500Y403441D02*
Y429930D01*
X501600Y403374D02*
Y429980D01*
X501700Y403308D02*
Y430030D01*
X501800Y403241D02*
Y430080D01*
X501900Y403174D02*
Y430130D01*
X502000Y403108D02*
Y414125D01*
Y416815D02*
Y430180D01*
X502100Y403041D02*
Y413875D01*
Y417415D02*
Y430230D01*
X502200Y402974D02*
Y413625D01*
Y418015D02*
Y430280D01*
X502300Y402908D02*
Y413375D01*
Y418615D02*
Y430330D01*
X502400Y402841D02*
Y413125D01*
Y419215D02*
Y430380D01*
X502500Y402774D02*
Y412875D01*
Y419815D02*
Y430430D01*
X502600Y402708D02*
Y412625D01*
Y420415D02*
Y430480D01*
X502700Y402641D02*
Y412375D01*
Y421015D02*
Y430530D01*
X502800Y402574D02*
Y412173D01*
Y421376D02*
Y430580D01*
X502900Y402555D02*
Y412013D01*
Y421551D02*
Y430611D01*
X503000Y402540D02*
Y411853D01*
Y421726D02*
Y430639D01*
X503100Y402526D02*
Y411693D01*
Y421901D02*
Y430668D01*
X503200Y402512D02*
Y411533D01*
Y422076D02*
Y430697D01*
X503300Y402498D02*
Y411373D01*
Y422251D02*
Y430725D01*
X503400Y402483D02*
Y411213D01*
Y422426D02*
Y430754D01*
X503500Y402469D02*
Y411053D01*
Y422601D02*
Y430782D01*
X503600Y402455D02*
Y410893D01*
Y422776D02*
Y430811D01*
X503700Y402440D02*
Y410733D01*
Y422951D02*
Y430839D01*
X503800Y402426D02*
Y410573D01*
Y423126D02*
Y430868D01*
X503900Y402412D02*
Y410413D01*
Y423301D02*
Y430897D01*
X504000Y402398D02*
Y410253D01*
Y423476D02*
Y430925D01*
X504100Y402383D02*
Y410093D01*
Y423651D02*
Y430954D01*
X504200Y402369D02*
Y409933D01*
Y423826D02*
Y430982D01*
X504300Y402355D02*
Y409773D01*
Y424001D02*
Y431011D01*
X504400Y402340D02*
Y409613D01*
Y424089D02*
Y431039D01*
X504500Y402326D02*
Y409453D01*
Y424160D02*
Y431068D01*
X504600Y402312D02*
Y409293D01*
Y424232D02*
Y431097D01*
X504700Y402298D02*
Y409133D01*
Y424303D02*
Y431125D01*
X504800Y402283D02*
Y409060D01*
Y424375D02*
Y431154D01*
X504900Y402269D02*
Y408993D01*
Y424446D02*
Y431182D01*
X505000Y402255D02*
Y408926D01*
Y424518D02*
Y431211D01*
X505100Y402240D02*
Y408860D01*
Y424589D02*
Y431239D01*
X505200Y402226D02*
Y408793D01*
Y424660D02*
Y431268D01*
X505300Y402212D02*
Y408726D01*
Y424732D02*
Y431297D01*
X505400Y402198D02*
Y408660D01*
Y424803D02*
Y431325D01*
X505500Y402183D02*
Y408593D01*
Y424875D02*
Y431354D01*
X505600Y402170D02*
Y408526D01*
Y424946D02*
Y431372D01*
X505700Y402158D02*
Y408460D01*
Y425018D02*
Y431384D01*
X505800Y402145D02*
Y408393D01*
Y425089D02*
Y431397D01*
X505900Y402133D02*
Y408326D01*
Y425160D02*
Y431409D01*
X506000Y402120D02*
Y408260D01*
Y425232D02*
Y431422D01*
X506100Y402108D02*
Y408193D01*
Y425303D02*
Y431434D01*
X506200Y402095D02*
Y408126D01*
Y425375D02*
Y431447D01*
X506300Y402083D02*
Y408060D01*
Y425446D02*
Y431459D01*
X506400Y402070D02*
Y407993D01*
Y425518D02*
Y431472D01*
X506500Y402058D02*
Y407926D01*
Y425589D02*
Y431484D01*
X506600Y402045D02*
Y407860D01*
Y425660D02*
Y431497D01*
X506700Y402033D02*
Y407793D01*
Y425732D02*
Y431509D01*
X506800Y402020D02*
Y407726D01*
Y425803D02*
Y431522D01*
X506900Y402008D02*
Y407660D01*
Y425875D02*
Y431534D01*
X507000Y401995D02*
Y407593D01*
Y425946D02*
Y431547D01*
X507100Y401983D02*
Y407543D01*
Y425999D02*
Y431559D01*
X507200Y401970D02*
Y407529D01*
Y426013D02*
Y431572D01*
X507300Y401958D02*
Y407515D01*
Y426028D02*
Y431584D01*
X507400Y401945D02*
Y407500D01*
Y426042D02*
Y431597D01*
X507500Y401933D02*
Y407486D01*
Y426056D02*
Y431609D01*
X507600Y401920D02*
Y407472D01*
Y426070D02*
Y431622D01*
X507700Y401908D02*
Y407457D01*
Y426085D02*
Y431634D01*
X507800Y401895D02*
Y407443D01*
Y426099D02*
Y431647D01*
X507900Y401883D02*
Y407429D01*
Y426113D02*
Y431659D01*
X508000Y401870D02*
Y407415D01*
Y426128D02*
Y431672D01*
X508100Y401858D02*
Y407400D01*
Y426142D02*
Y431684D01*
X508200Y401845D02*
Y407386D01*
Y426156D02*
Y431697D01*
X508300Y401833D02*
Y407372D01*
Y426170D02*
Y431709D01*
X508400Y401820D02*
Y407357D01*
Y426185D02*
Y431722D01*
X508500Y401808D02*
Y407343D01*
Y426199D02*
Y431734D01*
X508600Y401795D02*
Y407329D01*
Y426213D02*
Y431747D01*
X508700Y401789D02*
Y407315D01*
Y426228D02*
Y431746D01*
X508800Y401789D02*
Y407300D01*
Y426242D02*
Y431734D01*
X508900Y401789D02*
Y407286D01*
Y426256D02*
Y431721D01*
X509000Y401789D02*
Y407272D01*
Y426270D02*
Y431709D01*
X509100Y401789D02*
Y407257D01*
Y426285D02*
Y431696D01*
X509200Y401789D02*
Y407243D01*
Y426299D02*
Y431684D01*
X509300Y401789D02*
Y407229D01*
Y426313D02*
Y431671D01*
X509400Y401789D02*
Y407215D01*
Y426328D02*
Y431659D01*
X509500Y401789D02*
Y407200D01*
Y426342D02*
Y431646D01*
X509600Y401789D02*
Y407186D01*
Y426356D02*
Y431634D01*
X509700Y401789D02*
Y407172D01*
Y426370D02*
Y431621D01*
X509800Y401789D02*
Y407157D01*
Y426385D02*
Y431609D01*
X509900Y401789D02*
Y407166D01*
Y426376D02*
Y431596D01*
X510000Y401789D02*
Y407180D01*
Y426362D02*
Y431584D01*
X510100Y401789D02*
Y407195D01*
Y426347D02*
Y431571D01*
X510200Y401789D02*
Y407209D01*
Y426333D02*
Y431559D01*
X510300Y401789D02*
Y407223D01*
Y426319D02*
Y431546D01*
X510400Y401789D02*
Y407237D01*
Y426305D02*
Y431534D01*
X510500Y401789D02*
Y407252D01*
Y426290D02*
Y431521D01*
X510600Y401789D02*
Y407266D01*
Y426276D02*
Y431509D01*
X510700Y401789D02*
Y407280D01*
Y426262D02*
Y431496D01*
X510800Y401789D02*
Y407295D01*
Y426247D02*
Y431484D01*
X510900Y401789D02*
Y407309D01*
Y426233D02*
Y431471D01*
X511000Y401789D02*
Y407323D01*
Y426219D02*
Y431459D01*
X511100Y401789D02*
Y407337D01*
Y426205D02*
Y431446D01*
X511200Y401789D02*
Y407352D01*
Y426190D02*
Y431434D01*
X511300Y401789D02*
Y407366D01*
Y426176D02*
Y431421D01*
X511400Y401789D02*
Y407380D01*
Y426162D02*
Y431409D01*
X511500Y401789D02*
Y407395D01*
Y426147D02*
Y431396D01*
X511600Y401789D02*
Y407409D01*
Y426133D02*
Y431384D01*
X511700Y401789D02*
Y407423D01*
Y426119D02*
Y431371D01*
X511800Y401799D02*
Y407437D01*
Y426105D02*
Y431358D01*
X511900Y401827D02*
Y407452D01*
Y426090D02*
Y431344D01*
X512000Y401856D02*
Y407466D01*
Y426076D02*
Y431330D01*
X512100Y401885D02*
Y407480D01*
Y426062D02*
Y431315D01*
X512200Y401913D02*
Y407495D01*
Y426047D02*
Y431301D01*
X512300Y401942D02*
Y407509D01*
Y426033D02*
Y431287D01*
X512400Y401970D02*
Y407523D01*
Y426019D02*
Y431273D01*
X512500Y401999D02*
Y407537D01*
Y426005D02*
Y431258D01*
X512600Y402027D02*
Y407563D01*
Y425977D02*
Y431244D01*
X512700Y402056D02*
Y407613D01*
Y425917D02*
Y431230D01*
X512800Y402085D02*
Y407663D01*
Y425857D02*
Y431215D01*
X512900Y402113D02*
Y407713D01*
Y425797D02*
Y431201D01*
X513000Y402142D02*
Y407763D01*
Y425737D02*
Y431187D01*
X513100Y402170D02*
Y407813D01*
Y425677D02*
Y431173D01*
X513200Y402199D02*
Y407863D01*
Y425617D02*
Y431158D01*
X513300Y402227D02*
Y407913D01*
Y425557D02*
Y431144D01*
X513400Y402256D02*
Y407963D01*
Y425497D02*
Y431130D01*
X513500Y402285D02*
Y408013D01*
Y425437D02*
Y431115D01*
X513600Y402313D02*
Y408063D01*
Y425377D02*
Y431101D01*
X513700Y402342D02*
Y408113D01*
Y425317D02*
Y431087D01*
X513800Y402370D02*
Y408163D01*
Y425257D02*
Y431073D01*
X513900Y402399D02*
Y408213D01*
Y425197D02*
Y431058D01*
X514000Y402427D02*
Y408263D01*
Y425137D02*
Y431044D01*
X514100Y402456D02*
Y408313D01*
Y425077D02*
Y431030D01*
X514200Y402485D02*
Y408363D01*
Y425017D02*
Y431015D01*
X514300Y402513D02*
Y408413D01*
Y424957D02*
Y431001D01*
X514400Y402542D02*
Y408463D01*
Y424897D02*
Y430987D01*
X514500Y402571D02*
Y408513D01*
Y424837D02*
Y430971D01*
X514600Y402611D02*
Y408563D01*
Y424777D02*
Y430931D01*
X514700Y402651D02*
Y408613D01*
Y424717D02*
Y430891D01*
X514800Y402691D02*
Y408663D01*
Y424657D02*
Y430851D01*
X514900Y402731D02*
Y408713D01*
Y424597D02*
Y430811D01*
X515000Y402771D02*
Y408763D01*
Y424537D02*
Y430771D01*
X515100Y402811D02*
Y408813D01*
Y424477D02*
Y430731D01*
X515200Y402851D02*
Y408863D01*
Y424417D02*
Y430691D01*
X515300Y402891D02*
Y408913D01*
Y424357D02*
Y430651D01*
X515400Y402931D02*
Y408963D01*
Y424297D02*
Y430611D01*
X515500Y402971D02*
Y409013D01*
Y424237D02*
Y430571D01*
X515600Y403011D02*
Y409063D01*
Y424177D02*
Y430531D01*
X515700Y403051D02*
Y409113D01*
Y424117D02*
Y430491D01*
X515800Y403091D02*
Y409163D01*
Y424057D02*
Y430451D01*
X515900Y403131D02*
Y409213D01*
Y423997D02*
Y430411D01*
X516000Y403171D02*
Y409263D01*
Y423937D02*
Y430371D01*
X516100Y403211D02*
Y409313D01*
Y423877D02*
Y430331D01*
X516200Y403251D02*
Y409363D01*
Y423817D02*
Y430291D01*
X516300Y403291D02*
Y409413D01*
Y423757D02*
Y430251D01*
X516400Y403331D02*
Y409463D01*
Y423697D02*
Y430211D01*
X516500Y403371D02*
Y409520D01*
Y423635D02*
Y430171D01*
X516600Y403411D02*
Y409620D01*
Y423569D02*
Y430131D01*
X516700Y403451D02*
Y409720D01*
Y423502D02*
Y430091D01*
X516800Y403491D02*
Y409820D01*
Y423435D02*
Y430051D01*
X516900Y403531D02*
Y409920D01*
Y423369D02*
Y430011D01*
X517000Y403571D02*
Y410020D01*
Y423302D02*
Y429971D01*
X517100Y403611D02*
Y410120D01*
Y423235D02*
Y429931D01*
X517200Y403651D02*
Y410220D01*
Y423169D02*
Y429891D01*
X517300Y403691D02*
Y410320D01*
Y423102D02*
Y429851D01*
X517400Y403731D02*
Y410420D01*
Y423035D02*
Y429811D01*
X517500Y403771D02*
Y410520D01*
Y422969D02*
Y429771D01*
X517600Y403811D02*
Y410620D01*
Y422902D02*
Y429731D01*
X517700Y403851D02*
Y410669D01*
Y422873D02*
Y429691D01*
X517800Y403891D02*
Y410669D01*
Y422873D02*
Y429651D01*
X517900Y403931D02*
Y410669D01*
Y422873D02*
Y429611D01*
X518000Y403971D02*
Y410669D01*
Y422873D02*
Y429571D01*
X518100Y404011D02*
Y410669D01*
Y422873D02*
Y429531D01*
X518200Y404051D02*
Y410669D01*
Y422873D02*
Y429491D01*
X518300Y404091D02*
Y410669D01*
Y422873D02*
Y429451D01*
X522800Y402570D02*
Y430972D01*
X522900Y402570D02*
Y430972D01*
X523000Y402570D02*
Y430972D01*
X523100Y402570D02*
Y430972D01*
X523200Y402570D02*
Y430972D01*
X523300Y402570D02*
Y430972D01*
X523400Y402570D02*
Y430972D01*
X523500Y402570D02*
Y430972D01*
X523600Y402570D02*
Y430972D01*
X523700Y402570D02*
Y430972D01*
X523800Y402570D02*
Y430972D01*
X523900Y402570D02*
Y430972D01*
X524000Y402570D02*
Y430972D01*
X524100Y402570D02*
Y430972D01*
X524200Y402570D02*
Y430972D01*
X524300Y402570D02*
Y430972D01*
X524400Y402570D02*
Y430972D01*
X524500Y402570D02*
Y430972D01*
X524600Y402570D02*
Y430972D01*
X524700Y402570D02*
Y430972D01*
X524800Y402570D02*
Y430972D01*
X524900Y402570D02*
Y430972D01*
X525000Y402570D02*
Y430972D01*
X525100Y402570D02*
Y430972D01*
X525200Y402570D02*
Y430972D01*
X525300Y402570D02*
Y430972D01*
X525400Y402570D02*
Y430972D01*
X525500Y402570D02*
Y430972D01*
X525600Y402570D02*
Y430972D01*
X525700Y402570D02*
Y430972D01*
X525800Y402570D02*
Y430972D01*
X525900Y402570D02*
Y430972D01*
X526000Y402570D02*
Y430972D01*
X526100Y402570D02*
Y430972D01*
X526200Y402570D02*
Y430972D01*
X526300Y402570D02*
Y430972D01*
X526400Y402570D02*
Y430972D01*
X526500Y402570D02*
Y430972D01*
X526600Y402570D02*
Y430972D01*
X526700Y402570D02*
Y430972D01*
X526800Y402570D02*
Y430972D01*
X526900Y402570D02*
Y430972D01*
X527000Y402570D02*
Y430972D01*
X527100Y402570D02*
Y430972D01*
X527200Y402570D02*
Y430972D01*
X527300Y402570D02*
Y430972D01*
X527400Y402570D02*
Y430972D01*
X527500Y402570D02*
Y430972D01*
X527600Y402570D02*
Y430972D01*
X527700Y402570D02*
Y430972D01*
X527800Y402570D02*
Y430972D01*
X527900Y402570D02*
Y430972D01*
X528000Y402570D02*
Y430972D01*
X528100Y402570D02*
Y430972D01*
X528200Y402570D02*
Y430972D01*
X528300Y402570D02*
Y430972D01*
X528400Y402570D02*
Y430972D01*
X528500Y402570D02*
Y430972D01*
X528600Y402570D02*
Y430972D01*
X528700Y402570D02*
Y430972D01*
X528800Y402570D02*
Y430972D01*
X528900Y402570D02*
Y430972D01*
X529000Y402570D02*
Y430972D01*
X529100Y402570D02*
Y430972D01*
X529200Y402570D02*
Y430972D01*
X529300Y402570D02*
Y430972D01*
X529400Y402570D02*
Y430972D01*
X529500Y402570D02*
Y430972D01*
X529600Y402570D02*
Y430972D01*
X529700Y415052D02*
Y420442D01*
X529800Y415064D02*
Y420430D01*
X529900Y415064D02*
Y420430D01*
X530000Y415064D02*
Y420430D01*
X530100Y415064D02*
Y420430D01*
X530200Y415064D02*
Y420430D01*
X530300Y415064D02*
Y420430D01*
X530400Y415064D02*
Y420430D01*
X530500Y415064D02*
Y420430D01*
X530600Y415064D02*
Y420430D01*
X530700Y415064D02*
Y420430D01*
X530800Y415064D02*
Y420430D01*
X530900Y415064D02*
Y420430D01*
X531000Y415064D02*
Y420430D01*
X531100Y415064D02*
Y420430D01*
X531200Y415064D02*
Y420430D01*
X531300Y415064D02*
Y420430D01*
X531400Y415064D02*
Y420430D01*
X531500Y415064D02*
Y420430D01*
X531600Y415064D02*
Y420430D01*
X531700Y415064D02*
Y420430D01*
X531800Y415064D02*
Y420430D01*
X531900Y415064D02*
Y420430D01*
X532000Y415064D02*
Y420430D01*
X532100Y415064D02*
Y420430D01*
X532200Y415064D02*
Y420430D01*
X532300Y415064D02*
Y420430D01*
X532400Y415064D02*
Y420430D01*
X532500Y415064D02*
Y420430D01*
X532600Y415064D02*
Y420430D01*
X532700Y415064D02*
Y420430D01*
X532800Y415064D02*
Y420430D01*
X532900Y415064D02*
Y420430D01*
X533000Y415064D02*
Y420430D01*
X533100Y415064D02*
Y420430D01*
X533200Y415064D02*
Y420430D01*
X533300Y415064D02*
Y420430D01*
X533400Y415064D02*
Y420430D01*
X533500Y415064D02*
Y420430D01*
X533600Y415064D02*
Y420430D01*
X533700Y415064D02*
Y420430D01*
X533800Y415064D02*
Y420430D01*
X533900Y415064D02*
Y420430D01*
X534000Y415064D02*
Y420430D01*
X534100Y415064D02*
Y420430D01*
X534200Y415064D02*
Y420430D01*
X534300Y415064D02*
Y420430D01*
X534400Y415064D02*
Y420430D01*
X534500Y415064D02*
Y420430D01*
X534600Y415064D02*
Y420430D01*
X534700Y415064D02*
Y420430D01*
X534800Y415064D02*
Y420430D01*
X534900Y415064D02*
Y420430D01*
X535000Y415064D02*
Y420430D01*
X535100Y415064D02*
Y420430D01*
X535200Y415064D02*
Y420430D01*
X535300Y415064D02*
Y420430D01*
X535400Y415064D02*
Y420430D01*
X535500Y415064D02*
Y420430D01*
X535600Y415064D02*
Y420430D01*
X535700Y415064D02*
Y420430D01*
X535800Y415064D02*
Y420430D01*
X535900Y415064D02*
Y420430D01*
X536000Y415064D02*
Y420430D01*
X536100Y415064D02*
Y420430D01*
X536200Y415064D02*
Y420430D01*
X536300Y415064D02*
Y420430D01*
X536400Y415064D02*
Y420430D01*
X536500Y415064D02*
Y420430D01*
X536600Y415064D02*
Y420430D01*
X536700Y415064D02*
Y420430D01*
X536800Y415064D02*
Y420430D01*
X536900Y415064D02*
Y420430D01*
X537000Y415064D02*
Y420430D01*
X537100Y415064D02*
Y420430D01*
X537200Y415064D02*
Y420430D01*
X537300Y415064D02*
Y420430D01*
X537400Y415064D02*
Y420430D01*
X537500Y415064D02*
Y420430D01*
X537600Y415064D02*
Y420430D01*
X537700Y415064D02*
Y420430D01*
X537800Y415064D02*
Y420430D01*
X537900Y415064D02*
Y420430D01*
X538000Y415064D02*
Y420430D01*
X538100Y415064D02*
Y420430D01*
X538200Y415064D02*
Y420430D01*
X538300Y415064D02*
Y420430D01*
X538400Y415064D02*
Y420430D01*
X538500Y415064D02*
Y420430D01*
X538600Y415064D02*
Y420430D01*
X538700Y415064D02*
Y420430D01*
X538800Y415064D02*
Y420430D01*
X538900Y415064D02*
Y420430D01*
X539000Y415064D02*
Y420430D01*
X539100Y415064D02*
Y420430D01*
X539200Y402570D02*
Y430972D01*
X539300Y402570D02*
Y430972D01*
X539400Y402570D02*
Y430972D01*
X539500Y402570D02*
Y430972D01*
X539600Y402570D02*
Y430972D01*
X539700Y402570D02*
Y430972D01*
X539800Y402570D02*
Y430972D01*
X539900Y402570D02*
Y430972D01*
X540000Y402570D02*
Y430972D01*
X540100Y402570D02*
Y430972D01*
X540200Y402570D02*
Y430972D01*
X540300Y402570D02*
Y430972D01*
X540400Y402570D02*
Y430972D01*
X540500Y402570D02*
Y430972D01*
X540600Y402570D02*
Y430972D01*
X540700Y402570D02*
Y430972D01*
X540800Y402570D02*
Y430972D01*
X540900Y402570D02*
Y430972D01*
X541000Y402570D02*
Y430972D01*
X541100Y402570D02*
Y430972D01*
X541200Y402570D02*
Y430972D01*
X541300Y402570D02*
Y430972D01*
X541400Y402570D02*
Y430972D01*
X541500Y402570D02*
Y430972D01*
X541600Y402570D02*
Y430972D01*
X541700Y402570D02*
Y430972D01*
X541800Y402570D02*
Y430972D01*
X541900Y402570D02*
Y430972D01*
X542000Y402570D02*
Y430972D01*
X542100Y402570D02*
Y430972D01*
X542200Y402570D02*
Y430972D01*
X542300Y402570D02*
Y430972D01*
X542400Y402570D02*
Y430972D01*
X542500Y402570D02*
Y430972D01*
X542600Y402570D02*
Y430972D01*
X542700Y402570D02*
Y430972D01*
X542800Y402570D02*
Y430972D01*
X542900Y402570D02*
Y430972D01*
X543000Y402570D02*
Y430972D01*
X543100Y402570D02*
Y430972D01*
X543200Y402570D02*
Y430972D01*
X543300Y402570D02*
Y430972D01*
X543400Y402570D02*
Y430972D01*
X543500Y402570D02*
Y430972D01*
X543600Y402570D02*
Y430972D01*
X543700Y402570D02*
Y430972D01*
X543800Y402570D02*
Y430972D01*
X543900Y402570D02*
Y430972D01*
X544000Y402570D02*
Y430972D01*
X544100Y402570D02*
Y430972D01*
X544200Y402570D02*
Y430972D01*
X544300Y402570D02*
Y430972D01*
X544400Y402570D02*
Y430972D01*
X544500Y402570D02*
Y430972D01*
X544600Y402570D02*
Y430972D01*
X544700Y402570D02*
Y430972D01*
X544800Y402570D02*
Y430972D01*
X544900Y402570D02*
Y430972D01*
X545000Y402570D02*
Y430972D01*
X545100Y402570D02*
Y430972D01*
X545200Y402570D02*
Y430972D01*
X545300Y402570D02*
Y430972D01*
X545400Y402570D02*
Y430972D01*
X545500Y402570D02*
Y430972D01*
X545600Y402570D02*
Y430972D01*
X545700Y402570D02*
Y430972D01*
X545800Y402570D02*
Y430972D01*
X545900Y402570D02*
Y430972D01*
X546000Y402570D02*
Y430972D01*
X551300Y402570D02*
Y407545D01*
Y425997D02*
Y430972D01*
X551400Y402570D02*
Y407545D01*
Y425997D02*
Y430972D01*
X551500Y402570D02*
Y407545D01*
Y425997D02*
Y430972D01*
X551600Y402570D02*
Y407545D01*
Y425997D02*
Y430972D01*
X551700Y402570D02*
Y407545D01*
Y425997D02*
Y430972D01*
X551800Y402570D02*
Y407545D01*
Y425997D02*
Y430972D01*
X551900Y402570D02*
Y407545D01*
Y425997D02*
Y430972D01*
X552000Y402570D02*
Y407545D01*
Y425997D02*
Y430972D01*
X552100Y402570D02*
Y407545D01*
Y425997D02*
Y430972D01*
X552200Y402570D02*
Y407545D01*
Y425997D02*
Y430972D01*
X552300Y402570D02*
Y407545D01*
Y425997D02*
Y430972D01*
X552400Y402570D02*
Y407545D01*
Y425997D02*
Y430972D01*
X552500Y402570D02*
Y407545D01*
Y425997D02*
Y430972D01*
X552600Y402570D02*
Y407545D01*
Y425997D02*
Y430972D01*
X552700Y402570D02*
Y407545D01*
Y425997D02*
Y430972D01*
X552800Y402570D02*
Y407545D01*
Y425997D02*
Y430972D01*
X552900Y402570D02*
Y407545D01*
Y425997D02*
Y430972D01*
X553000Y402570D02*
Y407545D01*
Y425997D02*
Y430972D01*
X553100Y402570D02*
Y407545D01*
Y425997D02*
Y430972D01*
X553200Y402570D02*
Y407545D01*
Y425997D02*
Y430972D01*
X553300Y402570D02*
Y407545D01*
Y425997D02*
Y430972D01*
X553400Y402570D02*
Y407545D01*
Y425997D02*
Y430972D01*
X553500Y402570D02*
Y407545D01*
Y425997D02*
Y430972D01*
X553600Y402570D02*
Y407545D01*
Y425997D02*
Y430972D01*
X553700Y402570D02*
Y407545D01*
Y425997D02*
Y430972D01*
X553800Y402570D02*
Y407545D01*
Y425997D02*
Y430972D01*
X553900Y402570D02*
Y407545D01*
Y425997D02*
Y430972D01*
X554000Y402570D02*
Y407545D01*
Y425997D02*
Y430972D01*
X554100Y402570D02*
Y407545D01*
Y425997D02*
Y430972D01*
X554200Y402570D02*
Y407545D01*
Y425997D02*
Y430972D01*
X554300Y402570D02*
Y407545D01*
Y425997D02*
Y430972D01*
X554400Y402570D02*
Y407545D01*
Y425997D02*
Y430972D01*
X554500Y402570D02*
Y407545D01*
Y425997D02*
Y430972D01*
X554600Y402570D02*
Y407545D01*
Y425997D02*
Y430972D01*
X554700Y402570D02*
Y407545D01*
Y425997D02*
Y430972D01*
X554800Y402570D02*
Y407545D01*
Y425997D02*
Y430972D01*
X554900Y402570D02*
Y407545D01*
Y425997D02*
Y430972D01*
X555000Y402570D02*
Y407545D01*
Y425997D02*
Y430972D01*
X555100Y402570D02*
Y407545D01*
Y425997D02*
Y430972D01*
X555200Y402570D02*
Y430972D01*
X555300Y402570D02*
Y430972D01*
X555400Y402570D02*
Y430972D01*
X555500Y402570D02*
Y430972D01*
X555600Y402570D02*
Y430972D01*
X555700Y402570D02*
Y430972D01*
X555800Y402570D02*
Y430972D01*
X555900Y402570D02*
Y430972D01*
X556000Y402570D02*
Y430972D01*
X556100Y402570D02*
Y430972D01*
X556200Y402570D02*
Y430972D01*
X556300Y402570D02*
Y430972D01*
X556400Y402570D02*
Y430972D01*
X556500Y402570D02*
Y430972D01*
X556600Y402570D02*
Y430972D01*
X556700Y402570D02*
Y430972D01*
X556800Y402570D02*
Y430972D01*
X556900Y402570D02*
Y430972D01*
X557000Y402570D02*
Y430972D01*
X557100Y402570D02*
Y430972D01*
X557200Y402570D02*
Y430972D01*
X557300Y402570D02*
Y430972D01*
X557400Y402570D02*
Y430972D01*
X557500Y402570D02*
Y430972D01*
X557600Y402570D02*
Y430972D01*
X557700Y402570D02*
Y430972D01*
X557800Y402570D02*
Y430972D01*
X557900Y402570D02*
Y430972D01*
X558000Y402570D02*
Y430972D01*
X558100Y402570D02*
Y430972D01*
X558200Y402570D02*
Y430972D01*
X558300Y402570D02*
Y430972D01*
X558400Y402570D02*
Y430972D01*
X558500Y402570D02*
Y430972D01*
X558600Y402570D02*
Y430972D01*
X558700Y402570D02*
Y430972D01*
X558800Y402570D02*
Y430972D01*
X558900Y402570D02*
Y430972D01*
X559000Y402570D02*
Y430972D01*
X559100Y402570D02*
Y430972D01*
X559200Y402570D02*
Y430972D01*
X559300Y402570D02*
Y430972D01*
X559400Y402570D02*
Y430972D01*
X559500Y402570D02*
Y430972D01*
X559600Y402570D02*
Y430972D01*
X559700Y402570D02*
Y430972D01*
X559800Y402570D02*
Y430972D01*
X559900Y402570D02*
Y430972D01*
X560000Y402570D02*
Y430972D01*
X560100Y402570D02*
Y430972D01*
X560200Y402570D02*
Y430972D01*
X560300Y402570D02*
Y430972D01*
X560400Y402570D02*
Y430972D01*
X560500Y402570D02*
Y430972D01*
X560600Y402570D02*
Y430972D01*
X560700Y402570D02*
Y430972D01*
X560800Y402570D02*
Y430972D01*
X560900Y402570D02*
Y430972D01*
X561000Y402570D02*
Y430972D01*
X561100Y402570D02*
Y430972D01*
X561200Y402570D02*
Y430972D01*
X561300Y402570D02*
Y430972D01*
X561400Y402570D02*
Y430972D01*
X561500Y402570D02*
Y430972D01*
X561600Y402570D02*
Y430972D01*
X561700Y402570D02*
Y430972D01*
X561800Y402570D02*
Y430972D01*
X561900Y402570D02*
Y430972D01*
X562000Y402570D02*
Y430972D01*
X562100Y402570D02*
Y407565D01*
Y425977D02*
Y430972D01*
X562200Y402570D02*
Y407545D01*
Y425997D02*
Y430972D01*
X562300Y402570D02*
Y407545D01*
Y425997D02*
Y430972D01*
X562400Y402570D02*
Y407545D01*
Y425997D02*
Y430972D01*
X562500Y402570D02*
Y407545D01*
Y425997D02*
Y430972D01*
X562600Y402570D02*
Y407545D01*
Y425997D02*
Y430972D01*
X562700Y402570D02*
Y407545D01*
Y425997D02*
Y430972D01*
X562800Y402570D02*
Y407545D01*
Y425997D02*
Y430972D01*
X562900Y402570D02*
Y407545D01*
Y425997D02*
Y430972D01*
X563000Y402570D02*
Y407545D01*
Y425997D02*
Y430972D01*
X563100Y402570D02*
Y407545D01*
Y425997D02*
Y430972D01*
X563200Y402570D02*
Y407545D01*
Y425997D02*
Y430972D01*
X563300Y402570D02*
Y407545D01*
Y425997D02*
Y430972D01*
X563400Y402570D02*
Y407545D01*
Y425997D02*
Y430972D01*
X563500Y402570D02*
Y407545D01*
Y425997D02*
Y430972D01*
X563600Y402570D02*
Y407545D01*
Y425997D02*
Y430972D01*
X563700Y402570D02*
Y407545D01*
Y425997D02*
Y430972D01*
X563800Y402570D02*
Y407545D01*
Y425997D02*
Y430972D01*
X563900Y402570D02*
Y407545D01*
Y425997D02*
Y430972D01*
X564000Y402570D02*
Y407545D01*
Y425997D02*
Y430972D01*
X564100Y402570D02*
Y407545D01*
Y425997D02*
Y430972D01*
X564200Y402570D02*
Y407545D01*
Y425997D02*
Y430972D01*
X564300Y402570D02*
Y407545D01*
Y425997D02*
Y430972D01*
X564400Y402570D02*
Y407545D01*
Y425997D02*
Y430972D01*
X564500Y402570D02*
Y407545D01*
Y425997D02*
Y430972D01*
X564600Y402570D02*
Y407545D01*
Y425997D02*
Y430972D01*
X564700Y402570D02*
Y407545D01*
Y425997D02*
Y430972D01*
X564800Y402570D02*
Y407545D01*
Y425997D02*
Y430972D01*
X564900Y402570D02*
Y407545D01*
Y425997D02*
Y430972D01*
X565000Y402570D02*
Y407545D01*
Y425997D02*
Y430972D01*
X565100Y402570D02*
Y407545D01*
Y425997D02*
Y430972D01*
X565200Y402570D02*
Y407545D01*
Y425997D02*
Y430972D01*
X565300Y402570D02*
Y407545D01*
Y425997D02*
Y430972D01*
X565400Y402570D02*
Y407545D01*
Y425997D02*
Y430972D01*
X565500Y402570D02*
Y407545D01*
Y425997D02*
Y430972D01*
X565600Y402570D02*
Y407545D01*
Y425997D02*
Y430972D01*
X565700Y402570D02*
Y407545D01*
Y425997D02*
Y430972D01*
X565800Y402570D02*
Y407545D01*
Y425997D02*
Y430972D01*
X565900Y402570D02*
Y407545D01*
Y425997D02*
Y430972D01*
X569300Y415920D02*
Y417314D01*
X569400Y415120D02*
Y418214D01*
X569500Y414320D02*
Y419114D01*
X569600Y413520D02*
Y420014D01*
X569700Y412720D02*
Y420729D01*
X569800Y411920D02*
Y421429D01*
X569900Y411120D02*
Y422129D01*
X570000Y410342D02*
Y422812D01*
X570100Y410192D02*
Y422987D01*
X570200Y410042D02*
Y423162D01*
X570300Y409892D02*
Y423337D01*
X570400Y409742D02*
Y423512D01*
X570500Y409592D02*
Y423687D01*
X570600Y409442D02*
Y423862D01*
X570700Y409292D02*
Y424037D01*
X570800Y409142D02*
Y424212D01*
X570900Y408992D02*
Y424387D01*
X571000Y408842D02*
Y424562D01*
X571100Y408692D02*
Y424737D01*
X571200Y408542D02*
Y424912D01*
X571300Y408392D02*
Y425087D01*
X571400Y408242D02*
Y425262D01*
X571500Y408092D02*
Y425437D01*
X571600Y407942D02*
Y425588D01*
X571700Y407792D02*
Y425713D01*
X571800Y407642D02*
Y425838D01*
X571900Y407492D02*
Y425963D01*
X572000Y407342D02*
Y426088D01*
X572100Y407192D02*
Y426213D01*
X572200Y407042D02*
Y426338D01*
X572300Y406892D02*
Y426463D01*
X572400Y406742D02*
Y426588D01*
X572500Y406592D02*
Y426713D01*
X572600Y406442D02*
Y426838D01*
X572700Y406292D02*
Y426963D01*
X572800Y406142D02*
Y427088D01*
X572900Y405992D02*
Y427213D01*
X573000Y405842D02*
Y427338D01*
X573100Y405692D02*
Y427463D01*
X573200Y405605D02*
Y427565D01*
X573300Y405525D02*
Y427665D01*
X573400Y405445D02*
Y427765D01*
X573500Y405365D02*
Y427865D01*
X573600Y405285D02*
Y427965D01*
X573700Y405205D02*
Y428065D01*
X573800Y405125D02*
Y428165D01*
X573900Y405045D02*
Y428265D01*
X574000Y404965D02*
Y428365D01*
X574100Y404885D02*
Y428465D01*
X574200Y404805D02*
Y428565D01*
X574300Y404725D02*
Y428665D01*
X574400Y404645D02*
Y428765D01*
X574500Y404565D02*
Y428865D01*
X574600Y404485D02*
Y428965D01*
X574700Y404405D02*
Y429065D01*
X574800Y404325D02*
Y429165D01*
X574900Y404245D02*
Y429265D01*
X575000Y404165D02*
Y429365D01*
X575100Y404091D02*
Y429442D01*
X575200Y404025D02*
Y429492D01*
X575300Y403958D02*
Y429542D01*
X575400Y403891D02*
Y429592D01*
X575500Y403825D02*
Y429642D01*
X575600Y403758D02*
Y429692D01*
X575700Y403691D02*
Y429742D01*
X575800Y403625D02*
Y429792D01*
X575900Y403558D02*
Y429842D01*
X576000Y403491D02*
Y429892D01*
X576100Y403425D02*
Y429942D01*
X576200Y403358D02*
Y429992D01*
X576300Y403291D02*
Y430042D01*
X576400Y403225D02*
Y430092D01*
X576500Y403158D02*
Y430142D01*
X576600Y403091D02*
Y414064D01*
Y416963D02*
Y430192D01*
X576700Y403025D02*
Y413814D01*
Y417563D02*
Y430242D01*
X576800Y402958D02*
Y413564D01*
Y418163D02*
Y430292D01*
X576900Y402891D02*
Y413314D01*
Y418763D02*
Y430342D01*
X577000Y402825D02*
Y413064D01*
Y419363D02*
Y430392D01*
X577100Y402758D02*
Y412814D01*
Y419963D02*
Y430442D01*
X577200Y402691D02*
Y412564D01*
Y420563D02*
Y430492D01*
X577300Y402625D02*
Y412314D01*
Y421163D02*
Y430542D01*
X577400Y402565D02*
Y412134D01*
Y421420D02*
Y430589D01*
X577500Y402551D02*
Y411974D01*
Y421595D02*
Y430618D01*
X577600Y402537D02*
Y411814D01*
Y421770D02*
Y430646D01*
X577700Y402523D02*
Y411654D01*
Y421945D02*
Y430675D01*
X577800Y402508D02*
Y411494D01*
Y422120D02*
Y430704D01*
X577900Y402494D02*
Y411334D01*
Y422295D02*
Y430732D01*
X578000Y402480D02*
Y411174D01*
Y422470D02*
Y430761D01*
X578100Y402465D02*
Y411014D01*
Y422645D02*
Y430789D01*
X578200Y402451D02*
Y410854D01*
Y422820D02*
Y430818D01*
X578300Y402437D02*
Y410694D01*
Y422995D02*
Y430846D01*
X578400Y402423D02*
Y410534D01*
Y423170D02*
Y430875D01*
X578500Y402408D02*
Y410374D01*
Y423345D02*
Y430904D01*
X578600Y402394D02*
Y410214D01*
Y423520D02*
Y430932D01*
X578700Y402380D02*
Y410054D01*
Y423695D02*
Y430961D01*
X578800Y402365D02*
Y409894D01*
Y423870D02*
Y430989D01*
X578900Y402351D02*
Y409734D01*
Y424035D02*
Y431018D01*
X579000Y402337D02*
Y409574D01*
Y424107D02*
Y431046D01*
X579100Y402323D02*
Y409414D01*
Y424178D02*
Y431075D01*
X579200Y402308D02*
Y409254D01*
Y424249D02*
Y431104D01*
X579300Y402294D02*
Y409110D01*
Y424321D02*
Y431132D01*
X579400Y402280D02*
Y409043D01*
Y424392D02*
Y431161D01*
X579500Y402265D02*
Y408977D01*
Y424464D02*
Y431189D01*
X579600Y402251D02*
Y408910D01*
Y424535D02*
Y431218D01*
X579700Y402237D02*
Y408843D01*
Y424607D02*
Y431246D01*
X579800Y402223D02*
Y408777D01*
Y424678D02*
Y431275D01*
X579900Y402208D02*
Y408710D01*
Y424749D02*
Y431304D01*
X580000Y402194D02*
Y408643D01*
Y424821D02*
Y431332D01*
X580100Y402180D02*
Y408577D01*
Y424892D02*
Y431361D01*
X580200Y402167D02*
Y408510D01*
Y424964D02*
Y431375D01*
X580300Y402155D02*
Y408443D01*
Y425035D02*
Y431387D01*
X580400Y402142D02*
Y408377D01*
Y425107D02*
Y431400D01*
X580500Y402130D02*
Y408310D01*
Y425178D02*
Y431412D01*
X580600Y402117D02*
Y408243D01*
Y425249D02*
Y431425D01*
X580700Y402105D02*
Y408177D01*
Y425321D02*
Y431437D01*
X580800Y402092D02*
Y408110D01*
Y425392D02*
Y431450D01*
X580900Y402080D02*
Y408043D01*
Y425464D02*
Y431462D01*
X581000Y402067D02*
Y407977D01*
Y425535D02*
Y431475D01*
X581100Y402055D02*
Y407910D01*
Y425607D02*
Y431487D01*
X581200Y402042D02*
Y407843D01*
Y425678D02*
Y431500D01*
X581300Y402030D02*
Y407777D01*
Y425749D02*
Y431512D01*
X581400Y402017D02*
Y407710D01*
Y425821D02*
Y431525D01*
X581500Y402005D02*
Y407643D01*
Y425892D02*
Y431537D01*
X581600Y401992D02*
Y407577D01*
Y425964D02*
Y431550D01*
X581700Y401980D02*
Y407540D01*
Y426002D02*
Y431562D01*
X581800Y401967D02*
Y407525D01*
Y426017D02*
Y431575D01*
X581900Y401955D02*
Y407511D01*
Y426031D02*
Y431587D01*
X582000Y401942D02*
Y407497D01*
Y426045D02*
Y431600D01*
X582100Y401930D02*
Y407482D01*
Y426060D02*
Y431612D01*
X582200Y401917D02*
Y407468D01*
Y426074D02*
Y431625D01*
X582300Y401905D02*
Y407454D01*
Y426088D02*
Y431637D01*
X582400Y401892D02*
Y407440D01*
Y426102D02*
Y431650D01*
X582500Y401880D02*
Y407425D01*
Y426117D02*
Y431662D01*
X582600Y401867D02*
Y407411D01*
Y426131D02*
Y431675D01*
X582700Y401855D02*
Y407397D01*
Y426145D02*
Y431687D01*
X582800Y401842D02*
Y407382D01*
Y426160D02*
Y431700D01*
X582900Y401830D02*
Y407368D01*
Y426174D02*
Y431712D01*
X583000Y401817D02*
Y407354D01*
Y426188D02*
Y431725D01*
X583100Y401805D02*
Y407340D01*
Y426202D02*
Y431737D01*
X583200Y401792D02*
Y407325D01*
Y426217D02*
Y431750D01*
X583300Y401789D02*
Y407311D01*
Y426231D02*
Y431743D01*
X583400Y401789D02*
Y407297D01*
Y426245D02*
Y431731D01*
X583500Y401789D02*
Y407282D01*
Y426260D02*
Y431718D01*
X583600Y401789D02*
Y407268D01*
Y426274D02*
Y431706D01*
X583700Y401789D02*
Y407254D01*
Y426288D02*
Y431693D01*
X583800Y401789D02*
Y407240D01*
Y426302D02*
Y431681D01*
X583900Y401789D02*
Y407225D01*
Y426317D02*
Y431668D01*
X584000Y401789D02*
Y407211D01*
Y426331D02*
Y431656D01*
X584100Y401789D02*
Y407197D01*
Y426345D02*
Y431643D01*
X584200Y401789D02*
Y407182D01*
Y426360D02*
Y431631D01*
X584300Y401789D02*
Y407168D01*
Y426374D02*
Y431618D01*
X584400Y401789D02*
Y407155D01*
Y426387D02*
Y431606D01*
X584500Y401789D02*
Y407170D01*
Y426372D02*
Y431593D01*
X584600Y401789D02*
Y407184D01*
Y426358D02*
Y431581D01*
X584700Y401789D02*
Y407198D01*
Y426344D02*
Y431568D01*
X584800Y401789D02*
Y407212D01*
Y426330D02*
Y431556D01*
X584900Y401789D02*
Y407227D01*
Y426315D02*
Y431543D01*
X585000Y401789D02*
Y407241D01*
Y426301D02*
Y431531D01*
X585100Y401789D02*
Y407255D01*
Y426287D02*
Y431518D01*
X585200Y401789D02*
Y407270D01*
Y426272D02*
Y431506D01*
X585300Y401789D02*
Y407284D01*
Y426258D02*
Y431493D01*
X585400Y401789D02*
Y407298D01*
Y426244D02*
Y431481D01*
X585500Y401789D02*
Y407312D01*
Y426230D02*
Y431468D01*
X585600Y401789D02*
Y407327D01*
Y426215D02*
Y431456D01*
X585700Y401789D02*
Y407341D01*
Y426201D02*
Y431443D01*
X585800Y401789D02*
Y407355D01*
Y426187D02*
Y431431D01*
X585900Y401789D02*
Y407370D01*
Y426172D02*
Y431418D01*
X586000Y401789D02*
Y407384D01*
Y426158D02*
Y431406D01*
X586100Y401789D02*
Y407398D01*
Y426144D02*
Y431393D01*
X586200Y401789D02*
Y407412D01*
Y426130D02*
Y431381D01*
X586300Y401789D02*
Y407427D01*
Y426115D02*
Y431368D01*
X586400Y401806D02*
Y407441D01*
Y426101D02*
Y431355D01*
X586500Y401834D02*
Y407455D01*
Y426087D02*
Y431340D01*
X586600Y401863D02*
Y407470D01*
Y426072D02*
Y431326D01*
X586700Y401892D02*
Y407484D01*
Y426058D02*
Y431312D01*
X586800Y401920D02*
Y407498D01*
Y426044D02*
Y431298D01*
X586900Y401949D02*
Y407512D01*
Y426030D02*
Y431283D01*
X587000Y401977D02*
Y407527D01*
Y426015D02*
Y431269D01*
X587100Y402006D02*
Y407541D01*
Y426001D02*
Y431255D01*
X587200Y402034D02*
Y407575D01*
Y425962D02*
Y431240D01*
X587300Y402063D02*
Y407625D01*
Y425902D02*
Y431226D01*
X587400Y402092D02*
Y407675D01*
Y425842D02*
Y431212D01*
X587500Y402120D02*
Y407725D01*
Y425782D02*
Y431198D01*
X587600Y402149D02*
Y407775D01*
Y425722D02*
Y431183D01*
X587700Y402177D02*
Y407825D01*
Y425662D02*
Y431169D01*
X587800Y402206D02*
Y407875D01*
Y425602D02*
Y431155D01*
X587900Y402234D02*
Y407925D01*
Y425542D02*
Y431140D01*
X588000Y402263D02*
Y407975D01*
Y425482D02*
Y431126D01*
X588100Y402292D02*
Y408025D01*
Y425422D02*
Y431112D01*
X588200Y402320D02*
Y408075D01*
Y425362D02*
Y431098D01*
X588300Y402349D02*
Y408125D01*
Y425302D02*
Y431083D01*
X588400Y402377D02*
Y408175D01*
Y425242D02*
Y431069D01*
X588500Y402406D02*
Y408225D01*
Y425182D02*
Y431055D01*
X588600Y402434D02*
Y408275D01*
Y425122D02*
Y431040D01*
X588700Y402463D02*
Y408325D01*
Y425062D02*
Y431026D01*
X588800Y402492D02*
Y408375D01*
Y425002D02*
Y431012D01*
X588900Y402520D02*
Y408425D01*
Y424942D02*
Y430998D01*
X589000Y402549D02*
Y408475D01*
Y424882D02*
Y430983D01*
X589100Y402581D02*
Y408525D01*
Y424822D02*
Y430961D01*
X589200Y402621D02*
Y408575D01*
Y424762D02*
Y430921D01*
X589300Y402661D02*
Y408625D01*
Y424702D02*
Y430881D01*
X589400Y402701D02*
Y408675D01*
Y424642D02*
Y430841D01*
X589500Y402741D02*
Y408725D01*
Y424582D02*
Y430801D01*
X589600Y402781D02*
Y408775D01*
Y424522D02*
Y430761D01*
X589700Y402821D02*
Y408825D01*
Y424462D02*
Y430721D01*
X589800Y402861D02*
Y408875D01*
Y424402D02*
Y430681D01*
X589900Y402901D02*
Y408925D01*
Y424342D02*
Y430641D01*
X590000Y402941D02*
Y408975D01*
Y424282D02*
Y430601D01*
X590100Y402981D02*
Y409025D01*
Y424222D02*
Y430561D01*
X590200Y403021D02*
Y409075D01*
Y424162D02*
Y430521D01*
X590300Y403061D02*
Y409125D01*
Y424102D02*
Y430481D01*
X590400Y403101D02*
Y409175D01*
Y424042D02*
Y430441D01*
X590500Y403141D02*
Y409225D01*
Y423982D02*
Y430401D01*
X590600Y403181D02*
Y409275D01*
Y423922D02*
Y430361D01*
X590700Y403221D02*
Y409325D01*
Y423862D02*
Y430321D01*
X590800Y403261D02*
Y409375D01*
Y423802D02*
Y430281D01*
X590900Y403301D02*
Y409425D01*
Y423742D02*
Y430241D01*
X591000Y403341D02*
Y409475D01*
Y423682D02*
Y430201D01*
X591100Y403381D02*
Y409544D01*
Y423619D02*
Y430161D01*
X591200Y403421D02*
Y409644D01*
Y423552D02*
Y430121D01*
X591300Y403461D02*
Y409744D01*
Y423486D02*
Y430081D01*
X591400Y403501D02*
Y409844D01*
Y423419D02*
Y430041D01*
X591500Y403541D02*
Y409944D01*
Y423352D02*
Y430001D01*
X591600Y403581D02*
Y410044D01*
Y423286D02*
Y429961D01*
X591700Y403621D02*
Y410144D01*
Y423219D02*
Y429921D01*
X591800Y403661D02*
Y410244D01*
Y423152D02*
Y429881D01*
X591900Y403701D02*
Y410344D01*
Y423086D02*
Y429841D01*
X592000Y403741D02*
Y410444D01*
Y423019D02*
Y429801D01*
X592100Y403781D02*
Y410544D01*
Y422952D02*
Y429761D01*
X592200Y403821D02*
Y410644D01*
Y422886D02*
Y429721D01*
X592300Y403861D02*
Y410669D01*
Y422873D02*
Y429681D01*
X592400Y403901D02*
Y410669D01*
Y422873D02*
Y429641D01*
X592500Y403941D02*
Y410669D01*
Y422873D02*
Y429601D01*
X592600Y403981D02*
Y410669D01*
Y422873D02*
Y429561D01*
X592700Y404021D02*
Y410669D01*
Y422873D02*
Y429521D01*
X592800Y404061D02*
Y410669D01*
Y422873D02*
Y429481D01*
X592900Y404101D02*
Y410669D01*
Y422873D02*
Y429441D01*
X595400Y416400D02*
Y416774D01*
X595500Y415600D02*
Y417674D01*
X595600Y414800D02*
Y418574D01*
X595700Y414000D02*
Y419474D01*
X595800Y413200D02*
Y420310D01*
X595900Y412400D02*
Y421010D01*
X596000Y411600D02*
Y421710D01*
X596100Y410800D02*
Y422410D01*
X596200Y410258D02*
Y422909D01*
X596300Y410058D02*
Y423143D01*
X596400Y409858D02*
Y423376D01*
X596500Y409658D02*
Y423609D01*
X596600Y409458D02*
Y423843D01*
X596700Y409258D02*
Y424076D01*
X596800Y409058D02*
Y424309D01*
X596900Y408858D02*
Y424543D01*
X597000Y408658D02*
Y424776D01*
X597100Y408458D02*
Y425009D01*
X597200Y408258D02*
Y425243D01*
X597300Y408058D02*
Y425476D01*
X597400Y407896D02*
Y425646D01*
X597500Y407746D02*
Y425796D01*
X597600Y407596D02*
Y425946D01*
X597700Y407446D02*
Y426096D01*
X597800Y407296D02*
Y426246D01*
X597900Y407146D02*
Y426396D01*
X598000Y406996D02*
Y426546D01*
X598100Y406846D02*
Y426696D01*
X598200Y406696D02*
Y426846D01*
X598300Y406546D02*
Y426996D01*
X598400Y406396D02*
Y427146D01*
X598500Y406246D02*
Y427296D01*
X598600Y406096D02*
Y427446D01*
X598700Y405946D02*
Y427596D01*
X598800Y405796D02*
Y427746D01*
X598900Y405664D02*
Y427878D01*
X599000Y405598D02*
Y427944D01*
X599100Y405531D02*
Y428011D01*
X599200Y405464D02*
Y428078D01*
X599300Y405398D02*
Y428144D01*
X599400Y405331D02*
Y428211D01*
X599500Y405264D02*
Y428278D01*
X599600Y405198D02*
Y428344D01*
X599700Y405131D02*
Y428411D01*
X599800Y405064D02*
Y428478D01*
X599900Y404998D02*
Y428544D01*
X600000Y404931D02*
Y428611D01*
X600100Y404864D02*
Y428678D01*
X600200Y404798D02*
Y428744D01*
X600300Y404731D02*
Y428811D01*
X600400Y404664D02*
Y428878D01*
X600500Y404598D02*
Y428944D01*
X600600Y404531D02*
Y429011D01*
X600700Y404464D02*
Y429078D01*
X600800Y404398D02*
Y429144D01*
X600900Y404331D02*
Y429211D01*
X601000Y404264D02*
Y429278D01*
X601100Y404198D02*
Y429344D01*
X601200Y404131D02*
Y429411D01*
X601300Y404080D02*
Y429462D01*
X601400Y404030D02*
Y429512D01*
X601500Y403980D02*
Y429562D01*
X601600Y403930D02*
Y429612D01*
X601700Y403880D02*
Y429662D01*
X601800Y403830D02*
Y429712D01*
X601900Y403780D02*
Y429762D01*
X602000Y403730D02*
Y429812D01*
X602100Y403680D02*
Y429862D01*
X602200Y403630D02*
Y429912D01*
X602300Y403580D02*
Y429962D01*
X602400Y403530D02*
Y430012D01*
X602500Y403480D02*
Y430062D01*
X602600Y403430D02*
Y430112D01*
X602700Y403380D02*
Y414209D01*
Y416624D02*
Y430162D01*
X602800Y403330D02*
Y413709D01*
Y417824D02*
Y430212D01*
X602900Y403280D02*
Y413209D01*
Y419024D02*
Y430262D01*
X603000Y403230D02*
Y412709D01*
Y420224D02*
Y430312D01*
X603100Y403180D02*
Y412244D01*
Y421298D02*
Y430362D01*
X603200Y403130D02*
Y412069D01*
Y421473D02*
Y430412D01*
X603300Y403080D02*
Y411894D01*
Y421648D02*
Y430462D01*
X603400Y403030D02*
Y411719D01*
Y421823D02*
Y430512D01*
X603500Y402980D02*
Y411544D01*
Y421998D02*
Y430562D01*
X603600Y402941D02*
Y411369D01*
Y422173D02*
Y430601D01*
X603700Y402913D02*
Y411194D01*
Y422348D02*
Y430629D01*
X603800Y402884D02*
Y411019D01*
Y422523D02*
Y430658D01*
X603900Y402856D02*
Y410844D01*
Y422698D02*
Y430686D01*
X604000Y402827D02*
Y410669D01*
Y422873D02*
Y430715D01*
X604100Y402798D02*
Y410494D01*
Y423048D02*
Y430744D01*
X604200Y402770D02*
Y410319D01*
Y423223D02*
Y430772D01*
X604300Y402741D02*
Y410144D01*
Y423398D02*
Y430801D01*
X604400Y402713D02*
Y409969D01*
Y423573D02*
Y430829D01*
X604500Y402684D02*
Y409794D01*
Y423748D02*
Y430858D01*
X604600Y402656D02*
Y409619D01*
Y423923D02*
Y430886D01*
X604700Y402627D02*
Y409475D01*
Y424067D02*
Y430915D01*
X604800Y402598D02*
Y409375D01*
Y424167D02*
Y430944D01*
X604900Y402570D02*
Y409275D01*
Y424267D02*
Y430972D01*
X605000Y402541D02*
Y409175D01*
Y424367D02*
Y431001D01*
X605100Y402513D02*
Y409075D01*
Y424467D02*
Y431029D01*
X605200Y402484D02*
Y408975D01*
Y424567D02*
Y431058D01*
X605300Y402456D02*
Y408875D01*
Y424667D02*
Y431086D01*
X605400Y402427D02*
Y408775D01*
Y424767D02*
Y431115D01*
X605500Y402398D02*
Y408675D01*
Y424867D02*
Y431144D01*
X605600Y402370D02*
Y408575D01*
Y424967D02*
Y431172D01*
X605700Y402341D02*
Y408475D01*
Y425067D02*
Y431201D01*
X605800Y402313D02*
Y408375D01*
Y425167D02*
Y431229D01*
X605900Y402284D02*
Y408275D01*
Y425267D02*
Y431258D01*
X606000Y402256D02*
Y408175D01*
Y425367D02*
Y431286D01*
X606100Y402227D02*
Y408075D01*
Y425467D02*
Y431315D01*
X606200Y402198D02*
Y407975D01*
Y425567D02*
Y431344D01*
X606300Y402174D02*
Y407875D01*
Y425667D02*
Y431368D01*
X606400Y402160D02*
Y407775D01*
Y425767D02*
Y431382D01*
X606500Y402145D02*
Y407675D01*
Y425867D02*
Y431397D01*
X606600Y402131D02*
Y407575D01*
Y425967D02*
Y431411D01*
X606700Y402117D02*
Y407538D01*
Y426004D02*
Y431425D01*
X606800Y402103D02*
Y407524D01*
Y426018D02*
Y431439D01*
X606900Y402088D02*
Y407509D01*
Y426033D02*
Y431454D01*
X607000Y402074D02*
Y407495D01*
Y426047D02*
Y431468D01*
X607100Y402060D02*
Y407481D01*
Y426061D02*
Y431482D01*
X607200Y402045D02*
Y407467D01*
Y426076D02*
Y431497D01*
X607300Y402031D02*
Y407452D01*
Y426090D02*
Y431511D01*
X607400Y402017D02*
Y407438D01*
Y426104D02*
Y431525D01*
X607500Y402003D02*
Y407424D01*
Y426118D02*
Y431539D01*
X607600Y401988D02*
Y407409D01*
Y426133D02*
Y431554D01*
X607700Y401974D02*
Y407395D01*
Y426147D02*
Y431568D01*
X607800Y401960D02*
Y407381D01*
Y426161D02*
Y431582D01*
X607900Y401945D02*
Y407367D01*
Y426176D02*
Y431597D01*
X608000Y401931D02*
Y407352D01*
Y426190D02*
Y431611D01*
X608100Y401917D02*
Y407338D01*
Y426204D02*
Y431625D01*
X608200Y401903D02*
Y407324D01*
Y426218D02*
Y431639D01*
X608300Y401888D02*
Y407309D01*
Y426233D02*
Y431654D01*
X608400Y401874D02*
Y407295D01*
Y426247D02*
Y431668D01*
X608500Y401860D02*
Y407281D01*
Y426261D02*
Y431682D01*
X608600Y401845D02*
Y407267D01*
Y426276D02*
Y431697D01*
X608700Y401831D02*
Y407252D01*
Y426290D02*
Y431711D01*
X608800Y401817D02*
Y407238D01*
Y426304D02*
Y431725D01*
X608900Y401803D02*
Y407224D01*
Y426318D02*
Y431739D01*
X609000Y401790D02*
Y407209D01*
Y426333D02*
Y431752D01*
X609100Y401803D02*
Y407195D01*
Y426347D02*
Y431739D01*
X609200Y401815D02*
Y407181D01*
Y426361D02*
Y431727D01*
X609300Y401828D02*
Y407167D01*
Y426376D02*
Y431714D01*
X609400Y401840D02*
Y407157D01*
Y426385D02*
Y431702D01*
X609500Y401853D02*
Y407174D01*
Y426368D02*
Y431689D01*
X609600Y401865D02*
Y407190D01*
Y426352D02*
Y431677D01*
X609700Y401878D02*
Y407207D01*
Y426335D02*
Y431664D01*
X609800Y401890D02*
Y407224D01*
Y426318D02*
Y431652D01*
X609900Y401903D02*
Y407240D01*
Y426302D02*
Y431639D01*
X610000Y401915D02*
Y407257D01*
Y426285D02*
Y431627D01*
X610100Y401928D02*
Y407274D01*
Y426268D02*
Y431614D01*
X610200Y401940D02*
Y407290D01*
Y426252D02*
Y431602D01*
X610300Y401953D02*
Y407307D01*
Y426235D02*
Y431589D01*
X610400Y401965D02*
Y407324D01*
Y426218D02*
Y431577D01*
X610500Y401978D02*
Y407340D01*
Y426202D02*
Y431564D01*
X610600Y401990D02*
Y407357D01*
Y426185D02*
Y431552D01*
X610700Y402003D02*
Y407374D01*
Y426168D02*
Y431539D01*
X610800Y402015D02*
Y407390D01*
Y426152D02*
Y431527D01*
X610900Y402028D02*
Y407407D01*
Y426135D02*
Y431514D01*
X611000Y402040D02*
Y407424D01*
Y426118D02*
Y431502D01*
X611100Y402053D02*
Y407440D01*
Y426102D02*
Y431489D01*
X611200Y402065D02*
Y407457D01*
Y426085D02*
Y431477D01*
X611300Y402078D02*
Y407474D01*
Y426068D02*
Y431464D01*
X611400Y402090D02*
Y407490D01*
Y426052D02*
Y431452D01*
X611500Y402103D02*
Y407507D01*
Y426035D02*
Y431439D01*
X611600Y402115D02*
Y407524D01*
Y426018D02*
Y431427D01*
X611700Y402128D02*
Y407540D01*
Y426002D02*
Y431414D01*
X611800Y402140D02*
Y407598D01*
Y425944D02*
Y431402D01*
X611900Y402153D02*
Y407698D01*
Y425844D02*
Y431389D01*
X612000Y402165D02*
Y407798D01*
Y425744D02*
Y431377D01*
X612100Y402178D02*
Y407898D01*
Y425644D02*
Y431364D01*
X612200Y402192D02*
Y407998D01*
Y425544D02*
Y431337D01*
X612300Y402206D02*
Y408098D01*
Y425444D02*
Y431308D01*
X612400Y402220D02*
Y408198D01*
Y425344D02*
Y431280D01*
X612500Y402234D02*
Y408298D01*
Y425244D02*
Y431251D01*
X612600Y402249D02*
Y408398D01*
Y425144D02*
Y431223D01*
X612700Y402263D02*
Y408498D01*
Y425044D02*
Y431194D01*
X612800Y402277D02*
Y408598D01*
Y424944D02*
Y431166D01*
X612900Y402292D02*
Y408698D01*
Y424844D02*
Y431137D01*
X613000Y402306D02*
Y408798D01*
Y424744D02*
Y431108D01*
X613100Y402320D02*
Y408898D01*
Y424644D02*
Y431080D01*
X613200Y402334D02*
Y408998D01*
Y424544D02*
Y431051D01*
X613300Y402349D02*
Y409098D01*
Y424444D02*
Y431023D01*
X613400Y402363D02*
Y409198D01*
Y424344D02*
Y430994D01*
X613500Y402377D02*
Y409298D01*
Y424244D02*
Y430966D01*
X613600Y402392D02*
Y409398D01*
Y424144D02*
Y430937D01*
X613700Y402406D02*
Y409498D01*
Y424044D02*
Y430908D01*
X613800Y402420D02*
Y409659D01*
Y423883D02*
Y430880D01*
X613900Y402434D02*
Y409834D01*
Y423708D02*
Y430851D01*
X614000Y402449D02*
Y410009D01*
Y423533D02*
Y430823D01*
X614100Y402463D02*
Y410184D01*
Y423358D02*
Y430794D01*
X614200Y402477D02*
Y410359D01*
Y423183D02*
Y430766D01*
X614300Y402492D02*
Y410534D01*
Y423008D02*
Y430737D01*
X614400Y402506D02*
Y410709D01*
Y422833D02*
Y430708D01*
X614500Y402520D02*
Y410884D01*
Y422658D02*
Y430680D01*
X614600Y402534D02*
Y411059D01*
Y422483D02*
Y430651D01*
X614700Y402549D02*
Y411234D01*
Y422308D02*
Y430623D01*
X614800Y402563D02*
Y411409D01*
Y422133D02*
Y430594D01*
X614900Y402613D02*
Y411584D01*
Y421958D02*
Y430551D01*
X615000Y402680D02*
Y411759D01*
Y421783D02*
Y430501D01*
X615100Y402746D02*
Y411934D01*
Y421608D02*
Y430451D01*
X615200Y402813D02*
Y412109D01*
Y421433D02*
Y430401D01*
X615300Y402880D02*
Y412324D01*
Y421149D02*
Y430351D01*
X615400Y402946D02*
Y412824D01*
Y419949D02*
Y430301D01*
X615500Y403013D02*
Y413324D01*
Y418749D02*
Y430251D01*
X615600Y403080D02*
Y413824D01*
Y417549D02*
Y430201D01*
X615700Y403146D02*
Y430151D01*
X615800Y403213D02*
Y430101D01*
X615900Y403280D02*
Y430051D01*
X616000Y403346D02*
Y430001D01*
X616100Y403413D02*
Y429951D01*
X616200Y403480D02*
Y429901D01*
X616300Y403546D02*
Y429851D01*
X616400Y403613D02*
Y429801D01*
X616500Y403680D02*
Y429751D01*
X616600Y403746D02*
Y429701D01*
X616700Y403813D02*
Y429651D01*
X616800Y403880D02*
Y429601D01*
X616900Y403946D02*
Y429551D01*
X617000Y404013D02*
Y429501D01*
X617100Y404080D02*
Y429451D01*
X617200Y404146D02*
Y429396D01*
X617300Y404213D02*
Y429329D01*
X617400Y404280D02*
Y429262D01*
X617500Y404346D02*
Y429196D01*
X617600Y404413D02*
Y429129D01*
X617700Y404480D02*
Y429062D01*
X617800Y404546D02*
Y428996D01*
X617900Y404613D02*
Y428929D01*
X618000Y404680D02*
Y428862D01*
X618100Y404746D02*
Y428796D01*
X618200Y404813D02*
Y428729D01*
X618300Y404880D02*
Y428662D01*
X618400Y404946D02*
Y428596D01*
X618500Y405013D02*
Y428529D01*
X618600Y405080D02*
Y428462D01*
X618700Y405146D02*
Y428396D01*
X618800Y405213D02*
Y428329D01*
X618900Y405280D02*
Y428262D01*
X619000Y405346D02*
Y428196D01*
X619100Y405413D02*
Y428129D01*
X619200Y405480D02*
Y428062D01*
X619300Y405546D02*
Y427996D01*
X619400Y405613D02*
Y427929D01*
X619500Y405680D02*
Y427862D01*
X619600Y405830D02*
Y427712D01*
X619700Y405980D02*
Y427562D01*
X619800Y406130D02*
Y427412D01*
X619900Y406280D02*
Y427262D01*
X620000Y406430D02*
Y427112D01*
X620100Y406580D02*
Y426962D01*
X620200Y406730D02*
Y426812D01*
X620300Y406880D02*
Y426662D01*
X620400Y407030D02*
Y426512D01*
X620500Y407180D02*
Y426362D01*
X620600Y407330D02*
Y426212D01*
X620700Y407480D02*
Y426062D01*
X620800Y407630D02*
Y425912D01*
X620900Y407780D02*
Y425762D01*
X621000Y407930D02*
Y425612D01*
X621100Y408103D02*
Y425422D01*
X621200Y408303D02*
Y425189D01*
X621300Y408503D02*
Y424956D01*
X621400Y408703D02*
Y424722D01*
X621500Y408903D02*
Y424489D01*
X621600Y409103D02*
Y424256D01*
X621700Y409303D02*
Y424022D01*
X621800Y409503D02*
Y423789D01*
X621900Y409703D02*
Y423556D01*
X622000Y409903D02*
Y423322D01*
X622100Y410103D02*
Y423089D01*
X622200Y410303D02*
Y422856D01*
X622300Y410984D02*
Y422249D01*
X622400Y411784D02*
Y421549D01*
X622500Y412584D02*
Y420849D01*
X622600Y413384D02*
Y420149D01*
X622700Y414184D02*
Y419268D01*
X622800Y414984D02*
Y418368D01*
X622900Y415784D02*
Y417468D01*
X627400Y402570D02*
Y430972D01*
X627500Y402570D02*
Y430972D01*
X627600Y402570D02*
Y430972D01*
X627700Y402570D02*
Y430972D01*
X627800Y402570D02*
Y430972D01*
X627900Y402570D02*
Y430972D01*
X628000Y402570D02*
Y430972D01*
X628100Y402570D02*
Y430972D01*
X628200Y402570D02*
Y430972D01*
X628300Y402570D02*
Y430972D01*
X628400Y402570D02*
Y430972D01*
X628500Y402570D02*
Y430972D01*
X628600Y402570D02*
Y430972D01*
X628700Y402570D02*
Y430972D01*
X628800Y402570D02*
Y430972D01*
X628900Y402570D02*
Y430972D01*
X629000Y402570D02*
Y430972D01*
X629100Y402570D02*
Y430972D01*
X629200Y402570D02*
Y430972D01*
X629300Y402570D02*
Y430972D01*
X629400Y402570D02*
Y430972D01*
X629500Y402570D02*
Y430972D01*
X629600Y402570D02*
Y430972D01*
X629700Y402570D02*
Y430972D01*
X629800Y402570D02*
Y430972D01*
X629900Y402570D02*
Y430972D01*
X630000Y402570D02*
Y430972D01*
X630100Y402570D02*
Y430972D01*
X630200Y402570D02*
Y430972D01*
X630300Y402570D02*
Y430972D01*
X630400Y402570D02*
Y430972D01*
X630500Y402570D02*
Y430972D01*
X630600Y402570D02*
Y430972D01*
X630700Y402570D02*
Y430972D01*
X630800Y402570D02*
Y430972D01*
X630900Y402570D02*
Y430972D01*
X631000Y402570D02*
Y430972D01*
X631100Y402570D02*
Y430972D01*
X631200Y402570D02*
Y430972D01*
X631300Y402570D02*
Y430972D01*
X631400Y402570D02*
Y430972D01*
X631500Y402570D02*
Y430972D01*
X631600Y402570D02*
Y430972D01*
X631700Y402570D02*
Y430972D01*
X631800Y402570D02*
Y430972D01*
X631900Y402570D02*
Y430972D01*
X632000Y402570D02*
Y430972D01*
X632100Y402570D02*
Y430972D01*
X632200Y402570D02*
Y430972D01*
X632300Y402570D02*
Y430972D01*
X632400Y402570D02*
Y430972D01*
X632500Y402570D02*
Y430972D01*
X632600Y402570D02*
Y430972D01*
X632700Y402570D02*
Y430972D01*
X632800Y402570D02*
Y430972D01*
X632900Y402570D02*
Y430972D01*
X633000Y402570D02*
Y430972D01*
X633100Y402570D02*
Y430972D01*
X633200Y402570D02*
Y430972D01*
X633300Y402570D02*
Y430972D01*
X633400Y402570D02*
Y430972D01*
X633500Y402570D02*
Y430972D01*
X633600Y402570D02*
Y430972D01*
X633700Y402570D02*
Y430972D01*
X633800Y402570D02*
Y430972D01*
X633900Y402570D02*
Y430972D01*
X634000Y422479D02*
Y430972D01*
X634100Y422311D02*
Y430972D01*
X634200Y422115D02*
Y430972D01*
X634300Y421919D02*
Y430972D01*
X634400Y421722D02*
Y430972D01*
X634500Y421526D02*
Y430972D01*
X634600Y421330D02*
Y430972D01*
X634700Y421134D02*
Y430972D01*
X634800Y420938D02*
Y430972D01*
X634900Y420742D02*
Y430972D01*
X635000Y420546D02*
Y430972D01*
X635100Y420349D02*
Y430972D01*
X635200Y420153D02*
Y430972D01*
X635300Y419957D02*
Y430972D01*
X635400Y419761D02*
Y430972D01*
X635500Y419565D02*
Y430972D01*
X635600Y419369D02*
Y430972D01*
X635700Y419172D02*
Y430972D01*
X635800Y418976D02*
Y430972D01*
X635900Y418780D02*
Y430972D01*
X636000Y418584D02*
Y430789D01*
X636100Y418388D02*
Y430598D01*
X636200Y418192D02*
Y430407D01*
X636300Y417996D02*
Y430216D01*
X636400Y417799D02*
Y430025D01*
X636500Y417603D02*
Y429834D01*
X636600Y417407D02*
Y429643D01*
X636700Y417211D02*
Y429452D01*
X636800Y417015D02*
Y429262D01*
X636900Y416819D02*
Y429071D01*
X637000Y416622D02*
Y428880D01*
X637100Y416426D02*
Y428689D01*
X637200Y416230D02*
Y428498D01*
X637300Y416034D02*
Y428307D01*
X637400Y415838D02*
Y428116D01*
X637500Y415642D02*
Y427925D01*
X637600Y415446D02*
Y427734D01*
X637700Y415249D02*
Y427543D01*
X637800Y415053D02*
Y427352D01*
X637900Y414857D02*
Y427162D01*
X638000Y414661D02*
Y426971D01*
X638100Y414465D02*
Y426780D01*
X638200Y414269D02*
Y426589D01*
X638300Y414072D02*
Y426398D01*
X638400Y413876D02*
Y426207D01*
X638500Y413680D02*
Y426016D01*
X638600Y413484D02*
Y425825D01*
X638700Y413288D02*
Y425634D01*
X638800Y413092D02*
Y425443D01*
X638900Y412896D02*
Y425252D01*
X639000Y412699D02*
Y425062D01*
X639100Y412503D02*
Y424871D01*
X639200Y412307D02*
Y424680D01*
X639300Y412111D02*
Y424489D01*
X639400Y411915D02*
Y424298D01*
X639500Y411719D02*
Y424107D01*
X639600Y411522D02*
Y423916D01*
X639700Y411326D02*
Y423725D01*
X639800Y411130D02*
Y423534D01*
X639900Y410934D02*
Y423343D01*
X640000Y410738D02*
Y423152D01*
X640100Y410542D02*
Y422962D01*
X640200Y410346D02*
Y422771D01*
X640300Y410149D02*
Y422580D01*
X640400Y409953D02*
Y422389D01*
X640500Y409757D02*
Y422198D01*
X640600Y409561D02*
Y422007D01*
X640700Y409365D02*
Y421816D01*
X640800Y409169D02*
Y421625D01*
X640900Y408972D02*
Y421434D01*
X641000Y408776D02*
Y421243D01*
X641100Y408580D02*
Y421052D01*
X641200Y408384D02*
Y420862D01*
X641300Y408188D02*
Y420671D01*
X641400Y407992D02*
Y420480D01*
X641500Y407796D02*
Y420289D01*
X641600Y407599D02*
Y420098D01*
X641700Y407403D02*
Y419907D01*
X641800Y407207D02*
Y419716D01*
X641900Y407011D02*
Y419525D01*
X642000Y406815D02*
Y419334D01*
X642100Y406619D02*
Y419143D01*
X642200Y406422D02*
Y418952D01*
X642300Y406226D02*
Y418762D01*
X642400Y406030D02*
Y418571D01*
X642500Y405834D02*
Y418380D01*
X642600Y405638D02*
Y418189D01*
X642700Y405442D02*
Y417998D01*
X642800Y405246D02*
Y417807D01*
X642900Y405049D02*
Y417616D01*
X643000Y404853D02*
Y417425D01*
X643100Y404657D02*
Y417234D01*
X643200Y404461D02*
Y417043D01*
X643300Y404265D02*
Y416852D01*
X643400Y404069D02*
Y416662D01*
X643500Y403872D02*
Y416471D01*
X643600Y403676D02*
Y416280D01*
X643700Y403480D02*
Y416089D01*
X643800Y403284D02*
Y415898D01*
X643900Y403088D02*
Y415707D01*
X644000Y402892D02*
Y415516D01*
X644100Y402696D02*
Y415325D01*
X644200Y402570D02*
Y415134D01*
X644300Y402570D02*
Y414943D01*
X644400Y402570D02*
Y414752D01*
X644500Y402570D02*
Y414580D01*
X644600Y402570D02*
Y430972D01*
X644700Y402570D02*
Y430972D01*
X644800Y402570D02*
Y430972D01*
X644900Y402570D02*
Y430972D01*
X645000Y402570D02*
Y430972D01*
X645100Y402570D02*
Y430972D01*
X645200Y402570D02*
Y430972D01*
X645300Y402570D02*
Y430972D01*
X645400Y402570D02*
Y430972D01*
X645500Y402570D02*
Y430972D01*
X645600Y402570D02*
Y430972D01*
X645700Y402570D02*
Y430972D01*
X645800Y402570D02*
Y430972D01*
X645900Y402570D02*
Y430972D01*
X646000Y402570D02*
Y430972D01*
X646100Y402570D02*
Y430972D01*
X646200Y402570D02*
Y430972D01*
X646300Y402570D02*
Y430972D01*
X646400Y402570D02*
Y430972D01*
X646500Y402570D02*
Y430972D01*
X646600Y402570D02*
Y430972D01*
X646700Y402570D02*
Y430972D01*
X646800Y402570D02*
Y430972D01*
X646900Y402570D02*
Y430972D01*
X647000Y402570D02*
Y430972D01*
X647100Y402570D02*
Y430972D01*
X647200Y402570D02*
Y430972D01*
X647300Y402570D02*
Y430972D01*
X647400Y402570D02*
Y430972D01*
X647500Y402570D02*
Y430972D01*
X647600Y402570D02*
Y430972D01*
X647700Y402570D02*
Y430972D01*
X647800Y402570D02*
Y430972D01*
X647900Y402570D02*
Y430972D01*
X648000Y402570D02*
Y430972D01*
X648100Y402570D02*
Y430972D01*
X648200Y402570D02*
Y430972D01*
X648300Y402570D02*
Y430972D01*
X648400Y402570D02*
Y430972D01*
X648500Y402570D02*
Y430972D01*
X648600Y402570D02*
Y430972D01*
X648700Y402570D02*
Y430972D01*
X648800Y402570D02*
Y430972D01*
X648900Y402570D02*
Y430972D01*
X649000Y402570D02*
Y430972D01*
X649100Y402570D02*
Y430972D01*
X649200Y402570D02*
Y430972D01*
X649300Y402570D02*
Y430972D01*
X649400Y402570D02*
Y430972D01*
X649500Y402570D02*
Y430972D01*
X649600Y402570D02*
Y430972D01*
X649700Y402570D02*
Y430972D01*
X649800Y402570D02*
Y430972D01*
X649900Y402570D02*
Y430972D01*
X650000Y402570D02*
Y430972D01*
X650100Y402570D02*
Y430972D01*
X650200Y402570D02*
Y430972D01*
X650300Y402570D02*
Y430972D01*
X650400Y402570D02*
Y430972D01*
X650500Y402570D02*
Y430972D01*
X650600Y402570D02*
Y430972D01*
X650700Y402570D02*
Y430972D01*
X650800Y402570D02*
Y430972D01*
X650900Y402570D02*
Y430972D01*
X651000Y402570D02*
Y430972D01*
X651100Y402570D02*
Y430972D01*
*
G04 PC Custom Flashes*
G04 Layer Name kimchicon_final.pcb - flashes*
%LPD*%
*
*
G04 PC Circuitry*
G04 Layer Name kimchicon_final.pcb - circuitry*
%LPD*%
*
G54D10*
G54D11*
X389764Y393701D02*
X413386Y374016D01*
X433071Y393701*
X551181*
X570866Y374016*
X649606*
X669291Y393701*
Y590551*
X649606Y610236*
Y846457*
X629921Y866142*
X570866*
X551181Y846457*
X413386*
X389764Y826772*
Y393701*
G54D13*
X438584Y469837D02*
X434686Y465939D01*
X437470Y463156*
X441367Y467053*
X438584Y469837*
X436925Y463701D02*
X438015D01*
X435925Y464701D02*
X439015D01*
X434925Y465701D02*
X440015D01*
X435447Y466701D02*
X441015D01*
X436447Y467701D02*
X440720D01*
X437447Y468701D02*
X439720D01*
X438447Y469701D02*
X438720D01*
X434701Y465925D02*
Y465954D01*
X435701Y464925D02*
Y466954D01*
X436701Y463925D02*
Y467954D01*
X437701Y463386D02*
Y468954D01*
X438701Y464386D02*
Y469720D01*
X439701Y465386D02*
Y468720D01*
X440701Y466386D02*
Y467720D01*
X442551Y465870D02*
X438653Y461972D01*
X441437Y459189*
X445334Y463086*
X442551Y465870*
X440925Y459701D02*
X441949D01*
X439925Y460701D02*
X442949D01*
X438925Y461701D02*
X443949D01*
X439381Y462701D02*
X444949D01*
X440381Y463701D02*
X444720D01*
X441381Y464701D02*
X443720D01*
X442381Y465701D02*
X442720D01*
X438701Y461925D02*
Y462020D01*
X439701Y460925D02*
Y463020D01*
X440701Y459925D02*
Y464020D01*
X441701Y459452D02*
Y465020D01*
X442701Y460452D02*
Y465720D01*
X443701Y461452D02*
Y464720D01*
X444701Y462452D02*
Y463720D01*
X446518Y461903D02*
X442620Y458005D01*
X445404Y455221*
X445404D02*
X449301Y459119D01*
X446518Y461903*
X444925Y455701D02*
X445883D01*
X443925Y456701D02*
X446883D01*
X442925Y457701D02*
X447883D01*
X443316Y458701D02*
X448883D01*
X444316Y459701D02*
X448720D01*
X445316Y460701D02*
X447720D01*
X446316Y461701D02*
X446720D01*
X442701Y457925D02*
Y458086D01*
X443701Y456925D02*
Y459086D01*
X444701Y455925D02*
Y460086D01*
X445701Y455518D02*
Y461086D01*
X446701Y456518D02*
Y461720D01*
X447701Y457518D02*
Y460720D01*
X448701Y458518D02*
Y459720D01*
X458627Y489881D02*
X454730Y485983D01*
X457514Y483200*
X461411Y487097*
X458627Y489881*
X457013Y483701D02*
X458015D01*
X456013Y484701D02*
X459015D01*
X455013Y485701D02*
X460015D01*
X455447Y486701D02*
X461015D01*
X456447Y487701D02*
X460808D01*
X457447Y488701D02*
X459808D01*
X458447Y489701D02*
X458808D01*
X455701Y485013D02*
Y486954D01*
X456701Y484013D02*
Y487954D01*
X457701Y483386D02*
Y488954D01*
X458701Y484386D02*
Y489808D01*
X459701Y485386D02*
Y488808D01*
X460701Y486386D02*
Y487808D01*
X462595Y485914D02*
X458697Y482016D01*
X461481Y479233*
X465378Y483130*
X462595Y485914*
X461013Y479701D02*
X461949D01*
X460013Y480701D02*
X462949D01*
X459013Y481701D02*
X463949D01*
X459381Y482701D02*
X464949D01*
X460381Y483701D02*
X464808D01*
X461381Y484701D02*
X463808D01*
X462381Y485701D02*
X462808D01*
X458701Y482013D02*
Y482020D01*
X459701Y481013D02*
Y483020D01*
X460701Y480013D02*
Y484020D01*
X461701Y479452D02*
Y485020D01*
X462701Y480452D02*
Y485808D01*
X463701Y481452D02*
Y484808D01*
X464701Y482452D02*
Y483808D01*
X466562Y481947D02*
X462664Y478049D01*
X465448Y475265*
X469345Y479163*
X466562Y481947*
X465013Y475701D02*
X465883D01*
X464013Y476701D02*
X466883D01*
X463013Y477701D02*
X467883D01*
X463316Y478701D02*
X468883D01*
X464316Y479701D02*
X468808D01*
X465316Y480701D02*
X467808D01*
X466316Y481701D02*
X466808D01*
X462701Y478013D02*
Y478086D01*
X463701Y477013D02*
Y479086D01*
X464701Y476013D02*
Y480086D01*
X465701Y475518D02*
Y481086D01*
X466701Y476518D02*
Y481808D01*
X467701Y477518D02*
Y480808D01*
X468701Y478518D02*
Y479808D01*
X440602Y489533D02*
X435034Y483965D01*
X440045Y478954*
X445613Y484522*
X440602Y489533*
X439298Y479701D02*
X440792D01*
X438298Y480701D02*
X441792D01*
X437298Y481701D02*
X442792D01*
X436298Y482701D02*
X443792D01*
X435298Y483701D02*
X444792D01*
X435770Y484701D02*
X445434D01*
X436770Y485701D02*
X444434D01*
X437770Y486701D02*
X443434D01*
X438770Y487701D02*
X442434D01*
X439770Y488701D02*
X441434D01*
X435701Y483298D02*
Y484632D01*
X436701Y482298D02*
Y485632D01*
X437701Y481298D02*
Y486632D01*
X438701Y480298D02*
Y487632D01*
X439701Y479298D02*
Y488632D01*
X440701Y479610D02*
Y489434D01*
X441701Y480610D02*
Y488434D01*
X442701Y481610D02*
Y487434D01*
X443701Y482610D02*
Y486434D01*
X444701Y483610D02*
Y485434D01*
X463986Y466148D02*
X458419Y460580D01*
X463430Y455569*
X468997Y461137*
X463986Y466148*
X463298Y455701D02*
X463561D01*
X462298Y456701D02*
X464561D01*
X461298Y457701D02*
X465561D01*
X460298Y458701D02*
X466561D01*
X459298Y459701D02*
X467561D01*
X458539Y460701D02*
X468561D01*
X459539Y461701D02*
X468434D01*
X460539Y462701D02*
X467434D01*
X461539Y463701D02*
X466434D01*
X462539Y464701D02*
X465434D01*
X463539Y465701D02*
X464434D01*
X458701Y460298D02*
Y460863D01*
X459701Y459298D02*
Y461863D01*
X460701Y458298D02*
Y462863D01*
X461701Y457298D02*
Y463863D01*
X462701Y456298D02*
Y464863D01*
X463701Y455841D02*
Y465863D01*
X464701Y456841D02*
Y465434D01*
X465701Y457841D02*
Y464434D01*
X466701Y458841D02*
Y463434D01*
X467701Y459841D02*
Y462434D01*
X468701Y460841D02*
Y461434D01*
X545627Y518586D02*
X542799Y521414D01*
X540324Y518940*
X543152Y516111*
X545627Y518586*
X542563Y516701D02*
X543742D01*
X541563Y517701D02*
X544742D01*
X540563Y518701D02*
X545512D01*
X541085Y519701D02*
X544512D01*
X542085Y520701D02*
X543512D01*
X540701Y518563D02*
Y519317D01*
X541701Y517563D02*
Y520317D01*
X542701Y516563D02*
Y521317D01*
X543701Y516660D02*
Y520512D01*
X544701Y517660D02*
Y519512D01*
X541172Y514131D02*
X538344Y516960D01*
X535869Y514485*
X538697Y511656*
X541172Y514131*
X538653Y511701D02*
X538742D01*
X537653Y512701D02*
X539742D01*
X536653Y513701D02*
X540742D01*
X536085Y514701D02*
X540603D01*
X537085Y515701D02*
X539603D01*
X538085Y516701D02*
X538603D01*
X536701Y513653D02*
Y515317D01*
X537701Y512653D02*
Y516317D01*
X538701Y511660D02*
Y516603D01*
X539701Y512660D02*
Y515603D01*
X540701Y513660D02*
Y514603D01*
X538697Y555666D02*
X535869Y552838D01*
X538344Y550363*
X541172Y553192*
X538697Y555666*
X538006Y550701D02*
X538682D01*
X537006Y551701D02*
X539682D01*
X536006Y552701D02*
X540682D01*
X536732Y553701D02*
X540663D01*
X537732Y554701D02*
X539663D01*
X536701Y552006D02*
Y553670D01*
X537701Y551006D02*
Y554670D01*
X538701Y550720D02*
Y555663D01*
X539701Y551720D02*
Y554663D01*
X540701Y552720D02*
Y553663D01*
X543152Y551212D02*
X540324Y548383D01*
X542799Y545908*
X545627Y548737*
X543152Y551212*
X542006Y546701D02*
X543591D01*
X541006Y547701D02*
X544591D01*
X540641Y548701D02*
X545591D01*
X541641Y549701D02*
X544663D01*
X542641Y550701D02*
X543663D01*
X540701Y548006D02*
Y548760D01*
X541701Y547006D02*
Y549760D01*
X542701Y546006D02*
Y550760D01*
X543701Y546811D02*
Y550663D01*
X544701Y547811D02*
Y549663D01*
X501617Y548737D02*
X504445Y545908D01*
X506920Y548383*
X504092Y551212*
X501617Y548737*
X503653Y546701D02*
X505238D01*
X502653Y547701D02*
X506238D01*
X501653Y548701D02*
X506603D01*
X502581Y549701D02*
X505603D01*
X503581Y550701D02*
X504603D01*
X501701Y548653D02*
Y548821D01*
X502701Y547653D02*
Y549821D01*
X503701Y546653D02*
Y550821D01*
X504701Y546164D02*
Y550603D01*
X505701Y547164D02*
Y549603D01*
X506701Y548164D02*
Y548603D01*
X506072Y553192D02*
X508900Y550363D01*
X511375Y552838*
X508547Y555666*
X506072Y553192*
X508563Y550701D02*
X509238D01*
X507563Y551701D02*
X510238D01*
X506563Y552701D02*
X511238D01*
X506581Y553701D02*
X510512D01*
X507581Y554701D02*
X509512D01*
X506701Y552563D02*
Y553821D01*
X507701Y551563D02*
Y554821D01*
X508701Y550563D02*
Y555512D01*
X509701Y551164D02*
Y554512D01*
X510701Y552164D02*
Y553512D01*
X508547Y511656D02*
X511375Y514485D01*
X508900Y516960*
X506072Y514131*
X508547Y511656*
X508502Y511701D02*
X508591D01*
X507502Y512701D02*
X509591D01*
X506502Y513701D02*
X510591D01*
X506641Y514701D02*
X511159D01*
X507641Y515701D02*
X510159D01*
X508641Y516701D02*
X509159D01*
X506701Y513502D02*
Y514760D01*
X507701Y512502D02*
Y515760D01*
X508701Y511811D02*
Y516760D01*
X509701Y512811D02*
Y516159D01*
X510701Y513811D02*
Y515159D01*
X504092Y516111D02*
X506920Y518940D01*
X504445Y521414*
X501617Y518586*
X504092Y516111*
X503502Y516701D02*
X504682D01*
X502502Y517701D02*
X505682D01*
X501732Y518701D02*
X506682D01*
X502732Y519701D02*
X506159D01*
X503732Y520701D02*
X505159D01*
X501701Y518502D02*
Y518670D01*
X502701Y517502D02*
Y519670D01*
X503701Y516502D02*
Y520670D01*
X504701Y516720D02*
Y521159D01*
X505701Y517720D02*
Y520159D01*
X506701Y518720D02*
Y519159D01*
G54D20*
X517961Y760711D03*
Y766911D03*
X502961Y676911D03*
Y670711D03*
X623433Y743998D03*
Y737798D03*
X633433Y743998D03*
Y737798D03*
X572961Y790711D03*
Y796911D03*
X582961Y790711D03*
Y796911D03*
X613433Y743998D03*
Y737798D03*
X471701Y775593D03*
Y781793D03*
X493701Y561801D03*
Y555601D03*
X483701Y561801D03*
Y555601D03*
X473701Y561801D03*
Y555601D03*
X463701Y561801D03*
Y555601D03*
X488701Y536801D03*
Y530601D03*
X478701Y536801D03*
Y530601D03*
X468701Y536801D03*
Y530601D03*
X458701Y536801D03*
Y530601D03*
X497638Y615601D03*
Y621801D03*
G54D22*
X431801Y528701D03*
X425601D03*
X548278Y697244D03*
X554478D03*
X436061Y608811D03*
X429861D03*
X436061Y623811D03*
X429861D03*
X613483Y805150D03*
X619683D03*
X435856Y593386D03*
X429656D03*
X560601Y673701D03*
X566801D03*
X425601Y518701D03*
X431801D03*
X581801Y673701D03*
X575601D03*
G54D23*
X634220Y812530D03*
Y799030D03*
X436211Y788811D03*
X449711D03*
G54D24*
X417961Y803811D03*
X407961D03*
X407646Y782827D03*
X417646D03*
X407646Y772827D03*
X417646D03*
X407646Y762827D03*
X417646D03*
X407646Y752827D03*
X417646D03*
X407646Y731646D03*
X417646D03*
X407646Y721646D03*
X417646D03*
X407646Y711646D03*
X417646D03*
X407646Y701646D03*
X417646D03*
X407646Y680465D03*
X417646D03*
X407646Y670465D03*
X417646D03*
X407646Y660465D03*
X417646D03*
X407646Y650465D03*
X417646D03*
X537961Y583811D03*
X527961D03*
X517961D03*
X507961D03*
X487961Y793811D03*
X497961D03*
X507961D03*
X517961D03*
X527961D03*
X537961D03*
X547961D03*
X557961D03*
X513780Y534252D03*
X533465D03*
X633512Y781213D03*
X623512D03*
X613512D03*
X643701Y528701D03*
Y518701D03*
X633701Y528701D03*
Y518701D03*
X623701Y528701D03*
Y518701D03*
X613701Y528701D03*
Y518701D03*
X643701Y558701D03*
Y548701D03*
X633701Y558701D03*
Y548701D03*
X623701Y558701D03*
Y548701D03*
X613701Y558701D03*
Y548701D03*
G54D25*
X615402Y849421D03*
X612843D03*
X610283D03*
X607724D03*
X605165D03*
G54D26*
X624457Y859953D03*
X596110D03*
G54D29*
X471701Y803929D03*
X467961D03*
X464220D03*
Y793693D03*
X471701D03*
X633551Y764913D03*
X629811D03*
X626071D03*
Y754677D03*
X633551D03*
G54D30*
X435480Y803811D03*
X450441D03*
G54D31*
X606740Y665307D03*
X598866D03*
X590992D03*
X583118D03*
X575244D03*
X567370D03*
X559496D03*
X551622D03*
X545717Y653496D03*
Y645622D03*
Y637748D03*
Y629874D03*
Y622000D03*
Y614126D03*
X551622Y602315D03*
X559496D03*
X567370D03*
X575244D03*
X583118D03*
X590992D03*
X598866D03*
X606740D03*
G54D32*
X446726Y477841D03*
G54D33*
X457305Y467262D03*
G54D34*
X506150Y482394D03*
Y462709D03*
X555362Y482394D03*
Y462709D03*
X580953Y482394D03*
Y462709D03*
X630165Y482394D03*
Y462709D03*
G54D35*
X530756Y490268D03*
Y454835D03*
X605559Y490268D03*
Y454835D03*
G54D37*
X409811Y608811D03*
X416111D03*
X409811Y623811D03*
X416111D03*
X597055Y805150D03*
X603355D03*
X526772Y510630D03*
X520472D03*
Y557480D03*
X526772D03*
G54D38*
X623110Y680748D03*
X613110D03*
X623110Y690748D03*
X613110D03*
X623110Y700748D03*
X613110D03*
X429055Y823307D03*
X438898D03*
X446772D03*
X456614D03*
G54D39*
X415276Y833976D03*
X470394D03*
G54D75*
X439772Y556094D03*
Y541528D03*
X416150Y556094D03*
Y541528D03*
G54D76*
X478000Y716370D03*
Y720110D03*
Y723850D03*
G54D77*
X601819Y859953D03*
X618748D03*
G54D78*
X600736Y849520D03*
X619831D03*
G54D79*
X462421Y582874D03*
X467421D03*
X472421D03*
X477421D03*
X482421D03*
X487421D03*
X492421D03*
X497421D03*
Y604921D03*
X492421D03*
X487421D03*
X482421D03*
X477421D03*
X472421D03*
X467421D03*
X462421D03*
G54D80*
X546654Y536811D03*
Y530511D03*
X500591D03*
Y536811D03*
G54D81*
X521575Y827244D03*
G54D82*
X532874Y742126D03*
G54D83*
X529724D03*
X526575D03*
X523425D03*
X520276D03*
X517126D03*
X513976D03*
X510827D03*
X507677D03*
X504528D03*
X501378D03*
Y694882D03*
X504528D03*
X507677D03*
X510827D03*
X513976D03*
X517126D03*
X520276D03*
X523425D03*
X526575D03*
X529724D03*
X532874D03*
G54D84*
X493504Y734252D03*
Y731102D03*
Y727953D03*
Y724803D03*
Y721654D03*
Y718504D03*
Y715354D03*
Y712205D03*
Y709055D03*
Y705906D03*
Y702756D03*
X540748D03*
Y705906D03*
Y709055D03*
Y712205D03*
Y715354D03*
Y718504D03*
Y721654D03*
Y724803D03*
Y727953D03*
Y731102D03*
Y734252D03*
X0Y0D02*
M02*
