*
*
G04 PADS 9.5 Build Number: 522968 generated Gerber (RS-274-X) file*
G04 PC Version=2.1*
*
%IN "kimchicon_final.pcb"*%
*
%MOIN*%
*
%FSLAX35Y35*%
*
*
*
*
G04 PC Standard Apertures*
*
*
G04 Thermal Relief Aperture macro.*
%AMTER*
1,1,$1,0,0*
1,0,$1-$2,0,0*
21,0,$3,$4,0,0,45*
21,0,$3,$4,0,0,135*
%
*
*
G04 Annular Aperture macro.*
%AMANN*
1,1,$1,0,0*
1,0,$2,0,0*
%
*
*
G04 Odd Aperture macro.*
%AMODD*
1,1,$1,0,0*
1,0,$1-0.005,0,0*
%
*
*
G04 PC Custom Aperture Macros*
*
*
*
*
*
*
G04 PC Aperture Table*
*
%ADD010C,0.001*%
%ADD011C,0.00787*%
%ADD024C,0.07299*%
%ADD026O,0.05331X0.08087*%
%ADD032C,0.04937*%
%ADD033C,0.06118*%
%ADD034C,0.07693*%
%ADD035C,0.10055*%
%ADD038C,0.07*%
%ADD039O,0.08874X0.1478*%
%ADD078C,0.05724*%
%ADD081O,0.60055X0.08874*%
*
*
*
*
G04 PC Circuitry*
G04 Layer Name kimchicon_final.pcb - circuitry*
%LPD*%
*
*
G04 PC Custom Flashes*
G04 Layer Name kimchicon_final.pcb - flashes*
%LPD*%
*
*
G04 PC Circuitry*
G04 Layer Name kimchicon_final.pcb - circuitry*
%LPD*%
*
G54D10*
G54D11*
G01X389764Y393701D02*
X413386Y374016D01*
X433071Y393701*
X551181*
X570866Y374016*
X649606*
X669291Y393701*
Y590551*
X649606Y610236*
Y846457*
X629921Y866142*
X570866*
X551181Y846457*
X413386*
X389764Y826772*
Y393701*
G54D24*
X417961Y803811D03*
X407961D03*
X407646Y782827D03*
X417646D03*
X407646Y772827D03*
X417646D03*
X407646Y762827D03*
X417646D03*
X407646Y752827D03*
X417646D03*
X407646Y731646D03*
X417646D03*
X407646Y721646D03*
X417646D03*
X407646Y711646D03*
X417646D03*
X407646Y701646D03*
X417646D03*
X407646Y680465D03*
X417646D03*
X407646Y670465D03*
X417646D03*
X407646Y660465D03*
X417646D03*
X407646Y650465D03*
X417646D03*
X537961Y583811D03*
X527961D03*
X517961D03*
X507961D03*
X487961Y793811D03*
X497961D03*
X507961D03*
X517961D03*
X527961D03*
X537961D03*
X547961D03*
X557961D03*
X513780Y534252D03*
X533465D03*
X633512Y781213D03*
X623512D03*
X613512D03*
X643701Y528701D03*
Y518701D03*
X633701Y528701D03*
Y518701D03*
X623701Y528701D03*
Y518701D03*
X613701Y528701D03*
Y518701D03*
X643701Y558701D03*
Y548701D03*
X633701Y558701D03*
Y548701D03*
X623701Y558701D03*
Y548701D03*
X613701Y558701D03*
Y548701D03*
G54D26*
X624457Y859953D03*
X596110D03*
G54D32*
X446726Y477841D03*
G54D33*
X457305Y467262D03*
G54D34*
X506150Y482394D03*
Y462709D03*
X555362Y482394D03*
Y462709D03*
X580953Y482394D03*
Y462709D03*
X630165Y482394D03*
Y462709D03*
G54D35*
X530756Y490268D03*
Y454835D03*
X605559Y490268D03*
Y454835D03*
G54D38*
X623110Y680748D03*
X613110D03*
X623110Y690748D03*
X613110D03*
X623110Y700748D03*
X613110D03*
X429055Y823307D03*
X438898D03*
X446772D03*
X456614D03*
G54D39*
X415276Y833976D03*
X470394D03*
G54D78*
X600736Y849520D03*
X619831D03*
G54D81*
X521575Y827244D03*
X0Y0D02*
M02*
