*
*
G04 PADS 9.5 Build Number: 522968 generated Gerber (RS-274-X) file*
G04 PC Version=2.1*
*
%IN "kimchicon_final.pcb"*%
*
%MOIN*%
*
%FSLAX35Y35*%
*
*
*
*
G04 PC Standard Apertures*
*
*
G04 Thermal Relief Aperture macro.*
%AMTER*
1,1,$1,0,0*
1,0,$1-$2,0,0*
21,0,$3,$4,0,0,45*
21,0,$3,$4,0,0,135*
%
*
*
G04 Annular Aperture macro.*
%AMANN*
1,1,$1,0,0*
1,0,$2,0,0*
%
*
*
G04 Odd Aperture macro.*
%AMODD*
1,1,$1,0,0*
1,0,$1-0.005,0,0*
%
*
*
G04 PC Custom Aperture Macros*
*
*
*
*
*
*
G04 PC Aperture Table*
*
%ADD010C,0.001*%
%ADD011C,0.00787*%
%ADD012C,0.00394*%
%ADD013C,0.01*%
%ADD014C,0.007*%
%ADD015C,0.00787*%
%ADD016C,0.005*%
%ADD017C,0.00591*%
%ADD018C,0.02756*%
%ADD074C,0.00787*%
*
*
*
*
G04 PC Circuitry*
G04 Layer Name kimchicon_final.pcb - circuitry*
%LPD*%
*
G54D10*
G01X641986Y384264D02*
X641469Y387367D01*
X639922Y389429*
X638118Y390202*
X636310Y390460*
X634242Y390202*
X632168Y389164*
X632097Y389221*
X632617Y391304*
X632627Y391323*
X633668Y392624*
X633679Y392634*
X633679D02*
X635241Y393676D01*
X635263Y393684*
X637345Y393944*
X637359*
X638921Y393683*
X638923*
X640219Y393424*
X640425*
Y396968*
X639173*
X639166*
X637350Y397228*
X635017Y396969*
X632945Y396451*
X631135Y395416*
X629841Y394123*
X628805Y392569*
X628029Y390758*
X627770Y388682*
X627510Y386346*
X627770Y384009*
X628029Y381935*
X628804Y380386*
X629838Y379094*
X630870Y378319*
X631904Y377802*
X633455Y377285*
X635004*
X637855Y377804*
X640178Y379094*
X641468Y381417*
X641986Y384264*
X637401Y384003D02*
Y382962D01*
X637399Y382946*
X637138Y382165*
X637136Y382159*
X636615Y381117*
X636598Y381098*
X635817Y380578*
X635805Y380572*
X635024Y380311*
X634996Y380310*
X633955Y380571*
X633940Y380578*
X633159Y381098*
X633151Y381104*
X632630Y381625*
X632617Y381648*
X632357Y382689*
X632356Y382692*
X632096Y383993*
X632095Y384003*
Y386606*
X632133Y386655*
X634215Y387175*
X634237Y387176*
X635539Y386915*
X635557Y386908*
X636338Y386387*
X636345Y386381*
X637126Y385600*
X637140Y385573*
X637400Y384011*
X637401Y384003*
X624547Y381090D02*
X620692D01*
X620642Y381140*
Y396708*
X616561*
X616053Y395438*
X616042Y395421*
X615261Y394640*
X615244Y394629*
X613943Y394108*
X613924Y394105*
X612152*
Y391081*
X616007*
X616057Y391031*
Y381140*
X616007Y381090*
X612152*
Y377806*
X624547*
Y381090*
X608408Y389466D02*
X608149Y391541D01*
X607631Y393094*
X606855Y394646*
X605824Y395677*
X604533Y396452*
X602980Y396969*
X601170Y397228*
X599355Y396969*
X597807Y396710*
X596518Y395679*
X595486Y394647*
X594970Y393358*
X593931Y389723*
Y384791*
X594450Y382976*
X594451Y382969*
X594710Y381157*
X595484Y379867*
X596518Y378575*
X597803Y377804*
X599355Y377545*
X601170Y377286*
X602984Y377545*
X604536Y377804*
X605822Y378575*
X606855Y379867*
X607631Y381160*
X608149Y382972*
X608408Y384788*
Y389466*
X603823Y388949D02*
Y385565D01*
X603822Y385555*
X603562Y384258*
Y382962*
X603560Y382946*
X603300Y382165*
X603295Y382155*
X602514Y380854*
X602481Y380830*
X601180Y380570*
X601160*
X599858Y380830*
X599825Y380854*
X599044Y382155*
X599040Y382165*
X598780Y382946*
X598777Y382962*
Y383999*
X598517Y385557*
Y385565*
Y388949*
X598518Y388959*
X598777Y390255*
Y391552*
X598780Y391568*
X599040Y392348*
X599047Y392363*
X599828Y393404*
X599850Y393420*
X601151Y393941*
X601188*
X602490Y393420*
X602511Y393404*
X603292Y392363*
X603300Y392348*
X603560Y391568*
X603562Y391552*
Y390255*
X603822Y388959*
X603823Y388949*
X592009Y381090D02*
X583990D01*
X583955Y381175*
X584475Y381696*
X584481Y381700*
X585520Y382480*
X587859Y384559*
X589416Y386376*
X590452Y387929*
X590969Y389741*
X591228Y391291*
X590711Y393874*
X589423Y395677*
X587358Y396710*
X584250Y397228*
X579581Y396449*
X578574Y395946*
Y392122*
X578769*
X579537Y392634*
X579537D02*
X579546Y392639D01*
X580848Y393160*
X580857Y393163*
X583460Y393683*
X583479*
X584781Y393423*
X584793Y393419*
X585834Y392898*
X585854Y392881*
X586374Y392100*
X586382Y392082*
X586642Y390781*
Y390759*
X586382Y389719*
X586121Y388418*
X586111Y388397*
X584029Y385794*
X584023Y385788*
X581421Y383445*
X581419Y383444*
X578053Y380596*
Y377806*
X592009*
Y381090*
X445934Y648738D02*
X441043D01*
X440273Y648609*
X439512Y648229*
X439134Y647599*
X439007Y646836*
X439134Y646199*
X439391Y645559*
X439773Y645048*
X440419Y644532*
X440388Y644443*
X436013*
Y643241*
X445934*
Y644443*
X441559*
X441528Y644454*
X440877Y644974*
X440873Y644978*
X440352Y645499*
X440343Y645512*
X440083Y646032*
X440079Y646042*
X439949Y646563*
X439950Y646591*
X440080Y646981*
X440092Y647001*
X440352Y647261*
X440360Y647267*
X440751Y647528*
X440778Y647536*
X445934*
Y648738*
X446064Y653214D02*
X445940Y654204D01*
X445137*
X445252Y653745*
Y653721*
X445122Y653201*
X445115Y653185*
X444855Y652795*
X444829Y652775*
X444438Y652645*
X444435Y652644*
X443914Y652513*
X443902Y652512*
X439997*
X439947Y652562*
Y654204*
X439136*
Y652562*
X439086Y652512*
X437710*
X437830Y651310*
X439086*
X439136Y651260*
Y650399*
X439947*
Y651260*
X439997Y651310*
X444028*
X444926Y651439*
X445557Y651818*
X445936Y652449*
X446064Y653214*
Y658029D02*
X445940Y659019D01*
X445137*
X445252Y658561*
Y658537*
X445122Y658016*
X445115Y658001*
X444855Y657610*
X444829Y657590*
X444438Y657460*
X444435Y657459*
X443914Y657329*
X443902Y657327*
X439997*
X439947Y657377*
Y659019*
X439136*
Y657377*
X439086Y657327*
X437710*
X437830Y656126*
X439086*
X439136Y656076*
Y655215*
X439947*
Y656076*
X439997Y656126*
X444028*
X444926Y656254*
X445557Y656633*
X445936Y657265*
X446064Y658029*
X448407Y662143D02*
X445203D01*
X445163Y662222*
X445808Y663125*
X445808D02*
X446064Y664281D01*
Y664786*
X445808Y665426*
X445554Y665934*
X445048Y666314*
X443887Y666830*
X442338Y667088*
X440922Y666960*
X439901Y666449*
X439263Y665556*
X439007Y664534*
X439135Y663768*
X439391Y663129*
X439771Y662621*
X440414Y662236*
X440388Y662143*
X439136*
Y660942*
X448407*
Y662143*
X445253Y664015D02*
X445251Y664001D01*
X444991Y663090*
X444984Y663075*
X444333Y662164*
X444292Y662143*
X441169*
X441133Y662158*
X440613Y662678*
X440608Y662684*
X440218Y663204*
X440209Y663222*
X439949Y664263*
X439948Y664285*
X440079Y664936*
X440092Y664961*
X440613Y665482*
X440632Y665494*
X441413Y665754*
X441423Y665757*
X442464Y665887*
X442476*
X443647Y665757*
X443661Y665753*
X444572Y665363*
X444588Y665352*
X445109Y664831*
X445123Y664804*
X445253Y664023*
Y664015*
X445934Y670473D02*
X444733D01*
Y669271*
X445934*
Y670473*
X440338D02*
X439136D01*
Y669271*
X440338*
Y670473*
X447756Y673999D02*
X436664Y677353D01*
Y676807*
X447756Y673453*
Y673999*
Y680767D02*
X436664Y684121D01*
Y683575*
X447756Y680221*
Y680767*
X448537Y770996D02*
X448279Y772541D01*
X447639Y773566*
X447131Y773947*
X446492Y774203*
X446492D02*
X445461Y774331D01*
X439136*
Y773130*
X439867*
X439908Y773051*
X439263Y772148*
X439008Y771127*
X439263Y769978*
X440030Y768955*
X441055Y768443*
X442472Y768185*
X443885Y768313*
X444910Y768953*
X445548Y769719*
X445803Y770868*
X445676Y771504*
X445420Y772144*
X445039Y772652*
X444397Y773037*
X444422Y773130*
X445464*
X445470*
X446511Y772999*
X446531Y772993*
X447181Y772602*
X447198Y772585*
X447589Y771934*
X447596Y771916*
X447726Y771005*
Y770998*
Y770991*
X447596Y769950*
X447593Y769941*
X447222Y768827*
X448158Y768710*
X448408Y769834*
X448537Y770996*
X444863Y771518D02*
Y770998D01*
X444862Y770988*
X444732Y770337*
X444723Y770317*
X444332Y769796*
X444308Y769779*
X443527Y769519*
X443518Y769516*
X442476Y769386*
X442464*
X441423Y769516*
X441407Y769521*
X440626Y769912*
X440617Y769917*
X439966Y770438*
X439948Y770469*
X439818Y771250*
X439817Y771258*
X439819Y771272*
X440079Y772183*
X440087Y772198*
X440738Y773109*
X440778Y773130*
X443642*
X443677Y773115*
X444198Y772595*
X444202Y772589*
X444593Y772069*
X444597Y772061*
X444858Y771541*
X444863Y771518*
X445934Y688043D02*
X436013D01*
Y686841*
X445934*
Y688043*
Y693054D02*
X442244Y689618D01*
X442176*
X439136Y692404*
Y691109*
X442469Y688160*
X445934Y691368*
Y693054*
Y695591D02*
X439136D01*
Y694390*
X445934*
Y695591*
Y707955D02*
X441042D01*
X440145Y707827*
X439513Y707448*
X439134Y706817*
X439007Y706054*
X439134Y705417*
X439391Y704776*
X439773Y704266*
X440419Y703750*
X440406Y703664*
X439769Y703409*
X439389Y702903*
X439134Y702393*
X439007Y701758*
X439134Y701122*
X439391Y700482*
X439773Y699971*
X440419Y699455*
X440388Y699366*
X439136*
Y698164*
X445934*
Y699366*
X441429*
X441398Y699377*
X440747Y699897*
X440738Y699906*
X440348Y700427*
X440343Y700434*
X440083Y700955*
X440079Y700965*
X439949Y701486*
X439950Y701514*
X440080Y701904*
X440083Y701911*
X440213Y702171*
X440230Y702190*
X440620Y702451*
X440648Y702459*
X445934*
Y703661*
X441429*
X441398Y703672*
X440747Y704192*
X440738Y704201*
X440348Y704722*
X440343Y704729*
X440083Y705250*
X440079Y705260*
X439949Y705781*
X439950Y705809*
X440080Y706199*
X440083Y706206*
X440213Y706466*
X440230Y706485*
X440620Y706746*
X440648Y706754*
X445934*
Y707955*
X446064Y712822D02*
X445935Y713723D01*
X445684Y714853*
X444749*
X444991Y714006*
X444992Y714001*
X445123Y713220*
Y713211*
Y713204*
X444993Y712293*
X444982Y712269*
X444462Y711618*
X444447Y711606*
X443536Y711086*
X443518Y711079*
X442476Y710949*
X442464*
X441423Y711079*
X441407Y711084*
X440626Y711475*
X440613Y711484*
X439962Y712135*
X439948Y712163*
X439818Y713074*
X439817Y713081*
X439818Y713089*
X439818D02*
X439948Y713870D01*
X439949Y713876*
X440191Y714723*
X439260*
X439007Y712952*
X439264Y711538*
X439903Y710516*
X441056Y709875*
X442470Y709618*
X443885Y709875*
X445043Y710519*
X445553Y711029*
X445806Y711536*
X446064Y712822*
X437865Y695591D02*
X436664D01*
Y694390*
X437865*
Y695591*
X445934Y722402D02*
X441043D01*
X440273Y722274*
X439512Y721893*
X439134Y721263*
X439007Y720501*
X439134Y719863*
X439391Y719223*
X439773Y718713*
X440419Y718196*
X440388Y718107*
X436013*
Y716906*
X445934*
Y718107*
X441559*
X441528Y718118*
X440877Y718639*
X440873Y718642*
X440352Y719163*
X440343Y719176*
X440083Y719697*
X440079Y719707*
X439949Y720227*
X439950Y720255*
X440080Y720646*
X440092Y720665*
X440352Y720926*
X440360Y720932*
X440751Y721192*
X440778Y721201*
X445934*
Y722402*
Y726176D02*
X439136D01*
Y724975*
X445934*
Y726176*
X446064Y731304D02*
X445935Y732204D01*
X445684Y733335*
X444749*
X444991Y732487*
X444992Y732482*
X445123Y731701*
Y731693*
Y731686*
X444993Y730774*
X444982Y730750*
X444462Y730100*
X444447Y730087*
X443536Y729567*
X443518Y729561*
X442476Y729430*
X442464*
X441423Y729561*
X441407Y729565*
X440626Y729956*
X440613Y729965*
X439962Y730616*
X439948Y730644*
X439818Y731555*
X439817Y731562*
X439818Y731571*
X439948Y732352*
X439949Y732357*
X440191Y733204*
X439260*
X439007Y731433*
X439264Y730019*
X439903Y728997*
X441056Y728356*
X442470Y728099*
X443885Y728356*
X445043Y729000*
X445553Y729510*
X445806Y730017*
X446064Y731304*
Y738069D02*
X445807Y739353D01*
X445168Y740375*
X444015Y741016*
X442600Y741273*
X441055Y741015*
X439903Y740375*
X439264Y739353*
X439007Y738069*
X439264Y736657*
X439903Y735635*
X441055Y734994*
X442600Y734737*
X444015Y734994*
X445168Y735635*
X445807Y736657*
X446064Y738069*
X445253Y737940D02*
Y737932D01*
X445123Y737151*
X445112Y737128*
X444592Y736477*
X444572Y736462*
X443661Y736072*
X443648Y736068*
X442607Y735938*
X442595*
X441424Y736068*
X441409Y736072*
X440498Y736462*
X440479Y736477*
X439958Y737128*
X439948Y737151*
X439818Y737932*
X439817Y737940*
X439818Y737947*
X439948Y738858*
X439958Y738882*
X440479Y739533*
X440498Y739547*
X441409Y739938*
X441424Y739942*
X442595Y740072*
X442607*
X443648Y739942*
X443661Y739938*
X444572Y739547*
X444592Y739533*
X445112Y738882*
X445123Y738858*
X445253Y737947*
Y737940*
X445934Y748822D02*
X441043D01*
X440273Y748694*
X439512Y748313*
X439134Y747683*
X439007Y746921*
X439134Y746284*
X439391Y745643*
X439773Y745133*
X440419Y744616*
X440388Y744527*
X439136*
Y743326*
X445934*
Y744527*
X441559*
X441528Y744538*
X440877Y745059*
X440873Y745063*
X440352Y745583*
X440343Y745596*
X440083Y746117*
X440079Y746127*
X439949Y746648*
X439950Y746676*
X440080Y747066*
X440092Y747086*
X440352Y747346*
X440360Y747352*
X440751Y747612*
X440778Y747621*
X445934*
Y748822*
Y752857D02*
X444472D01*
Y751395*
X445934*
Y752857*
X446064Y758243D02*
X445807Y759526D01*
X445168Y760548*
X444015Y761189*
X442600Y761446*
X441055Y761189*
X439903Y760548*
X439264Y759526*
X439007Y758243*
X439264Y756830*
X439903Y755808*
X441055Y755167*
X442600Y754910*
X444015Y755167*
X445168Y755808*
X445807Y756830*
X446064Y758243*
X445253Y758113D02*
Y758105D01*
X445123Y757324*
X445112Y757301*
X444592Y756650*
X444572Y756635*
X443661Y756245*
X443648Y756241*
X442607Y756111*
X442595*
X441424Y756241*
X441409Y756245*
X440498Y756635*
X440479Y756650*
X439958Y757301*
X439948Y757324*
X439818Y758105*
X439817Y758113*
X439818Y758120*
X439948Y759031*
X439958Y759055*
X440479Y759706*
X440498Y759721*
X441409Y760111*
X441424Y760115*
X442595Y760245*
X442607*
X443648Y760115*
X443661Y760111*
X444572Y759721*
X444592Y759706*
X445112Y759055*
X445123Y759031*
X445253Y758120*
Y758113*
X445934Y764700D02*
X441429D01*
X441403Y764708*
X440753Y765098*
X440738Y765111*
X440348Y765631*
X440343Y765639*
X440083Y766160*
X440079Y766170*
X439949Y766691*
Y766715*
X440064Y767173*
X439006*
Y766838*
X439134Y766198*
X439389Y765688*
X439771Y765179*
X440414Y764793*
X440388Y764700*
X439136*
Y763499*
X445934*
Y764700*
X437865Y726176D02*
X436664D01*
Y724975*
X437865*
Y726176*
X436100Y643241D02*
Y644443D01*
Y686841D02*
Y688043D01*
Y716906D02*
Y718107D01*
X436200Y643241D02*
Y644443D01*
Y686841D02*
Y688043D01*
Y716906D02*
Y718107D01*
X436300Y643241D02*
Y644443D01*
Y686841D02*
Y688043D01*
Y716906D02*
Y718107D01*
X436400Y643241D02*
Y644443D01*
Y686841D02*
Y688043D01*
Y716906D02*
Y718107D01*
X436500Y643241D02*
Y644443D01*
Y686841D02*
Y688043D01*
Y716906D02*
Y718107D01*
X436600Y643241D02*
Y644443D01*
Y686841D02*
Y688043D01*
Y716906D02*
Y718107D01*
X436700Y643241D02*
Y644443D01*
Y676796D02*
Y677342D01*
Y683564D02*
Y684110D01*
Y686841D02*
Y688043D01*
Y694390D02*
Y695591D01*
Y716906D02*
Y718107D01*
Y724975D02*
Y726176D01*
X436800Y643241D02*
Y644443D01*
Y676766D02*
Y677312D01*
Y683533D02*
Y684080D01*
Y686841D02*
Y688043D01*
Y694390D02*
Y695591D01*
Y716906D02*
Y718107D01*
Y724975D02*
Y726176D01*
X436900Y643241D02*
Y644443D01*
Y676735D02*
Y677282D01*
Y683503D02*
Y684049D01*
Y686841D02*
Y688043D01*
Y694390D02*
Y695591D01*
Y716906D02*
Y718107D01*
Y724975D02*
Y726176D01*
X437000Y643241D02*
Y644443D01*
Y676705D02*
Y677251D01*
Y683473D02*
Y684019D01*
Y686841D02*
Y688043D01*
Y694390D02*
Y695591D01*
Y716906D02*
Y718107D01*
Y724975D02*
Y726176D01*
X437100Y643241D02*
Y644443D01*
Y676675D02*
Y677221D01*
Y683443D02*
Y683989D01*
Y686841D02*
Y688043D01*
Y694390D02*
Y695591D01*
Y716906D02*
Y718107D01*
Y724975D02*
Y726176D01*
X437200Y643241D02*
Y644443D01*
Y676645D02*
Y677191D01*
Y683412D02*
Y683959D01*
Y686841D02*
Y688043D01*
Y694390D02*
Y695591D01*
Y716906D02*
Y718107D01*
Y724975D02*
Y726176D01*
X437300Y643241D02*
Y644443D01*
Y676614D02*
Y677161D01*
Y683382D02*
Y683928D01*
Y686841D02*
Y688043D01*
Y694390D02*
Y695591D01*
Y716906D02*
Y718107D01*
Y724975D02*
Y726176D01*
X437400Y643241D02*
Y644443D01*
Y676584D02*
Y677130D01*
Y683352D02*
Y683898D01*
Y686841D02*
Y688043D01*
Y694390D02*
Y695591D01*
Y716906D02*
Y718107D01*
Y724975D02*
Y726176D01*
X437500Y643241D02*
Y644443D01*
Y676554D02*
Y677100D01*
Y683322D02*
Y683868D01*
Y686841D02*
Y688043D01*
Y694390D02*
Y695591D01*
Y716906D02*
Y718107D01*
Y724975D02*
Y726176D01*
X437600Y643241D02*
Y644443D01*
Y676524D02*
Y677070D01*
Y683291D02*
Y683838D01*
Y686841D02*
Y688043D01*
Y694390D02*
Y695591D01*
Y716906D02*
Y718107D01*
Y724975D02*
Y726176D01*
X437700Y643241D02*
Y644443D01*
Y676493D02*
Y677040D01*
Y683261D02*
Y683807D01*
Y686841D02*
Y688043D01*
Y694390D02*
Y695591D01*
Y716906D02*
Y718107D01*
Y724975D02*
Y726176D01*
X437800Y643241D02*
Y644443D01*
Y651612D02*
Y652512D01*
Y656427D02*
Y657327D01*
Y676463D02*
Y677010D01*
Y683231D02*
Y683777D01*
Y686841D02*
Y688043D01*
Y694390D02*
Y695591D01*
Y716906D02*
Y718107D01*
Y724975D02*
Y726176D01*
X437900Y643241D02*
Y644443D01*
Y651310D02*
Y652512D01*
Y656126D02*
Y657327D01*
Y676433D02*
Y676979D01*
Y683201D02*
Y683747D01*
Y686841D02*
Y688043D01*
Y716906D02*
Y718107D01*
X438000Y643241D02*
Y644443D01*
Y651310D02*
Y652512D01*
Y656126D02*
Y657327D01*
Y676403D02*
Y676949D01*
Y683171D02*
Y683717D01*
Y686841D02*
Y688043D01*
Y716906D02*
Y718107D01*
X438100Y643241D02*
Y644443D01*
Y651310D02*
Y652512D01*
Y656126D02*
Y657327D01*
Y676373D02*
Y676919D01*
Y683140D02*
Y683687D01*
Y686841D02*
Y688043D01*
Y716906D02*
Y718107D01*
X438200Y643241D02*
Y644443D01*
Y651310D02*
Y652512D01*
Y656126D02*
Y657327D01*
Y676342D02*
Y676889D01*
Y683110D02*
Y683656D01*
Y686841D02*
Y688043D01*
Y716906D02*
Y718107D01*
X438300Y643241D02*
Y644443D01*
Y651310D02*
Y652512D01*
Y656126D02*
Y657327D01*
Y676312D02*
Y676858D01*
Y683080D02*
Y683626D01*
Y686841D02*
Y688043D01*
Y716906D02*
Y718107D01*
X438400Y643241D02*
Y644443D01*
Y651310D02*
Y652512D01*
Y656126D02*
Y657327D01*
Y676282D02*
Y676828D01*
Y683050D02*
Y683596D01*
Y686841D02*
Y688043D01*
Y716906D02*
Y718107D01*
X438500Y643241D02*
Y644443D01*
Y651310D02*
Y652512D01*
Y656126D02*
Y657327D01*
Y676252D02*
Y676798D01*
Y683019D02*
Y683566D01*
Y686841D02*
Y688043D01*
Y716906D02*
Y718107D01*
X438600Y643241D02*
Y644443D01*
Y651310D02*
Y652512D01*
Y656126D02*
Y657327D01*
Y676221D02*
Y676768D01*
Y682989D02*
Y683535D01*
Y686841D02*
Y688043D01*
Y716906D02*
Y718107D01*
X438700Y643241D02*
Y644443D01*
Y651310D02*
Y652512D01*
Y656126D02*
Y657327D01*
Y676191D02*
Y676737D01*
Y682959D02*
Y683505D01*
Y686841D02*
Y688043D01*
Y716906D02*
Y718107D01*
X438800Y643241D02*
Y644443D01*
Y651310D02*
Y652512D01*
Y656126D02*
Y657327D01*
Y676161D02*
Y676707D01*
Y682929D02*
Y683475D01*
Y686841D02*
Y688043D01*
Y716906D02*
Y718107D01*
X438900Y643241D02*
Y644443D01*
Y651310D02*
Y652512D01*
Y656126D02*
Y657327D01*
Y676131D02*
Y676677D01*
Y682898D02*
Y683445D01*
Y686841D02*
Y688043D01*
Y716906D02*
Y718107D01*
X439000Y643241D02*
Y644443D01*
Y651310D02*
Y652512D01*
Y656126D02*
Y657327D01*
Y676100D02*
Y676647D01*
Y682868D02*
Y683414D01*
Y686841D02*
Y688043D01*
Y716906D02*
Y718107D01*
X439100Y643241D02*
Y644443D01*
Y646371D02*
Y647394D01*
Y651309D02*
Y652514D01*
Y656124D02*
Y657329D01*
Y663977D02*
Y664905D01*
Y676070D02*
Y676616D01*
Y682838D02*
Y683384D01*
Y686841D02*
Y688043D01*
Y701294D02*
Y702222D01*
Y705589D02*
Y706612D01*
Y712440D02*
Y713604D01*
Y716906D02*
Y718107D01*
Y720036D02*
Y721058D01*
Y730921D02*
Y732085D01*
Y737559D02*
Y738534D01*
Y746456D02*
Y747479D01*
Y757732D02*
Y758707D01*
Y766369D02*
Y767173D01*
Y770711D02*
Y771497D01*
X439200Y643241D02*
Y644443D01*
Y646035D02*
Y647709D01*
Y650399D02*
Y654204D01*
Y655215D02*
Y659019D01*
Y660942D02*
Y662143D01*
Y663605D02*
Y665305D01*
Y669271D02*
Y670473D01*
Y676040D02*
Y676586D01*
Y682808D02*
Y683354D01*
Y686841D02*
Y688043D01*
Y691052D02*
Y692346D01*
Y694390D02*
Y695591D01*
Y698164D02*
Y699366D01*
Y700958D02*
Y702525D01*
Y705253D02*
Y706926D01*
Y711890D02*
Y714304D01*
Y716906D02*
Y718107D01*
Y719700D02*
Y721373D01*
Y724975D02*
Y726176D01*
Y730371D02*
Y732785D01*
Y737009D02*
Y739034D01*
Y743326D02*
Y744527D01*
Y746120D02*
Y747793D01*
Y757182D02*
Y759207D01*
Y763499D02*
Y764700D01*
Y766067D02*
Y767173D01*
Y770261D02*
Y771897D01*
Y773130D02*
Y774331D01*
X439300Y643241D02*
Y644443D01*
Y645785D02*
Y647875D01*
Y650399D02*
Y654204D01*
Y655215D02*
Y659019D01*
Y660942D02*
Y662143D01*
Y663355D02*
Y665608D01*
Y669271D02*
Y670473D01*
Y676010D02*
Y676556D01*
Y682777D02*
Y683324D01*
Y686841D02*
Y688043D01*
Y690964D02*
Y692254D01*
Y694390D02*
Y695591D01*
Y698164D02*
Y699366D01*
Y700708D02*
Y702725D01*
Y705003D02*
Y707093D01*
Y711480D02*
Y714723D01*
Y716906D02*
Y718107D01*
Y719450D02*
Y721540D01*
Y724975D02*
Y726176D01*
Y729961D02*
Y733204D01*
Y736599D02*
Y739411D01*
Y743326D02*
Y744527D01*
Y745870D02*
Y747960D01*
Y756772D02*
Y759584D01*
Y763499D02*
Y764700D01*
Y765867D02*
Y767173D01*
Y769928D02*
Y772200D01*
Y773130D02*
Y774331D01*
X439400Y643241D02*
Y644443D01*
Y645546D02*
Y648042D01*
Y650399D02*
Y654204D01*
Y655215D02*
Y659019D01*
Y660942D02*
Y662143D01*
Y663116D02*
Y665748D01*
Y669271D02*
Y670473D01*
Y675980D02*
Y676526D01*
Y682747D02*
Y683294D01*
Y686841D02*
Y688043D01*
Y690875D02*
Y692162D01*
Y694390D02*
Y695591D01*
Y698164D02*
Y699366D01*
Y700469D02*
Y702917D01*
Y704764D02*
Y707260D01*
Y711320D02*
Y714723D01*
Y716906D02*
Y718107D01*
Y719210D02*
Y721706D01*
Y724975D02*
Y726176D01*
Y729801D02*
Y733204D01*
Y736439D02*
Y739571D01*
Y743326D02*
Y744527D01*
Y745631D02*
Y748126D01*
Y756612D02*
Y759744D01*
Y763499D02*
Y764700D01*
Y765674D02*
Y767173D01*
Y769795D02*
Y772340D01*
Y773130D02*
Y774331D01*
X439500Y643241D02*
Y644443D01*
Y645413D02*
Y648209D01*
Y650399D02*
Y654204D01*
Y655215D02*
Y659019D01*
Y660942D02*
Y662143D01*
Y662983D02*
Y665888D01*
Y669271D02*
Y670473D01*
Y675949D02*
Y676496D01*
Y682717D02*
Y683263D01*
Y686841D02*
Y688043D01*
Y690787D02*
Y692071D01*
Y694390D02*
Y695591D01*
Y698164D02*
Y699366D01*
Y700336D02*
Y703051D01*
Y704631D02*
Y707426D01*
Y711160D02*
Y714723D01*
Y716906D02*
Y718107D01*
Y719077D02*
Y721873D01*
Y724975D02*
Y726176D01*
Y729641D02*
Y733204D01*
Y736279D02*
Y739731D01*
Y743326D02*
Y744527D01*
Y745497D02*
Y748293D01*
Y756452D02*
Y759904D01*
Y763499D02*
Y764700D01*
Y765540D02*
Y767173D01*
Y769662D02*
Y772480D01*
Y773130D02*
Y774331D01*
X439600Y643241D02*
Y644443D01*
Y645279D02*
Y648273D01*
Y650399D02*
Y654204D01*
Y655215D02*
Y659019D01*
Y660942D02*
Y662143D01*
Y662850D02*
Y666028D01*
Y669271D02*
Y670473D01*
Y675919D02*
Y676465D01*
Y682687D02*
Y683233D01*
Y686841D02*
Y688043D01*
Y690698D02*
Y691979D01*
Y694390D02*
Y695591D01*
Y698164D02*
Y699366D01*
Y700202D02*
Y703184D01*
Y704497D02*
Y707500D01*
Y711000D02*
Y714723D01*
Y716906D02*
Y718107D01*
Y718944D02*
Y721937D01*
Y724975D02*
Y726176D01*
Y729481D02*
Y733204D01*
Y736119D02*
Y739891D01*
Y743326D02*
Y744527D01*
Y745364D02*
Y748357D01*
Y756292D02*
Y760064D01*
Y763499D02*
Y764700D01*
Y765407D02*
Y767173D01*
Y769528D02*
Y772620D01*
Y773130D02*
Y774331D01*
X439700Y643241D02*
Y644443D01*
Y645146D02*
Y648323D01*
Y650399D02*
Y654204D01*
Y655215D02*
Y659019D01*
Y660942D02*
Y662143D01*
Y662716D02*
Y666168D01*
Y669271D02*
Y670473D01*
Y675889D02*
Y676435D01*
Y682657D02*
Y683203D01*
Y686841D02*
Y688043D01*
Y690610D02*
Y691887D01*
Y694390D02*
Y695591D01*
Y698164D02*
Y699366D01*
Y700069D02*
Y703317D01*
Y704364D02*
Y707560D01*
Y710840D02*
Y714723D01*
Y716906D02*
Y718107D01*
Y718810D02*
Y721987D01*
Y724975D02*
Y726176D01*
Y729321D02*
Y733204D01*
Y735959D02*
Y740051D01*
Y743326D02*
Y744527D01*
Y745231D02*
Y748407D01*
Y756132D02*
Y760224D01*
Y763499D02*
Y764700D01*
Y765274D02*
Y767173D01*
Y769395D02*
Y772760D01*
Y773130D02*
Y774331D01*
X439800Y643241D02*
Y644443D01*
Y645027D02*
Y648373D01*
Y650399D02*
Y654204D01*
Y655215D02*
Y659019D01*
Y660942D02*
Y662143D01*
Y662604D02*
Y666308D01*
Y669271D02*
Y670473D01*
Y675859D02*
Y676405D01*
Y682626D02*
Y683173D01*
Y686841D02*
Y688043D01*
Y690522D02*
Y691796D01*
Y694390D02*
Y695591D01*
Y698164D02*
Y699366D01*
Y699950D02*
Y703422D01*
Y704245D02*
Y707620D01*
Y710680D02*
Y714723D01*
Y716906D02*
Y718107D01*
Y718691D02*
Y722037D01*
Y724975D02*
Y726176D01*
Y729161D02*
Y733204D01*
Y735799D02*
Y740211D01*
Y743326D02*
Y744527D01*
Y745112D02*
Y748457D01*
Y755972D02*
Y760384D01*
Y763499D02*
Y764700D01*
Y765161D02*
Y767173D01*
Y769262D02*
Y772900D01*
Y773130D02*
Y774331D01*
X439900Y643241D02*
Y644443D01*
Y644947D02*
Y648423D01*
Y650399D02*
Y654204D01*
Y655215D02*
Y659019D01*
Y660942D02*
Y662143D01*
Y662544D02*
Y666448D01*
Y669271D02*
Y670473D01*
Y675828D02*
Y676375D01*
Y682596D02*
Y683142D01*
Y686841D02*
Y688043D01*
Y690433D02*
Y691704D01*
Y694390D02*
Y695591D01*
Y698164D02*
Y699366D01*
Y699870D02*
Y703462D01*
Y704165D02*
Y707680D01*
Y710520D02*
Y712498D01*
Y713582D02*
Y714723D01*
Y716906D02*
Y718107D01*
Y718611D02*
Y722087D01*
Y724975D02*
Y726176D01*
Y729001D02*
Y730980D01*
Y732063D02*
Y733204D01*
Y735639D02*
Y737439D01*
Y738523D02*
Y740371D01*
Y743326D02*
Y744527D01*
Y745032D02*
Y748507D01*
Y755812D02*
Y757612D01*
Y758696D02*
Y760544D01*
Y763499D02*
Y764700D01*
Y765101D02*
Y767173D01*
Y769128D02*
Y770757D01*
Y771555D02*
Y773040D01*
Y773118D02*
Y774331D01*
X440000Y643241D02*
Y644443D01*
Y644867D02*
Y646359D01*
Y646741D02*
Y648473D01*
Y651310D02*
Y652512D01*
Y656126D02*
Y657327D01*
Y660942D02*
Y662143D01*
Y662484D02*
Y664059D01*
Y664543D02*
Y666498D01*
Y669271D02*
Y670473D01*
Y675798D02*
Y676344D01*
Y682566D02*
Y683112D01*
Y686841D02*
Y688043D01*
Y690345D02*
Y691612D01*
Y694390D02*
Y695591D01*
Y698164D02*
Y699366D01*
Y699790D02*
Y701281D01*
Y701664D02*
Y703502D01*
Y704085D02*
Y705576D01*
Y705959D02*
Y707740D01*
Y710462D02*
Y712097D01*
Y714053D02*
Y714723D01*
Y716906D02*
Y718107D01*
Y718531D02*
Y720023D01*
Y720405D02*
Y722137D01*
Y724975D02*
Y726176D01*
Y728943D02*
Y730578D01*
Y732534D02*
Y733204D01*
Y735581D02*
Y737076D01*
Y738934D02*
Y740429D01*
Y743326D02*
Y744527D01*
Y744952D02*
Y746443D01*
Y746826D02*
Y748557D01*
Y755754D02*
Y757249D01*
Y759107D02*
Y760602D01*
Y763499D02*
Y764700D01*
Y765041D02*
Y766486D01*
Y766919D02*
Y767173D01*
Y768995D02*
Y770411D01*
Y771905D02*
Y774331D01*
X440100Y643241D02*
Y644443D01*
Y644787D02*
Y645998D01*
Y647009D02*
Y648523D01*
Y651310D02*
Y652512D01*
Y656126D02*
Y657327D01*
Y660942D02*
Y662143D01*
Y662424D02*
Y663659D01*
Y664969D02*
Y666548D01*
Y669271D02*
Y670473D01*
Y675768D02*
Y676314D01*
Y682536D02*
Y683082D01*
Y686841D02*
Y688043D01*
Y690256D02*
Y691521D01*
Y694390D02*
Y695591D01*
Y698164D02*
Y699366D01*
Y699710D02*
Y700921D01*
Y701945D02*
Y703542D01*
Y704005D02*
Y705216D01*
Y706240D02*
Y707800D01*
Y710406D02*
Y711997D01*
Y714403D02*
Y714723D01*
Y716906D02*
Y718107D01*
Y718451D02*
Y719662D01*
Y720673D02*
Y722187D01*
Y724975D02*
Y726176D01*
Y728887D02*
Y730478D01*
Y732884D02*
Y733204D01*
Y735525D02*
Y736951D01*
Y739059D02*
Y740485D01*
Y743326D02*
Y744527D01*
Y744872D02*
Y746082D01*
Y747093D02*
Y748607D01*
Y755698D02*
Y757124D01*
Y759232D02*
Y760658D01*
Y763499D02*
Y764700D01*
Y764981D02*
Y766125D01*
Y768920D02*
Y770331D01*
Y772216D02*
Y774331D01*
X440200Y643241D02*
Y644443D01*
Y644707D02*
Y645798D01*
Y647109D02*
Y648573D01*
Y651310D02*
Y652512D01*
Y656126D02*
Y657327D01*
Y660942D02*
Y662143D01*
Y662364D02*
Y663259D01*
Y665069D02*
Y666598D01*
Y669271D02*
Y670473D01*
Y675738D02*
Y676284D01*
Y682505D02*
Y683052D01*
Y686841D02*
Y688043D01*
Y690168D02*
Y691429D01*
Y694390D02*
Y695591D01*
Y698164D02*
Y699366D01*
Y699630D02*
Y700721D01*
Y702145D02*
Y703582D01*
Y703925D02*
Y705016D01*
Y706440D02*
Y707835D01*
Y710351D02*
Y711897D01*
Y716906D02*
Y718107D01*
Y718371D02*
Y719462D01*
Y720773D02*
Y722237D01*
Y724975D02*
Y726176D01*
Y728832D02*
Y730378D01*
Y735469D02*
Y736826D01*
Y739184D02*
Y740540D01*
Y743326D02*
Y744527D01*
Y744792D02*
Y745882D01*
Y747193D02*
Y748657D01*
Y755642D02*
Y756999D01*
Y759357D02*
Y760713D01*
Y763499D02*
Y764700D01*
Y764921D02*
Y765925D01*
Y768870D02*
Y770251D01*
Y772356D02*
Y774331D01*
X440300Y643241D02*
Y644443D01*
Y644627D02*
Y645598D01*
Y647209D02*
Y648614D01*
Y651310D02*
Y652512D01*
Y656126D02*
Y657327D01*
Y660942D02*
Y662143D01*
Y662304D02*
Y663094D01*
Y665169D02*
Y666648D01*
Y669271D02*
Y670473D01*
Y675707D02*
Y676254D01*
Y682475D02*
Y683021D01*
Y686841D02*
Y688043D01*
Y690079D02*
Y691337D01*
Y694390D02*
Y695591D01*
Y698164D02*
Y699366D01*
Y699550D02*
Y700521D01*
Y702237D02*
Y703622D01*
Y703845D02*
Y704816D01*
Y706532D02*
Y707849D01*
Y710295D02*
Y711797D01*
Y716906D02*
Y718107D01*
Y718291D02*
Y719262D01*
Y720873D02*
Y722278D01*
Y724975D02*
Y726176D01*
Y728776D02*
Y730278D01*
Y735414D02*
Y736701D01*
Y739309D02*
Y740596D01*
Y743326D02*
Y744527D01*
Y744712D02*
Y745682D01*
Y747293D02*
Y748698D01*
Y755587D02*
Y756874D01*
Y759482D02*
Y760769D01*
Y763499D02*
Y764700D01*
Y764861D02*
Y765725D01*
Y768820D02*
Y770171D01*
Y772496D02*
Y774331D01*
X440400Y643241D02*
Y644444D01*
Y644547D02*
Y645451D01*
Y647294D02*
Y648631D01*
Y651310D02*
Y652512D01*
Y656126D02*
Y657327D01*
Y660942D02*
Y662145D01*
Y662244D02*
Y662961D01*
Y665269D02*
Y666698D01*
Y675677D02*
Y676223D01*
Y682445D02*
Y682991D01*
Y686841D02*
Y688043D01*
Y689991D02*
Y691246D01*
Y694390D02*
Y695591D01*
Y698164D02*
Y699367D01*
Y699470D02*
Y700357D01*
Y702304D02*
Y703662D01*
Y703765D02*
Y704652D01*
Y706599D02*
Y707864D01*
Y710240D02*
Y711697D01*
Y716906D02*
Y718109D01*
Y718211D02*
Y719115D01*
Y720958D02*
Y722295D01*
Y724975D02*
Y726176D01*
Y728721D02*
Y730178D01*
Y735358D02*
Y736576D01*
Y739434D02*
Y740651D01*
Y743326D02*
Y744529D01*
Y744632D02*
Y745536D01*
Y747379D02*
Y748715D01*
Y755531D02*
Y756749D01*
Y759607D02*
Y760824D01*
Y763499D02*
Y764702D01*
Y764801D02*
Y765562D01*
Y768770D02*
Y770091D01*
Y772636D02*
Y774331D01*
X440500Y643241D02*
Y645351D01*
Y647361D02*
Y648647D01*
Y651310D02*
Y652512D01*
Y656126D02*
Y657327D01*
Y660942D02*
Y662828D01*
Y665369D02*
Y666748D01*
Y675647D02*
Y676193D01*
Y682415D02*
Y682961D01*
Y686841D02*
Y688043D01*
Y689902D02*
Y691154D01*
Y694390D02*
Y695591D01*
Y698164D02*
Y700224D01*
Y702370D02*
Y704519D01*
Y706665D02*
Y707878D01*
Y710184D02*
Y711597D01*
Y716906D02*
Y719015D01*
Y721025D02*
Y722312D01*
Y724975D02*
Y726176D01*
Y728665D02*
Y730078D01*
Y735303D02*
Y736461D01*
Y739548D02*
Y740707D01*
Y743326D02*
Y745436D01*
Y747445D02*
Y748732D01*
Y755476D02*
Y756635D01*
Y759721D02*
Y760880D01*
Y763499D02*
Y765429D01*
Y768720D02*
Y770011D01*
Y772776D02*
Y774331D01*
X440600Y643241D02*
Y645251D01*
Y647427D02*
Y648664D01*
Y651310D02*
Y652512D01*
Y656126D02*
Y657327D01*
Y660942D02*
Y662694D01*
Y665469D02*
Y666798D01*
Y675617D02*
Y676163D01*
Y682384D02*
Y682931D01*
Y686841D02*
Y688043D01*
Y689814D02*
Y691062D01*
Y694390D02*
Y695591D01*
Y698164D02*
Y700091D01*
Y702437D02*
Y704386D01*
Y706732D02*
Y707892D01*
Y710128D02*
Y711497D01*
Y716906D02*
Y718915D01*
Y721092D02*
Y722328D01*
Y724975D02*
Y726176D01*
Y728610D02*
Y729978D01*
Y735247D02*
Y736419D01*
Y739591D02*
Y740762D01*
Y743326D02*
Y745336D01*
Y747512D02*
Y748748D01*
Y755420D02*
Y756592D01*
Y759764D02*
Y760936D01*
Y763499D02*
Y765295D01*
Y768670D02*
Y769931D01*
Y772916D02*
Y774331D01*
X440700Y643241D02*
Y645151D01*
Y647494D02*
Y648681D01*
Y651310D02*
Y652512D01*
Y656126D02*
Y657327D01*
Y660942D02*
Y662591D01*
Y665517D02*
Y666848D01*
Y675586D02*
Y676133D01*
Y682354D02*
Y682901D01*
Y686841D02*
Y688043D01*
Y689725D02*
Y690971D01*
Y694390D02*
Y695591D01*
Y698164D02*
Y699957D01*
Y702459D02*
Y704252D01*
Y706754D02*
Y707907D01*
Y710073D02*
Y711438D01*
Y716906D02*
Y718815D01*
Y721158D02*
Y722345D01*
Y724975D02*
Y726176D01*
Y728554D02*
Y729919D01*
Y735192D02*
Y736376D01*
Y739634D02*
Y740818D01*
Y743326D02*
Y745236D01*
Y747579D02*
Y748765D01*
Y755365D02*
Y756549D01*
Y759807D02*
Y760991D01*
Y763499D02*
Y765162D01*
Y768620D02*
Y769875D01*
Y773056D02*
Y774331D01*
X440800Y643241D02*
Y645051D01*
Y647536D02*
Y648697D01*
Y651310D02*
Y652512D01*
Y656126D02*
Y657327D01*
Y660942D02*
Y662491D01*
Y665550D02*
Y666898D01*
Y675556D02*
Y676103D01*
Y682324D02*
Y682870D01*
Y686841D02*
Y688043D01*
Y689637D02*
Y690879D01*
Y694390D02*
Y695591D01*
Y698164D02*
Y699855D01*
Y702459D02*
Y704150D01*
Y706754D02*
Y707921D01*
Y710017D02*
Y711388D01*
Y716906D02*
Y718715D01*
Y721201D02*
Y722362D01*
Y724975D02*
Y726176D01*
Y728498D02*
Y729869D01*
Y735136D02*
Y736333D01*
Y739677D02*
Y740874D01*
Y743326D02*
Y745136D01*
Y747621D02*
Y748782D01*
Y755309D02*
Y756506D01*
Y759850D02*
Y761047D01*
Y763499D02*
Y765070D01*
Y768570D02*
Y769825D01*
Y773130D02*
Y774331D01*
X440900Y643241D02*
Y644956D01*
Y647536D02*
Y648714D01*
Y651310D02*
Y652512D01*
Y656126D02*
Y657327D01*
Y660942D02*
Y662391D01*
Y665583D02*
Y666948D01*
Y675526D02*
Y676072D01*
Y682294D02*
Y682840D01*
Y686841D02*
Y688043D01*
Y689548D02*
Y690787D01*
Y694390D02*
Y695591D01*
Y698164D02*
Y699775D01*
Y702459D02*
Y704070D01*
Y706754D02*
Y707935D01*
Y709962D02*
Y711338D01*
Y716906D02*
Y718620D01*
Y721201D02*
Y722378D01*
Y724975D02*
Y726176D01*
Y728443D02*
Y729819D01*
Y735081D02*
Y736290D01*
Y739720D02*
Y740929D01*
Y743326D02*
Y745041D01*
Y747621D02*
Y748798D01*
Y755254D02*
Y756463D01*
Y759893D02*
Y761102D01*
Y763499D02*
Y765010D01*
Y768520D02*
Y769775D01*
Y773130D02*
Y774331D01*
X441000Y643241D02*
Y644876D01*
Y647536D02*
Y648731D01*
Y651310D02*
Y652512D01*
Y656126D02*
Y657327D01*
Y660942D02*
Y662291D01*
Y665617D02*
Y666967D01*
Y675496D02*
Y676042D01*
Y682264D02*
Y682810D01*
Y686841D02*
Y688043D01*
Y689460D02*
Y690696D01*
Y694390D02*
Y695591D01*
Y698164D02*
Y699695D01*
Y702459D02*
Y703990D01*
Y706754D02*
Y707949D01*
Y709906D02*
Y711288D01*
Y716906D02*
Y718540D01*
Y721201D02*
Y722395D01*
Y724975D02*
Y726176D01*
Y728387D02*
Y729769D01*
Y735025D02*
Y736247D01*
Y739763D02*
Y740985D01*
Y743326D02*
Y744961D01*
Y747621D02*
Y748815D01*
Y755198D02*
Y756420D01*
Y759936D02*
Y761158D01*
Y763499D02*
Y764950D01*
Y768470D02*
Y769725D01*
Y773130D02*
Y774331D01*
X441100Y643241D02*
Y644796D01*
Y647536D02*
Y648738D01*
Y651310D02*
Y652512D01*
Y656126D02*
Y657327D01*
Y660942D02*
Y662191D01*
Y665650D02*
Y666976D01*
Y675466D02*
Y676012D01*
Y682233D02*
Y682780D01*
Y686841D02*
Y688043D01*
Y689372D02*
Y690604D01*
Y694390D02*
Y695591D01*
Y698164D02*
Y699615D01*
Y702459D02*
Y703910D01*
Y706754D02*
Y707955D01*
Y709867D02*
Y711238D01*
Y716906D02*
Y718460D01*
Y721201D02*
Y722402D01*
Y724975D02*
Y726176D01*
Y728348D02*
Y729719D01*
Y734987D02*
Y736204D01*
Y739805D02*
Y741023D01*
Y743326D02*
Y744881D01*
Y747621D02*
Y748822D01*
Y755160D02*
Y756377D01*
Y759978D02*
Y761196D01*
Y763499D02*
Y764890D01*
Y768434D02*
Y769675D01*
Y773130D02*
Y774331D01*
X441200Y643241D02*
Y644716D01*
Y647536D02*
Y648738D01*
Y651310D02*
Y652512D01*
Y656126D02*
Y657327D01*
Y660942D02*
Y662143D01*
Y665683D02*
Y666985D01*
Y675435D02*
Y675982D01*
Y682203D02*
Y682749D01*
Y686841D02*
Y688043D01*
Y689283D02*
Y690512D01*
Y694390D02*
Y695591D01*
Y698164D02*
Y699535D01*
Y702459D02*
Y703830D01*
Y706754D02*
Y707955D01*
Y709849D02*
Y711188D01*
Y716906D02*
Y718380D01*
Y721201D02*
Y722402D01*
Y724975D02*
Y726176D01*
Y728330D02*
Y729669D01*
Y734970D02*
Y736161D01*
Y739848D02*
Y741040D01*
Y743326D02*
Y744801D01*
Y747621D02*
Y748822D01*
Y755143D02*
Y756335D01*
Y760021D02*
Y761213D01*
Y763499D02*
Y764830D01*
Y768416D02*
Y769625D01*
Y773130D02*
Y774331D01*
X441300Y643241D02*
Y644636D01*
Y647536D02*
Y648738D01*
Y651310D02*
Y652512D01*
Y656126D02*
Y657327D01*
Y660942D02*
Y662143D01*
Y665717D02*
Y666994D01*
Y675405D02*
Y675951D01*
Y682173D02*
Y682719D01*
Y686841D02*
Y688043D01*
Y689195D02*
Y690421D01*
Y694390D02*
Y695591D01*
Y698164D02*
Y699455D01*
Y702459D02*
Y703750D01*
Y706754D02*
Y707955D01*
Y709831D02*
Y711138D01*
Y716906D02*
Y718300D01*
Y721201D02*
Y722402D01*
Y724975D02*
Y726176D01*
Y728312D02*
Y729619D01*
Y734953D02*
Y736119D01*
Y739891D02*
Y741056D01*
Y743326D02*
Y744721D01*
Y747621D02*
Y748822D01*
Y755127D02*
Y756292D01*
Y760064D02*
Y761229D01*
Y763499D02*
Y764770D01*
Y768398D02*
Y769575D01*
Y773130D02*
Y774331D01*
X441400Y643241D02*
Y644556D01*
Y647536D02*
Y648738D01*
Y651310D02*
Y652512D01*
Y656126D02*
Y657327D01*
Y660942D02*
Y662143D01*
Y665750D02*
Y667003D01*
Y675375D02*
Y675921D01*
Y682143D02*
Y682689D01*
Y686841D02*
Y688043D01*
Y689106D02*
Y690329D01*
Y694390D02*
Y695591D01*
Y698164D02*
Y699375D01*
Y702459D02*
Y703670D01*
Y706754D02*
Y707955D01*
Y709813D02*
Y711088D01*
Y716906D02*
Y718220D01*
Y721201D02*
Y722402D01*
Y724975D02*
Y726176D01*
Y728294D02*
Y729569D01*
Y734937D02*
Y736076D01*
Y739934D02*
Y741073D01*
Y743326D02*
Y744641D01*
Y747621D02*
Y748822D01*
Y755110D02*
Y756249D01*
Y760107D02*
Y761246D01*
Y763499D02*
Y764710D01*
Y768380D02*
Y769525D01*
Y773130D02*
Y774331D01*
X441500Y643241D02*
Y644476D01*
Y647536D02*
Y648738D01*
Y651310D02*
Y652512D01*
Y656126D02*
Y657327D01*
Y660942D02*
Y662143D01*
Y665766D02*
Y667012D01*
Y675345D02*
Y675891D01*
Y682112D02*
Y682659D01*
Y686841D02*
Y688043D01*
Y689018D02*
Y690237D01*
Y694390D02*
Y695591D01*
Y698164D02*
Y699366D01*
Y702459D02*
Y703661D01*
Y706754D02*
Y707955D01*
Y709794D02*
Y711070D01*
Y716906D02*
Y718140D01*
Y721201D02*
Y722402D01*
Y724975D02*
Y726176D01*
Y728276D02*
Y729551D01*
Y734920D02*
Y736059D01*
Y739950D02*
Y741090D01*
Y743326D02*
Y744561D01*
Y747621D02*
Y748822D01*
Y755093D02*
Y756233D01*
Y760123D02*
Y761263D01*
Y763499D02*
Y764700D01*
Y768362D02*
Y769507D01*
Y773130D02*
Y774331D01*
X441600Y643241D02*
Y644443D01*
Y647536D02*
Y648738D01*
Y651310D02*
Y652512D01*
Y656126D02*
Y657327D01*
Y660942D02*
Y662143D01*
Y665779D02*
Y667021D01*
Y675314D02*
Y675861D01*
Y682082D02*
Y682628D01*
Y686841D02*
Y688043D01*
Y688929D02*
Y690146D01*
Y694390D02*
Y695591D01*
Y698164D02*
Y699366D01*
Y702459D02*
Y703661D01*
Y706754D02*
Y707955D01*
Y709776D02*
Y711057D01*
Y716906D02*
Y718107D01*
Y721201D02*
Y722402D01*
Y724975D02*
Y726176D01*
Y728257D02*
Y729538D01*
Y734903D02*
Y736048D01*
Y739961D02*
Y741106D01*
Y743326D02*
Y744527D01*
Y747621D02*
Y748822D01*
Y755077D02*
Y756221D01*
Y760134D02*
Y761279D01*
Y763499D02*
Y764700D01*
Y768343D02*
Y769494D01*
Y773130D02*
Y774331D01*
X441700Y643241D02*
Y644443D01*
Y647536D02*
Y648738D01*
Y651310D02*
Y652512D01*
Y656126D02*
Y657327D01*
Y660942D02*
Y662143D01*
Y665791D02*
Y667030D01*
Y675284D02*
Y675830D01*
Y682052D02*
Y682598D01*
Y686841D02*
Y688043D01*
Y688841D02*
Y690054D01*
Y694390D02*
Y695591D01*
Y698164D02*
Y699366D01*
Y702459D02*
Y703661D01*
Y706754D02*
Y707955D01*
Y709758D02*
Y711045D01*
Y716906D02*
Y718107D01*
Y721201D02*
Y722402D01*
Y724975D02*
Y726176D01*
Y728239D02*
Y729526D01*
Y734887D02*
Y736037D01*
Y739972D02*
Y741123D01*
Y743326D02*
Y744527D01*
Y747621D02*
Y748822D01*
Y755060D02*
Y756210D01*
Y760145D02*
Y761296D01*
Y763499D02*
Y764700D01*
Y768325D02*
Y769482D01*
Y773130D02*
Y774331D01*
X441800Y643241D02*
Y644443D01*
Y647536D02*
Y648738D01*
Y651310D02*
Y652512D01*
Y656126D02*
Y657327D01*
Y660942D02*
Y662143D01*
Y665804D02*
Y667039D01*
Y675254D02*
Y675800D01*
Y682022D02*
Y682568D01*
Y686841D02*
Y688043D01*
Y688752D02*
Y689962D01*
Y694390D02*
Y695591D01*
Y698164D02*
Y699366D01*
Y702459D02*
Y703661D01*
Y706754D02*
Y707955D01*
Y709740D02*
Y711032D01*
Y716906D02*
Y718107D01*
Y721201D02*
Y722402D01*
Y724975D02*
Y726176D01*
Y728221D02*
Y729513D01*
Y734870D02*
Y736026D01*
Y739984D02*
Y741140D01*
Y743326D02*
Y744527D01*
Y747621D02*
Y748822D01*
Y755043D02*
Y756199D01*
Y760157D02*
Y761313D01*
Y763499D02*
Y764700D01*
Y768307D02*
Y769469D01*
Y773130D02*
Y774331D01*
X441900Y643241D02*
Y644443D01*
Y647536D02*
Y648738D01*
Y651310D02*
Y652512D01*
Y656126D02*
Y657327D01*
Y660942D02*
Y662143D01*
Y665816D02*
Y667048D01*
Y675224D02*
Y675770D01*
Y681991D02*
Y682538D01*
Y686841D02*
Y688043D01*
Y688664D02*
Y689871D01*
Y694390D02*
Y695591D01*
Y698164D02*
Y699366D01*
Y702459D02*
Y703661D01*
Y706754D02*
Y707955D01*
Y709722D02*
Y711020D01*
Y716906D02*
Y718107D01*
Y721201D02*
Y722402D01*
Y724975D02*
Y726176D01*
Y728203D02*
Y729501D01*
Y734853D02*
Y736015D01*
Y739995D02*
Y741156D01*
Y743326D02*
Y744527D01*
Y747621D02*
Y748822D01*
Y755027D02*
Y756188D01*
Y760168D02*
Y761329D01*
Y763499D02*
Y764700D01*
Y768289D02*
Y769457D01*
Y773130D02*
Y774331D01*
X442000Y643241D02*
Y644443D01*
Y647536D02*
Y648738D01*
Y651310D02*
Y652512D01*
Y656126D02*
Y657327D01*
Y660942D02*
Y662143D01*
Y665829D02*
Y667058D01*
Y675193D02*
Y675740D01*
Y681961D02*
Y682507D01*
Y686841D02*
Y688043D01*
Y688575D02*
Y689779D01*
Y694390D02*
Y695591D01*
Y698164D02*
Y699366D01*
Y702459D02*
Y703661D01*
Y706754D02*
Y707955D01*
Y709704D02*
Y711007D01*
Y716906D02*
Y718107D01*
Y721201D02*
Y722402D01*
Y724975D02*
Y726176D01*
Y728185D02*
Y729488D01*
Y734837D02*
Y736004D01*
Y740006D02*
Y741173D01*
Y743326D02*
Y744527D01*
Y747621D02*
Y748822D01*
Y755010D02*
Y756177D01*
Y760179D02*
Y761346D01*
Y763499D02*
Y764700D01*
Y768271D02*
Y769444D01*
Y773130D02*
Y774331D01*
X442100Y643241D02*
Y644443D01*
Y647536D02*
Y648738D01*
Y651310D02*
Y652512D01*
Y656126D02*
Y657327D01*
Y660942D02*
Y662143D01*
Y665841D02*
Y667067D01*
Y675163D02*
Y675710D01*
Y681931D02*
Y682477D01*
Y686841D02*
Y688043D01*
Y688487D02*
Y689687D01*
Y694390D02*
Y695591D01*
Y698164D02*
Y699366D01*
Y702459D02*
Y703661D01*
Y706754D02*
Y707955D01*
Y709685D02*
Y710995D01*
Y716906D02*
Y718107D01*
Y721201D02*
Y722402D01*
Y724975D02*
Y726176D01*
Y728167D02*
Y729476D01*
Y734820D02*
Y735993D01*
Y740017D02*
Y741190D01*
Y743326D02*
Y744527D01*
Y747621D02*
Y748822D01*
Y754993D02*
Y756166D01*
Y760190D02*
Y761363D01*
Y763499D02*
Y764700D01*
Y768252D02*
Y769432D01*
Y773130D02*
Y774331D01*
X442200Y643241D02*
Y644443D01*
Y647536D02*
Y648738D01*
Y651310D02*
Y652512D01*
Y656126D02*
Y657327D01*
Y660942D02*
Y662143D01*
Y665854D02*
Y667076D01*
Y675133D02*
Y675679D01*
Y681901D02*
Y682447D01*
Y686841D02*
Y688043D01*
Y688398D02*
Y689605D01*
Y694390D02*
Y695591D01*
Y698164D02*
Y699366D01*
Y702459D02*
Y703661D01*
Y706754D02*
Y707955D01*
Y709667D02*
Y710982D01*
Y716906D02*
Y718107D01*
Y721201D02*
Y722402D01*
Y724975D02*
Y726176D01*
Y728148D02*
Y729463D01*
Y734803D02*
Y735982D01*
Y740028D02*
Y741206D01*
Y743326D02*
Y744527D01*
Y747621D02*
Y748822D01*
Y754977D02*
Y756155D01*
Y760201D02*
Y761379D01*
Y763499D02*
Y764700D01*
Y768234D02*
Y769419D01*
Y773130D02*
Y774331D01*
X442300Y643241D02*
Y644443D01*
Y647536D02*
Y648738D01*
Y651310D02*
Y652512D01*
Y656126D02*
Y657327D01*
Y660942D02*
Y662143D01*
Y665866D02*
Y667085D01*
Y675103D02*
Y675649D01*
Y681871D02*
Y682417D01*
Y686841D02*
Y688043D01*
Y688310D02*
Y689670D01*
Y694390D02*
Y695591D01*
Y698164D02*
Y699366D01*
Y702459D02*
Y703661D01*
Y706754D02*
Y707955D01*
Y709649D02*
Y710970D01*
Y716906D02*
Y718107D01*
Y721201D02*
Y722402D01*
Y724975D02*
Y726176D01*
Y728130D02*
Y729451D01*
Y734787D02*
Y735971D01*
Y740039D02*
Y741223D01*
Y743326D02*
Y744527D01*
Y747621D02*
Y748822D01*
Y754960D02*
Y756144D01*
Y760212D02*
Y761396D01*
Y763499D02*
Y764700D01*
Y768216D02*
Y769407D01*
Y773130D02*
Y774331D01*
X442400Y643241D02*
Y644443D01*
Y647536D02*
Y648738D01*
Y651310D02*
Y652512D01*
Y656126D02*
Y657327D01*
Y660942D02*
Y662143D01*
Y665879D02*
Y667078D01*
Y675073D02*
Y675619D01*
Y681840D02*
Y682387D01*
Y686841D02*
Y688043D01*
Y688222D02*
Y689763D01*
Y694390D02*
Y695591D01*
Y698164D02*
Y699366D01*
Y702459D02*
Y703661D01*
Y706754D02*
Y707955D01*
Y709631D02*
Y710957D01*
Y716906D02*
Y718107D01*
Y721201D02*
Y722402D01*
Y724975D02*
Y726176D01*
Y728112D02*
Y729438D01*
Y734770D02*
Y735959D01*
Y740050D02*
Y741240D01*
Y743326D02*
Y744527D01*
Y747621D02*
Y748822D01*
Y754943D02*
Y756133D01*
Y760223D02*
Y761413D01*
Y763499D02*
Y764700D01*
Y768198D02*
Y769394D01*
Y773130D02*
Y774331D01*
X442500Y643241D02*
Y644443D01*
Y647536D02*
Y648738D01*
Y651310D02*
Y652512D01*
Y656126D02*
Y657327D01*
Y660942D02*
Y662143D01*
Y665884D02*
Y667061D01*
Y675042D02*
Y675589D01*
Y681810D02*
Y682356D01*
Y686841D02*
Y688043D01*
Y688188D02*
Y689856D01*
Y694390D02*
Y695591D01*
Y698164D02*
Y699366D01*
Y702459D02*
Y703661D01*
Y706754D02*
Y707955D01*
Y709623D02*
Y710952D01*
Y716906D02*
Y718107D01*
Y721201D02*
Y722402D01*
Y724975D02*
Y726176D01*
Y728105D02*
Y729433D01*
Y734753D02*
Y735948D01*
Y740061D02*
Y741256D01*
Y743326D02*
Y744527D01*
Y747621D02*
Y748822D01*
Y754927D02*
Y756121D01*
Y760234D02*
Y761429D01*
Y763499D02*
Y764700D01*
Y768187D02*
Y769389D01*
Y773130D02*
Y774331D01*
X442600Y643241D02*
Y644443D01*
Y647536D02*
Y648738D01*
Y651310D02*
Y652512D01*
Y656126D02*
Y657327D01*
Y660942D02*
Y662143D01*
Y665873D02*
Y667045D01*
Y675012D02*
Y675558D01*
Y681780D02*
Y682326D01*
Y686841D02*
Y688043D01*
Y688281D02*
Y689949D01*
Y694390D02*
Y695591D01*
Y698164D02*
Y699366D01*
Y702459D02*
Y703661D01*
Y706754D02*
Y707955D01*
Y709642D02*
Y710965D01*
Y716906D02*
Y718107D01*
Y721201D02*
Y722402D01*
Y724975D02*
Y726176D01*
Y728123D02*
Y729446D01*
Y734737D02*
Y735938D01*
Y740072D02*
Y741273D01*
Y743326D02*
Y744527D01*
Y747621D02*
Y748822D01*
Y754910D02*
Y756111D01*
Y760245D02*
Y761446D01*
Y763499D02*
Y764700D01*
Y768196D02*
Y769402D01*
Y773130D02*
Y774331D01*
X442700Y643241D02*
Y644443D01*
Y647536D02*
Y648738D01*
Y651310D02*
Y652512D01*
Y656126D02*
Y657327D01*
Y660942D02*
Y662143D01*
Y665862D02*
Y667028D01*
Y674982D02*
Y675528D01*
Y681750D02*
Y682296D01*
Y686841D02*
Y688043D01*
Y688374D02*
Y690042D01*
Y694390D02*
Y695591D01*
Y698164D02*
Y699366D01*
Y702459D02*
Y703661D01*
Y706754D02*
Y707955D01*
Y709660D02*
Y710977D01*
Y716906D02*
Y718107D01*
Y721201D02*
Y722402D01*
Y724975D02*
Y726176D01*
Y728141D02*
Y729458D01*
Y734755D02*
Y735950D01*
Y740060D02*
Y741255D01*
Y743326D02*
Y744527D01*
Y747621D02*
Y748822D01*
Y754928D02*
Y756123D01*
Y760233D02*
Y761428D01*
Y763499D02*
Y764700D01*
Y768205D02*
Y769414D01*
Y773130D02*
Y774331D01*
X442800Y643241D02*
Y644443D01*
Y647536D02*
Y648738D01*
Y651310D02*
Y652512D01*
Y656126D02*
Y657327D01*
Y660942D02*
Y662143D01*
Y665851D02*
Y667011D01*
Y674952D02*
Y675498D01*
Y681719D02*
Y682266D01*
Y686841D02*
Y688043D01*
Y688466D02*
Y690136D01*
Y694390D02*
Y695591D01*
Y698164D02*
Y699366D01*
Y702459D02*
Y703661D01*
Y706754D02*
Y707955D01*
Y709678D02*
Y710990D01*
Y716906D02*
Y718107D01*
Y721201D02*
Y722402D01*
Y724975D02*
Y726176D01*
Y728159D02*
Y729471D01*
Y734773D02*
Y735962D01*
Y740048D02*
Y741237D01*
Y743326D02*
Y744527D01*
Y747621D02*
Y748822D01*
Y754946D02*
Y756135D01*
Y760221D02*
Y761410D01*
Y763499D02*
Y764700D01*
Y768215D02*
Y769427D01*
Y773130D02*
Y774331D01*
X442900Y643241D02*
Y644443D01*
Y647536D02*
Y648738D01*
Y651310D02*
Y652512D01*
Y656126D02*
Y657327D01*
Y660942D02*
Y662143D01*
Y665840D02*
Y666995D01*
Y674921D02*
Y675468D01*
Y681689D02*
Y682235D01*
Y686841D02*
Y688043D01*
Y688559D02*
Y690229D01*
Y694390D02*
Y695591D01*
Y698164D02*
Y699366D01*
Y702459D02*
Y703661D01*
Y706754D02*
Y707955D01*
Y709696D02*
Y711002D01*
Y716906D02*
Y718107D01*
Y721201D02*
Y722402D01*
Y724975D02*
Y726176D01*
Y728177D02*
Y729483D01*
Y734791D02*
Y735975D01*
Y740035D02*
Y741218D01*
Y743326D02*
Y744527D01*
Y747621D02*
Y748822D01*
Y754964D02*
Y756148D01*
Y760208D02*
Y761391D01*
Y763499D02*
Y764700D01*
Y768224D02*
Y769439D01*
Y773130D02*
Y774331D01*
X443000Y643241D02*
Y644443D01*
Y647536D02*
Y648738D01*
Y651310D02*
Y652512D01*
Y656126D02*
Y657327D01*
Y660942D02*
Y662143D01*
Y665829D02*
Y666978D01*
Y674891D02*
Y675437D01*
Y681659D02*
Y682205D01*
Y686841D02*
Y688043D01*
Y688651D02*
Y690322D01*
Y694390D02*
Y695591D01*
Y698164D02*
Y699366D01*
Y702459D02*
Y703661D01*
Y706754D02*
Y707955D01*
Y709714D02*
Y711015D01*
Y716906D02*
Y718107D01*
Y721201D02*
Y722402D01*
Y724975D02*
Y726176D01*
Y728196D02*
Y729496D01*
Y734809D02*
Y735987D01*
Y740023D02*
Y741200D01*
Y743326D02*
Y744527D01*
Y747621D02*
Y748822D01*
Y754983D02*
Y756160D01*
Y760196D02*
Y761373D01*
Y763499D02*
Y764700D01*
Y768233D02*
Y769452D01*
Y773130D02*
Y774331D01*
X443100Y643241D02*
Y644443D01*
Y647536D02*
Y648738D01*
Y651310D02*
Y652512D01*
Y656126D02*
Y657327D01*
Y660942D02*
Y662143D01*
Y665818D02*
Y666961D01*
Y674861D02*
Y675407D01*
Y681629D02*
Y682175D01*
Y686841D02*
Y688043D01*
Y688744D02*
Y690415D01*
Y694390D02*
Y695591D01*
Y698164D02*
Y699366D01*
Y702459D02*
Y703661D01*
Y706754D02*
Y707955D01*
Y709733D02*
Y711027D01*
Y716906D02*
Y718107D01*
Y721201D02*
Y722402D01*
Y724975D02*
Y726176D01*
Y728214D02*
Y729508D01*
Y734828D02*
Y736000D01*
Y740010D02*
Y741182D01*
Y743326D02*
Y744527D01*
Y747621D02*
Y748822D01*
Y755001D02*
Y756173D01*
Y760183D02*
Y761355D01*
Y763499D02*
Y764700D01*
Y768242D02*
Y769464D01*
Y773130D02*
Y774331D01*
X443200Y643241D02*
Y644443D01*
Y647536D02*
Y648738D01*
Y651310D02*
Y652512D01*
Y656126D02*
Y657327D01*
Y660942D02*
Y662143D01*
Y665806D02*
Y666945D01*
Y674831D02*
Y675377D01*
Y681598D02*
Y682145D01*
Y686841D02*
Y688043D01*
Y688837D02*
Y690508D01*
Y694390D02*
Y695591D01*
Y698164D02*
Y699366D01*
Y702459D02*
Y703661D01*
Y706754D02*
Y707955D01*
Y709751D02*
Y711040D01*
Y716906D02*
Y718107D01*
Y721201D02*
Y722402D01*
Y724975D02*
Y726176D01*
Y728232D02*
Y729521D01*
Y734846D02*
Y736012D01*
Y739998D02*
Y741164D01*
Y743326D02*
Y744527D01*
Y747621D02*
Y748822D01*
Y755019D02*
Y756185D01*
Y760171D02*
Y761337D01*
Y763499D02*
Y764700D01*
Y768251D02*
Y769477D01*
Y773130D02*
Y774331D01*
X443300Y643241D02*
Y644443D01*
Y647536D02*
Y648738D01*
Y651310D02*
Y652512D01*
Y656126D02*
Y657327D01*
Y660942D02*
Y662143D01*
Y665795D02*
Y666928D01*
Y674800D02*
Y675347D01*
Y681568D02*
Y682114D01*
Y686841D02*
Y688043D01*
Y688929D02*
Y690601D01*
Y694390D02*
Y695591D01*
Y698164D02*
Y699366D01*
Y702459D02*
Y703661D01*
Y706754D02*
Y707955D01*
Y709769D02*
Y711052D01*
Y716906D02*
Y718107D01*
Y721201D02*
Y722402D01*
Y724975D02*
Y726176D01*
Y728250D02*
Y729533D01*
Y734864D02*
Y736025D01*
Y739985D02*
Y741146D01*
Y743326D02*
Y744527D01*
Y747621D02*
Y748822D01*
Y755037D02*
Y756198D01*
Y760158D02*
Y761319D01*
Y763499D02*
Y764700D01*
Y768260D02*
Y769489D01*
Y773130D02*
Y774331D01*
X443400Y643241D02*
Y644443D01*
Y647536D02*
Y648738D01*
Y651310D02*
Y652512D01*
Y656126D02*
Y657327D01*
Y660942D02*
Y662143D01*
Y665784D02*
Y666911D01*
Y674770D02*
Y675316D01*
Y681538D02*
Y682084D01*
Y686841D02*
Y688043D01*
Y689022D02*
Y690694D01*
Y694390D02*
Y695591D01*
Y698164D02*
Y699366D01*
Y702459D02*
Y703661D01*
Y706754D02*
Y707955D01*
Y709787D02*
Y711065D01*
Y716906D02*
Y718107D01*
Y721201D02*
Y722402D01*
Y724975D02*
Y726176D01*
Y728268D02*
Y729546D01*
Y734882D02*
Y736037D01*
Y739973D02*
Y741127D01*
Y743326D02*
Y744527D01*
Y747621D02*
Y748822D01*
Y755055D02*
Y756210D01*
Y760146D02*
Y761301D01*
Y763499D02*
Y764700D01*
Y768269D02*
Y769502D01*
Y773130D02*
Y774331D01*
X443500Y643241D02*
Y644443D01*
Y647536D02*
Y648738D01*
Y651310D02*
Y652512D01*
Y656126D02*
Y657327D01*
Y660942D02*
Y662143D01*
Y665773D02*
Y666895D01*
Y674740D02*
Y675286D01*
Y681508D02*
Y682054D01*
Y686841D02*
Y688043D01*
Y689114D02*
Y690787D01*
Y694390D02*
Y695591D01*
Y698164D02*
Y699366D01*
Y702459D02*
Y703661D01*
Y706754D02*
Y707955D01*
Y709805D02*
Y711077D01*
Y716906D02*
Y718107D01*
Y721201D02*
Y722402D01*
Y724975D02*
Y726176D01*
Y728286D02*
Y729558D01*
Y734900D02*
Y736050D01*
Y739960D02*
Y741109D01*
Y743326D02*
Y744527D01*
Y747621D02*
Y748822D01*
Y755074D02*
Y756223D01*
Y760133D02*
Y761282D01*
Y763499D02*
Y764700D01*
Y768278D02*
Y769514D01*
Y773130D02*
Y774331D01*
X443600Y643241D02*
Y644443D01*
Y647536D02*
Y648738D01*
Y651310D02*
Y652512D01*
Y656126D02*
Y657327D01*
Y660942D02*
Y662143D01*
Y665762D02*
Y666878D01*
Y674710D02*
Y675256D01*
Y681477D02*
Y682024D01*
Y686841D02*
Y688043D01*
Y689207D02*
Y690880D01*
Y694390D02*
Y695591D01*
Y698164D02*
Y699366D01*
Y702459D02*
Y703661D01*
Y706754D02*
Y707955D01*
Y709823D02*
Y711122D01*
Y716906D02*
Y718107D01*
Y721201D02*
Y722402D01*
Y724975D02*
Y726176D01*
Y728305D02*
Y729603D01*
Y734919D02*
Y736062D01*
Y739948D02*
Y741091D01*
Y743326D02*
Y744527D01*
Y747621D02*
Y748822D01*
Y755092D02*
Y756235D01*
Y760121D02*
Y761264D01*
Y763499D02*
Y764700D01*
Y768287D02*
Y769543D01*
Y773130D02*
Y774331D01*
X443700Y643241D02*
Y644443D01*
Y647536D02*
Y648738D01*
Y651310D02*
Y652512D01*
Y656126D02*
Y657327D01*
Y660942D02*
Y662143D01*
Y665736D02*
Y666861D01*
Y674680D02*
Y675226D01*
Y681447D02*
Y681994D01*
Y686841D02*
Y688043D01*
Y689299D02*
Y690973D01*
Y694390D02*
Y695591D01*
Y698164D02*
Y699366D01*
Y702459D02*
Y703661D01*
Y706754D02*
Y707955D01*
Y709842D02*
Y711179D01*
Y716906D02*
Y718107D01*
Y721201D02*
Y722402D01*
Y724975D02*
Y726176D01*
Y728323D02*
Y729660D01*
Y734937D02*
Y736088D01*
Y739921D02*
Y741073D01*
Y743326D02*
Y744527D01*
Y747621D02*
Y748822D01*
Y755110D02*
Y756261D01*
Y760094D02*
Y761246D01*
Y763499D02*
Y764700D01*
Y768296D02*
Y769576D01*
Y773092D02*
Y774331D01*
X443800Y643241D02*
Y644443D01*
Y647536D02*
Y648738D01*
Y651310D02*
Y652512D01*
Y656126D02*
Y657327D01*
Y660942D02*
Y662143D01*
Y665694D02*
Y666845D01*
Y674649D02*
Y675196D01*
Y681417D02*
Y681963D01*
Y686841D02*
Y688043D01*
Y689392D02*
Y691067D01*
Y694390D02*
Y695591D01*
Y698164D02*
Y699366D01*
Y702459D02*
Y703661D01*
Y706754D02*
Y707955D01*
Y709860D02*
Y711236D01*
Y716906D02*
Y718107D01*
Y721201D02*
Y722402D01*
Y724975D02*
Y726176D01*
Y728341D02*
Y729718D01*
Y734955D02*
Y736131D01*
Y739878D02*
Y741055D01*
Y743326D02*
Y744527D01*
Y747621D02*
Y748822D01*
Y755128D02*
Y756304D01*
Y760052D02*
Y761228D01*
Y763499D02*
Y764700D01*
Y768305D02*
Y769609D01*
Y772992D02*
Y774331D01*
X443900Y643241D02*
Y644443D01*
Y647536D02*
Y648738D01*
Y651310D02*
Y652512D01*
Y656126D02*
Y657327D01*
Y660942D02*
Y662143D01*
Y665651D02*
Y666824D01*
Y674619D02*
Y675165D01*
Y681387D02*
Y681933D01*
Y686841D02*
Y688043D01*
Y689485D02*
Y691160D01*
Y694390D02*
Y695591D01*
Y698164D02*
Y699366D01*
Y702459D02*
Y703661D01*
Y706754D02*
Y707955D01*
Y709884D02*
Y711294D01*
Y716906D02*
Y718107D01*
Y721201D02*
Y722402D01*
Y724975D02*
Y726176D01*
Y728365D02*
Y729775D01*
Y734973D02*
Y736174D01*
Y739836D02*
Y741037D01*
Y743326D02*
Y744527D01*
Y747621D02*
Y748822D01*
Y755146D02*
Y756347D01*
Y760009D02*
Y761210D01*
Y763499D02*
Y764700D01*
Y768322D02*
Y769643D01*
Y772892D02*
Y774331D01*
X444000Y643241D02*
Y644443D01*
Y647536D02*
Y648738D01*
Y651310D02*
Y652535D01*
Y656126D02*
Y657350D01*
Y660942D02*
Y662143D01*
Y665608D02*
Y666780D01*
Y674589D02*
Y675135D01*
Y681357D02*
Y681903D01*
Y686841D02*
Y688043D01*
Y689577D02*
Y691253D01*
Y694390D02*
Y695591D01*
Y698164D02*
Y699366D01*
Y702459D02*
Y703661D01*
Y706754D02*
Y707955D01*
Y709939D02*
Y711351D01*
Y716906D02*
Y718107D01*
Y721201D02*
Y722402D01*
Y724975D02*
Y726176D01*
Y728420D02*
Y729832D01*
Y734991D02*
Y736217D01*
Y739793D02*
Y741018D01*
Y743326D02*
Y744527D01*
Y747621D02*
Y748822D01*
Y755164D02*
Y756390D01*
Y759966D02*
Y761191D01*
Y763499D02*
Y764700D01*
Y768385D02*
Y769676D01*
Y772792D02*
Y774331D01*
X444100Y643241D02*
Y644443D01*
Y647536D02*
Y648738D01*
Y651321D02*
Y652560D01*
Y656136D02*
Y657375D01*
Y660942D02*
Y662143D01*
Y665565D02*
Y666736D01*
Y674559D02*
Y675105D01*
Y681326D02*
Y681873D01*
Y686841D02*
Y688043D01*
Y689670D02*
Y691346D01*
Y694390D02*
Y695591D01*
Y698164D02*
Y699366D01*
Y702459D02*
Y703661D01*
Y706754D02*
Y707955D01*
Y709995D02*
Y711408D01*
Y716906D02*
Y718107D01*
Y721201D02*
Y722402D01*
Y724975D02*
Y726176D01*
Y728476D02*
Y729889D01*
Y735041D02*
Y736260D01*
Y739750D02*
Y740968D01*
Y743326D02*
Y744527D01*
Y747621D02*
Y748822D01*
Y755214D02*
Y756433D01*
Y759923D02*
Y761141D01*
Y763499D02*
Y764700D01*
Y768447D02*
Y769709D01*
Y772692D02*
Y774331D01*
X444200Y643241D02*
Y644443D01*
Y647536D02*
Y648738D01*
Y651335D02*
Y652585D01*
Y656151D02*
Y657400D01*
Y660942D02*
Y662143D01*
Y665522D02*
Y666691D01*
Y674528D02*
Y675075D01*
Y681296D02*
Y681842D01*
Y686841D02*
Y688043D01*
Y689762D02*
Y691439D01*
Y694390D02*
Y695591D01*
Y698164D02*
Y699366D01*
Y702459D02*
Y703661D01*
Y706754D02*
Y707955D01*
Y710050D02*
Y711465D01*
Y716906D02*
Y718107D01*
Y721201D02*
Y722402D01*
Y724975D02*
Y726176D01*
Y728532D02*
Y729946D01*
Y735097D02*
Y736303D01*
Y739707D02*
Y740913D01*
Y743326D02*
Y744527D01*
Y747621D02*
Y748822D01*
Y755270D02*
Y756476D01*
Y759880D02*
Y761086D01*
Y763499D02*
Y764700D01*
Y768510D02*
Y769743D01*
Y772592D02*
Y774331D01*
X444300Y643241D02*
Y644443D01*
Y647536D02*
Y648738D01*
Y651349D02*
Y652610D01*
Y656165D02*
Y657425D01*
Y660942D02*
Y662144D01*
Y665479D02*
Y666647D01*
Y674498D02*
Y675044D01*
Y681266D02*
Y681812D01*
Y686841D02*
Y688043D01*
Y689855D02*
Y691532D01*
Y694390D02*
Y695591D01*
Y698164D02*
Y699366D01*
Y702459D02*
Y703661D01*
Y706754D02*
Y707955D01*
Y710106D02*
Y711522D01*
Y716906D02*
Y718107D01*
Y721201D02*
Y722402D01*
Y724975D02*
Y726176D01*
Y728587D02*
Y730003D01*
Y735152D02*
Y736345D01*
Y739664D02*
Y740857D01*
Y743326D02*
Y744527D01*
Y747621D02*
Y748822D01*
Y755325D02*
Y756519D01*
Y759837D02*
Y761030D01*
Y763499D02*
Y764700D01*
Y768572D02*
Y769776D01*
Y772459D02*
Y774331D01*
X444400Y643241D02*
Y644443D01*
Y647536D02*
Y648738D01*
Y651364D02*
Y652635D01*
Y656179D02*
Y657450D01*
Y660942D02*
Y662258D01*
Y665436D02*
Y666602D01*
Y674468D02*
Y675014D01*
Y681236D02*
Y681782D01*
Y686841D02*
Y688043D01*
Y689948D02*
Y691625D01*
Y694390D02*
Y695591D01*
Y698164D02*
Y699366D01*
Y702459D02*
Y703661D01*
Y706754D02*
Y707955D01*
Y710161D02*
Y711579D01*
Y716906D02*
Y718107D01*
Y721201D02*
Y722402D01*
Y724975D02*
Y726176D01*
Y728643D02*
Y730060D01*
Y735208D02*
Y736388D01*
Y739621D02*
Y740802D01*
Y743326D02*
Y744527D01*
Y747621D02*
Y748822D01*
Y755381D02*
Y756561D01*
Y759794D02*
Y760975D01*
Y763499D02*
Y764700D01*
Y768635D02*
Y769886D01*
Y772326D02*
Y773035D01*
Y773125D02*
Y774331D01*
X444500Y643241D02*
Y644443D01*
Y647536D02*
Y648738D01*
Y651378D02*
Y652665D01*
Y656193D02*
Y657481D01*
Y660942D02*
Y662398D01*
Y665394D02*
Y666558D01*
Y674438D02*
Y674984D01*
Y681205D02*
Y681752D01*
Y686841D02*
Y688043D01*
Y690040D02*
Y691718D01*
Y694390D02*
Y695591D01*
Y698164D02*
Y699366D01*
Y702459D02*
Y703661D01*
Y706754D02*
Y707955D01*
Y710217D02*
Y711667D01*
Y716906D02*
Y718107D01*
Y721201D02*
Y722402D01*
Y724975D02*
Y726176D01*
Y728698D02*
Y730148D01*
Y735264D02*
Y736431D01*
Y739578D02*
Y740746D01*
Y743326D02*
Y744527D01*
Y747621D02*
Y748822D01*
Y751395D02*
Y752857D01*
Y755437D02*
Y756604D01*
Y759752D02*
Y760919D01*
Y763499D02*
Y764700D01*
Y768697D02*
Y770020D01*
Y772192D02*
Y772975D01*
Y773130D02*
Y774331D01*
X444600Y643241D02*
Y644443D01*
Y647536D02*
Y648738D01*
Y651392D02*
Y652699D01*
Y656208D02*
Y657514D01*
Y660942D02*
Y662538D01*
Y665340D02*
Y666513D01*
Y674407D02*
Y674954D01*
Y681175D02*
Y681721D01*
Y686841D02*
Y688043D01*
Y690133D02*
Y691811D01*
Y694390D02*
Y695591D01*
Y698164D02*
Y699366D01*
Y702459D02*
Y703661D01*
Y706754D02*
Y707955D01*
Y710273D02*
Y711792D01*
Y716906D02*
Y718107D01*
Y721201D02*
Y722402D01*
Y724975D02*
Y726176D01*
Y728754D02*
Y730273D01*
Y735319D02*
Y736487D01*
Y739522D02*
Y740691D01*
Y743326D02*
Y744527D01*
Y747621D02*
Y748822D01*
Y751395D02*
Y752857D01*
Y755492D02*
Y756660D01*
Y759695D02*
Y760864D01*
Y763499D02*
Y764700D01*
Y768760D02*
Y770153D01*
Y772056D02*
Y772915D01*
Y773130D02*
Y774331D01*
X444700Y643241D02*
Y644443D01*
Y647536D02*
Y648738D01*
Y651406D02*
Y652732D01*
Y656222D02*
Y657547D01*
Y660942D02*
Y662678D01*
Y665240D02*
Y666469D01*
Y674377D02*
Y674923D01*
Y681145D02*
Y681691D01*
Y686841D02*
Y688043D01*
Y690225D02*
Y691904D01*
Y694390D02*
Y695591D01*
Y698164D02*
Y699366D01*
Y702459D02*
Y703661D01*
Y706754D02*
Y707955D01*
Y710328D02*
Y711917D01*
Y716906D02*
Y718107D01*
Y721201D02*
Y722402D01*
Y724975D02*
Y726176D01*
Y728809D02*
Y730398D01*
Y735375D02*
Y736612D01*
Y739397D02*
Y740635D01*
Y743326D02*
Y744527D01*
Y747621D02*
Y748822D01*
Y751395D02*
Y752857D01*
Y755548D02*
Y756785D01*
Y759570D02*
Y760808D01*
Y763499D02*
Y764700D01*
Y768822D02*
Y770286D01*
Y771856D02*
Y772855D01*
Y773130D02*
Y774331D01*
X444800Y643241D02*
Y644443D01*
Y647536D02*
Y648738D01*
Y651421D02*
Y652765D01*
Y656236D02*
Y657581D01*
Y660942D02*
Y662818D01*
Y665140D02*
Y666424D01*
Y669271D02*
Y670473D01*
Y674347D02*
Y674893D01*
Y681115D02*
Y681661D01*
Y686841D02*
Y688043D01*
Y690318D02*
Y691998D01*
Y694390D02*
Y695591D01*
Y698164D02*
Y699366D01*
Y702459D02*
Y703661D01*
Y706754D02*
Y707955D01*
Y710384D02*
Y712042D01*
Y714675D02*
Y714853D01*
Y716906D02*
Y718107D01*
Y721201D02*
Y722402D01*
Y724975D02*
Y726176D01*
Y728865D02*
Y730523D01*
Y733156D02*
Y733335D01*
Y735430D02*
Y736737D01*
Y739272D02*
Y740579D01*
Y743326D02*
Y744527D01*
Y747621D02*
Y748822D01*
Y751395D02*
Y752857D01*
Y755603D02*
Y756910D01*
Y759445D02*
Y760753D01*
Y763499D02*
Y764700D01*
Y768885D02*
Y770678D01*
Y771656D02*
Y772795D01*
Y773130D02*
Y774331D01*
X444900Y643241D02*
Y644443D01*
Y647536D02*
Y648738D01*
Y651435D02*
Y652863D01*
Y656251D02*
Y657678D01*
Y660942D02*
Y662958D01*
Y665040D02*
Y666380D01*
Y669271D02*
Y670473D01*
Y674317D02*
Y674863D01*
Y681084D02*
Y681631D01*
Y686841D02*
Y688043D01*
Y690411D02*
Y692091D01*
Y694390D02*
Y695591D01*
Y698164D02*
Y699366D01*
Y702459D02*
Y703661D01*
Y706754D02*
Y707955D01*
Y710439D02*
Y712167D01*
Y714325D02*
Y714853D01*
Y716906D02*
Y718107D01*
Y721201D02*
Y722402D01*
Y724975D02*
Y726176D01*
Y728920D02*
Y730648D01*
Y732806D02*
Y733335D01*
Y735486D02*
Y736862D01*
Y739147D02*
Y740524D01*
Y743326D02*
Y744527D01*
Y747621D02*
Y748822D01*
Y751395D02*
Y752857D01*
Y755659D02*
Y757035D01*
Y759320D02*
Y760697D01*
Y763499D02*
Y764700D01*
Y768947D02*
Y772735D01*
Y773130D02*
Y774331D01*
X445000Y643241D02*
Y644443D01*
Y647536D02*
Y648738D01*
Y651483D02*
Y653013D01*
Y656299D02*
Y657828D01*
Y660942D02*
Y663121D01*
Y664940D02*
Y666336D01*
Y669271D02*
Y670473D01*
Y674286D02*
Y674833D01*
Y681054D02*
Y681601D01*
Y686841D02*
Y688043D01*
Y690503D02*
Y692184D01*
Y694390D02*
Y695591D01*
Y698164D02*
Y699366D01*
Y702459D02*
Y703661D01*
Y706754D02*
Y707955D01*
Y710495D02*
Y712345D01*
Y713955D02*
Y714853D01*
Y716906D02*
Y718107D01*
Y721201D02*
Y722402D01*
Y724975D02*
Y726176D01*
Y728976D02*
Y730827D01*
Y732436D02*
Y733335D01*
Y735541D02*
Y736987D01*
Y739022D02*
Y740468D01*
Y743326D02*
Y744527D01*
Y747621D02*
Y748822D01*
Y751395D02*
Y752857D01*
Y755714D02*
Y757160D01*
Y759195D02*
Y760641D01*
Y763499D02*
Y764700D01*
Y769062D02*
Y772675D01*
Y773130D02*
Y774331D01*
X445100Y643241D02*
Y644443D01*
Y647536D02*
Y648738D01*
Y651543D02*
Y653163D01*
Y656359D02*
Y657978D01*
Y660942D02*
Y663471D01*
Y664840D02*
Y666275D01*
Y669271D02*
Y670473D01*
Y674256D02*
Y674803D01*
Y681024D02*
Y681570D01*
Y686841D02*
Y688043D01*
Y690596D02*
Y692277D01*
Y694390D02*
Y695591D01*
Y698164D02*
Y699366D01*
Y702459D02*
Y703661D01*
Y706754D02*
Y707955D01*
Y710576D02*
Y713045D01*
Y713355D02*
Y714853D01*
Y716906D02*
Y718107D01*
Y721201D02*
Y722402D01*
Y724975D02*
Y726176D01*
Y729057D02*
Y731527D01*
Y731836D02*
Y733335D01*
Y735597D02*
Y737112D01*
Y738897D02*
Y740413D01*
Y743326D02*
Y744527D01*
Y747621D02*
Y748822D01*
Y751395D02*
Y752857D01*
Y755770D02*
Y757285D01*
Y759070D02*
Y760586D01*
Y763499D02*
Y764700D01*
Y769182D02*
Y772570D01*
Y773130D02*
Y774331D01*
X445200Y643241D02*
Y644443D01*
Y647536D02*
Y648738D01*
Y651603D02*
Y653514D01*
Y653953D02*
Y654204D01*
Y656419D02*
Y658329D01*
Y658768D02*
Y659019D01*
Y660942D02*
Y662143D01*
Y662274D02*
Y663821D01*
Y664339D02*
Y666200D01*
Y669271D02*
Y670473D01*
Y674226D02*
Y674772D01*
Y680994D02*
Y681540D01*
Y686841D02*
Y688043D01*
Y690688D02*
Y692370D01*
Y694390D02*
Y695591D01*
Y698164D02*
Y699366D01*
Y702459D02*
Y703661D01*
Y706754D02*
Y707955D01*
Y710676D02*
Y714853D01*
Y716906D02*
Y718107D01*
Y721201D02*
Y722402D01*
Y724975D02*
Y726176D01*
Y729157D02*
Y733335D01*
Y735686D02*
Y737615D01*
Y738317D02*
Y740324D01*
Y743326D02*
Y744527D01*
Y747621D02*
Y748822D01*
Y751395D02*
Y752857D01*
Y755859D02*
Y757789D01*
Y758490D02*
Y760497D01*
Y763499D02*
Y764700D01*
Y769302D02*
Y772437D01*
Y773130D02*
Y774331D01*
X445300Y643241D02*
Y644443D01*
Y647536D02*
Y648738D01*
Y651663D02*
Y654204D01*
Y656479D02*
Y659019D01*
Y660942D02*
Y662143D01*
Y662414D02*
Y666125D01*
Y669271D02*
Y670473D01*
Y674196D02*
Y674742D01*
Y680964D02*
Y681510D01*
Y686841D02*
Y688043D01*
Y690781D02*
Y692463D01*
Y694390D02*
Y695591D01*
Y698164D02*
Y699366D01*
Y702459D02*
Y703661D01*
Y706754D02*
Y707955D01*
Y710776D02*
Y714853D01*
Y716906D02*
Y718107D01*
Y721201D02*
Y722402D01*
Y724975D02*
Y726176D01*
Y729257D02*
Y733335D01*
Y735846D02*
Y740164D01*
Y743326D02*
Y744527D01*
Y747621D02*
Y748822D01*
Y751395D02*
Y752857D01*
Y756019D02*
Y760337D01*
Y763499D02*
Y764700D01*
Y769422D02*
Y772304D01*
Y773130D02*
Y774331D01*
X445400Y643241D02*
Y644443D01*
Y647536D02*
Y648738D01*
Y651723D02*
Y654204D01*
Y656539D02*
Y659019D01*
Y660942D02*
Y662143D01*
Y662554D02*
Y666050D01*
Y669271D02*
Y670473D01*
Y674166D02*
Y674712D01*
Y680933D02*
Y681480D01*
Y686841D02*
Y688043D01*
Y690874D02*
Y692556D01*
Y694390D02*
Y695591D01*
Y698164D02*
Y699366D01*
Y702459D02*
Y703661D01*
Y706754D02*
Y707955D01*
Y710876D02*
Y714853D01*
Y716906D02*
Y718107D01*
Y721201D02*
Y722402D01*
Y724975D02*
Y726176D01*
Y729357D02*
Y733335D01*
Y736006D02*
Y740004D01*
Y743326D02*
Y744527D01*
Y747621D02*
Y748822D01*
Y751395D02*
Y752857D01*
Y756179D02*
Y760177D01*
Y763499D02*
Y764700D01*
Y769542D02*
Y772170D01*
Y773130D02*
Y774331D01*
X445500Y643241D02*
Y644443D01*
Y647536D02*
Y648738D01*
Y651783D02*
Y654204D01*
Y656599D02*
Y659019D01*
Y660942D02*
Y662143D01*
Y662694D02*
Y665975D01*
Y669271D02*
Y670473D01*
Y674135D02*
Y674682D01*
Y680903D02*
Y681449D01*
Y686841D02*
Y688043D01*
Y690966D02*
Y692649D01*
Y694390D02*
Y695591D01*
Y698164D02*
Y699366D01*
Y702459D02*
Y703661D01*
Y706754D02*
Y707955D01*
Y710976D02*
Y714853D01*
Y716906D02*
Y718107D01*
Y721201D02*
Y722402D01*
Y724975D02*
Y726176D01*
Y729457D02*
Y733335D01*
Y736166D02*
Y739844D01*
Y743326D02*
Y744527D01*
Y747621D02*
Y748822D01*
Y751395D02*
Y752857D01*
Y756339D02*
Y760017D01*
Y763499D02*
Y764700D01*
Y769662D02*
Y771943D01*
Y773126D02*
Y774327D01*
X445600Y643241D02*
Y644443D01*
Y647536D02*
Y648738D01*
Y651889D02*
Y654204D01*
Y656704D02*
Y659019D01*
Y660942D02*
Y662143D01*
Y662834D02*
Y665843D01*
Y669271D02*
Y670473D01*
Y674105D02*
Y674651D01*
Y680873D02*
Y681419D01*
Y686841D02*
Y688043D01*
Y691059D02*
Y692742D01*
Y694390D02*
Y695591D01*
Y698164D02*
Y699366D01*
Y702459D02*
Y703661D01*
Y706754D02*
Y707955D01*
Y711123D02*
Y714853D01*
Y716906D02*
Y718107D01*
Y721201D02*
Y722402D01*
Y724975D02*
Y726176D01*
Y729604D02*
Y733335D01*
Y736326D02*
Y739684D01*
Y743326D02*
Y744527D01*
Y747621D02*
Y748822D01*
Y751395D02*
Y752857D01*
Y756499D02*
Y759857D01*
Y763499D02*
Y764700D01*
Y769954D02*
Y771693D01*
Y773113D02*
Y774314D01*
X445700Y643241D02*
Y644443D01*
Y647536D02*
Y648738D01*
Y652055D02*
Y654204D01*
Y656871D02*
Y659019D01*
Y660942D02*
Y662143D01*
Y662974D02*
Y665643D01*
Y669271D02*
Y670473D01*
Y674075D02*
Y674621D01*
Y680843D02*
Y681389D01*
Y686841D02*
Y688043D01*
Y691151D02*
Y692836D01*
Y694390D02*
Y695591D01*
Y698164D02*
Y699366D01*
Y702459D02*
Y703661D01*
Y706754D02*
Y707955D01*
Y711323D02*
Y714781D01*
Y716906D02*
Y718107D01*
Y721201D02*
Y722402D01*
Y724975D02*
Y726176D01*
Y729804D02*
Y733262D01*
Y736486D02*
Y739524D01*
Y743326D02*
Y744527D01*
Y747621D02*
Y748822D01*
Y751395D02*
Y752857D01*
Y756659D02*
Y759697D01*
Y763499D02*
Y764700D01*
Y770404D02*
Y771383D01*
Y773101D02*
Y774302D01*
X445800Y643241D02*
Y644443D01*
Y647536D02*
Y648738D01*
Y652222D02*
Y654204D01*
Y657037D02*
Y659019D01*
Y660942D02*
Y662143D01*
Y663114D02*
Y665443D01*
Y669271D02*
Y670473D01*
Y674045D02*
Y674591D01*
Y680812D02*
Y681359D01*
Y686841D02*
Y688043D01*
Y691244D02*
Y692929D01*
Y694390D02*
Y695591D01*
Y698164D02*
Y699366D01*
Y702459D02*
Y703661D01*
Y706754D02*
Y707955D01*
Y711523D02*
Y714331D01*
Y716906D02*
Y718107D01*
Y721201D02*
Y722402D01*
Y724975D02*
Y726176D01*
Y730004D02*
Y732812D01*
Y736646D02*
Y739364D01*
Y743326D02*
Y744527D01*
Y747621D02*
Y748822D01*
Y751395D02*
Y752857D01*
Y756819D02*
Y759537D01*
Y763499D02*
Y764700D01*
Y770854D02*
Y770883D01*
Y773088D02*
Y774289D01*
X445900Y643241D02*
Y644443D01*
Y647536D02*
Y648738D01*
Y652389D02*
Y654204D01*
Y657204D02*
Y659019D01*
Y660942D02*
Y662143D01*
Y663541D02*
Y665197D01*
Y669271D02*
Y670473D01*
Y674014D02*
Y674561D01*
Y680782D02*
Y681328D01*
Y686841D02*
Y688043D01*
Y691337D02*
Y693022D01*
Y694390D02*
Y695591D01*
Y698164D02*
Y699366D01*
Y702459D02*
Y703661D01*
Y706754D02*
Y707955D01*
Y712004D02*
Y713881D01*
Y716906D02*
Y718107D01*
Y721201D02*
Y722402D01*
Y724975D02*
Y726176D01*
Y730485D02*
Y732362D01*
Y737170D02*
Y738887D01*
Y743326D02*
Y744527D01*
Y747621D02*
Y748822D01*
Y751395D02*
Y752857D01*
Y757343D02*
Y759060D01*
Y763499D02*
Y764700D01*
Y773076D02*
Y774277D01*
X446000Y652830D02*
Y653725D01*
Y657646D02*
Y658540D01*
Y660942D02*
Y662143D01*
Y663991D02*
Y664947D01*
Y673984D02*
Y674530D01*
Y680752D02*
Y681298D01*
Y712504D02*
Y713268D01*
Y730985D02*
Y731749D01*
Y737720D02*
Y738387D01*
Y757893D02*
Y758560D01*
Y773063D02*
Y774264D01*
X446100Y660942D02*
Y662143D01*
Y673954D02*
Y674500D01*
Y680722D02*
Y681268D01*
Y773051D02*
Y774252D01*
X446200Y660942D02*
Y662143D01*
Y673924D02*
Y674470D01*
Y680691D02*
Y681238D01*
Y773038D02*
Y774239D01*
X446300Y660942D02*
Y662143D01*
Y673893D02*
Y674440D01*
Y680661D02*
Y681207D01*
Y773026D02*
Y774227D01*
X446400Y660942D02*
Y662143D01*
Y673863D02*
Y674410D01*
Y680631D02*
Y681177D01*
Y773013D02*
Y774214D01*
X446500Y660942D02*
Y662143D01*
Y673833D02*
Y674379D01*
Y680601D02*
Y681147D01*
Y773001D02*
Y774199D01*
X446600Y660942D02*
Y662143D01*
Y673803D02*
Y674349D01*
Y680571D02*
Y681117D01*
Y772951D02*
Y774159D01*
X446700Y660942D02*
Y662143D01*
Y673773D02*
Y674319D01*
Y680540D02*
Y681087D01*
Y772891D02*
Y774119D01*
X446800Y660942D02*
Y662143D01*
Y673742D02*
Y674289D01*
Y680510D02*
Y681056D01*
Y772831D02*
Y774079D01*
X446900Y660942D02*
Y662143D01*
Y673712D02*
Y674258D01*
Y680480D02*
Y681026D01*
Y772771D02*
Y774039D01*
X447000Y660942D02*
Y662143D01*
Y673682D02*
Y674228D01*
Y680450D02*
Y680996D01*
Y772711D02*
Y773999D01*
X447100Y660942D02*
Y662143D01*
Y673652D02*
Y674198D01*
Y680419D02*
Y680966D01*
Y772651D02*
Y773959D01*
X447200Y660942D02*
Y662143D01*
Y673621D02*
Y674168D01*
Y680389D02*
Y680935D01*
Y772583D02*
Y773895D01*
X447300Y660942D02*
Y662143D01*
Y673591D02*
Y674137D01*
Y680359D02*
Y680905D01*
Y768817D02*
Y769060D01*
Y772416D02*
Y773820D01*
X447400Y660942D02*
Y662143D01*
Y673561D02*
Y674107D01*
Y680329D02*
Y680875D01*
Y768805D02*
Y769360D01*
Y772249D02*
Y773745D01*
X447500Y660942D02*
Y662143D01*
Y673531D02*
Y674077D01*
Y680298D02*
Y680845D01*
Y768792D02*
Y769660D01*
Y772083D02*
Y773670D01*
X447600Y660942D02*
Y662143D01*
Y673500D02*
Y674047D01*
Y680268D02*
Y680814D01*
Y768780D02*
Y769985D01*
Y771884D02*
Y773595D01*
X447700Y660942D02*
Y662143D01*
Y673470D02*
Y674016D01*
Y680238D02*
Y680784D01*
Y768767D02*
Y770785D01*
Y771184D02*
Y773468D01*
X447800Y660942D02*
Y662143D01*
Y768755D02*
Y773308D01*
X447900Y660942D02*
Y662143D01*
Y768742D02*
Y773148D01*
X448000Y660942D02*
Y662143D01*
Y768730D02*
Y772988D01*
X448100Y660942D02*
Y662143D01*
Y768717D02*
Y772828D01*
X448200Y660942D02*
Y662143D01*
Y768900D02*
Y772668D01*
X448300Y660942D02*
Y662143D01*
Y769350D02*
Y772417D01*
X448400Y660942D02*
Y662143D01*
Y769800D02*
Y771817D01*
X448500Y770665D02*
Y771217D01*
X578100Y377806D02*
Y380636D01*
X578200Y377806D02*
Y380720D01*
X578300Y377806D02*
Y380805D01*
X578400Y377806D02*
Y380889D01*
X578500Y377806D02*
Y380974D01*
X578600Y377806D02*
Y381059D01*
Y392122D02*
Y395959D01*
X578700Y377806D02*
Y381143D01*
Y392122D02*
Y396009D01*
X578800Y377806D02*
Y381228D01*
Y392143D02*
Y396059D01*
X578900Y377806D02*
Y381313D01*
Y392210D02*
Y396109D01*
X579000Y377806D02*
Y381397D01*
Y392276D02*
Y396159D01*
X579100Y377806D02*
Y381482D01*
Y392343D02*
Y396209D01*
X579200Y377806D02*
Y381566D01*
Y392410D02*
Y396259D01*
X579300Y377806D02*
Y381651D01*
Y392476D02*
Y396309D01*
X579400Y377806D02*
Y381736D01*
Y392543D02*
Y396359D01*
X579500Y377806D02*
Y381820D01*
Y392610D02*
Y396409D01*
X579600Y377806D02*
Y381905D01*
Y392661D02*
Y396453D01*
X579700Y377806D02*
Y381989D01*
Y392701D02*
Y396469D01*
X579800Y377806D02*
Y382074D01*
Y392741D02*
Y396486D01*
X579900Y377806D02*
Y382159D01*
Y392781D02*
Y396503D01*
X580000Y377806D02*
Y382243D01*
Y392821D02*
Y396519D01*
X580100Y377806D02*
Y382328D01*
Y392861D02*
Y396536D01*
X580200Y377806D02*
Y382413D01*
Y392901D02*
Y396553D01*
X580300Y377806D02*
Y382497D01*
Y392941D02*
Y396569D01*
X580400Y377806D02*
Y382582D01*
Y392981D02*
Y396586D01*
X580500Y377806D02*
Y382666D01*
Y393021D02*
Y396603D01*
X580600Y377806D02*
Y382751D01*
Y393061D02*
Y396619D01*
X580700Y377806D02*
Y382836D01*
Y393101D02*
Y396636D01*
X580800Y377806D02*
Y382920D01*
Y393141D02*
Y396653D01*
X580900Y377806D02*
Y383005D01*
Y393171D02*
Y396669D01*
X581000Y377806D02*
Y383089D01*
Y393191D02*
Y396686D01*
X581100Y377806D02*
Y383174D01*
Y393211D02*
Y396703D01*
X581200Y377806D02*
Y383259D01*
Y393231D02*
Y396719D01*
X581300Y377806D02*
Y383343D01*
Y393251D02*
Y396736D01*
X581400Y377806D02*
Y383428D01*
Y393271D02*
Y396753D01*
X581500Y377806D02*
Y383517D01*
Y393291D02*
Y396769D01*
X581600Y377806D02*
Y383607D01*
Y393311D02*
Y396786D01*
X581700Y377806D02*
Y383697D01*
Y393331D02*
Y396803D01*
X581800Y377806D02*
Y383787D01*
Y393351D02*
Y396819D01*
X581900Y377806D02*
Y383877D01*
Y393371D02*
Y396836D01*
X582000Y377806D02*
Y383967D01*
Y393391D02*
Y396853D01*
X582100Y377806D02*
Y384057D01*
Y393411D02*
Y396869D01*
X582200Y377806D02*
Y384147D01*
Y393431D02*
Y396886D01*
X582300Y377806D02*
Y384237D01*
Y393451D02*
Y396903D01*
X582400Y377806D02*
Y384327D01*
Y393471D02*
Y396919D01*
X582500Y377806D02*
Y384417D01*
Y393491D02*
Y396936D01*
X582600Y377806D02*
Y384507D01*
Y393511D02*
Y396953D01*
X582700Y377806D02*
Y384597D01*
Y393531D02*
Y396969D01*
X582800Y377806D02*
Y384687D01*
Y393551D02*
Y396986D01*
X582900Y377806D02*
Y384777D01*
Y393571D02*
Y397003D01*
X583000Y377806D02*
Y384867D01*
Y393591D02*
Y397019D01*
X583100Y377806D02*
Y384957D01*
Y393611D02*
Y397036D01*
X583200Y377806D02*
Y385047D01*
Y393631D02*
Y397053D01*
X583300Y377806D02*
Y385137D01*
Y393651D02*
Y397069D01*
X583400Y377806D02*
Y385227D01*
Y393671D02*
Y397086D01*
X583500Y377806D02*
Y385317D01*
Y393679D02*
Y397103D01*
X583600Y377806D02*
Y385407D01*
Y393659D02*
Y397119D01*
X583700Y377806D02*
Y385497D01*
Y393639D02*
Y397136D01*
X583800Y377806D02*
Y385587D01*
Y393619D02*
Y397153D01*
X583900Y377806D02*
Y385677D01*
Y393599D02*
Y397169D01*
X584000Y377806D02*
Y381090D01*
Y381220D02*
Y385767D01*
Y393579D02*
Y397186D01*
X584100Y377806D02*
Y381090D01*
Y381320D02*
Y385883D01*
Y393559D02*
Y397203D01*
X584200Y377806D02*
Y381090D01*
Y381420D02*
Y386008D01*
Y393539D02*
Y397219D01*
X584300Y377806D02*
Y381090D01*
Y381520D02*
Y386133D01*
Y393519D02*
Y397219D01*
X584400Y377806D02*
Y381090D01*
Y381620D02*
Y386258D01*
Y393499D02*
Y397203D01*
X584500Y377806D02*
Y381090D01*
Y381715D02*
Y386383D01*
Y393479D02*
Y397186D01*
X584600Y377806D02*
Y381090D01*
Y381790D02*
Y386508D01*
Y393459D02*
Y397169D01*
X584700Y377806D02*
Y381090D01*
Y381865D02*
Y386633D01*
Y393439D02*
Y397153D01*
X584800Y377806D02*
Y381090D01*
Y381940D02*
Y386758D01*
Y393415D02*
Y397136D01*
X584900Y377806D02*
Y381090D01*
Y382015D02*
Y386883D01*
Y393365D02*
Y397119D01*
X585000Y377806D02*
Y381090D01*
Y382090D02*
Y387008D01*
Y393315D02*
Y397103D01*
X585100Y377806D02*
Y381090D01*
Y382165D02*
Y387133D01*
Y393265D02*
Y397086D01*
X585200Y377806D02*
Y381090D01*
Y382240D02*
Y387258D01*
Y393215D02*
Y397069D01*
X585300Y377806D02*
Y381090D01*
Y382315D02*
Y387383D01*
Y393165D02*
Y397053D01*
X585400Y377806D02*
Y381090D01*
Y382390D02*
Y387508D01*
Y393115D02*
Y397036D01*
X585500Y377806D02*
Y381090D01*
Y382465D02*
Y387633D01*
Y393065D02*
Y397019D01*
X585600Y377806D02*
Y381090D01*
Y382551D02*
Y387758D01*
Y393015D02*
Y397003D01*
X585700Y377806D02*
Y381090D01*
Y382640D02*
Y387883D01*
Y392965D02*
Y396986D01*
X585800Y377806D02*
Y381090D01*
Y382729D02*
Y388008D01*
Y392915D02*
Y396969D01*
X585900Y377806D02*
Y381090D01*
Y382818D02*
Y388133D01*
Y392812D02*
Y396953D01*
X586000Y377806D02*
Y381090D01*
Y382907D02*
Y388258D01*
Y392662D02*
Y396936D01*
X586100Y377806D02*
Y381090D01*
Y382995D02*
Y388383D01*
Y392512D02*
Y396919D01*
X586200Y377806D02*
Y381090D01*
Y383084D02*
Y388811D01*
Y392362D02*
Y396903D01*
X586300Y377806D02*
Y381090D01*
Y383173D02*
Y389311D01*
Y392212D02*
Y396886D01*
X586400Y377806D02*
Y381090D01*
Y383262D02*
Y389793D01*
Y391991D02*
Y396869D01*
X586500Y377806D02*
Y381090D01*
Y383351D02*
Y390193D01*
Y391491D02*
Y396853D01*
X586600Y377806D02*
Y381090D01*
Y383440D02*
Y390593D01*
Y390991D02*
Y396836D01*
X586700Y377806D02*
Y381090D01*
Y383529D02*
Y396819D01*
X586800Y377806D02*
Y381090D01*
Y383618D02*
Y396803D01*
X586900Y377806D02*
Y381090D01*
Y383707D02*
Y396786D01*
X587000Y377806D02*
Y381090D01*
Y383795D02*
Y396769D01*
X587100Y377806D02*
Y381090D01*
Y383884D02*
Y396753D01*
X587200Y377806D02*
Y381090D01*
Y383973D02*
Y396736D01*
X587300Y377806D02*
Y381090D01*
Y384062D02*
Y396719D01*
X587400Y377806D02*
Y381090D01*
Y384151D02*
Y396689D01*
X587500Y377806D02*
Y381090D01*
Y384240D02*
Y396639D01*
X587600Y377806D02*
Y381090D01*
Y384329D02*
Y396589D01*
X587700Y377806D02*
Y381090D01*
Y384418D02*
Y396539D01*
X587800Y377806D02*
Y381090D01*
Y384507D02*
Y396489D01*
X587900Y377806D02*
Y381090D01*
Y384607D02*
Y396439D01*
X588000Y377806D02*
Y381090D01*
Y384724D02*
Y396389D01*
X588100Y377806D02*
Y381090D01*
Y384840D02*
Y396339D01*
X588200Y377806D02*
Y381090D01*
Y384957D02*
Y396289D01*
X588300Y377806D02*
Y381090D01*
Y385074D02*
Y396239D01*
X588400Y377806D02*
Y381090D01*
Y385190D02*
Y396189D01*
X588500Y377806D02*
Y381090D01*
Y385307D02*
Y396139D01*
X588600Y377806D02*
Y381090D01*
Y385424D02*
Y396089D01*
X588700Y377806D02*
Y381090D01*
Y385540D02*
Y396039D01*
X588800Y377806D02*
Y381090D01*
Y385657D02*
Y395989D01*
X588900Y377806D02*
Y381090D01*
Y385774D02*
Y395939D01*
X589000Y377806D02*
Y381090D01*
Y385890D02*
Y395889D01*
X589100Y377806D02*
Y381090D01*
Y386007D02*
Y395839D01*
X589200Y377806D02*
Y381090D01*
Y386124D02*
Y395789D01*
X589300Y377806D02*
Y381090D01*
Y386240D02*
Y395739D01*
X589400Y377806D02*
Y381090D01*
Y386357D02*
Y395689D01*
X589500Y377806D02*
Y381090D01*
Y386501D02*
Y395569D01*
X589600Y377806D02*
Y381090D01*
Y386651D02*
Y395429D01*
X589700Y377806D02*
Y381090D01*
Y386801D02*
Y395289D01*
X589800Y377806D02*
Y381090D01*
Y386951D02*
Y395149D01*
X589900Y377806D02*
Y381090D01*
Y387101D02*
Y395009D01*
X590000Y377806D02*
Y381090D01*
Y387251D02*
Y394869D01*
X590100Y377806D02*
Y381090D01*
Y387401D02*
Y394729D01*
X590200Y377806D02*
Y381090D01*
Y387551D02*
Y394589D01*
X590300Y377806D02*
Y381090D01*
Y387701D02*
Y394449D01*
X590400Y377806D02*
Y381090D01*
Y387851D02*
Y394309D01*
X590500Y377806D02*
Y381090D01*
Y388098D02*
Y394169D01*
X590600Y377806D02*
Y381090D01*
Y388448D02*
Y394029D01*
X590700Y377806D02*
Y381090D01*
Y388798D02*
Y393889D01*
X590800Y377806D02*
Y381090D01*
Y389148D02*
Y393428D01*
X590900Y377806D02*
Y381090D01*
Y389498D02*
Y392928D01*
X591000Y377806D02*
Y381090D01*
Y389925D02*
Y392428D01*
X591100Y377806D02*
Y381090D01*
Y390525D02*
Y391928D01*
X591200Y377806D02*
Y381090D01*
Y391125D02*
Y391428D01*
X591300Y377806D02*
Y381090D01*
X591400Y377806D02*
Y381090D01*
X591500Y377806D02*
Y381090D01*
X591600Y377806D02*
Y381090D01*
X591700Y377806D02*
Y381090D01*
X591800Y377806D02*
Y381090D01*
X591900Y377806D02*
Y381090D01*
X592000Y377806D02*
Y381090D01*
X594000Y384551D02*
Y389963D01*
X594100Y384201D02*
Y390313D01*
X594200Y383851D02*
Y390663D01*
X594300Y383501D02*
Y391013D01*
X594400Y383151D02*
Y391363D01*
X594500Y382629D02*
Y391713D01*
X594600Y381929D02*
Y392063D01*
X594700Y381229D02*
Y392413D01*
X594800Y381007D02*
Y392763D01*
X594900Y380841D02*
Y393113D01*
X595000Y380674D02*
Y393433D01*
X595100Y380507D02*
Y393683D01*
X595200Y380341D02*
Y393933D01*
X595300Y380174D02*
Y394183D01*
X595400Y380007D02*
Y394433D01*
X595500Y379847D02*
Y394661D01*
X595600Y379722D02*
Y394761D01*
X595700Y379597D02*
Y394861D01*
X595800Y379472D02*
Y394961D01*
X595900Y379347D02*
Y395061D01*
X596000Y379222D02*
Y395161D01*
X596100Y379097D02*
Y395261D01*
X596200Y378972D02*
Y395361D01*
X596300Y378847D02*
Y395461D01*
X596400Y378722D02*
Y395561D01*
X596500Y378597D02*
Y395661D01*
X596600Y378526D02*
Y395745D01*
X596700Y378466D02*
Y395825D01*
X596800Y378406D02*
Y395905D01*
X596900Y378346D02*
Y395985D01*
X597000Y378286D02*
Y396065D01*
X597100Y378226D02*
Y396145D01*
X597200Y378166D02*
Y396225D01*
X597300Y378106D02*
Y396305D01*
X597400Y378046D02*
Y396385D01*
X597500Y377986D02*
Y396465D01*
X597600Y377926D02*
Y396545D01*
X597700Y377866D02*
Y396625D01*
X597800Y377806D02*
Y396705D01*
X597900Y377788D02*
Y396726D01*
X598000Y377771D02*
Y396743D01*
X598100Y377754D02*
Y396759D01*
X598200Y377738D02*
Y396776D01*
X598300Y377721D02*
Y396793D01*
X598400Y377704D02*
Y396809D01*
X598500Y377688D02*
Y396826D01*
X598600Y377671D02*
Y385061D01*
Y389370D02*
Y396843D01*
X598700Y377654D02*
Y384461D01*
Y389870D02*
Y396859D01*
X598800Y377638D02*
Y382885D01*
Y391629D02*
Y396876D01*
X598900Y377621D02*
Y382585D01*
Y391929D02*
Y396893D01*
X599000Y377604D02*
Y382285D01*
Y392229D02*
Y396909D01*
X599100Y377588D02*
Y382063D01*
Y392433D02*
Y396926D01*
X599200Y377571D02*
Y381896D01*
Y392566D02*
Y396943D01*
X599300Y377554D02*
Y381729D01*
Y392699D02*
Y396959D01*
X599400Y377539D02*
Y381563D01*
Y392833D02*
Y396975D01*
X599500Y377524D02*
Y381396D01*
Y392966D02*
Y396989D01*
X599600Y377510D02*
Y381229D01*
Y393099D02*
Y397004D01*
X599700Y377496D02*
Y381063D01*
Y393233D02*
Y397018D01*
X599800Y377481D02*
Y380896D01*
Y393366D02*
Y397032D01*
X599900Y377467D02*
Y380822D01*
Y393440D02*
Y397046D01*
X600000Y377453D02*
Y380802D01*
Y393480D02*
Y397061D01*
X600100Y377439D02*
Y380782D01*
Y393520D02*
Y397075D01*
X600200Y377424D02*
Y380762D01*
Y393560D02*
Y397089D01*
X600300Y377410D02*
Y380742D01*
Y393600D02*
Y397104D01*
X600400Y377396D02*
Y380722D01*
Y393640D02*
Y397118D01*
X600500Y377381D02*
Y380702D01*
Y393680D02*
Y397132D01*
X600600Y377367D02*
Y380682D01*
Y393720D02*
Y397146D01*
X600700Y377353D02*
Y380662D01*
Y393760D02*
Y397161D01*
X600800Y377339D02*
Y380642D01*
Y393800D02*
Y397175D01*
X600900Y377324D02*
Y380622D01*
Y393840D02*
Y397189D01*
X601000Y377310D02*
Y380602D01*
Y393880D02*
Y397204D01*
X601100Y377296D02*
Y380582D01*
Y393920D02*
Y397218D01*
X601200Y377290D02*
Y380574D01*
Y393936D02*
Y397223D01*
X601300Y377304D02*
Y380594D01*
Y393896D02*
Y397209D01*
X601400Y377319D02*
Y380614D01*
Y393856D02*
Y397195D01*
X601500Y377333D02*
Y380634D01*
Y393816D02*
Y397181D01*
X601600Y377347D02*
Y380654D01*
Y393776D02*
Y397166D01*
X601700Y377362D02*
Y380674D01*
Y393736D02*
Y397152D01*
X601800Y377376D02*
Y380694D01*
Y393696D02*
Y397138D01*
X601900Y377390D02*
Y380714D01*
Y393656D02*
Y397123D01*
X602000Y377404D02*
Y380734D01*
Y393616D02*
Y397109D01*
X602100Y377419D02*
Y380754D01*
Y393576D02*
Y397095D01*
X602200Y377433D02*
Y380774D01*
Y393536D02*
Y397081D01*
X602300Y377447D02*
Y380794D01*
Y393496D02*
Y397066D01*
X602400Y377462D02*
Y380814D01*
Y393456D02*
Y397052D01*
X602500Y377476D02*
Y380839D01*
Y393415D02*
Y397038D01*
X602600Y377490D02*
Y380997D01*
Y393285D02*
Y397023D01*
X602700Y377504D02*
Y381164D01*
Y393152D02*
Y397009D01*
X602800Y377519D02*
Y381330D01*
Y393019D02*
Y396995D01*
X602900Y377533D02*
Y381497D01*
Y392885D02*
Y396981D01*
X603000Y377548D02*
Y381664D01*
Y392752D02*
Y396963D01*
X603100Y377564D02*
Y381830D01*
Y392619D02*
Y396929D01*
X603200Y377581D02*
Y381997D01*
Y392485D02*
Y396896D01*
X603300Y377598D02*
Y382167D01*
Y392347D02*
Y396863D01*
X603400Y377614D02*
Y382467D01*
Y392047D02*
Y396829D01*
X603500Y377631D02*
Y382767D01*
Y391747D02*
Y396796D01*
X603600Y377648D02*
Y384446D01*
Y390067D02*
Y396763D01*
X603700Y377664D02*
Y384946D01*
Y389567D02*
Y396729D01*
X603800Y377681D02*
Y385446D01*
Y389067D02*
Y396696D01*
X603900Y377698D02*
Y396663D01*
X604000Y377714D02*
Y396629D01*
X604100Y377731D02*
Y396596D01*
X604200Y377748D02*
Y396563D01*
X604300Y377764D02*
Y396529D01*
X604400Y377781D02*
Y396496D01*
X604500Y377798D02*
Y396463D01*
X604600Y377842D02*
Y396411D01*
X604700Y377902D02*
Y396351D01*
X604800Y377962D02*
Y396291D01*
X604900Y378022D02*
Y396231D01*
X605000Y378082D02*
Y396171D01*
X605100Y378142D02*
Y396111D01*
X605200Y378202D02*
Y396051D01*
X605300Y378262D02*
Y395991D01*
X605400Y378322D02*
Y395931D01*
X605500Y378382D02*
Y395871D01*
X605600Y378442D02*
Y395811D01*
X605700Y378502D02*
Y395751D01*
X605800Y378562D02*
Y395691D01*
X605900Y378673D02*
Y395601D01*
X606000Y378798D02*
Y395501D01*
X606100Y378923D02*
Y395401D01*
X606200Y379048D02*
Y395301D01*
X606300Y379173D02*
Y395201D01*
X606400Y379298D02*
Y395101D01*
X606500Y379423D02*
Y395001D01*
X606600Y379548D02*
Y394901D01*
X606700Y379673D02*
Y394801D01*
X606800Y379798D02*
Y394701D01*
X606900Y379942D02*
Y394556D01*
X607000Y380108D02*
Y394356D01*
X607100Y380275D02*
Y394156D01*
X607200Y380442D02*
Y393956D01*
X607300Y380608D02*
Y393756D01*
X607400Y380775D02*
Y393556D01*
X607500Y380942D02*
Y393356D01*
X607600Y381108D02*
Y393156D01*
X607700Y381402D02*
Y392887D01*
X607800Y381752D02*
Y392587D01*
X607900Y382102D02*
Y392287D01*
X608000Y382452D02*
Y391987D01*
X608100Y382802D02*
Y391687D01*
X608200Y383331D02*
Y391131D01*
X608300Y384031D02*
Y390331D01*
X608400Y384731D02*
Y389531D01*
X612200Y377806D02*
Y381090D01*
Y391081D02*
Y394105D01*
X612300Y377806D02*
Y381090D01*
Y391081D02*
Y394105D01*
X612400Y377806D02*
Y381090D01*
Y391081D02*
Y394105D01*
X612500Y377806D02*
Y381090D01*
Y391081D02*
Y394105D01*
X612600Y377806D02*
Y381090D01*
Y391081D02*
Y394105D01*
X612700Y377806D02*
Y381090D01*
Y391081D02*
Y394105D01*
X612800Y377806D02*
Y381090D01*
Y391081D02*
Y394105D01*
X612900Y377806D02*
Y381090D01*
Y391081D02*
Y394105D01*
X613000Y377806D02*
Y381090D01*
Y391081D02*
Y394105D01*
X613100Y377806D02*
Y381090D01*
Y391081D02*
Y394105D01*
X613200Y377806D02*
Y381090D01*
Y391081D02*
Y394105D01*
X613300Y377806D02*
Y381090D01*
Y391081D02*
Y394105D01*
X613400Y377806D02*
Y381090D01*
Y391081D02*
Y394105D01*
X613500Y377806D02*
Y381090D01*
Y391081D02*
Y394105D01*
X613600Y377806D02*
Y381090D01*
Y391081D02*
Y394105D01*
X613700Y377806D02*
Y381090D01*
Y391081D02*
Y394105D01*
X613800Y377806D02*
Y381090D01*
Y391081D02*
Y394105D01*
X613900Y377806D02*
Y381090D01*
Y391081D02*
Y394105D01*
X614000Y377806D02*
Y381090D01*
Y391081D02*
Y394131D01*
X614100Y377806D02*
Y381090D01*
Y391081D02*
Y394171D01*
X614200Y377806D02*
Y381090D01*
Y391081D02*
Y394211D01*
X614300Y377806D02*
Y381090D01*
Y391081D02*
Y394251D01*
X614400Y377806D02*
Y381090D01*
Y391081D02*
Y394291D01*
X614500Y377806D02*
Y381090D01*
Y391081D02*
Y394331D01*
X614600Y377806D02*
Y381090D01*
Y391081D02*
Y394371D01*
X614700Y377806D02*
Y381090D01*
Y391081D02*
Y394411D01*
X614800Y377806D02*
Y381090D01*
Y391081D02*
Y394451D01*
X614900Y377806D02*
Y381090D01*
Y391081D02*
Y394491D01*
X615000Y377806D02*
Y381090D01*
Y391081D02*
Y394531D01*
X615100Y377806D02*
Y381090D01*
Y391081D02*
Y394571D01*
X615200Y377806D02*
Y381090D01*
Y391081D02*
Y394611D01*
X615300Y377806D02*
Y381090D01*
Y391081D02*
Y394679D01*
X615400Y377806D02*
Y381090D01*
Y391081D02*
Y394779D01*
X615500Y377806D02*
Y381090D01*
Y391081D02*
Y394879D01*
X615600Y377806D02*
Y381090D01*
Y391081D02*
Y394979D01*
X615700Y377806D02*
Y381090D01*
Y391081D02*
Y395079D01*
X615800Y377806D02*
Y381090D01*
Y391081D02*
Y395179D01*
X615900Y377806D02*
Y381090D01*
Y391081D02*
Y395279D01*
X616000Y377806D02*
Y381090D01*
Y391081D02*
Y395379D01*
X616100Y377806D02*
Y395555D01*
X616200Y377806D02*
Y395805D01*
X616300Y377806D02*
Y396055D01*
X616400Y377806D02*
Y396305D01*
X616500Y377806D02*
Y396555D01*
X616600Y377806D02*
Y396708D01*
X616700Y377806D02*
Y396708D01*
X616800Y377806D02*
Y396708D01*
X616900Y377806D02*
Y396708D01*
X617000Y377806D02*
Y396708D01*
X617100Y377806D02*
Y396708D01*
X617200Y377806D02*
Y396708D01*
X617300Y377806D02*
Y396708D01*
X617400Y377806D02*
Y396708D01*
X617500Y377806D02*
Y396708D01*
X617600Y377806D02*
Y396708D01*
X617700Y377806D02*
Y396708D01*
X617800Y377806D02*
Y396708D01*
X617900Y377806D02*
Y396708D01*
X618000Y377806D02*
Y396708D01*
X618100Y377806D02*
Y396708D01*
X618200Y377806D02*
Y396708D01*
X618300Y377806D02*
Y396708D01*
X618400Y377806D02*
Y396708D01*
X618500Y377806D02*
Y396708D01*
X618600Y377806D02*
Y396708D01*
X618700Y377806D02*
Y396708D01*
X618800Y377806D02*
Y396708D01*
X618900Y377806D02*
Y396708D01*
X619000Y377806D02*
Y396708D01*
X619100Y377806D02*
Y396708D01*
X619200Y377806D02*
Y396708D01*
X619300Y377806D02*
Y396708D01*
X619400Y377806D02*
Y396708D01*
X619500Y377806D02*
Y396708D01*
X619600Y377806D02*
Y396708D01*
X619700Y377806D02*
Y396708D01*
X619800Y377806D02*
Y396708D01*
X619900Y377806D02*
Y396708D01*
X620000Y377806D02*
Y396708D01*
X620100Y377806D02*
Y396708D01*
X620200Y377806D02*
Y396708D01*
X620300Y377806D02*
Y396708D01*
X620400Y377806D02*
Y396708D01*
X620500Y377806D02*
Y396708D01*
X620600Y377806D02*
Y396708D01*
X620700Y377806D02*
Y381090D01*
X620800Y377806D02*
Y381090D01*
X620900Y377806D02*
Y381090D01*
X621000Y377806D02*
Y381090D01*
X621100Y377806D02*
Y381090D01*
X621200Y377806D02*
Y381090D01*
X621300Y377806D02*
Y381090D01*
X621400Y377806D02*
Y381090D01*
X621500Y377806D02*
Y381090D01*
X621600Y377806D02*
Y381090D01*
X621700Y377806D02*
Y381090D01*
X621800Y377806D02*
Y381090D01*
X621900Y377806D02*
Y381090D01*
X622000Y377806D02*
Y381090D01*
X622100Y377806D02*
Y381090D01*
X622200Y377806D02*
Y381090D01*
X622300Y377806D02*
Y381090D01*
X622400Y377806D02*
Y381090D01*
X622500Y377806D02*
Y381090D01*
X622600Y377806D02*
Y381090D01*
X622700Y377806D02*
Y381090D01*
X622800Y377806D02*
Y381090D01*
X622900Y377806D02*
Y381090D01*
X623000Y377806D02*
Y381090D01*
X623100Y377806D02*
Y381090D01*
X623200Y377806D02*
Y381090D01*
X623300Y377806D02*
Y381090D01*
X623400Y377806D02*
Y381090D01*
X623500Y377806D02*
Y381090D01*
X623600Y377806D02*
Y381090D01*
X623700Y377806D02*
Y381090D01*
X623800Y377806D02*
Y381090D01*
X623900Y377806D02*
Y381090D01*
X624000Y377806D02*
Y381090D01*
X624100Y377806D02*
Y381090D01*
X624200Y377806D02*
Y381090D01*
X624300Y377806D02*
Y381090D01*
X624400Y377806D02*
Y381090D01*
X624500Y377806D02*
Y381090D01*
X627600Y385537D02*
Y387155D01*
X627700Y384637D02*
Y388055D01*
X627800Y383767D02*
Y388924D01*
X627900Y382967D02*
Y389724D01*
X628000Y382167D02*
Y390524D01*
X628100Y381793D02*
Y390923D01*
X628200Y381593D02*
Y391156D01*
X628300Y381393D02*
Y391390D01*
X628400Y381193D02*
Y391623D01*
X628500Y380993D02*
Y391856D01*
X628600Y380793D02*
Y392090D01*
X628700Y380593D02*
Y392323D01*
X628800Y380393D02*
Y392556D01*
X628900Y380266D02*
Y392711D01*
X629000Y380141D02*
Y392861D01*
X629100Y380016D02*
Y393011D01*
X629200Y379891D02*
Y393161D01*
X629300Y379766D02*
Y393311D01*
X629400Y379641D02*
Y393461D01*
X629500Y379516D02*
Y393611D01*
X629600Y379391D02*
Y393761D01*
X629700Y379266D02*
Y393911D01*
X629800Y379141D02*
Y394061D01*
X629900Y379047D02*
Y394181D01*
X630000Y378972D02*
Y394281D01*
X630100Y378897D02*
Y394381D01*
X630200Y378822D02*
Y394481D01*
X630300Y378747D02*
Y394581D01*
X630400Y378672D02*
Y394681D01*
X630500Y378597D02*
Y394781D01*
X630600Y378522D02*
Y394881D01*
X630700Y378447D02*
Y394981D01*
X630800Y378372D02*
Y395081D01*
X630900Y378304D02*
Y395181D01*
X631000Y378254D02*
Y395281D01*
X631100Y378204D02*
Y395381D01*
X631200Y378154D02*
Y395453D01*
X631300Y378104D02*
Y395511D01*
X631400Y378054D02*
Y395568D01*
X631500Y378004D02*
Y395625D01*
X631600Y377954D02*
Y395682D01*
X631700Y377904D02*
Y395739D01*
X631800Y377854D02*
Y395796D01*
X631900Y377804D02*
Y395853D01*
X632000Y377770D02*
Y395911D01*
X632100Y377737D02*
Y383974D01*
Y386627D02*
Y389188D01*
Y389234D02*
Y395968D01*
X632200Y377704D02*
Y383474D01*
Y386671D02*
Y389181D01*
Y389634D02*
Y396025D01*
X632300Y377670D02*
Y382974D01*
Y386696D02*
Y389231D01*
Y390034D02*
Y396082D01*
X632400Y377637D02*
Y382517D01*
Y386721D02*
Y389281D01*
Y390434D02*
Y396139D01*
X632500Y377604D02*
Y382117D01*
Y386746D02*
Y389331D01*
Y390834D02*
Y396196D01*
X632600Y377570D02*
Y381717D01*
Y386771D02*
Y389381D01*
Y391234D02*
Y396253D01*
X632700Y377537D02*
Y381555D01*
Y386796D02*
Y389431D01*
Y391414D02*
Y396311D01*
X632800Y377504D02*
Y381455D01*
Y386821D02*
Y389481D01*
Y391539D02*
Y396368D01*
X632900Y377470D02*
Y381355D01*
Y386846D02*
Y389531D01*
Y391664D02*
Y396425D01*
X633000Y377437D02*
Y381255D01*
Y386871D02*
Y389581D01*
Y391789D02*
Y396464D01*
X633100Y377404D02*
Y381155D01*
Y386896D02*
Y389631D01*
Y391914D02*
Y396489D01*
X633200Y377370D02*
Y381071D01*
Y386921D02*
Y389681D01*
Y392039D02*
Y396514D01*
X633300Y377337D02*
Y381004D01*
Y386946D02*
Y389731D01*
Y392164D02*
Y396539D01*
X633400Y377304D02*
Y380937D01*
Y386971D02*
Y389781D01*
Y392289D02*
Y396564D01*
X633500Y377285D02*
Y380871D01*
Y386996D02*
Y389831D01*
Y392414D02*
Y396589D01*
X633600Y377285D02*
Y380804D01*
Y387021D02*
Y389881D01*
Y392539D02*
Y396614D01*
X633700Y377285D02*
Y380737D01*
Y387046D02*
Y389931D01*
Y392648D02*
Y396639D01*
X633800Y377285D02*
Y380671D01*
Y387071D02*
Y389981D01*
Y392715D02*
Y396664D01*
X633900Y377285D02*
Y380604D01*
Y387096D02*
Y390031D01*
Y392782D02*
Y396689D01*
X634000Y377285D02*
Y380559D01*
Y387121D02*
Y390081D01*
Y392848D02*
Y396714D01*
X634100Y377285D02*
Y380534D01*
Y387146D02*
Y390131D01*
Y392915D02*
Y396739D01*
X634200Y377285D02*
Y380509D01*
Y387171D02*
Y390181D01*
Y392982D02*
Y396764D01*
X634300Y377285D02*
Y380484D01*
Y387163D02*
Y390209D01*
Y393048D02*
Y396789D01*
X634400Y377285D02*
Y380459D01*
Y387143D02*
Y390221D01*
Y393115D02*
Y396814D01*
X634500Y377285D02*
Y380434D01*
Y387123D02*
Y390234D01*
Y393182D02*
Y396839D01*
X634600Y377285D02*
Y380409D01*
Y387103D02*
Y390246D01*
Y393248D02*
Y396864D01*
X634700Y377285D02*
Y380384D01*
Y387083D02*
Y390259D01*
Y393315D02*
Y396889D01*
X634800Y377285D02*
Y380359D01*
Y387063D02*
Y390271D01*
Y393382D02*
Y396914D01*
X634900Y377285D02*
Y380334D01*
Y387043D02*
Y390284D01*
Y393448D02*
Y396939D01*
X635000Y377285D02*
Y380310D01*
Y387023D02*
Y390296D01*
Y393515D02*
Y396964D01*
X635100Y377303D02*
Y380337D01*
Y387003D02*
Y390309D01*
Y393582D02*
Y396978D01*
X635200Y377321D02*
Y380370D01*
Y386983D02*
Y390321D01*
Y393648D02*
Y396989D01*
X635300Y377339D02*
Y380403D01*
Y386963D02*
Y390334D01*
Y393688D02*
Y397000D01*
X635400Y377357D02*
Y380437D01*
Y386943D02*
Y390346D01*
Y393701D02*
Y397011D01*
X635500Y377376D02*
Y380470D01*
Y386923D02*
Y390359D01*
Y393713D02*
Y397022D01*
X635600Y377394D02*
Y380503D01*
Y386879D02*
Y390371D01*
Y393726D02*
Y397033D01*
X635700Y377412D02*
Y380537D01*
Y386812D02*
Y390384D01*
Y393738D02*
Y397044D01*
X635800Y377430D02*
Y380570D01*
Y386746D02*
Y390396D01*
Y393751D02*
Y397056D01*
X635900Y377448D02*
Y380633D01*
Y386679D02*
Y390409D01*
Y393763D02*
Y397067D01*
X636000Y377466D02*
Y380700D01*
Y386612D02*
Y390421D01*
Y393776D02*
Y397078D01*
X636100Y377485D02*
Y380766D01*
Y386546D02*
Y390434D01*
Y393788D02*
Y397089D01*
X636200Y377503D02*
Y380833D01*
Y386479D02*
Y390446D01*
Y393801D02*
Y397100D01*
X636300Y377521D02*
Y380900D01*
Y386412D02*
Y390459D01*
Y393813D02*
Y397111D01*
X636400Y377539D02*
Y380966D01*
Y386326D02*
Y390447D01*
Y393826D02*
Y397122D01*
X636500Y377557D02*
Y381033D01*
Y386226D02*
Y390433D01*
Y393838D02*
Y397133D01*
X636600Y377576D02*
Y381100D01*
Y386126D02*
Y390419D01*
Y393851D02*
Y397144D01*
X636700Y377594D02*
Y381287D01*
Y386026D02*
Y390404D01*
Y393863D02*
Y397156D01*
X636800Y377612D02*
Y381487D01*
Y385926D02*
Y390390D01*
Y393876D02*
Y397167D01*
X636900Y377630D02*
Y381687D01*
Y385826D02*
Y390376D01*
Y393888D02*
Y397178D01*
X637000Y377648D02*
Y381887D01*
Y385726D02*
Y390361D01*
Y393901D02*
Y397189D01*
X637100Y377666D02*
Y382087D01*
Y385626D02*
Y390347D01*
Y393913D02*
Y397200D01*
X637200Y377685D02*
Y382350D01*
Y385214D02*
Y390333D01*
Y393926D02*
Y397211D01*
X637300Y377703D02*
Y382650D01*
Y384614D02*
Y390319D01*
Y393938D02*
Y397222D01*
X637400Y377721D02*
Y382951D01*
Y384014D02*
Y390304D01*
Y393937D02*
Y397221D01*
X637500Y377739D02*
Y390290D01*
Y393920D02*
Y397206D01*
X637600Y377757D02*
Y390276D01*
Y393904D02*
Y397192D01*
X637700Y377776D02*
Y390261D01*
Y393887D02*
Y397178D01*
X637800Y377794D02*
Y390247D01*
Y393870D02*
Y397164D01*
X637900Y377829D02*
Y390233D01*
Y393854D02*
Y397149D01*
X638000Y377884D02*
Y390219D01*
Y393837D02*
Y397135D01*
X638100Y377940D02*
Y390204D01*
Y393820D02*
Y397121D01*
X638200Y377995D02*
Y390167D01*
Y393804D02*
Y397106D01*
X638300Y378051D02*
Y390124D01*
Y393787D02*
Y397092D01*
X638400Y378107D02*
Y390081D01*
Y393770D02*
Y397078D01*
X638500Y378162D02*
Y390038D01*
Y393754D02*
Y397064D01*
X638600Y378218D02*
Y389995D01*
Y393737D02*
Y397049D01*
X638700Y378273D02*
Y389952D01*
Y393720D02*
Y397035D01*
X638800Y378329D02*
Y389910D01*
Y393704D02*
Y397021D01*
X638900Y378384D02*
Y389867D01*
Y393687D02*
Y397006D01*
X639000Y378440D02*
Y389824D01*
Y393668D02*
Y396992D01*
X639100Y378495D02*
Y389781D01*
Y393648D02*
Y396978D01*
X639200Y378551D02*
Y389738D01*
Y393628D02*
Y396968D01*
X639300Y378607D02*
Y389695D01*
Y393608D02*
Y396968D01*
X639400Y378662D02*
Y389652D01*
Y393588D02*
Y396968D01*
X639500Y378718D02*
Y389610D01*
Y393568D02*
Y396968D01*
X639600Y378773D02*
Y389567D01*
Y393548D02*
Y396968D01*
X639700Y378829D02*
Y389524D01*
Y393528D02*
Y396968D01*
X639800Y378884D02*
Y389481D01*
Y393508D02*
Y396968D01*
X639900Y378940D02*
Y389438D01*
Y393488D02*
Y396968D01*
X640000Y378995D02*
Y389325D01*
Y393468D02*
Y396968D01*
X640100Y379051D02*
Y389191D01*
Y393448D02*
Y396968D01*
X640200Y379134D02*
Y389058D01*
Y393428D02*
Y396968D01*
X640300Y379314D02*
Y388925D01*
Y393424D02*
Y396968D01*
X640400Y379494D02*
Y388791D01*
Y393424D02*
Y396968D01*
X640500Y379674D02*
Y388658D01*
X640600Y379854D02*
Y388525D01*
X640700Y380034D02*
Y388391D01*
X640800Y380214D02*
Y388258D01*
X640900Y380394D02*
Y388125D01*
X641000Y380574D02*
Y387991D01*
X641100Y380754D02*
Y387858D01*
X641200Y380934D02*
Y387725D01*
X641300Y381114D02*
Y387591D01*
X641400Y381294D02*
Y387458D01*
X641500Y381592D02*
Y387178D01*
X641600Y382142D02*
Y386578D01*
X641700Y382692D02*
Y385978D01*
X641800Y383242D02*
Y385378D01*
X641900Y383792D02*
Y384778D01*
*
G04 PC Custom Flashes*
G04 Layer Name kimchicon_final.pcb - flashes*
%LPD*%
*
*
G04 PC Circuitry*
G04 Layer Name kimchicon_final.pcb - circuitry*
%LPD*%
*
G54D10*
G54D11*
X536811Y736220D02*
X534843Y738189D01*
X497441*
Y698819*
X536811*
Y736220*
X422961Y798811D02*
X402961D01*
Y808811*
X422961*
Y798811*
X418866Y809717D02*
X420835Y811685D01*
X416898*
X418866Y809717*
X640205Y665307D02*
Y602315D01*
X545717*
Y665307*
X640205*
X422646Y787827D02*
Y747827D01*
X402646*
Y787827*
X422646*
X400835Y783575D02*
X398866Y785543D01*
Y781606*
X400835Y783575*
X422646Y736646D02*
Y696646D01*
X402646*
Y736646*
X422646*
X400835Y732394D02*
X398866Y734362D01*
Y730425*
X400835Y732394*
X422646Y685465D02*
Y645465D01*
X402646*
Y685465*
X422646*
X400835Y681213D02*
X398866Y683181D01*
Y679244*
X400835Y681213*
X430858Y472551D02*
X452016Y493709D01*
X473173Y472551*
X452016Y451394*
X430858Y472551*
X507134Y496173D02*
X554378D01*
Y448929*
X507134*
Y496173*
X581937D02*
X629181D01*
Y448929*
X581937*
Y496173*
X639260Y789087D02*
Y773339D01*
X607764*
Y789087*
X639260*
X648701Y513701D02*
X608701D01*
Y533701*
X648701*
Y513701*
X644449Y535512D02*
X646417Y537480D01*
X642480*
X644449Y535512*
X648701Y543701D02*
X608701D01*
Y563701*
X648701*
Y543701*
X644449Y565512D02*
X646417Y567480D01*
X642480*
X644449Y565512*
X628110Y675748D02*
X608110D01*
Y705748*
X628110*
Y675748*
X633110Y678248D02*
X630610Y680748D01*
X633110Y683248*
Y678248*
X479921Y586024D02*
X499606D01*
Y601772*
X460236*
Y586024*
X479921*
X442835Y819370D02*
X468425D01*
Y874488*
X417244*
Y819370*
X442835*
X397451Y551368D02*
Y546201D01*
Y551368D02*
X399061D01*
X399598Y551122*
X399777Y550876*
X399956Y550384*
Y549892*
X399777Y549400*
X399598Y549154*
X399061Y548907*
X397451*
X398703D02*
X399956Y546201D01*
X401567Y551368D02*
Y546201D01*
Y551368D02*
X403893D01*
X401567Y548907D02*
X402998D01*
X401567Y546201D02*
X403893D01*
X408009Y550630D02*
X407651Y551122D01*
X407114Y551368*
X406399*
X405862Y551122*
X405504Y550630*
Y550138*
X405683Y549646*
X405862Y549400*
X406220Y549154*
X407293Y548661*
X407651Y548415*
X407830Y548169*
X408009Y547677*
Y546939*
X407651Y546447*
X407114Y546201*
X406399*
X405862Y546447*
X405504Y546939*
X409620Y551368D02*
Y546201D01*
Y551368D02*
X411946D01*
X409620Y548907D02*
X411051D01*
X409620Y546201D02*
X411946D01*
X414809Y551368D02*
Y546201D01*
X413557Y551368D02*
X416062D01*
X653533Y523701D02*
X658701D01*
X653533D02*
Y526027D01*
X655994Y523701D02*
Y525132D01*
X658701Y523701D02*
Y526027D01*
X654272Y530143D02*
X653780Y529785D01*
X653533Y529248*
Y528533*
X653780Y527996*
X654272Y527638*
X654764*
X655256Y527817*
X655502Y527996*
X655748Y528354*
X656240Y529427*
X656486Y529785*
X656732Y529964*
X657224Y530143*
X657963*
X658455Y529785*
X658701Y529248*
Y528533*
X658455Y527996*
X657963Y527638*
X653533Y531754D02*
X658701D01*
X653533D02*
Y533364D01*
X653780Y533901*
X654026Y534080*
X654518Y534259*
X655256*
X655748Y534080*
X655994Y533901*
X656240Y533364*
Y531754*
X653533Y536764D02*
X653780Y536228D01*
X654272Y536049*
X654764*
X655256Y536228*
X655502Y536586*
X655748Y537301*
X655994Y537838*
X656486Y538196*
X656978Y538375*
X657717*
X658209Y538196*
X658455Y538017*
X658701Y537480*
Y536764*
X658455Y536228*
X658209Y536049*
X657717Y535870*
X656978*
X656486Y536049*
X655994Y536407*
X655748Y536943*
X655502Y537659*
X655256Y538017*
X654764Y538196*
X654272*
X653780Y538017*
X653533Y537480*
Y536764*
X654764Y540165D02*
X654518D01*
X654026Y540344*
X653780Y540523*
X653533Y540880*
Y541596*
X653780Y541954*
X654026Y542133*
X654518Y542312*
X655010*
X655502Y542133*
X656240Y541775*
X658701Y539986*
Y542491*
X654272Y546249D02*
X653780Y546070D01*
X653533Y545533*
Y545175*
X653780Y544639*
X654518Y544281*
X655748Y544102*
X656978*
X657963Y544281*
X658455Y544639*
X658701Y545175*
Y545354*
X658455Y545891*
X657963Y546249*
X657224Y546428*
X656978*
X656240Y546249*
X655748Y545891*
X655502Y545354*
Y545175*
X655748Y544639*
X656240Y544281*
X656978Y544102*
X654272Y550186D02*
X653780Y550007D01*
X653533Y549470*
Y549112*
X653780Y548576*
X654518Y548218*
X655748Y548039*
X656978*
X657963Y548218*
X658455Y548576*
X658701Y549112*
Y549291*
X658455Y549828*
X657963Y550186*
X657224Y550365*
X656978*
X656240Y550186*
X655748Y549828*
X655502Y549291*
Y549112*
X655748Y548576*
X656240Y548218*
X656978Y548039*
X426219Y709402D02*
X431386D01*
X426219D02*
X431386Y710833D01*
X426219Y712265D02*
X431386Y710833D01*
X426219Y712265D02*
X431386D01*
X427449Y716560D02*
X426957Y716381D01*
X426465Y716023*
X426219Y715665*
Y714949*
X426465Y714591*
X426957Y714233*
X427449Y714054*
X428187Y713875*
X429417*
X430156Y714054*
X430648Y714233*
X431140Y714591*
X431386Y714949*
Y715665*
X431140Y716023*
X430648Y716381*
X430156Y716560*
X426219Y718170D02*
X429909D01*
X430648Y718349*
X431140Y718707*
X431386Y719244*
Y719602*
X431140Y720139*
X430648Y720497*
X429909Y720676*
X426219*
X607298Y770031D02*
X607120Y770524D01*
X606762Y771016*
X606404Y771262*
X605688*
X605330Y771016*
X604972Y770524*
X604793Y770031*
X604614Y769293*
Y768063*
X604793Y767325*
X604972Y766833*
X605330Y766341*
X605688Y766094*
X606404*
X606762Y766341*
X607120Y766833*
X607298Y767325*
X608909Y771262D02*
Y766094D01*
X611414Y771262D02*
Y766094D01*
X608909Y768801D02*
X611414D01*
X615709Y770031D02*
X615530Y770524D01*
X615173Y771016*
X614815Y771262*
X614099*
X613741Y771016*
X613383Y770524*
X613204Y770031*
X613025Y769293*
Y768063*
X613204Y767325*
X613383Y766833*
X613741Y766341*
X614099Y766094*
X614815*
X615173Y766341*
X615530Y766833*
X615709Y767325*
Y768063*
X614815D02*
X615709D01*
X637184Y771262D02*
X636826Y771016D01*
X636468Y770524*
X636289Y770031*
X636110Y769293*
Y768063*
X636289Y767325*
X636468Y766833*
X636826Y766341*
X637184Y766094*
X637900*
X638258Y766341*
X638616Y766833*
X638795Y767325*
X638974Y768063*
Y769293*
X638795Y770031*
X638616Y770524*
X638258Y771016*
X637900Y771262*
X637184*
X640584D02*
Y766094D01*
Y771262D02*
X643089Y766094D01*
Y771262D02*
Y766094D01*
X457961Y573978D02*
Y568811D01*
X460108*
X464403Y572748D02*
X464224Y573240D01*
X463866Y573732*
X463508Y573978*
X462792*
X462435Y573732*
X462435D02*
X462077Y573240D01*
X461898Y572748*
X461719Y572010*
Y570780*
X461898Y570041*
X462077Y569549*
X462435Y569057*
X462435D02*
X462792Y568811D01*
X463508*
X463866Y569057*
X464224Y569549*
X464403Y570041*
X466014Y573978D02*
Y568811D01*
Y573978D02*
X467266D01*
X467803Y573732*
X468161Y573240*
X468340Y572748*
X468519Y572010*
Y570780*
X468340Y570041*
X468161Y569549*
X467803Y569057*
X467266Y568811*
X466014*
X474246Y573978D02*
Y568811D01*
Y573978D02*
X475677Y568811D01*
X477109Y573978D02*
X475677Y568811D01*
X477109Y573978D02*
Y568811D01*
X479793Y573978D02*
X479435Y573732D01*
X479077Y573240*
X478898Y572748*
X478719Y572010*
Y570780*
X478898Y570041*
X479077Y569549*
X479435Y569057*
X479793Y568811*
X480509*
X480867Y569057*
X481225Y569549*
X481404Y570041*
X481583Y570780*
Y572010*
X481404Y572748*
X481225Y573240*
X480867Y573732*
X480509Y573978*
X479793*
X483193D02*
Y568811D01*
Y573978D02*
X484446D01*
X484983Y573732*
X485341Y573240*
X485520Y572748*
X485699Y572010*
Y570780*
X485520Y570041*
X485341Y569549*
X484983Y569057*
X484446Y568811*
X483193*
X487309Y573978D02*
Y570287D01*
X487488Y569549*
X487846Y569057*
X488383Y568811*
X488741*
X489278Y569057*
X489636Y569549*
X489815Y570287*
Y573978*
X491425D02*
Y568811D01*
X493573*
X495183Y573978D02*
Y568811D01*
Y573978D02*
X497510D01*
X495183Y571518D02*
X496615D01*
X495183Y568811D02*
X497510D01*
X409213Y633978D02*
Y628811D01*
X407961Y633978D02*
X410466D01*
X412077D02*
X414582Y628811D01*
Y633978D02*
X412077Y628811D01*
X407961Y618978D02*
Y613811D01*
Y618978D02*
X409571D01*
X410108Y618732*
X410287Y618486*
X410466Y617994*
Y617502*
X410287Y617010*
X410108Y616764*
X409571Y616518*
X407961*
X409213D02*
X410466Y613811D01*
X412077Y618978D02*
X414582Y613811D01*
Y618978D02*
X412077Y613811D01*
X613701Y713868D02*
Y708701D01*
X617817Y713130D02*
X617459Y713622D01*
X616922Y713868*
X616206*
X615669Y713622*
X615311Y713130*
Y712638*
X615490Y712146*
X615669Y711900*
X616027Y711654*
X617101Y711161*
X617459Y710915*
X617638Y710669*
X617817Y710177*
Y709439*
X617459Y708947*
X616922Y708701*
X616206*
X615669Y708947*
X615311Y709439*
X619427Y713868D02*
Y708701D01*
Y713868D02*
X621038D01*
X621575Y713622*
X621754Y713376*
X621933Y712884*
Y712146*
X621754Y711654*
X621575Y711407*
X621038Y711161*
X619427*
X404951Y797618D02*
Y792451D01*
Y797618D02*
X406561D01*
X407098Y797372*
X407277Y797126*
X407456Y796634*
Y796142*
X407277Y795650*
X407098Y795404*
X406561Y795157*
X404951D02*
X406561D01*
X407098Y794911*
X407277Y794665*
X407456Y794173*
Y793435*
X407277Y792943*
X407098Y792697*
X406561Y792451*
X404951*
X410498Y797618D02*
X409067Y792451D01*
X410498Y797618D02*
X411930Y792451D01*
X409604Y794173D02*
X411393D01*
X414793Y797618D02*
Y792451D01*
X413541Y797618D02*
X416046D01*
X418909D02*
Y792451D01*
X417657Y797618D02*
X420162D01*
X389764Y393701D02*
X413386Y374016D01*
X433071Y393701*
X551181*
X570866Y374016*
X649606*
X669291Y393701*
Y590551*
X649606Y610236*
Y846457*
X629921Y866142*
X570866*
X551181Y846457*
X413386*
X389764Y826772*
Y393701*
G54D12*
X532874Y746063D02*
X533661Y746850D01*
X532087*
X532874Y746063*
X520276Y746850D02*
Y745276D01*
X504528Y746850D02*
Y745276D01*
X490354Y724803D02*
X488780D01*
X490354Y709055D02*
X488780D01*
X507677Y691732D02*
Y690157D01*
X523425Y691732D02*
Y690157D01*
X543898Y705906D02*
X545472D01*
X543898Y721654D02*
X545472D01*
X438197Y538575D02*
X417724D01*
Y559047*
X438197*
Y538575*
X475441Y713811D02*
Y726409D01*
X480559*
Y713811*
X475441*
X474063Y795268D02*
X461858D01*
Y802354*
X474063*
Y795268*
X635913Y756252D02*
X623709D01*
Y763339*
X635913*
Y756252*
X434299Y809323D02*
X451622D01*
Y798299*
X434299*
Y809323*
X446898D02*
Y798299D01*
X541339Y534252D02*
G75*
G03X541339I-17717J0D01*
G54D13*
G01X514461Y762611D02*
Y756811D01*
X521461*
Y762611*
X514461Y765011D02*
Y770811D01*
X521461*
Y765011*
X506461Y675011D02*
Y680811D01*
X499461*
Y675011*
X506461Y672611D02*
Y666811D01*
X499461*
Y672611*
X429901Y525201D02*
X435701D01*
Y532201*
X429901*
X427501Y525201D02*
X421701D01*
Y532201*
X427501*
X626933Y742098D02*
Y747898D01*
X619933*
Y742098*
X626933Y739698D02*
Y733898D01*
X619933*
Y739698*
X636933Y742098D02*
Y747898D01*
X629933*
Y742098*
X636933Y739698D02*
Y733898D01*
X629933*
Y739698*
X639220Y809530D02*
Y817580D01*
X629220*
Y809530*
X639220Y802030D02*
Y793980D01*
X629220*
Y802030*
X439211Y793811D02*
X431161D01*
Y783811*
X439211*
X446711Y793811D02*
X454761D01*
Y783811*
X446711*
X550178Y700744D02*
X544378D01*
Y693744*
X550178*
X552578Y700744D02*
X558378D01*
Y693744*
X552578*
X434161Y605311D02*
X439961D01*
Y612311*
X434161*
X431761Y605311D02*
X425961D01*
Y612311*
X431761*
X434161Y620311D02*
X439961D01*
Y627311*
X434161*
X431761Y620311D02*
X425961D01*
Y627311*
X431761*
X569461Y792611D02*
Y786811D01*
X576461*
Y792611*
X569461Y795011D02*
Y800811D01*
X576461*
Y795011*
X579461Y792611D02*
Y786811D01*
X586461*
Y792611*
X579461Y795011D02*
Y800811D01*
X586461*
Y795011*
X615383Y808650D02*
X609583D01*
Y801650*
X615383*
X617783Y808650D02*
X623583D01*
Y801650*
X617783*
X616933Y742098D02*
Y747898D01*
X609933*
Y742098*
X616933Y739698D02*
Y733898D01*
X609933*
Y739698*
X468201Y777493D02*
Y771693D01*
X475201*
Y777493*
X468201Y779893D02*
Y785693D01*
X475201*
Y779893*
X433956Y589886D02*
X439756D01*
Y596886*
X433956*
X431556Y589886D02*
X425756D01*
Y596886*
X431556*
X562501Y677201D02*
X556701D01*
Y670201*
X562501*
X564901Y677201D02*
X570701D01*
Y670201*
X564901*
X427501Y522201D02*
X421701D01*
Y515201*
X427501*
X429901Y522201D02*
X435701D01*
Y515201*
X429901*
X497201Y559901D02*
Y565701D01*
X490201*
Y559901*
X497201Y557501D02*
Y551701D01*
X490201*
Y557501*
X487201Y559901D02*
Y565701D01*
X480201*
Y559901*
X487201Y557501D02*
Y551701D01*
X480201*
Y557501*
X477201Y559901D02*
Y565701D01*
X470201*
Y559901*
X477201Y557501D02*
Y551701D01*
X470201*
Y557501*
X467201Y559901D02*
Y565701D01*
X460201*
Y559901*
X467201Y557501D02*
Y551701D01*
X460201*
Y557501*
X492201Y534901D02*
Y540701D01*
X485201*
Y534901*
X492201Y532501D02*
Y526701D01*
X485201*
Y532501*
X482201Y534901D02*
Y540701D01*
X475201*
Y534901*
X482201Y532501D02*
Y526701D01*
X475201*
Y532501*
X472201Y534901D02*
Y540701D01*
X465201*
Y534901*
X472201Y532501D02*
Y526701D01*
X465201*
Y532501*
X462201Y534901D02*
Y540701D01*
X455201*
Y534901*
X462201Y532501D02*
Y526701D01*
X455201*
Y532501*
X494138Y617501D02*
Y611701D01*
X501138*
Y617501*
X494138Y619901D02*
Y625701D01*
X501138*
Y619901*
X579901Y670201D02*
X585701D01*
Y677201*
X579901*
X577501Y670201D02*
X571701D01*
Y677201*
X577501*
X453984Y805228D02*
X589811D01*
Y576882*
X453984*
Y805228*
G54D14*
X615205Y846075D02*
X618157Y843024D01*
X612252*
X615205Y846075*
X414461Y605811D02*
X418961D01*
Y611811*
X414461*
X411461Y605811D02*
X406961D01*
Y611811*
X411461*
X413945Y607039D02*
Y610583D01*
X411976D02*
Y607039D01*
X413748Y608811*
X411976Y610583*
X414461Y620811D02*
X418961D01*
Y626811*
X414461*
X411461Y620811D02*
X406961D01*
Y626811*
X411461*
X413945Y622039D02*
Y625583D01*
X411976D02*
Y622039D01*
X413748Y623811*
X411976Y625583*
X601705Y802150D02*
X606205D01*
Y808150*
X601705*
X598705Y802150D02*
X594205D01*
Y808150*
X598705*
X601189Y803378D02*
Y806921D01*
X599220D02*
Y803378D01*
X600992Y805150*
X599220Y806921*
X522122Y513630D02*
X517622D01*
Y507630*
X522122*
X525122Y513630D02*
X529622D01*
Y507630*
X525122*
X522638Y512402D02*
Y508858D01*
X524606D02*
Y512402D01*
X522835Y510630*
X524606Y508858*
X537566Y517596D02*
X534384Y514414D01*
X538627Y510171*
X541809Y513353*
X539687Y519717D02*
X542869Y522899D01*
X547112Y518657*
X543930Y515475*
X538799Y517092D02*
X541305Y514587D01*
X542697Y515979D02*
X540191Y518484D01*
Y515979*
X542697*
X543654Y532161D02*
Y527661D01*
X549654*
Y532161*
X543654Y535161D02*
Y539661D01*
X549654*
Y535161*
X544882Y532677D02*
X548425D01*
Y534646D02*
X544882D01*
X546654Y532874*
X548425Y534646*
X539687Y547605D02*
X542869Y544423D01*
X547112Y548666*
X543930Y551848*
X537566Y549727D02*
X534384Y552909D01*
X538627Y557151*
X541809Y553969*
X540191Y548839D02*
X542697Y551344D01*
X541305Y552736D02*
X538799Y550231D01*
X541305*
Y552736*
X525122Y554480D02*
X529622D01*
Y560480*
X525122*
X522122Y554480D02*
X517622D01*
Y560480*
X522122*
X524606Y555709D02*
Y559252D01*
X522638D02*
Y555709D01*
X524409Y557480*
X522638Y559252*
X509678Y549727D02*
X512860Y552909D01*
X508617Y557151*
X505435Y553969*
X507557Y547605D02*
X504375Y544423D01*
X500132Y548666*
X503314Y551848*
X508445Y550231D02*
X505939Y552736D01*
X504547Y551344D02*
X507053Y548839D01*
Y551344*
X504547*
X503591Y535161D02*
Y539661D01*
X497591*
Y535161*
X503591Y532161D02*
Y527661D01*
X497591*
Y532161*
X502362Y534646D02*
X498819D01*
Y532677D02*
X502362D01*
X500591Y534449*
X498819Y532677*
X507557Y519717D02*
X504375Y522899D01*
X500132Y518657*
X503314Y515475*
X509678Y517596D02*
X512860Y514414D01*
X508617Y510171*
X505435Y513353*
X507053Y518484D02*
X504547Y515979D01*
X505939Y514587D02*
X508445Y517092D01*
X505939*
Y514587*
G54D15*
X482961Y798811D02*
X562961D01*
Y788811*
X482961*
Y798811*
X487528Y785937D02*
X485559Y783969D01*
X489496*
X487528Y785937*
G54D16*
X516195Y531053D02*
Y524409D01*
X513780Y527731D02*
X518611D01*
G54D17*
X538386Y742458D02*
Y739690D01*
X538520Y739136*
X538788Y738767*
X539191Y738583*
X539460*
X539862Y738767*
X540131Y739136*
X540265Y739690*
Y742458*
X541473Y741720D02*
X541741Y741905D01*
X542144Y742458*
Y738583*
X427596Y564062D02*
X427327Y564431D01*
X426924Y564616*
X426388*
X425985Y564431*
X425717Y564062*
Y563693*
X425851Y563324*
X425985Y563139*
X426253Y562955*
X427059Y562586*
X427327Y562401*
X427461Y562217*
X427596Y561847*
Y561294*
X427327Y560925*
X426924Y560740*
X426388*
X425985Y560925*
X425717Y561294*
X428804Y563877D02*
X429072Y564062D01*
X429475Y564616*
Y560740*
X524181Y764328D02*
X523812Y764194D01*
X523443Y763926*
X523258Y763657*
Y763120*
X523443Y762852*
X523812Y762583*
X524181Y762449*
X524735Y762315*
X525657*
X526211Y762449*
X526580Y762583*
X526949Y762852*
X527134Y763120*
Y763657*
X526949Y763926*
X526580Y764194*
X526211Y764328*
X523997Y765536D02*
X523812Y765805D01*
X523258Y766207*
X527134*
X469085Y718220D02*
X470931Y719294D01*
X472961*
X469085Y720368D02*
X470931Y719294D01*
X469823Y721576D02*
X469639Y721844D01*
X469085Y722247*
X472961*
X502134Y661651D02*
X501765Y661517D01*
X501396Y661248*
X501211Y660980*
Y660443*
X501396Y660175*
X501765Y659906*
X502134Y659772*
X502687Y659638*
X502687D02*
X503610D01*
X504164Y659772*
X504533Y659906*
X504902Y660175*
X505087Y660443*
Y660980*
X504902Y661248*
X504533Y661517*
X504164Y661651*
X502134Y662993D02*
X501949D01*
X501580Y663127*
X501396Y663262*
X501211Y663530*
Y664067*
X501396Y664335*
X501580Y664470*
X501949Y664604*
X502318*
X502687Y664470*
X502687D02*
X503241Y664201D01*
X505087Y662859*
Y664738*
X437795Y530490D02*
Y526614D01*
Y530490D02*
X439003D01*
X439406Y530305*
X439540Y530121*
X439674Y529751*
Y529382*
X439540Y529013*
X439406Y528829*
X439003Y528644*
X437795*
X438735D02*
X439674Y526614D01*
X440882Y529751D02*
X441151Y529936D01*
X441553Y530490*
Y526614*
X622449Y729053D02*
X622080Y728918D01*
X621711Y728650*
X621526Y728382*
Y727845*
X621711Y727576*
X622080Y727308*
X622449Y727174*
X623002Y727039*
X623925*
X624479Y727174*
X624848Y727308*
X625217Y727576*
X625402Y727845*
Y728382*
X625217Y728650*
X624848Y728918*
X624479Y729053*
X621526Y730529D02*
Y732005D01*
X623002Y731200*
Y731603*
X623187Y731871*
X623372Y732005*
X623925Y732140*
X624294*
X624848Y732005*
X625217Y731737*
X625402Y731334*
Y730932*
X625217Y730529*
X625032Y730395*
X624663Y730261*
X632528Y729053D02*
X632158Y728918D01*
X631789Y728650*
X631605Y728382*
Y727845*
X631789Y727576*
X632158Y727308*
X632528Y727174*
X633081Y727039*
X634004*
X634558Y727174*
X634927Y727308*
X635296Y727576*
X635480Y727845*
Y728382*
X635296Y728650*
X634927Y728918*
X634558Y729053*
X631605Y731603D02*
X634188Y730261D01*
Y732274*
X631605Y731603D02*
X635480D01*
X641976Y804013D02*
X641607Y803879D01*
X641238Y803611*
X641054Y803342*
Y802805*
X641238Y802537*
X641607Y802268*
X641976Y802134*
X642530Y802000*
X643453*
X644006Y802134*
X644375Y802268*
X644745Y802537*
X644929Y802805*
Y803342*
X644745Y803611*
X644375Y803879*
X644006Y804013*
X641054Y806966D02*
Y805624D01*
X642715Y805490*
X642530Y805624*
X642345Y806026*
Y806429*
X642530Y806832*
X642899Y807100*
X643453Y807234*
X643822Y807100*
X644375Y806966*
X644745Y806698*
X644929Y806295*
Y805892*
X644745Y805490*
X644560Y805355*
X644191Y805221*
X427100Y789835D02*
X426966Y790204D01*
X426697Y790573*
X426429Y790757*
X425892*
X425623Y790573*
X425355Y790204*
X425221Y789835*
X425087Y789281*
Y788358*
X425221Y787805*
X425355Y787436*
X425623Y787066*
X425892Y786882*
X426429*
X426697Y787066*
X426966Y787436*
X427100Y787805*
X429918Y790204D02*
X429784Y790573D01*
X429382Y790757*
X429113*
X428710Y790573*
X428442Y790019*
X428308Y789096*
Y788174*
X428442Y787436*
X428710Y787066*
X429113Y786882*
X429247*
X429650Y787066*
X429918Y787436*
X430053Y787989*
Y788174*
X429918Y788727*
X429650Y789096*
X429247Y789281*
X429113*
X428710Y789096*
X428442Y788727*
X428308Y788174*
X563214Y696654D02*
X563080Y697023D01*
X562811Y697392*
X562543Y697576*
X562006*
X561738Y697392*
X561469Y697023*
X561335Y696654*
X561201Y696100*
Y695177*
X561335Y694624*
X561469Y694254*
X561738Y693885*
X562006Y693701*
X562543*
X562811Y693885*
X563080Y694254*
X563214Y694624*
X566301Y697576D02*
X564959Y693701D01*
X564422Y697576D02*
X566301D01*
X442094Y610600D02*
Y606724D01*
Y610600D02*
X443302D01*
X443705Y610415*
X443839Y610231*
X443974Y609862*
Y609493*
X443839Y609124*
X443705Y608939*
X443302Y608754*
X442094*
X443034D02*
X443974Y606724D01*
X445316Y609677D02*
Y609862D01*
X445450Y610231*
X445584Y610415*
X445853Y610600*
X446389*
X446658Y610415*
X446792Y610231*
X446926Y609862*
Y609493*
X446792Y609124*
X446524Y608570*
X445181Y606724*
X447060*
X442094Y625718D02*
Y621843D01*
Y625718D02*
X443302D01*
X443705Y625533*
X443839Y625349*
X443974Y624980*
Y624611*
X443839Y624242*
X443705Y624057*
X443302Y623873*
X442094*
X443034D02*
X443974Y621843D01*
X445450Y625718D02*
X446926D01*
X446121Y624242*
X446524*
X446792Y624057*
X446926Y623873*
X447060Y623319*
Y622950*
X446926Y622396*
X446658Y622027*
X446255Y621843*
X445853*
X445450Y622027*
X445316Y622212*
X445181Y622581*
X398712Y803356D02*
Y800403D01*
X398578Y799849*
X398444Y799665*
X398175Y799480*
X397907*
X397639Y799665*
X397504Y799849*
X397370Y800403*
Y800772*
X399920Y802618D02*
X400189Y802802D01*
X400591Y803356*
Y799480*
X597925Y845718D02*
Y842765D01*
X597791Y842212*
X597656Y842027*
X597388Y841843*
X597120*
X596851Y842027*
X596717Y842212*
X596583Y842765*
Y843134*
X599267Y844795D02*
Y844980D01*
X599401Y845349*
X599535Y845533*
X599804Y845718*
X600341*
X600609Y845533*
X600743Y845349*
X600878Y844980*
Y844611*
X600743Y844242*
X600475Y843688*
X599133Y841843*
X601012*
X571132Y779953D02*
X575008D01*
X571132D02*
Y781161D01*
X571317Y781563*
X571501Y781698*
X571871Y781832*
X572240*
X572609Y781698*
X572793Y781563*
X572978Y781161*
Y779953*
Y780892D02*
X575008Y781832D01*
X571132Y784382D02*
X573716Y783040D01*
Y785053*
X571132Y784382D02*
X575008D01*
X581211Y779953D02*
X585087D01*
X581211D02*
Y781161D01*
X581396Y781563*
X581580Y781698*
X581949Y781832*
X582318*
X582687Y781698*
X582687D02*
X582872Y781563D01*
X583057Y781161*
Y779953*
Y780892D02*
X585087Y781832D01*
X581211Y784785D02*
Y783442D01*
X582872Y783308*
X582687Y783442*
X582687D02*
X582503Y783845D01*
Y784248*
X582687Y784650*
X582687D02*
X583057Y784919D01*
X583610Y785053*
X583979Y784919*
X584533Y784785*
X584902Y784516*
X585087Y784113*
Y783711*
X584902Y783308*
X584718Y783174*
X584348Y783040*
X455953Y800206D02*
Y797438D01*
X456087Y796884*
X456355Y796515*
X456758Y796331*
X457026*
X457429Y796515*
X457698Y796884*
X457832Y797438*
Y800206*
X459174Y799283D02*
Y799468D01*
X459308Y799837*
X459442Y800022*
X459711Y800206*
X460248*
X460516Y800022*
X460650Y799837*
X460785Y799468*
Y799099*
X460650Y798730*
X460382Y798176*
X459040Y796331*
X460919*
X617213Y761151D02*
Y758383D01*
X617347Y757829*
X617615Y757460*
X618018Y757276*
X618286*
X618689Y757460*
X618957Y757829*
X619092Y758383*
Y761151*
X620568D02*
X622044D01*
X621239Y759675*
X621642*
X621910Y759490*
X622044Y759306*
X622179Y758752*
Y758383*
X622044Y757829*
X621776Y757460*
X621373Y757276*
X620971*
X620568Y757460*
X620434Y757645*
X620300Y758014*
X614693Y800206D02*
Y796331D01*
Y800206D02*
X615901D01*
X616304Y800022*
X616438Y799837*
X616572Y799468*
Y799099*
X616438Y798730*
X616304Y798545*
X615901Y798361*
X614693*
X615632D02*
X616572Y796331D01*
X619390Y799653D02*
X619256Y800022D01*
X618854Y800206*
X618585*
X618183Y800022*
X617914Y799468*
X617780Y798545*
Y797623*
X617914Y796884*
X618183Y796515*
X618585Y796331*
X618719*
X619122Y796515*
X619390Y796884*
X619525Y797438*
Y797623*
X619390Y798176*
X619122Y798545*
X618719Y798730*
X618585*
X618183Y798545*
X617914Y798176*
X617780Y797623*
X612370Y729053D02*
X612001Y728918D01*
X611632Y728650*
X611447Y728382*
Y727845*
X611632Y727576*
X612001Y727308*
X612370Y727174*
X612924Y727039*
X613846*
X614400Y727174*
X614769Y727308*
X615138Y727576*
X615323Y727845*
Y728382*
X615138Y728650*
X614769Y728918*
X614400Y729053*
X611447Y730932D02*
X611632Y730529D01*
X612001Y730395*
X612370*
X612739Y730529*
X612924Y730797*
X613108Y731334*
X613293Y731737*
X613662Y732005*
X614031Y732140*
X614585*
X614954Y732005*
X615138Y731871*
X615323Y731469*
Y730932*
X615138Y730529*
X614954Y730395*
X614585Y730261*
X614031*
X613662Y730395*
X613293Y730663*
X613108Y731066*
X612924Y731603*
X612739Y731871*
X612370Y732005*
X612001*
X611632Y731871*
X611447Y731469*
Y730932*
X469715Y764835D02*
X473591D01*
X469715D02*
Y766043D01*
X469900Y766445*
X470084Y766579*
X470453Y766714*
X470822*
X471191Y766579*
X471376Y766445*
X471561Y766043*
Y764835*
Y765774D02*
X473591Y766714D01*
X469715Y769801D02*
X473591Y768458D01*
X469715Y767922D02*
Y769801D01*
X426346Y805246D02*
Y801370D01*
Y805246D02*
X427286D01*
X427689Y805061*
X427957Y804692*
X428091Y804323*
X428225Y803769*
Y802846*
X428091Y802293*
X427957Y801924*
X427689Y801555*
X427286Y801370*
X426346*
X430776Y805246D02*
X429433Y802662D01*
X431447*
X430776Y805246D02*
Y801370D01*
X625402Y600521D02*
Y597753D01*
X625536Y597199*
X625804Y596830*
X626207Y596646*
X626475*
X626878Y596830*
X627146Y597199*
X627281Y597753*
Y600521*
X629831D02*
X628489Y597938D01*
X630502*
X629831Y600521D02*
Y596646D01*
X398082Y751702D02*
Y748750D01*
X397948Y748196*
X397814Y748011*
X397545Y747827*
X397277*
X397009Y748011*
X396874Y748196*
X396740Y748750*
Y749119*
X400632Y751702D02*
X399290Y749119D01*
X401304*
X400632Y751702D02*
Y747827D01*
X397452Y700679D02*
Y697726D01*
X397318Y697172*
X397184Y696988*
X396916Y696803*
X396647*
X396379Y696988*
X396244Y697172*
X396110Y697726*
Y698095*
X400405Y700679D02*
X399063D01*
X398929Y699018*
X399063Y699202*
X399466Y699387*
X399868*
X400271Y699202*
X400539Y698833*
X400674Y698280*
X400539Y697910*
X400405Y697357*
X400137Y696988*
X399734Y696803*
X399331*
X398929Y696988*
X398795Y697172*
X398660Y697541*
X398082Y649655D02*
Y646702D01*
X397948Y646149*
X397814Y645964*
X397545Y645780*
X397277*
X397009Y645964*
X396874Y646149*
X396740Y646702*
Y647071*
X400901Y649101D02*
X400767Y649470D01*
X400364Y649655*
X400096*
X399693Y649470*
X399424Y648917*
X399290Y647994*
Y647071*
X399424Y646333*
X399693Y645964*
X400096Y645780*
X400230*
X400632Y645964*
X400901Y646333*
X401035Y646887*
Y647071*
X400901Y647625*
X400632Y647994*
X400230Y648179*
X400096*
X399693Y647994*
X399424Y647625*
X399290Y647071*
X547543Y585076D02*
Y582124D01*
X547409Y581570*
X547275Y581385*
X547006Y581201*
X546738*
X546469Y581385*
X546335Y581570*
X546201Y582124*
Y582493*
X549019Y585076D02*
X550496D01*
X549690Y583600*
X550093*
X550361Y583415*
X550496Y583231*
X550630Y582677*
Y582308*
X550496Y581754*
X550227Y581385*
X549825Y581201*
X549422*
X549019Y581385*
X548885Y581570*
X548751Y581939*
X549264Y786978D02*
Y784025D01*
X549129Y783471*
X548995Y783287*
X548727Y783102*
X548458*
X548190Y783287*
X548056Y783471*
X547921Y784025*
Y784394*
X552351Y786978D02*
X551008Y783102D01*
X550472Y786978D02*
X552351D01*
X456940Y452489D02*
X456490Y452560D01*
X456074Y452406*
X455695Y452026*
X455541Y451611*
X455612Y451160*
X455873Y450899*
X456229Y450733*
X456454Y450697*
X456774Y450757*
X457605Y451065*
X457925Y451124*
X458150Y451089*
X458506Y450923*
X458898Y450531*
X458969Y450080*
X458815Y449665*
X458435Y449286*
X458020Y449131*
X457569Y449203*
X458150Y453177D02*
X458020Y453307D01*
X457854Y453663*
X457818Y453888*
X457878Y454209*
X458257Y454588*
X458578Y454648*
X458803Y454612*
X459159Y454446*
X459420Y454185*
X459586Y453829*
X459788Y453248*
X460143Y450994*
X461472Y452323*
X509840Y447133D02*
X509571Y447502D01*
X509169Y447687*
X508632*
X508229Y447502*
X507961Y447133*
Y446764*
X508095Y446395*
X508229Y446210*
X508497Y446026*
X509303Y445656*
X509571Y445472*
X509705Y445287*
X509840Y444918*
Y444365*
X509571Y443996*
X509169Y443811*
X508632*
X508229Y443996*
X507961Y444365*
X511316Y447687D02*
X512792D01*
X511987Y446210*
X512390*
X512658Y446026*
X512792Y445841*
X512927Y445287*
Y444918*
X512792Y444365*
X512524Y443996*
X512121Y443811*
X511719*
X511316Y443996*
X511182Y444180*
X511048Y444549*
X584840Y447133D02*
X584571Y447502D01*
X584169Y447687*
X583632*
X583229Y447502*
X582961Y447133*
Y446764*
X583095Y446395*
X583229Y446210*
X583497Y446026*
X584303Y445656*
X584571Y445472*
X584705Y445287*
X584840Y444918*
Y444365*
X584571Y443996*
X584169Y443811*
X583632*
X583229Y443996*
X582961Y444365*
X587390Y447687D02*
X586048Y445103D01*
X588061*
X587390Y447687D02*
Y443811D01*
X544951Y545076D02*
Y542308D01*
X545085Y541754*
X545353Y541385*
X545756Y541201*
X546025*
X546427Y541385*
X546696Y541754*
X546830Y542308*
Y545076*
X549783D02*
X548440D01*
X548306Y543415*
X548440Y543600*
X548843Y543784*
X549246*
X549648Y543600*
X549917Y543231*
X550051Y542677*
X549917Y542308*
X549783Y541754*
X549514Y541385*
X549111Y541201*
X548709*
X548306Y541385*
X548172Y541570*
X548038Y541939*
X602084Y783275D02*
X601815Y783644D01*
X601413Y783828*
X600876*
X600473Y783644*
X600205Y783275*
Y782906*
X600339Y782536*
X600473Y782352*
X600742Y782167*
X601547Y781798*
X601815Y781614*
X601950Y781429*
X602084Y781060*
Y780506*
X601815Y780137*
X601413Y779953*
X600876*
X600473Y780137*
X600205Y780506*
X605037Y783828D02*
X603694D01*
X603560Y782167*
X603694Y782352*
X604097Y782536*
X604500*
X604902Y782352*
X605171Y781983*
X605305Y781429*
X605171Y781060*
X605037Y780506*
X604768Y780137*
X604365Y779953*
X603963*
X603560Y780137*
X603426Y780322*
X603292Y780691*
X627366Y512222D02*
Y509269D01*
X627232Y508716*
X627097Y508531*
X626829Y508346*
X626560*
X626292Y508531*
X626158Y508716*
X626024Y509269*
Y509638*
X629245Y512222D02*
X628842Y512037D01*
X628708Y511668*
Y511299*
X628842Y510930*
X629111Y510746*
X629647Y510561*
X630050Y510376*
X630319Y510007*
X630453Y509638*
Y509085*
X630319Y508716*
X630184Y508531*
X629782Y508346*
X629245*
X628842Y508531*
X628708Y508716*
X628574Y509085*
Y509638*
X628708Y510007*
X628976Y510376*
X629379Y510561*
X629916Y510746*
X630184Y510930*
X630319Y511299*
Y511668*
X630184Y512037*
X629782Y512222*
X629245*
X626736Y542458D02*
Y539505D01*
X626602Y538952*
X626467Y538767*
X626199Y538583*
X625931*
X625662Y538767*
X625528Y538952*
X625394Y539505*
Y539875*
X629689Y541166D02*
X629554Y540613D01*
X629286Y540244*
X628883Y540059*
X628749*
X628346Y540244*
X628078Y540613*
X627944Y541166*
Y541351*
X628078Y541905*
X628346Y542274*
X628749Y542458*
X628883*
X629286Y542274*
X629554Y541905*
X629689Y541166*
Y540244*
X629554Y539321*
X629286Y538767*
X628883Y538583*
X628615*
X628212Y538767*
X628078Y539136*
X401150Y610600D02*
Y606724D01*
Y610600D02*
X402089D01*
X402492Y610415*
X402760Y610046*
X402894Y609677*
X403029Y609124*
Y608201*
X402894Y607647*
X402760Y607278*
X402492Y606909*
X402089Y606724*
X401150*
X404237Y609862D02*
X404505Y610046D01*
X404908Y610600*
Y606724*
X400520Y625088D02*
Y621213D01*
Y625088D02*
X401459D01*
X401862Y624904*
X402130Y624534*
X402264Y624165*
X402399Y623612*
Y622689*
X402264Y622135*
X402130Y621766*
X401862Y621397*
X401459Y621213*
X400520*
X403741Y624165D02*
Y624350D01*
X403875Y624719*
X404009Y624904*
X404278Y625088*
X404815*
X405083Y624904*
X405217Y624719*
X405351Y624350*
Y623981*
X405217Y623612*
X404949Y623058*
X403607Y621213*
X405486*
X598315Y800206D02*
Y796331D01*
Y800206D02*
X599254D01*
X599657Y800022*
X599926Y799653*
X600060Y799283*
X600194Y798730*
Y797807*
X600060Y797253*
X599926Y796884*
X599657Y796515*
X599254Y796331*
X598315*
X601670Y800206D02*
X603147D01*
X602341Y798730*
X602744*
X603013Y798545*
X603147Y798361*
X603281Y797807*
Y797438*
X603147Y796884*
X602878Y796515*
X602476Y796331*
X602073*
X601670Y796515*
X601536Y796700*
X601402Y797069*
X629983Y700909D02*
X632936D01*
X633489Y700775*
X633674Y700641*
X633858Y700372*
Y700104*
X633674Y699835*
X633489Y699701*
X632936Y699567*
X632566*
X630721Y702117D02*
X630536Y702385D01*
X629983Y702788*
X633858*
X629983Y704801D02*
X630167Y704399D01*
X630721Y704130*
X631644Y703996*
X632197*
X633120Y704130*
X633674Y704399*
X633858Y704801*
Y705070*
X633674Y705472*
X633120Y705741*
X632197Y705875*
X631644*
X630721Y705741*
X630167Y705472*
X629983Y705070*
Y704801*
X442205Y594742D02*
Y590866D01*
Y594742D02*
X443413D01*
X443815Y594557*
X443950Y594373*
X444084Y594003*
Y593634*
X443950Y593265*
X443815Y593081*
X443413Y592896*
X442205*
X443144D02*
X444084Y590866D01*
X445963Y594742D02*
X445560Y594557D01*
X445426Y594188*
Y593819*
X445560Y593450*
X445829Y593265*
X446365Y593081*
X446768Y592896*
X447037Y592527*
X447171Y592158*
Y591604*
X447037Y591235*
X446902Y591051*
X446500Y590866*
X445963*
X445560Y591051*
X445426Y591235*
X445292Y591604*
Y592158*
X445426Y592527*
X445694Y592896*
X446097Y593081*
X446634Y593265*
X446902Y593450*
X447037Y593819*
Y594188*
X446902Y594557*
X446500Y594742*
X445963*
X502325Y596201D02*
X505094D01*
X505647Y596335*
X506016Y596603*
X506201Y597006*
Y597275*
X506016Y597677*
X505647Y597946*
X505094Y598080*
X502325*
X502879Y600898D02*
X502510Y600764D01*
X502325Y600361*
Y600093*
X502510Y599690*
X503063Y599422*
X503986Y599288*
X504909*
X505647Y599422*
X506016Y599690*
X506201Y600093*
Y600227*
X506016Y600630*
X505647Y600898*
X505094Y601033*
X504909*
X504355Y600898*
X503986Y600630*
X503802Y600227*
Y600093*
X503986Y599690*
X504355Y599422*
X504909Y599288*
X527451Y502325D02*
Y506201D01*
Y502325D02*
X526511D01*
X526109Y502510*
X525840Y502879*
X525706Y503248*
X525572Y503802*
Y504724*
X525706Y505278*
X525840Y505647*
X526109Y506016*
X526511Y506201*
X527451*
X524364Y503063D02*
X524095Y502879D01*
X523693Y502325*
Y506201*
X521679Y502325D02*
X522082Y502510D01*
X522351Y503063*
X522485Y503986*
Y504540*
X522351Y505463*
X522082Y506016*
X521679Y506201*
X521411*
X521008Y506016*
X520740Y505463*
X520606Y504540*
Y503986*
X520740Y503063*
X521008Y502510*
X521411Y502325*
X521679*
X547691Y512210D02*
X544951Y514951D01*
X547691Y512210D02*
X547027Y511546D01*
X546612Y511392*
X546161Y511463*
X545805Y511629*
X545319Y511926*
X544666Y512578*
X544369Y513065*
X544203Y513420*
X544132Y513871*
X544286Y514286*
X544951Y514951*
X544986Y510550D02*
X544927Y510229D01*
X545034Y509553*
X542293Y512293*
X543658Y509221D02*
X543598Y508901D01*
X543705Y508224*
X540965Y510965*
X555076Y537451D02*
X551201D01*
X555076D02*
Y536511D01*
X554892Y536109*
X554523Y535840*
X554154Y535706*
X553600Y535572*
X552677*
X552124Y535706*
X551754Y535840*
X551385Y536109*
X551201Y536511*
Y537451*
X554338Y534364D02*
X554523Y534095D01*
X555076Y533693*
X551201*
X554154Y532351D02*
X554338D01*
X554707Y532216*
X554892Y532082*
X555076Y531814*
Y531277*
X554892Y531008*
X554707Y530874*
X554338Y530740*
X553969*
X553600Y530874*
X553046Y531143*
X551201Y532485*
Y530606*
X545191Y557691D02*
X542451Y554951D01*
X545191Y557691D02*
X545856Y557027D01*
X546010Y556612*
X545939Y556161*
X545772Y555805*
X545476Y555319*
X544823Y554666*
X544337Y554369*
X543981Y554203*
X543530Y554132*
X543115Y554286*
X542451Y554951*
X548608Y554275D02*
X547659Y555224D01*
X546389Y554144*
X546615Y554180*
X547030Y554025*
X547315Y553741*
X547469Y553326*
X547398Y552875*
X547101Y552388*
X546745Y552222*
X546259Y551926*
X545808Y551855*
X545393Y552009*
X545108Y552293*
X544954Y552709*
X544989Y552934*
X545156Y553290*
X521201Y565864D02*
Y561988D01*
Y565864D02*
X522140D01*
X522543Y565679*
X522811Y565310*
X522946Y564941*
X523080Y564387*
Y563465*
X522946Y562911*
X522811Y562542*
X522543Y562173*
X522140Y561988*
X521201*
X525898Y565310D02*
X525764Y565679D01*
X525361Y565864*
X525093*
X524690Y565679*
X524422Y565125*
X524288Y564203*
Y563280*
X524422Y562542*
X524690Y562173*
X525093Y561988*
X525227*
X525630Y562173*
X525898Y562542*
X526033Y563095*
Y563280*
X525898Y563834*
X525630Y564203*
X525227Y564387*
X525093*
X524690Y564203*
X524422Y563834*
X524288Y563280*
X499710Y555191D02*
X502451Y552451D01*
X499710Y555191D02*
X500375Y555856D01*
X500790Y556010*
X501241Y555939*
X501597Y555772*
X502083Y555476*
X502736Y554823*
X503032Y554337*
X503198Y553981*
X503269Y553530*
X503115Y553115*
X502451Y552451*
X503222Y558703D02*
X505013Y555013D01*
X501893Y557374D02*
X503222Y558703D01*
X493575Y531201D02*
X497451D01*
X493575D02*
Y532140D01*
X493760Y532543*
X494129Y532811*
X494498Y532946*
X495052Y533080*
X495974*
X496528Y532946*
X496897Y532811*
X497266Y532543*
X497451Y532140*
Y531201*
X493575Y534959D02*
X493760Y534556D01*
X494129Y534422*
X494498*
X494867Y534556*
X495052Y534825*
X495236Y535361*
X495421Y535764*
X495790Y536033*
X496159Y536167*
X496713*
X497082Y536033*
X497266Y535898*
X497451Y535496*
Y534959*
X497266Y534556*
X497082Y534422*
X496713Y534288*
X496159*
X495790Y534422*
X495421Y534690*
X495236Y535093*
X495052Y535630*
X494867Y535898*
X494498Y536033*
X494129*
X493760Y535898*
X493575Y535496*
Y534959*
X502210Y509710D02*
X504951Y512451D01*
X502210Y509710D02*
X501546Y510375D01*
X501392Y510790*
X501463Y511241*
X501629Y511597*
X501926Y512083*
X502578Y512736*
X503065Y513032*
X503420Y513198*
X503871Y513269*
X504286Y513115*
X504951Y512451*
X499707Y514040D02*
X500194Y514337D01*
X500644Y514408*
X501060Y514254*
X501155Y514159*
X501309Y513744*
X501238Y513293*
X500941Y512807*
X500811Y512676*
X500324Y512380*
X499873Y512308*
X499458Y512463*
X499363Y512558*
X499209Y512973*
X499280Y513424*
X499707Y514040*
X500360Y514693*
X501107Y515250*
X501688Y515452*
X502104Y515298*
X502293Y515108*
X502448Y514693*
X502282Y514337*
X561201Y682576D02*
Y678701D01*
Y682576D02*
X562409D01*
X562811Y682392*
X562946Y682207*
X563080Y681838*
Y681469*
X562946Y681100*
X562811Y680915*
X562409Y680731*
X561201*
X562140D02*
X563080Y678701D01*
X564288Y681838D02*
X564556Y682023D01*
X564959Y682576*
Y678701*
X566972Y682576D02*
X566569Y682392D01*
X566301Y681838*
X566167Y680915*
Y680362*
X566301Y679439*
X566569Y678885*
X566972Y678701*
X567241*
X567643Y678885*
X567912Y679439*
X568046Y680362*
Y680915*
X567912Y681838*
X567643Y682392*
X567241Y682576*
X566972*
X437451Y520076D02*
Y516201D01*
Y520076D02*
X438659D01*
X439061Y519892*
X439196Y519707*
X439330Y519338*
Y518969*
X439196Y518600*
X439061Y518415*
X438659Y518231*
X437451*
X438390D02*
X439330Y516201D01*
X440538Y519338D02*
X440806Y519523D01*
X441209Y520076*
Y516201*
X442417Y519338D02*
X442685Y519523D01*
X443088Y520076*
Y516201*
X492325Y543701D02*
X496201D01*
X492325D02*
Y544909D01*
X492510Y545311*
X492694Y545446*
X493063Y545580*
X493433*
X493802Y545446*
X493986Y545311*
X494171Y544909*
Y543701*
Y544640D02*
X496201Y545580D01*
X493063Y546788D02*
X492879Y547056D01*
X492325Y547459*
X496201*
X493248Y548801D02*
X493063D01*
X492694Y548935*
X492510Y549069*
X492325Y549338*
Y549875*
X492510Y550143*
X492694Y550277*
X493063Y550412*
X493433*
X493802Y550277*
X494355Y550009*
X496201Y548667*
Y550546*
X482325Y543701D02*
X486201D01*
X482325D02*
Y544909D01*
X482510Y545311*
X482694Y545446*
X483063Y545580*
X483433*
X483802Y545446*
X483986Y545311*
X484171Y544909*
Y543701*
Y544640D02*
X486201Y545580D01*
X483063Y546788D02*
X482879Y547056D01*
X482325Y547459*
X486201*
X482325Y548935D02*
Y550412D01*
X483802Y549606*
Y550009*
X483986Y550277*
X484171Y550412*
X484724Y550546*
X485094*
X485647Y550412*
X486016Y550143*
X486201Y549741*
Y549338*
X486016Y548935*
X485832Y548801*
X485463Y548667*
X472325Y543701D02*
X476201D01*
X472325D02*
Y544909D01*
X472510Y545311*
X472694Y545446*
X473063Y545580*
X473433*
X473802Y545446*
X473986Y545311*
X474171Y544909*
Y543701*
Y544640D02*
X476201Y545580D01*
X473063Y546788D02*
X472879Y547056D01*
X472325Y547459*
X476201*
X472325Y550009D02*
X474909Y548667D01*
Y550680*
X472325Y550009D02*
X476201D01*
X462325Y543701D02*
X466201D01*
X462325D02*
Y544909D01*
X462510Y545311*
X462694Y545446*
X463063Y545580*
X463433*
X463802Y545446*
X463986Y545311*
X464171Y544909*
Y543701*
Y544640D02*
X466201Y545580D01*
X463063Y546788D02*
X462879Y547056D01*
X462325Y547459*
X466201*
X462325Y550412D02*
Y549069D01*
X463986Y548935*
X463802Y549069*
X463617Y549472*
Y549875*
X463802Y550277*
X464171Y550546*
X464724Y550680*
X465094Y550546*
X465647Y550412*
X466016Y550143*
X466201Y549741*
Y549338*
X466016Y548935*
X465832Y548801*
X465463Y548667*
X487325Y518701D02*
X491201D01*
X487325D02*
Y519909D01*
X487510Y520311*
X487694Y520446*
X488063Y520580*
X488433*
X488802Y520446*
X488986Y520311*
X489171Y519909*
Y518701*
Y519640D02*
X491201Y520580D01*
X488063Y521788D02*
X487879Y522056D01*
X487325Y522459*
X491201*
X487879Y525277D02*
X487510Y525143D01*
X487325Y524741*
Y524472*
X487510Y524069*
X488063Y523801*
X488986Y523667*
X489909*
X490647Y523801*
X491016Y524069*
X491201Y524472*
Y524606*
X491016Y525009*
X490647Y525277*
X490094Y525412*
X489909*
X489355Y525277*
X488986Y525009*
X488802Y524606*
Y524472*
X488986Y524069*
X489355Y523801*
X489909Y523667*
X477325Y518701D02*
X481201D01*
X477325D02*
Y519909D01*
X477510Y520311*
X477694Y520446*
X478063Y520580*
X478433*
X478802Y520446*
X478986Y520311*
X479171Y519909*
Y518701*
Y519640D02*
X481201Y520580D01*
X478063Y521788D02*
X477879Y522056D01*
X477325Y522459*
X481201*
X477325Y525546D02*
X481201Y524204D01*
X477325Y523667D02*
Y525546D01*
X467325Y518701D02*
X471201D01*
X467325D02*
Y519909D01*
X467510Y520311*
X467694Y520446*
X468063Y520580*
X468433*
X468802Y520446*
X468986Y520311*
X469171Y519909*
Y518701*
Y519640D02*
X471201Y520580D01*
X468063Y521788D02*
X467879Y522056D01*
X467325Y522459*
X471201*
X467325Y524338D02*
X467510Y523935D01*
X467879Y523801*
X468248*
X468617Y523935*
X468802Y524204*
X468986Y524741*
X469171Y525143*
X469540Y525412*
X469909Y525546*
X470463*
X470832Y525412*
X471016Y525277*
X471201Y524875*
Y524338*
X471016Y523935*
X470832Y523801*
X470463Y523667*
X469909*
X469540Y523801*
X469171Y524069*
X468986Y524472*
X468802Y525009*
X468617Y525277*
X468248Y525412*
X467879*
X467510Y525277*
X467325Y524875*
Y524338*
X457325Y518701D02*
X461201D01*
X457325D02*
Y519909D01*
X457510Y520311*
X457694Y520446*
X458063Y520580*
X458433*
X458802Y520446*
X458986Y520311*
X459171Y519909*
Y518701*
Y519640D02*
X461201Y520580D01*
X458063Y521788D02*
X457879Y522056D01*
X457325Y522459*
X461201*
X458617Y525412D02*
X459171Y525277D01*
X459540Y525009*
X459724Y524606*
Y524472*
X459540Y524069*
X459171Y523801*
X458617Y523667*
X458433*
X457879Y523801*
X457510Y524069*
X457325Y524472*
Y524606*
X457510Y525009*
X457879Y525277*
X458617Y525412*
X459540*
X460463Y525277*
X461016Y525009*
X461201Y524606*
Y524338*
X461016Y523935*
X460647Y523801*
X502325Y613701D02*
X506201D01*
X502325D02*
Y614909D01*
X502510Y615311*
X502694Y615446*
X503063Y615580*
X503433*
X503802Y615446*
X503986Y615311*
X504171Y614909*
Y613701*
Y614640D02*
X506201Y615580D01*
X503248Y616922D02*
X503063D01*
X502694Y617056*
X502510Y617190*
X502325Y617459*
Y617996*
X502510Y618264*
X502694Y618398*
X503063Y618533*
X503433*
X503802Y618398*
X504355Y618130*
X506201Y616788*
Y618667*
X502325Y620680D02*
X502510Y620277D01*
X503063Y620009*
X503986Y619875*
X504540*
X505463Y620009*
X506016Y620277*
X506201Y620680*
Y620948*
X506016Y621351*
X505463Y621620*
X504540Y621754*
X503986*
X503063Y621620*
X502510Y621351*
X502325Y620948*
Y620680*
X576201Y682576D02*
Y678701D01*
Y682576D02*
X577409D01*
X577811Y682392*
X577946Y682207*
X578080Y681838*
Y681469*
X577946Y681100*
X577811Y680915*
X577409Y680731*
X576201*
X577140D02*
X578080Y678701D01*
X581033Y681284D02*
X580898Y680731D01*
X580630Y680362*
X580227Y680177*
X580093*
X579690Y680362*
X579422Y680731*
X579288Y681284*
Y681469*
X579422Y682023*
X579690Y682392*
X580093Y682576*
X580227*
X580630Y682392*
X580898Y682023*
X581033Y681284*
Y680362*
X580898Y679439*
X580630Y678885*
X580227Y678701*
X579959*
X579556Y678885*
X579422Y679254*
X421159Y803273D02*
Y799951D01*
X419951Y801612D02*
X422367D01*
G54D18*
X427961Y663811D02*
Y703811D01*
Y723811D02*
Y763811D01*
X653701Y563811D02*
Y558811D01*
Y513811D02*
Y518811D01*
G54D74*
X542961Y578811D02*
X502961D01*
Y588811*
X542961*
Y578811*
X538709Y589717D02*
X540677Y591685D01*
X536740*
X538709Y589717*
G74*
X0Y0D02*
M02*
